%TF.GenerationSoftware,KiCad,Pcbnew,9.0.7*%
%TF.CreationDate,2026-05-25T14:52:45+02:00*%
%TF.ProjectId,DreamCrusher-breakout-external,44726561-6d43-4727-9573-6865722d6272,A*%
%TF.SameCoordinates,Original*%
%TF.FileFunction,Soldermask,Bot*%
%TF.FilePolarity,Negative*%
%FSLAX46Y46*%
G04 Gerber Fmt 4.6, Leading zero omitted, Abs format (unit mm)*
G04 Created by KiCad (PCBNEW 9.0.7) date 2026-05-25 14:52:45*
%MOMM*%
%LPD*%
G01*
G04 APERTURE LIST*
G04 Aperture macros list*
%AMRoundRect*
0 Rectangle with rounded corners*
0 $1 Rounding radius*
0 $2 $3 $4 $5 $6 $7 $8 $9 X,Y pos of 4 corners*
0 Add a 4 corners polygon primitive as box body*
4,1,4,$2,$3,$4,$5,$6,$7,$8,$9,$2,$3,0*
0 Add four circle primitives for the rounded corners*
1,1,$1+$1,$2,$3*
1,1,$1+$1,$4,$5*
1,1,$1+$1,$6,$7*
1,1,$1+$1,$8,$9*
0 Add four rect primitives between the rounded corners*
20,1,$1+$1,$2,$3,$4,$5,0*
20,1,$1+$1,$4,$5,$6,$7,0*
20,1,$1+$1,$6,$7,$8,$9,0*
20,1,$1+$1,$8,$9,$2,$3,0*%
%AMHorizOval*
0 Thick line with rounded ends*
0 $1 width*
0 $2 $3 position (X,Y) of the first rounded end (center of the circle)*
0 $4 $5 position (X,Y) of the second rounded end (center of the circle)*
0 Add line between two ends*
20,1,$1,$2,$3,$4,$5,0*
0 Add two circle primitives to create the rounded ends*
1,1,$1,$2,$3*
1,1,$1,$4,$5*%
%AMRotRect*
0 Rectangle, with rotation*
0 The origin of the aperture is its center*
0 $1 length*
0 $2 width*
0 $3 Rotation angle, in degrees counterclockwise*
0 Add horizontal line*
21,1,$1,$2,0,0,$3*%
G04 Aperture macros list end*
%ADD10C,3.200000*%
%ADD11C,6.400000*%
%ADD12C,5.300000*%
%ADD13C,10.600000*%
%ADD14C,1.700000*%
%ADD15HorizOval,1.700000X0.000000X0.000000X0.000000X0.000000X0*%
%ADD16HorizOval,1.700000X0.000000X0.000000X0.000000X0.000000X0*%
%ADD17RotRect,2.600000X2.600000X135.000000*%
%ADD18C,2.600000*%
%ADD19HorizOval,1.700000X0.000000X0.000000X0.000000X0.000000X0*%
%ADD20C,2.050000*%
%ADD21C,2.250000*%
%ADD22C,1.200000*%
%ADD23RoundRect,0.312500X-1.237437X-0.795495X-0.795495X-1.237437X1.237437X0.795495X0.795495X1.237437X0*%
%ADD24RoundRect,0.312500X-0.795495X1.237437X-1.237437X0.795495X0.795495X-1.237437X1.237437X-0.795495X0*%
%ADD25RoundRect,0.312500X0.795495X-1.237437X1.237437X-0.795495X-0.795495X1.237437X-1.237437X0.795495X0*%
%ADD26RoundRect,0.312500X1.237437X0.795495X0.795495X1.237437X-1.237437X-0.795495X-0.795495X-1.237437X0*%
G04 APERTURE END LIST*
D10*
%TO.C,H1*%
X121000000Y-105000000D03*
D11*
X121000000Y-105000000D03*
%TD*%
D12*
%TO.C,H4*%
X113000000Y-167000000D03*
D13*
X113000000Y-167000000D03*
%TD*%
D12*
%TO.C,H2*%
X75000000Y-105000000D03*
D13*
X75000000Y-105000000D03*
%TD*%
D12*
%TO.C,H7*%
X113000000Y-43000000D03*
D13*
X113000000Y-43000000D03*
%TD*%
D14*
%TO.C,J12*%
X138592102Y-53500000D03*
D15*
X136796051Y-55296051D03*
X136796051Y-51703949D03*
X135000000Y-53500000D03*
%TD*%
D14*
%TO.C,J9*%
X92407898Y-101796051D03*
D16*
X94203949Y-100000000D03*
X94203949Y-103592102D03*
X96000000Y-101796051D03*
%TD*%
D17*
%TO.C,J8*%
X154776308Y-75776308D03*
D18*
X151184205Y-72184205D03*
X147592103Y-68592103D03*
X144000000Y-65000000D03*
%TD*%
D14*
%TO.C,J10*%
X85819157Y-83772945D03*
D19*
X84023106Y-81976894D03*
X87615208Y-81976894D03*
X85819157Y-80180843D03*
%TD*%
D20*
%TO.C,J6*%
X113907898Y-73500000D03*
D21*
X113907898Y-77092102D03*
X117500000Y-73500000D03*
X110315796Y-73500000D03*
X113907898Y-69907898D03*
%TD*%
D20*
%TO.C,J5*%
X105422617Y-81985281D03*
D21*
X105422617Y-85577383D03*
X109014719Y-81985281D03*
X101830515Y-81985281D03*
X105422617Y-78393179D03*
%TD*%
D20*
%TO.C,J7*%
X122364896Y-65043004D03*
D21*
X122364896Y-68635106D03*
X125956998Y-65043004D03*
X118772794Y-65043004D03*
X122364896Y-61450902D03*
%TD*%
D14*
%TO.C,J11*%
X164296051Y-78796051D03*
D15*
X162500000Y-80592102D03*
X162500000Y-77000000D03*
X160703949Y-78796051D03*
%TD*%
D22*
%TO.C,J1*%
X157268303Y-83044334D03*
X155854090Y-84458548D03*
X166602113Y-93085250D03*
X165187899Y-94499464D03*
D23*
X163031223Y-91211417D03*
X161617010Y-89797204D03*
X160202796Y-88382990D03*
X158788583Y-86968777D03*
%TD*%
D22*
%TO.C,J2*%
X166955666Y-117268303D03*
X165541452Y-115854090D03*
X156914750Y-126602113D03*
X155500536Y-125187899D03*
D24*
X158788583Y-123031223D03*
X160202796Y-121617010D03*
X161617010Y-120202796D03*
X163031223Y-118788583D03*
%TD*%
D22*
%TO.C,J4*%
X123044334Y-92731697D03*
X124458548Y-94145910D03*
X133085250Y-83397887D03*
X134499464Y-84812101D03*
D25*
X131211417Y-86968777D03*
X129797204Y-88382990D03*
X128382990Y-89797204D03*
X126968777Y-91211417D03*
%TD*%
D22*
%TO.C,J3*%
X132731697Y-126955666D03*
X134145910Y-125541452D03*
X123397887Y-116914750D03*
X124812101Y-115500536D03*
D26*
X126968777Y-118788583D03*
X128382990Y-120202796D03*
X129797204Y-121617010D03*
X131211417Y-123031223D03*
%TD*%
M02*
