%TF.GenerationSoftware,KiCad,Pcbnew,9.0.7*%
%TF.CreationDate,2026-05-25T14:52:45+02:00*%
%TF.ProjectId,DreamCrusher-breakout-external,44726561-6d43-4727-9573-6865722d6272,A*%
%TF.SameCoordinates,Original*%
%TF.FileFunction,Paste,Top*%
%TF.FilePolarity,Positive*%
%FSLAX46Y46*%
G04 Gerber Fmt 4.6, Leading zero omitted, Abs format (unit mm)*
G04 Created by KiCad (PCBNEW 9.0.7) date 2026-05-25 14:52:45*
%MOMM*%
%LPD*%
G01*
G04 APERTURE LIST*
G04 Aperture macros list*
%AMRoundRect*
0 Rectangle with rounded corners*
0 $1 Rounding radius*
0 $2 $3 $4 $5 $6 $7 $8 $9 X,Y pos of 4 corners*
0 Add a 4 corners polygon primitive as box body*
4,1,4,$2,$3,$4,$5,$6,$7,$8,$9,$2,$3,0*
0 Add four circle primitives for the rounded corners*
1,1,$1+$1,$2,$3*
1,1,$1+$1,$4,$5*
1,1,$1+$1,$6,$7*
1,1,$1+$1,$8,$9*
0 Add four rect primitives between the rounded corners*
20,1,$1+$1,$2,$3,$4,$5,0*
20,1,$1+$1,$4,$5,$6,$7,0*
20,1,$1+$1,$6,$7,$8,$9,0*
20,1,$1+$1,$8,$9,$2,$3,0*%
%AMRotRect*
0 Rectangle, with rotation*
0 The origin of the aperture is its center*
0 $1 length*
0 $2 width*
0 $3 Rotation angle, in degrees counterclockwise*
0 Add horizontal line*
21,1,$1,$2,0,0,$3*%
G04 Aperture macros list end*
%ADD10RotRect,3.000000X1.000000X225.000000*%
%ADD11RoundRect,0.250000X0.650000X-1.000000X0.650000X1.000000X-0.650000X1.000000X-0.650000X-1.000000X0*%
G04 APERTURE END LIST*
D10*
%TO.C,X1*%
X141269938Y-151558984D03*
X144833756Y-147995166D03*
X139473886Y-149762932D03*
X143037704Y-146199114D03*
X137677835Y-147966881D03*
X141241653Y-144403063D03*
X135881784Y-146170830D03*
X139445602Y-142607012D03*
X134085733Y-144374779D03*
X137649551Y-140810961D03*
X132289681Y-142578728D03*
X135853500Y-139014909D03*
X130493630Y-140782676D03*
X134057448Y-137218858D03*
X128697579Y-138986625D03*
X132261397Y-135422807D03*
X126901528Y-137190574D03*
X130465346Y-133626756D03*
X125105477Y-135394523D03*
X128669295Y-131830705D03*
X123309425Y-133598471D03*
X126873243Y-130034653D03*
X121513374Y-131802420D03*
X125077192Y-128238602D03*
X119717323Y-130006369D03*
X123281141Y-126442551D03*
X117921272Y-128210318D03*
X121485090Y-124646500D03*
X116125220Y-126414267D03*
X119689039Y-122850448D03*
X114329169Y-124618215D03*
X117892987Y-121054397D03*
X112533118Y-122822164D03*
X116096936Y-119258346D03*
X110737067Y-121026113D03*
X114300885Y-117462295D03*
X108941016Y-119230062D03*
X112504834Y-115666244D03*
X107144964Y-117434010D03*
X110708782Y-113870192D03*
%TD*%
%TO.C,X2*%
X164600643Y-128228279D03*
X168164461Y-124664461D03*
X162804591Y-126432227D03*
X166368409Y-122868409D03*
X161008540Y-124636176D03*
X164572358Y-121072358D03*
X159212489Y-122840125D03*
X162776307Y-119276307D03*
X157416438Y-121044074D03*
X160980256Y-117480256D03*
X155620386Y-119248023D03*
X159184205Y-115684204D03*
X153824335Y-117451971D03*
X157388153Y-113888153D03*
X152028284Y-115655920D03*
X155592102Y-112092102D03*
X150232233Y-113859869D03*
X153796051Y-110296051D03*
X148436182Y-112063818D03*
X152000000Y-108500000D03*
X146640130Y-110267766D03*
X150203948Y-106703948D03*
X144844079Y-108471715D03*
X148407897Y-104907897D03*
X143048028Y-106675664D03*
X146611846Y-103111846D03*
X141251977Y-104879613D03*
X144815795Y-101315795D03*
X139455925Y-103083562D03*
X143019744Y-99519743D03*
X137659874Y-101287510D03*
X141223692Y-97723692D03*
X135863823Y-99491459D03*
X139427641Y-95927641D03*
X134067772Y-97695408D03*
X137631590Y-94131590D03*
X132271721Y-95899357D03*
X135835539Y-92335539D03*
X130475669Y-94103305D03*
X134039487Y-90539487D03*
%TD*%
D11*
%TO.C,D1*%
X148000000Y-86000001D03*
X148000000Y-81999999D03*
%TD*%
%TO.C,D2*%
X144000000Y-81500000D03*
X144000000Y-77500000D03*
%TD*%
M02*
