%TF.GenerationSoftware,KiCad,Pcbnew,9.0.7*%
%TF.CreationDate,2026-05-25T14:52:45+02:00*%
%TF.ProjectId,DreamCrusher-breakout-external,44726561-6d43-4727-9573-6865722d6272,A*%
%TF.SameCoordinates,Original*%
%TF.FileFunction,Legend,Top*%
%TF.FilePolarity,Positive*%
%FSLAX46Y46*%
G04 Gerber Fmt 4.6, Leading zero omitted, Abs format (unit mm)*
G04 Created by KiCad (PCBNEW 9.0.7) date 2026-05-25 14:52:45*
%MOMM*%
%LPD*%
G01*
G04 APERTURE LIST*
%ADD10C,0.200000*%
%ADD11C,0.300000*%
%ADD12C,0.150000*%
%ADD13C,0.120000*%
G04 APERTURE END LIST*
D10*
X-71614339Y-116385661D02*
X-150103192Y-194874514D01*
X-265361597Y-79616109D01*
X-186872744Y-1127256D01*
X-71614339Y-116385661D01*
D11*
X68244919Y-109297834D02*
X68072373Y-108653883D01*
X67060451Y-108925027D02*
X68992302Y-108407389D01*
X68992302Y-108407389D02*
X69238797Y-109327318D01*
X67504141Y-110580900D02*
X69435992Y-110063262D01*
X69435992Y-110063262D02*
X69633188Y-110799206D01*
X69633188Y-110799206D02*
X69590494Y-111007841D01*
X69590494Y-111007841D02*
X69523150Y-111124483D01*
X69523150Y-111124483D02*
X69363814Y-111265775D01*
X69363814Y-111265775D02*
X69087835Y-111339723D01*
X69087835Y-111339723D02*
X68879200Y-111297029D01*
X68879200Y-111297029D02*
X68762557Y-111229686D01*
X68762557Y-111229686D02*
X68621266Y-111070349D01*
X68621266Y-111070349D02*
X68424070Y-110334406D01*
X70132781Y-113031686D02*
X70175475Y-112823050D01*
X70175475Y-112823050D02*
X70101527Y-112547071D01*
X70101527Y-112547071D02*
X69935586Y-112295742D01*
X69935586Y-112295742D02*
X69702301Y-112161055D01*
X69702301Y-112161055D02*
X69493666Y-112118361D01*
X69493666Y-112118361D02*
X69101045Y-112124966D01*
X69101045Y-112124966D02*
X68825066Y-112198914D01*
X68825066Y-112198914D02*
X68481743Y-112389505D01*
X68481743Y-112389505D02*
X68322407Y-112530797D01*
X68322407Y-112530797D02*
X68187720Y-112764081D01*
X68187720Y-112764081D02*
X68169675Y-113064709D01*
X68169675Y-113064709D02*
X68218974Y-113248695D01*
X68218974Y-113248695D02*
X68384915Y-113500025D01*
X68384915Y-113500025D02*
X68501558Y-113567368D01*
X68501558Y-113567368D02*
X69145508Y-113394822D01*
X69145508Y-113394822D02*
X69046911Y-113026850D01*
X69066725Y-114204714D02*
X69313219Y-115124643D01*
X68465469Y-114168625D02*
X70569866Y-114294937D01*
X70569866Y-114294937D02*
X68810561Y-115456526D01*
X69691336Y-118375651D02*
X69550044Y-118216315D01*
X69550044Y-118216315D02*
X69451446Y-117848343D01*
X69451446Y-117848343D02*
X69494140Y-117639708D01*
X69494140Y-117639708D02*
X69561484Y-117523065D01*
X69561484Y-117523065D02*
X69720820Y-117381773D01*
X69720820Y-117381773D02*
X70272778Y-117233877D01*
X70272778Y-117233877D02*
X70481413Y-117276571D01*
X70481413Y-117276571D02*
X70598055Y-117343914D01*
X70598055Y-117343914D02*
X70739347Y-117503251D01*
X70739347Y-117503251D02*
X70837945Y-117871223D01*
X70837945Y-117871223D02*
X70795251Y-118079858D01*
X69895136Y-119504216D02*
X69937830Y-119295581D01*
X69937830Y-119295581D02*
X70005174Y-119178938D01*
X70005174Y-119178938D02*
X70164510Y-119037647D01*
X70164510Y-119037647D02*
X70716468Y-118889750D01*
X70716468Y-118889750D02*
X70925103Y-118932444D01*
X70925103Y-118932444D02*
X71041745Y-118999788D01*
X71041745Y-118999788D02*
X71183037Y-119159124D01*
X71183037Y-119159124D02*
X71256985Y-119435103D01*
X71256985Y-119435103D02*
X71214291Y-119643738D01*
X71214291Y-119643738D02*
X71146948Y-119760380D01*
X71146948Y-119760380D02*
X70987611Y-119901672D01*
X70987611Y-119901672D02*
X70435654Y-120049569D01*
X70435654Y-120049569D02*
X70227018Y-120006875D01*
X70227018Y-120006875D02*
X70110376Y-119939531D01*
X70110376Y-119939531D02*
X69969084Y-119780195D01*
X69969084Y-119780195D02*
X69895136Y-119504216D01*
X71577428Y-120631011D02*
X70289527Y-120976103D01*
X71393442Y-120680310D02*
X71510085Y-120747653D01*
X71510085Y-120747653D02*
X71651376Y-120906990D01*
X71651376Y-120906990D02*
X71725325Y-121182969D01*
X71725325Y-121182969D02*
X71682631Y-121391604D01*
X71682631Y-121391604D02*
X71523294Y-121532896D01*
X71523294Y-121532896D02*
X70511372Y-121804040D01*
X72045767Y-122378877D02*
X70757866Y-122723969D01*
X71861781Y-122428176D02*
X71978424Y-122495519D01*
X71978424Y-122495519D02*
X72119716Y-122654856D01*
X72119716Y-122654856D02*
X72193664Y-122930835D01*
X72193664Y-122930835D02*
X72150970Y-123139470D01*
X72150970Y-123139470D02*
X71991633Y-123280762D01*
X71991633Y-123280762D02*
X70979711Y-123551906D01*
X71515394Y-125183129D02*
X71374102Y-125023793D01*
X71374102Y-125023793D02*
X71275504Y-124655821D01*
X71275504Y-124655821D02*
X71318198Y-124447186D01*
X71318198Y-124447186D02*
X71477535Y-124305894D01*
X71477535Y-124305894D02*
X72213478Y-124108698D01*
X72213478Y-124108698D02*
X72422114Y-124151392D01*
X72422114Y-124151392D02*
X72563405Y-124310729D01*
X72563405Y-124310729D02*
X72662003Y-124678701D01*
X72662003Y-124678701D02*
X72619309Y-124887336D01*
X72619309Y-124887336D02*
X72459973Y-125028628D01*
X72459973Y-125028628D02*
X72275987Y-125077927D01*
X72275987Y-125077927D02*
X71845507Y-124207296D01*
X71983733Y-126930995D02*
X71842441Y-126771659D01*
X71842441Y-126771659D02*
X71743844Y-126403687D01*
X71743844Y-126403687D02*
X71786538Y-126195052D01*
X71786538Y-126195052D02*
X71853881Y-126078409D01*
X71853881Y-126078409D02*
X72013218Y-125937118D01*
X72013218Y-125937118D02*
X72565175Y-125789221D01*
X72565175Y-125789221D02*
X72773811Y-125831915D01*
X72773811Y-125831915D02*
X72890453Y-125899259D01*
X72890453Y-125899259D02*
X73031745Y-126058595D01*
X73031745Y-126058595D02*
X73130342Y-126426567D01*
X73130342Y-126426567D02*
X73087648Y-126635202D01*
X73327538Y-127162510D02*
X73524733Y-127898454D01*
X74045437Y-127265943D02*
X72389564Y-127709633D01*
X72389564Y-127709633D02*
X72230228Y-127850925D01*
X72230228Y-127850925D02*
X72187533Y-128059560D01*
X72187533Y-128059560D02*
X72236832Y-128243546D01*
X72483327Y-129163475D02*
X72526021Y-128954840D01*
X72526021Y-128954840D02*
X72593364Y-128838198D01*
X72593364Y-128838198D02*
X72752701Y-128696906D01*
X72752701Y-128696906D02*
X73304658Y-128549009D01*
X73304658Y-128549009D02*
X73513294Y-128591703D01*
X73513294Y-128591703D02*
X73629936Y-128659047D01*
X73629936Y-128659047D02*
X73771228Y-128818383D01*
X73771228Y-128818383D02*
X73845176Y-129094362D01*
X73845176Y-129094362D02*
X73802482Y-129302997D01*
X73802482Y-129302997D02*
X73735138Y-129419640D01*
X73735138Y-129419640D02*
X73575802Y-129560931D01*
X73575802Y-129560931D02*
X73023844Y-129708828D01*
X73023844Y-129708828D02*
X72815209Y-129666134D01*
X72815209Y-129666134D02*
X72698567Y-129598790D01*
X72698567Y-129598790D02*
X72557275Y-129439454D01*
X72557275Y-129439454D02*
X72483327Y-129163475D01*
X72877718Y-130635362D02*
X74165619Y-130290270D01*
X73797647Y-130388868D02*
X74006282Y-130431562D01*
X74006282Y-130431562D02*
X74122925Y-130498906D01*
X74122925Y-130498906D02*
X74264216Y-130658242D01*
X74264216Y-130658242D02*
X74313515Y-130842228D01*
X73592551Y-133303158D02*
X75524403Y-132785520D01*
X74788459Y-132982715D02*
X74929751Y-133142052D01*
X74929751Y-133142052D02*
X75028349Y-133510023D01*
X75028349Y-133510023D02*
X74985655Y-133718659D01*
X74985655Y-133718659D02*
X74918311Y-133835301D01*
X74918311Y-133835301D02*
X74758975Y-133976593D01*
X74758975Y-133976593D02*
X74207017Y-134124489D01*
X74207017Y-134124489D02*
X73998382Y-134081795D01*
X73998382Y-134081795D02*
X73881740Y-134014452D01*
X73881740Y-134014452D02*
X73740448Y-133855115D01*
X73740448Y-133855115D02*
X73641850Y-133487144D01*
X73641850Y-133487144D02*
X73684544Y-133278508D01*
X74134839Y-135327003D02*
X74177533Y-135118367D01*
X74177533Y-135118367D02*
X74244876Y-135001725D01*
X74244876Y-135001725D02*
X74404213Y-134860433D01*
X74404213Y-134860433D02*
X74956170Y-134712536D01*
X74956170Y-134712536D02*
X75164806Y-134755231D01*
X75164806Y-134755231D02*
X75281448Y-134822574D01*
X75281448Y-134822574D02*
X75422740Y-134981910D01*
X75422740Y-134981910D02*
X75496688Y-135257889D01*
X75496688Y-135257889D02*
X75453994Y-135466525D01*
X75453994Y-135466525D02*
X75386651Y-135583167D01*
X75386651Y-135583167D02*
X75227314Y-135724459D01*
X75227314Y-135724459D02*
X74675357Y-135872355D01*
X74675357Y-135872355D02*
X74466721Y-135829661D01*
X74466721Y-135829661D02*
X74350079Y-135762318D01*
X74350079Y-135762318D02*
X74208787Y-135602981D01*
X74208787Y-135602981D02*
X74134839Y-135327003D01*
X74751075Y-137626826D02*
X75762997Y-137355682D01*
X75762997Y-137355682D02*
X75922333Y-137214391D01*
X75922333Y-137214391D02*
X75965027Y-137005755D01*
X75965027Y-137005755D02*
X75866430Y-136637784D01*
X75866430Y-136637784D02*
X75725138Y-136478447D01*
X74843068Y-137602177D02*
X74701776Y-137442840D01*
X74701776Y-137442840D02*
X74578529Y-136982876D01*
X74578529Y-136982876D02*
X74621223Y-136774240D01*
X74621223Y-136774240D02*
X74780559Y-136632948D01*
X74780559Y-136632948D02*
X74964545Y-136583650D01*
X74964545Y-136583650D02*
X75173180Y-136626344D01*
X75173180Y-136626344D02*
X75314472Y-136785680D01*
X75314472Y-136785680D02*
X75437719Y-137245645D01*
X75437719Y-137245645D02*
X75579011Y-137404981D01*
X74997569Y-138546756D02*
X76285470Y-138201664D01*
X75917498Y-138300261D02*
X76126134Y-138342955D01*
X76126134Y-138342955D02*
X76242776Y-138410299D01*
X76242776Y-138410299D02*
X76384068Y-138569635D01*
X76384068Y-138569635D02*
X76433367Y-138753621D01*
X75539857Y-140570600D02*
X77471708Y-140052962D01*
X75631849Y-140545951D02*
X75490558Y-140386614D01*
X75490558Y-140386614D02*
X75391960Y-140018642D01*
X75391960Y-140018642D02*
X75434654Y-139810007D01*
X75434654Y-139810007D02*
X75501998Y-139693365D01*
X75501998Y-139693365D02*
X75661334Y-139552073D01*
X75661334Y-139552073D02*
X76213292Y-139404176D01*
X76213292Y-139404176D02*
X76421927Y-139446870D01*
X76421927Y-139446870D02*
X76538569Y-139514214D01*
X76538569Y-139514214D02*
X76679861Y-139673550D01*
X76679861Y-139673550D02*
X76778459Y-140041522D01*
X76778459Y-140041522D02*
X76735765Y-140250157D01*
X65163820Y-113919425D02*
X65022528Y-113760088D01*
X65022528Y-113760088D02*
X64923931Y-113392116D01*
X64923931Y-113392116D02*
X64966625Y-113183481D01*
X64966625Y-113183481D02*
X65125961Y-113042189D01*
X65125961Y-113042189D02*
X65861905Y-112844994D01*
X65861905Y-112844994D02*
X66070540Y-112887688D01*
X66070540Y-112887688D02*
X66211832Y-113047024D01*
X66211832Y-113047024D02*
X66310429Y-113414996D01*
X66310429Y-113414996D02*
X66267735Y-113623631D01*
X66267735Y-113623631D02*
X66108399Y-113764923D01*
X66108399Y-113764923D02*
X65924413Y-113814222D01*
X65924413Y-113814222D02*
X65493933Y-112943592D01*
X65269023Y-114680018D02*
X66828068Y-115346848D01*
X66556924Y-114334926D02*
X65540166Y-115691940D01*
X66951315Y-115806813D02*
X67148510Y-116542757D01*
X67669214Y-115910246D02*
X66013341Y-116353936D01*
X66013341Y-116353936D02*
X65854004Y-116495228D01*
X65854004Y-116495228D02*
X65811310Y-116703863D01*
X65811310Y-116703863D02*
X65860609Y-116887849D01*
X66322344Y-118243093D02*
X66181052Y-118083757D01*
X66181052Y-118083757D02*
X66082454Y-117715785D01*
X66082454Y-117715785D02*
X66125148Y-117507150D01*
X66125148Y-117507150D02*
X66284485Y-117365858D01*
X66284485Y-117365858D02*
X67020428Y-117168662D01*
X67020428Y-117168662D02*
X67229063Y-117211356D01*
X67229063Y-117211356D02*
X67370355Y-117370693D01*
X67370355Y-117370693D02*
X67468953Y-117738665D01*
X67468953Y-117738665D02*
X67426259Y-117947300D01*
X67426259Y-117947300D02*
X67266922Y-118088592D01*
X67266922Y-118088592D02*
X67082936Y-118137891D01*
X67082936Y-118137891D02*
X66652456Y-117267260D01*
X66476845Y-119187672D02*
X67764746Y-118842580D01*
X67396774Y-118941178D02*
X67605410Y-118983872D01*
X67605410Y-118983872D02*
X67722052Y-119051215D01*
X67722052Y-119051215D02*
X67863344Y-119210552D01*
X67863344Y-119210552D02*
X67912643Y-119394538D01*
X68085189Y-120038488D02*
X66797288Y-120383580D01*
X67901203Y-120087787D02*
X68017845Y-120155130D01*
X68017845Y-120155130D02*
X68159137Y-120314467D01*
X68159137Y-120314467D02*
X68233085Y-120590446D01*
X68233085Y-120590446D02*
X68190391Y-120799081D01*
X68190391Y-120799081D02*
X68031055Y-120940373D01*
X68031055Y-120940373D02*
X67019132Y-121211517D01*
X67487472Y-122959383D02*
X68499394Y-122688239D01*
X68499394Y-122688239D02*
X68658730Y-122546947D01*
X68658730Y-122546947D02*
X68701425Y-122338312D01*
X68701425Y-122338312D02*
X68602827Y-121970340D01*
X68602827Y-121970340D02*
X68461535Y-121811003D01*
X67579465Y-122934733D02*
X67438173Y-122775397D01*
X67438173Y-122775397D02*
X67314926Y-122315432D01*
X67314926Y-122315432D02*
X67357620Y-122106797D01*
X67357620Y-122106797D02*
X67516956Y-121965505D01*
X67516956Y-121965505D02*
X67700942Y-121916206D01*
X67700942Y-121916206D02*
X67909577Y-121958900D01*
X67909577Y-121958900D02*
X68050869Y-122118237D01*
X68050869Y-122118237D02*
X68174116Y-122578201D01*
X68174116Y-122578201D02*
X68315408Y-122737538D01*
X67807914Y-124155291D02*
X67850608Y-123946656D01*
X67850608Y-123946656D02*
X68009945Y-123805364D01*
X68009945Y-123805364D02*
X69665818Y-123361674D01*
X68399501Y-126363122D02*
X70331353Y-125845484D01*
X69595409Y-126042679D02*
X69736701Y-126202016D01*
X69736701Y-126202016D02*
X69835299Y-126569987D01*
X69835299Y-126569987D02*
X69792605Y-126778623D01*
X69792605Y-126778623D02*
X69725261Y-126895265D01*
X69725261Y-126895265D02*
X69565925Y-127036557D01*
X69565925Y-127036557D02*
X69013967Y-127184453D01*
X69013967Y-127184453D02*
X68805332Y-127141759D01*
X68805332Y-127141759D02*
X68688689Y-127074416D01*
X68688689Y-127074416D02*
X68547398Y-126915079D01*
X68547398Y-126915079D02*
X68448800Y-126547108D01*
X68448800Y-126547108D02*
X68491494Y-126338472D01*
X68867840Y-128110988D02*
X70155741Y-127765896D01*
X69787770Y-127864493D02*
X69996405Y-127907187D01*
X69996405Y-127907187D02*
X70113047Y-127974531D01*
X70113047Y-127974531D02*
X70254339Y-128133867D01*
X70254339Y-128133867D02*
X70303638Y-128317853D01*
X69477471Y-130018190D02*
X69336179Y-129858853D01*
X69336179Y-129858853D02*
X69237582Y-129490882D01*
X69237582Y-129490882D02*
X69280276Y-129282246D01*
X69280276Y-129282246D02*
X69439612Y-129140954D01*
X69439612Y-129140954D02*
X70175556Y-128943759D01*
X70175556Y-128943759D02*
X70384191Y-128986453D01*
X70384191Y-128986453D02*
X70525483Y-129145789D01*
X70525483Y-129145789D02*
X70624080Y-129513761D01*
X70624080Y-129513761D02*
X70581386Y-129722397D01*
X70581386Y-129722397D02*
X70422050Y-129863688D01*
X70422050Y-129863688D02*
X70238064Y-129912987D01*
X70238064Y-129912987D02*
X69807584Y-129042357D01*
X69853818Y-131790705D02*
X70865740Y-131519561D01*
X70865740Y-131519561D02*
X71025076Y-131378270D01*
X71025076Y-131378270D02*
X71067770Y-131169634D01*
X71067770Y-131169634D02*
X70969173Y-130801663D01*
X70969173Y-130801663D02*
X70827881Y-130642326D01*
X69945810Y-131766056D02*
X69804519Y-131606719D01*
X69804519Y-131606719D02*
X69681271Y-131146755D01*
X69681271Y-131146755D02*
X69723966Y-130938119D01*
X69723966Y-130938119D02*
X69883302Y-130796828D01*
X69883302Y-130796828D02*
X70067288Y-130747529D01*
X70067288Y-130747529D02*
X70275923Y-130790223D01*
X70275923Y-130790223D02*
X70417215Y-130949559D01*
X70417215Y-130949559D02*
X70540462Y-131409524D01*
X70540462Y-131409524D02*
X70681754Y-131568860D01*
X70100312Y-132710635D02*
X72032164Y-132192997D01*
X70885554Y-132697425D02*
X70297507Y-133446578D01*
X71585408Y-133101486D02*
X70652270Y-132562738D01*
X70593301Y-134550494D02*
X70635995Y-134341859D01*
X70635995Y-134341859D02*
X70703338Y-134225216D01*
X70703338Y-134225216D02*
X70862675Y-134083924D01*
X70862675Y-134083924D02*
X71414632Y-133936028D01*
X71414632Y-133936028D02*
X71623268Y-133978722D01*
X71623268Y-133978722D02*
X71739910Y-134046065D01*
X71739910Y-134046065D02*
X71881202Y-134205402D01*
X71881202Y-134205402D02*
X71955150Y-134481381D01*
X71955150Y-134481381D02*
X71912456Y-134690016D01*
X71912456Y-134690016D02*
X71845112Y-134806658D01*
X71845112Y-134806658D02*
X71685776Y-134947950D01*
X71685776Y-134947950D02*
X71133818Y-135095847D01*
X71133818Y-135095847D02*
X70925183Y-135053153D01*
X70925183Y-135053153D02*
X70808541Y-134985809D01*
X70808541Y-134985809D02*
X70667249Y-134826473D01*
X70667249Y-134826473D02*
X70593301Y-134550494D01*
X72497438Y-136505225D02*
X71209537Y-136850317D01*
X72275593Y-135677289D02*
X71263670Y-135948433D01*
X71263670Y-135948433D02*
X71104334Y-136089724D01*
X71104334Y-136089724D02*
X71061640Y-136298360D01*
X71061640Y-136298360D02*
X71135588Y-136574339D01*
X71135588Y-136574339D02*
X71276880Y-136733675D01*
X71276880Y-136733675D02*
X71393522Y-136801019D01*
X72669984Y-137149176D02*
X72867179Y-137885120D01*
X73387883Y-137252609D02*
X71732010Y-137696299D01*
X71732010Y-137696299D02*
X71572673Y-137837590D01*
X71572673Y-137837590D02*
X71529979Y-138046226D01*
X71529979Y-138046226D02*
X71579278Y-138230212D01*
D12*
X132738095Y-103006819D02*
X133309523Y-103006819D01*
X133023809Y-104006819D02*
X133023809Y-103006819D01*
X133642857Y-104006819D02*
X133642857Y-103006819D01*
X133642857Y-103006819D02*
X134023809Y-103006819D01*
X134023809Y-103006819D02*
X134119047Y-103054438D01*
X134119047Y-103054438D02*
X134166666Y-103102057D01*
X134166666Y-103102057D02*
X134214285Y-103197295D01*
X134214285Y-103197295D02*
X134214285Y-103340152D01*
X134214285Y-103340152D02*
X134166666Y-103435390D01*
X134166666Y-103435390D02*
X134119047Y-103483009D01*
X134119047Y-103483009D02*
X134023809Y-103530628D01*
X134023809Y-103530628D02*
X133642857Y-103530628D01*
X135166666Y-104006819D02*
X134595238Y-104006819D01*
X134880952Y-104006819D02*
X134880952Y-103006819D01*
X134880952Y-103006819D02*
X134785714Y-103149676D01*
X134785714Y-103149676D02*
X134690476Y-103244914D01*
X134690476Y-103244914D02*
X134595238Y-103292533D01*
X144052611Y-151922678D02*
X145231122Y-152158380D01*
X144524015Y-151451274D02*
X144759717Y-152629785D01*
X145870885Y-151518617D02*
X145466824Y-151922678D01*
X145668855Y-151720648D02*
X144961748Y-151013541D01*
X144961748Y-151013541D02*
X144995420Y-151181900D01*
X144995420Y-151181900D02*
X144995420Y-151316587D01*
X144995420Y-151316587D02*
X144961748Y-151417602D01*
X138383714Y-56232502D02*
X138888790Y-56737578D01*
X138888790Y-56737578D02*
X138956134Y-56872265D01*
X138956134Y-56872265D02*
X138956134Y-57006952D01*
X138956134Y-57006952D02*
X138888790Y-57141639D01*
X138888790Y-57141639D02*
X138821447Y-57208983D01*
X139797928Y-56232502D02*
X139393867Y-56636563D01*
X139595897Y-56434532D02*
X138888790Y-55727425D01*
X138888790Y-55727425D02*
X138922462Y-55895784D01*
X138922462Y-55895784D02*
X138922462Y-56030471D01*
X138922462Y-56030471D02*
X138888790Y-56131486D01*
X139427538Y-55323364D02*
X139427538Y-55256021D01*
X139427538Y-55256021D02*
X139461210Y-55155006D01*
X139461210Y-55155006D02*
X139629569Y-54986647D01*
X139629569Y-54986647D02*
X139730584Y-54952975D01*
X139730584Y-54952975D02*
X139797928Y-54952975D01*
X139797928Y-54952975D02*
X139898943Y-54986647D01*
X139898943Y-54986647D02*
X139966286Y-55053990D01*
X139966286Y-55053990D02*
X140033630Y-55188677D01*
X140033630Y-55188677D02*
X140033630Y-55996799D01*
X140033630Y-55996799D02*
X140471363Y-55559067D01*
X91037161Y-99100668D02*
X91542237Y-99605744D01*
X91542237Y-99605744D02*
X91609581Y-99740431D01*
X91609581Y-99740431D02*
X91609581Y-99875118D01*
X91609581Y-99875118D02*
X91542237Y-100009805D01*
X91542237Y-100009805D02*
X91474894Y-100077149D01*
X92114657Y-99437385D02*
X92249344Y-99302698D01*
X92249344Y-99302698D02*
X92283016Y-99201683D01*
X92283016Y-99201683D02*
X92283016Y-99134339D01*
X92283016Y-99134339D02*
X92249344Y-98965981D01*
X92249344Y-98965981D02*
X92148329Y-98797622D01*
X92148329Y-98797622D02*
X91878955Y-98528248D01*
X91878955Y-98528248D02*
X91777940Y-98494576D01*
X91777940Y-98494576D02*
X91710596Y-98494576D01*
X91710596Y-98494576D02*
X91609581Y-98528248D01*
X91609581Y-98528248D02*
X91474894Y-98662935D01*
X91474894Y-98662935D02*
X91441222Y-98763950D01*
X91441222Y-98763950D02*
X91441222Y-98831294D01*
X91441222Y-98831294D02*
X91474894Y-98932309D01*
X91474894Y-98932309D02*
X91643253Y-99100668D01*
X91643253Y-99100668D02*
X91744268Y-99134339D01*
X91744268Y-99134339D02*
X91811611Y-99134339D01*
X91811611Y-99134339D02*
X91912627Y-99100668D01*
X91912627Y-99100668D02*
X92047314Y-98965981D01*
X92047314Y-98965981D02*
X92080985Y-98864965D01*
X92080985Y-98864965D02*
X92080985Y-98797622D01*
X92080985Y-98797622D02*
X92047314Y-98696607D01*
X154487699Y-64817203D02*
X153982623Y-65322279D01*
X153982623Y-65322279D02*
X153847936Y-65389623D01*
X153847936Y-65389623D02*
X153713249Y-65389623D01*
X153713249Y-65389623D02*
X153578562Y-65322279D01*
X153578562Y-65322279D02*
X153511218Y-65254936D01*
X154622386Y-65557982D02*
X154588715Y-65456966D01*
X154588715Y-65456966D02*
X154588715Y-65389623D01*
X154588715Y-65389623D02*
X154622386Y-65288608D01*
X154622386Y-65288608D02*
X154656058Y-65254936D01*
X154656058Y-65254936D02*
X154757073Y-65221264D01*
X154757073Y-65221264D02*
X154824417Y-65221264D01*
X154824417Y-65221264D02*
X154925432Y-65254936D01*
X154925432Y-65254936D02*
X155060119Y-65389623D01*
X155060119Y-65389623D02*
X155093791Y-65490638D01*
X155093791Y-65490638D02*
X155093791Y-65557982D01*
X155093791Y-65557982D02*
X155060119Y-65658997D01*
X155060119Y-65658997D02*
X155026447Y-65692669D01*
X155026447Y-65692669D02*
X154925432Y-65726340D01*
X154925432Y-65726340D02*
X154858089Y-65726340D01*
X154858089Y-65726340D02*
X154757073Y-65692669D01*
X154757073Y-65692669D02*
X154622386Y-65557982D01*
X154622386Y-65557982D02*
X154521371Y-65524310D01*
X154521371Y-65524310D02*
X154454028Y-65524310D01*
X154454028Y-65524310D02*
X154353012Y-65557982D01*
X154353012Y-65557982D02*
X154218325Y-65692669D01*
X154218325Y-65692669D02*
X154184654Y-65793684D01*
X154184654Y-65793684D02*
X154184654Y-65861027D01*
X154184654Y-65861027D02*
X154218325Y-65962043D01*
X154218325Y-65962043D02*
X154353012Y-66096730D01*
X154353012Y-66096730D02*
X154454028Y-66130401D01*
X154454028Y-66130401D02*
X154521371Y-66130401D01*
X154521371Y-66130401D02*
X154622386Y-66096730D01*
X154622386Y-66096730D02*
X154757073Y-65962043D01*
X154757073Y-65962043D02*
X154790745Y-65861027D01*
X154790745Y-65861027D02*
X154790745Y-65793684D01*
X154790745Y-65793684D02*
X154757073Y-65692669D01*
X83086654Y-83564557D02*
X82581578Y-84069633D01*
X82581578Y-84069633D02*
X82446891Y-84136977D01*
X82446891Y-84136977D02*
X82312204Y-84136977D01*
X82312204Y-84136977D02*
X82177517Y-84069633D01*
X82177517Y-84069633D02*
X82110173Y-84002290D01*
X83086654Y-84978771D02*
X82682593Y-84574710D01*
X82884624Y-84776740D02*
X83591731Y-84069633D01*
X83591731Y-84069633D02*
X83423372Y-84103305D01*
X83423372Y-84103305D02*
X83288685Y-84103305D01*
X83288685Y-84103305D02*
X83187670Y-84069633D01*
X84231494Y-84709397D02*
X84298837Y-84776740D01*
X84298837Y-84776740D02*
X84332509Y-84877755D01*
X84332509Y-84877755D02*
X84332509Y-84945099D01*
X84332509Y-84945099D02*
X84298837Y-85046114D01*
X84298837Y-85046114D02*
X84197822Y-85214473D01*
X84197822Y-85214473D02*
X84029463Y-85382832D01*
X84029463Y-85382832D02*
X83861105Y-85483847D01*
X83861105Y-85483847D02*
X83760089Y-85517519D01*
X83760089Y-85517519D02*
X83692746Y-85517519D01*
X83692746Y-85517519D02*
X83591731Y-85483847D01*
X83591731Y-85483847D02*
X83524387Y-85416503D01*
X83524387Y-85416503D02*
X83490715Y-85315488D01*
X83490715Y-85315488D02*
X83490715Y-85248145D01*
X83490715Y-85248145D02*
X83524387Y-85147129D01*
X83524387Y-85147129D02*
X83625402Y-84978771D01*
X83625402Y-84978771D02*
X83793761Y-84810412D01*
X83793761Y-84810412D02*
X83962120Y-84709397D01*
X83962120Y-84709397D02*
X84063135Y-84675725D01*
X84063135Y-84675725D02*
X84130479Y-84675725D01*
X84130479Y-84675725D02*
X84231494Y-84709397D01*
X167383316Y-128591973D02*
X168561827Y-128827675D01*
X167854720Y-128120569D02*
X168090422Y-129299080D01*
X168157766Y-127952210D02*
X168157766Y-127884866D01*
X168157766Y-127884866D02*
X168191438Y-127783851D01*
X168191438Y-127783851D02*
X168359796Y-127615492D01*
X168359796Y-127615492D02*
X168460812Y-127581821D01*
X168460812Y-127581821D02*
X168528155Y-127581821D01*
X168528155Y-127581821D02*
X168629170Y-127615492D01*
X168629170Y-127615492D02*
X168696514Y-127682836D01*
X168696514Y-127682836D02*
X168763857Y-127817523D01*
X168763857Y-127817523D02*
X168763857Y-128625645D01*
X168763857Y-128625645D02*
X169201590Y-128187912D01*
X110698939Y-76237553D02*
X110193863Y-76742629D01*
X110193863Y-76742629D02*
X110059176Y-76809973D01*
X110059176Y-76809973D02*
X109924489Y-76809973D01*
X109924489Y-76809973D02*
X109789802Y-76742629D01*
X109789802Y-76742629D02*
X109722458Y-76675286D01*
X111338703Y-76877316D02*
X111204016Y-76742629D01*
X111204016Y-76742629D02*
X111103000Y-76708958D01*
X111103000Y-76708958D02*
X111035657Y-76708958D01*
X111035657Y-76708958D02*
X110867298Y-76742629D01*
X110867298Y-76742629D02*
X110698939Y-76843645D01*
X110698939Y-76843645D02*
X110429565Y-77113019D01*
X110429565Y-77113019D02*
X110395894Y-77214034D01*
X110395894Y-77214034D02*
X110395894Y-77281377D01*
X110395894Y-77281377D02*
X110429565Y-77382393D01*
X110429565Y-77382393D02*
X110564252Y-77517080D01*
X110564252Y-77517080D02*
X110665268Y-77550751D01*
X110665268Y-77550751D02*
X110732611Y-77550751D01*
X110732611Y-77550751D02*
X110833626Y-77517080D01*
X110833626Y-77517080D02*
X111001985Y-77348721D01*
X111001985Y-77348721D02*
X111035657Y-77247706D01*
X111035657Y-77247706D02*
X111035657Y-77180362D01*
X111035657Y-77180362D02*
X111001985Y-77079347D01*
X111001985Y-77079347D02*
X110867298Y-76944660D01*
X110867298Y-76944660D02*
X110766283Y-76910988D01*
X110766283Y-76910988D02*
X110698939Y-76910988D01*
X110698939Y-76910988D02*
X110597924Y-76944660D01*
X102213658Y-84722834D02*
X101708582Y-85227910D01*
X101708582Y-85227910D02*
X101573895Y-85295254D01*
X101573895Y-85295254D02*
X101439208Y-85295254D01*
X101439208Y-85295254D02*
X101304521Y-85227910D01*
X101304521Y-85227910D02*
X101237177Y-85160567D01*
X102887093Y-85396269D02*
X102550376Y-85059552D01*
X102550376Y-85059552D02*
X102179987Y-85362597D01*
X102179987Y-85362597D02*
X102247330Y-85362597D01*
X102247330Y-85362597D02*
X102348345Y-85396269D01*
X102348345Y-85396269D02*
X102516704Y-85564628D01*
X102516704Y-85564628D02*
X102550376Y-85665643D01*
X102550376Y-85665643D02*
X102550376Y-85732987D01*
X102550376Y-85732987D02*
X102516704Y-85834002D01*
X102516704Y-85834002D02*
X102348345Y-86002361D01*
X102348345Y-86002361D02*
X102247330Y-86036032D01*
X102247330Y-86036032D02*
X102179987Y-86036032D01*
X102179987Y-86036032D02*
X102078971Y-86002361D01*
X102078971Y-86002361D02*
X101910613Y-85834002D01*
X101910613Y-85834002D02*
X101876941Y-85732987D01*
X101876941Y-85732987D02*
X101876941Y-85665643D01*
X145954819Y-84738094D02*
X144954819Y-84738094D01*
X144954819Y-84738094D02*
X144954819Y-84499999D01*
X144954819Y-84499999D02*
X145002438Y-84357142D01*
X145002438Y-84357142D02*
X145097676Y-84261904D01*
X145097676Y-84261904D02*
X145192914Y-84214285D01*
X145192914Y-84214285D02*
X145383390Y-84166666D01*
X145383390Y-84166666D02*
X145526247Y-84166666D01*
X145526247Y-84166666D02*
X145716723Y-84214285D01*
X145716723Y-84214285D02*
X145811961Y-84261904D01*
X145811961Y-84261904D02*
X145907200Y-84357142D01*
X145907200Y-84357142D02*
X145954819Y-84499999D01*
X145954819Y-84499999D02*
X145954819Y-84738094D01*
X145954819Y-83214285D02*
X145954819Y-83785713D01*
X145954819Y-83499999D02*
X144954819Y-83499999D01*
X144954819Y-83499999D02*
X145097676Y-83595237D01*
X145097676Y-83595237D02*
X145192914Y-83690475D01*
X145192914Y-83690475D02*
X145240533Y-83785713D01*
X119155937Y-67780557D02*
X118650861Y-68285633D01*
X118650861Y-68285633D02*
X118516174Y-68352977D01*
X118516174Y-68352977D02*
X118381487Y-68352977D01*
X118381487Y-68352977D02*
X118246800Y-68285633D01*
X118246800Y-68285633D02*
X118179456Y-68218290D01*
X119425311Y-68049931D02*
X119896716Y-68521336D01*
X119896716Y-68521336D02*
X118886563Y-68925397D01*
X164087663Y-81528553D02*
X164592739Y-82033629D01*
X164592739Y-82033629D02*
X164660083Y-82168316D01*
X164660083Y-82168316D02*
X164660083Y-82303003D01*
X164660083Y-82303003D02*
X164592739Y-82437690D01*
X164592739Y-82437690D02*
X164525396Y-82505034D01*
X165501877Y-81528553D02*
X165097816Y-81932614D01*
X165299846Y-81730583D02*
X164592739Y-81023476D01*
X164592739Y-81023476D02*
X164626411Y-81191835D01*
X164626411Y-81191835D02*
X164626411Y-81326522D01*
X164626411Y-81326522D02*
X164592739Y-81427537D01*
X166175312Y-80855118D02*
X165771251Y-81259179D01*
X165973281Y-81057148D02*
X165266174Y-80350041D01*
X165266174Y-80350041D02*
X165299846Y-80518400D01*
X165299846Y-80518400D02*
X165299846Y-80653087D01*
X165299846Y-80653087D02*
X165266174Y-80754102D01*
X141954819Y-80238094D02*
X140954819Y-80238094D01*
X140954819Y-80238094D02*
X140954819Y-79999999D01*
X140954819Y-79999999D02*
X141002438Y-79857142D01*
X141002438Y-79857142D02*
X141097676Y-79761904D01*
X141097676Y-79761904D02*
X141192914Y-79714285D01*
X141192914Y-79714285D02*
X141383390Y-79666666D01*
X141383390Y-79666666D02*
X141526247Y-79666666D01*
X141526247Y-79666666D02*
X141716723Y-79714285D01*
X141716723Y-79714285D02*
X141811961Y-79761904D01*
X141811961Y-79761904D02*
X141907200Y-79857142D01*
X141907200Y-79857142D02*
X141954819Y-79999999D01*
X141954819Y-79999999D02*
X141954819Y-80238094D01*
X141050057Y-79285713D02*
X141002438Y-79238094D01*
X141002438Y-79238094D02*
X140954819Y-79142856D01*
X140954819Y-79142856D02*
X140954819Y-78904761D01*
X140954819Y-78904761D02*
X141002438Y-78809523D01*
X141002438Y-78809523D02*
X141050057Y-78761904D01*
X141050057Y-78761904D02*
X141145295Y-78714285D01*
X141145295Y-78714285D02*
X141240533Y-78714285D01*
X141240533Y-78714285D02*
X141383390Y-78761904D01*
X141383390Y-78761904D02*
X141954819Y-79333332D01*
X141954819Y-79333332D02*
X141954819Y-78714285D01*
D13*
%TO.C,TP1*%
X134700000Y-105000000D02*
G75*
G02*
X133300000Y-105000000I-700000J0D01*
G01*
X133300000Y-105000000D02*
G75*
G02*
X134700000Y-105000000I700000J0D01*
G01*
%TO.C,X1*%
X106550995Y-116953178D02*
X106147944Y-116550127D01*
X108347046Y-118749229D02*
X107625797Y-118027980D01*
X109824899Y-112873172D02*
X106147944Y-116550127D01*
X110143097Y-120545280D02*
X109421848Y-119824031D01*
X110227950Y-113276223D02*
X109824899Y-112873172D01*
X111939148Y-122341332D02*
X111217899Y-121620083D01*
X112024001Y-115072274D02*
X111302752Y-114351025D01*
X113735199Y-124137383D02*
X113013951Y-123416134D01*
X113820052Y-116868325D02*
X113098803Y-116147076D01*
X115531251Y-125933434D02*
X114810002Y-125212185D01*
X115616104Y-118664376D02*
X114894855Y-117943127D01*
X117327302Y-127729485D02*
X116606053Y-127008236D01*
X117412155Y-120460427D02*
X116690906Y-119739179D01*
X119123353Y-129525536D02*
X118402104Y-128804288D01*
X119208206Y-122256479D02*
X118486957Y-121535230D01*
X120919404Y-131321588D02*
X120198155Y-130600339D01*
X121004257Y-124052530D02*
X120283008Y-123331281D01*
X122715456Y-133117639D02*
X121994207Y-132396390D01*
X122800308Y-125848581D02*
X122079060Y-125127332D01*
X124511507Y-134913690D02*
X123790258Y-134192441D01*
X124596360Y-127644632D02*
X123875111Y-126923383D01*
X126307558Y-136709741D02*
X125586309Y-135988492D01*
X126392411Y-129440684D02*
X125671162Y-128719435D01*
X128103609Y-138505793D02*
X127382360Y-137784544D01*
X128188462Y-131236735D02*
X127467213Y-130515486D01*
X129899660Y-140301844D02*
X129178412Y-139580595D01*
X129984513Y-133032786D02*
X129263264Y-132311537D01*
X131695712Y-142097895D02*
X130974463Y-141376646D01*
X131780565Y-134828837D02*
X131059316Y-134107588D01*
X133491763Y-143893946D02*
X132770514Y-143172697D01*
X133576616Y-136624888D02*
X132855367Y-135903640D01*
X135287814Y-145689997D02*
X134566565Y-144968749D01*
X135372667Y-138420940D02*
X134651418Y-137699691D01*
X137083865Y-147486049D02*
X136362616Y-146764800D01*
X137168718Y-140216991D02*
X136447469Y-139495742D01*
X138879917Y-149282100D02*
X138158668Y-148560851D01*
X138964769Y-142013042D02*
X138243521Y-141291793D01*
X140675968Y-151078151D02*
X139954719Y-150356902D01*
X140760821Y-143809093D02*
X140039572Y-143087844D01*
X141750770Y-152152953D02*
X140789105Y-153114619D01*
X142153821Y-152556004D02*
X141750770Y-152152953D01*
X142556872Y-145605145D02*
X141835623Y-144883896D01*
X144352923Y-147401196D02*
X143631674Y-146679947D01*
X145830776Y-148879049D02*
X142153821Y-152556004D01*
X145830776Y-148879049D02*
X145427725Y-148475998D01*
D11*
%TO.C,J12*%
X136074802Y-52425198D02*
X135721249Y-52778751D01*
X136074802Y-52425198D02*
X135721249Y-52778751D01*
D13*
X136796051Y-49823045D02*
X133119096Y-53500000D01*
X136796051Y-57176955D02*
X133119096Y-53500000D01*
D11*
X137870853Y-54221249D02*
X137517300Y-54574802D01*
D13*
X138634529Y-51661522D02*
X136796051Y-49823045D01*
X138634529Y-51661522D02*
X140473006Y-53500000D01*
X138634529Y-55338478D02*
X136796051Y-57176955D01*
X138634529Y-55338478D02*
X140473006Y-53500000D01*
%TO.C,J9*%
X92365471Y-99957573D02*
X90526994Y-101796051D01*
X92365471Y-99957573D02*
X94203949Y-98119096D01*
X92365471Y-103634529D02*
X90526994Y-101796051D01*
X92365471Y-103634529D02*
X94203949Y-105473006D01*
D11*
X93129147Y-101074802D02*
X93482700Y-100721249D01*
D13*
X94203949Y-98119096D02*
X97880904Y-101796051D01*
X94203949Y-105473006D02*
X97880904Y-101796051D01*
D11*
X94925198Y-102870853D02*
X95278751Y-102517300D01*
X94925198Y-102870853D02*
X95278751Y-102517300D01*
D13*
%TO.C,J8*%
X139100457Y-67424669D02*
X139100457Y-67778223D01*
X139100457Y-67778223D02*
X139277234Y-68308553D01*
X139277234Y-68308553D02*
X139914762Y-69085238D01*
X139337338Y-66954443D02*
X139100457Y-67424669D01*
X139807564Y-66717563D02*
X139337338Y-66954443D01*
X139914762Y-69085238D02*
X140691448Y-69722767D01*
X140161118Y-66717563D02*
X139807564Y-66717563D01*
X140691448Y-66894339D02*
X140161118Y-66717563D01*
X140691448Y-69722767D02*
X140161118Y-66717563D01*
X140691448Y-69722767D02*
X141221778Y-69899543D01*
X141221778Y-69899543D02*
X140691448Y-66894339D01*
X141221778Y-69899543D02*
X141575331Y-69899543D01*
X141468133Y-67531868D02*
X140691448Y-66894339D01*
X141575331Y-69899543D02*
X142045557Y-69662662D01*
X142045557Y-69662662D02*
X142282438Y-69192436D01*
X142105661Y-68308553D02*
X141468133Y-67531868D01*
X142282438Y-68838883D02*
X142105661Y-68308553D01*
X142282438Y-69192436D02*
X142282438Y-68838883D01*
X142692560Y-71016772D02*
X142692560Y-71370325D01*
X142692560Y-71370325D02*
X142869337Y-71900655D01*
X142869337Y-71900655D02*
X143506865Y-72677341D01*
X142929441Y-70546546D02*
X142692560Y-71016772D01*
X143399667Y-70309665D02*
X142929441Y-70546546D01*
X143506865Y-72677341D02*
X144283550Y-73314869D01*
X143753220Y-70309665D02*
X143399667Y-70309665D01*
X144017678Y-62047830D02*
X146607810Y-59457697D01*
X144017678Y-62047830D02*
X146916816Y-64946967D01*
X144283550Y-70486442D02*
X143753220Y-70309665D01*
X144283550Y-73314869D02*
X143753220Y-70309665D01*
X144283550Y-73314869D02*
X144813880Y-73491646D01*
X144813880Y-73491646D02*
X144283550Y-70486442D01*
X144813880Y-73491646D02*
X145167434Y-73491646D01*
X145060236Y-71123970D02*
X144283550Y-70486442D01*
X145167434Y-73491646D02*
X145637660Y-73254765D01*
X145637660Y-73254765D02*
X145874540Y-72784539D01*
X145697764Y-71900655D02*
X145060236Y-71123970D01*
X145874540Y-72430985D02*
X145697764Y-71900655D01*
X145874540Y-72784539D02*
X145874540Y-72430985D01*
X146093036Y-58522902D02*
X137522902Y-67093036D01*
X146284662Y-74608874D02*
X146284662Y-74962428D01*
X146284662Y-74962428D02*
X146461439Y-75492758D01*
X146461439Y-75492758D02*
X147098967Y-76269443D01*
X146521543Y-74138648D02*
X146284662Y-74608874D01*
X146607810Y-59457697D02*
X149506948Y-62356835D01*
X146916816Y-64946967D02*
X149506948Y-62356835D01*
X146991769Y-73901768D02*
X146521543Y-74138648D01*
X147098967Y-76269443D02*
X147875653Y-76906971D01*
X147345323Y-73901768D02*
X146991769Y-73901768D01*
X147609780Y-65639932D02*
X150199913Y-63049800D01*
X147609780Y-65639932D02*
X150508918Y-68539070D01*
X147875653Y-74078544D02*
X147345323Y-73901768D01*
X147875653Y-76906971D02*
X147345323Y-73901768D01*
X147875653Y-76906971D02*
X148405983Y-77083748D01*
X148405983Y-77083748D02*
X147875653Y-74078544D01*
X148405983Y-77083748D02*
X148759536Y-77083748D01*
X148652338Y-74716072D02*
X147875653Y-74078544D01*
X148759536Y-77083748D02*
X149229762Y-76846867D01*
X149229762Y-76846867D02*
X149466643Y-76376641D01*
X149289866Y-75492758D02*
X148652338Y-74716072D01*
X149466643Y-76023088D02*
X149289866Y-75492758D01*
X149466643Y-76376641D02*
X149466643Y-76023088D01*
X149876765Y-78200977D02*
X149876765Y-78554530D01*
X149876765Y-78554530D02*
X150053541Y-79084860D01*
X150053541Y-79084860D02*
X150691070Y-79861546D01*
X150113646Y-77730751D02*
X149876765Y-78200977D01*
X150199913Y-63049800D02*
X153099050Y-65948938D01*
X150508918Y-68539070D02*
X153099050Y-65948938D01*
X150583872Y-77493870D02*
X150113646Y-77730751D01*
X150691070Y-79861546D02*
X151467755Y-80499074D01*
X150937425Y-77493870D02*
X150583872Y-77493870D01*
X151201883Y-69232034D02*
X153792015Y-66641902D01*
X151201883Y-69232034D02*
X154101021Y-72131172D01*
X151467755Y-77670647D02*
X150937425Y-77493870D01*
X151467755Y-80499074D02*
X150937425Y-77493870D01*
X151467755Y-80499074D02*
X151998085Y-80675851D01*
X151998085Y-80675851D02*
X151467755Y-77670647D01*
X151998085Y-80675851D02*
X152351639Y-80675851D01*
X152244440Y-78308175D02*
X151467755Y-77670647D01*
X152351639Y-80675851D02*
X152821865Y-80438970D01*
X152683272Y-82253406D02*
X137522902Y-67093036D01*
X152821865Y-80438970D02*
X153058745Y-79968744D01*
X152881969Y-79084860D02*
X152244440Y-78308175D01*
X153058745Y-79615190D02*
X152881969Y-79084860D01*
X153058745Y-79968744D02*
X153058745Y-79615190D01*
X153792015Y-66641902D02*
X156691153Y-69541040D01*
X154101021Y-72131172D02*
X156691153Y-69541040D01*
X154793985Y-72824137D02*
X157384117Y-70234005D01*
X154793985Y-72824137D02*
X157693123Y-75723275D01*
X154795046Y-80141631D02*
X139634677Y-64981262D01*
X157384117Y-70234005D02*
X160283255Y-73133143D01*
X157693123Y-75723275D02*
X160283255Y-73133143D01*
X158091224Y-76845453D02*
X142930855Y-61685084D01*
X161069558Y-74206531D02*
X161592817Y-73683272D01*
X161253406Y-73683272D02*
X146093036Y-58522902D01*
X161253406Y-73683272D02*
X152683272Y-82253406D01*
X161592817Y-73683272D02*
X161239264Y-73329718D01*
%TO.C,J10*%
X82142202Y-81976894D02*
X85819157Y-78299939D01*
X83980679Y-83815372D02*
X82142202Y-81976894D01*
X83980679Y-83815372D02*
X85819157Y-85653849D01*
D11*
X85097908Y-83051696D02*
X84744355Y-82698143D01*
X86893959Y-81255645D02*
X86540406Y-80902092D01*
X86893959Y-81255645D02*
X86540406Y-80902092D01*
D13*
X87657635Y-83815372D02*
X85819157Y-85653849D01*
X87657635Y-83815372D02*
X89496112Y-81976894D01*
X89496112Y-81976894D02*
X85819157Y-78299939D01*
%TO.C,X2*%
X129881700Y-93622473D02*
X129478649Y-93219422D01*
X131677751Y-95418524D02*
X130956502Y-94697275D01*
X133155604Y-89542467D02*
X129478649Y-93219422D01*
X133473802Y-97214575D02*
X132752553Y-96493326D01*
X133558655Y-89945518D02*
X133155604Y-89542467D01*
X135269853Y-99010627D02*
X134548604Y-98289378D01*
X135354706Y-91741569D02*
X134633457Y-91020320D01*
X137065904Y-100806678D02*
X136344656Y-100085429D01*
X137150757Y-93537620D02*
X136429508Y-92816371D01*
X138861956Y-102602729D02*
X138140707Y-101881480D01*
X138946809Y-95333671D02*
X138225560Y-94612422D01*
X140658007Y-104398780D02*
X139936758Y-103677531D01*
X140742860Y-97129722D02*
X140021611Y-96408474D01*
X142454058Y-106194831D02*
X141732809Y-105473583D01*
X142538911Y-98925774D02*
X141817662Y-98204525D01*
X144250109Y-107990883D02*
X143528860Y-107269634D01*
X144334962Y-100721825D02*
X143613713Y-100000576D01*
X146046161Y-109786934D02*
X145324912Y-109065685D01*
X146131013Y-102517876D02*
X145409765Y-101796627D01*
X147842212Y-111582985D02*
X147120963Y-110861736D01*
X147927065Y-104313927D02*
X147205816Y-103592678D01*
X149638263Y-113379036D02*
X148917014Y-112657787D01*
X149723116Y-106109979D02*
X149001867Y-105388730D01*
X151434314Y-115175088D02*
X150713065Y-114453839D01*
X151519167Y-107906030D02*
X150797918Y-107184781D01*
X153230365Y-116971139D02*
X152509117Y-116249890D01*
X153315218Y-109702081D02*
X152593969Y-108980832D01*
X155026417Y-118767190D02*
X154305168Y-118045941D01*
X155111270Y-111498132D02*
X154390021Y-110776883D01*
X156822468Y-120563241D02*
X156101219Y-119841992D01*
X156907321Y-113294183D02*
X156186072Y-112572935D01*
X158618519Y-122359292D02*
X157897270Y-121638044D01*
X158703372Y-115090235D02*
X157982123Y-114368986D01*
X160414570Y-124155344D02*
X159693321Y-123434095D01*
X160499423Y-116886286D02*
X159778174Y-116165037D01*
X162210622Y-125951395D02*
X161489373Y-125230146D01*
X162295474Y-118682337D02*
X161574226Y-117961088D01*
X164006673Y-127747446D02*
X163285424Y-127026197D01*
X164091526Y-120478388D02*
X163370277Y-119757139D01*
X165081475Y-128822248D02*
X164119810Y-129783914D01*
X165484526Y-129225299D02*
X165081475Y-128822248D01*
X165887577Y-122274440D02*
X165166328Y-121553191D01*
X167683628Y-124070491D02*
X166962379Y-123349242D01*
X169161481Y-125548344D02*
X165484526Y-129225299D01*
X169161481Y-125548344D02*
X168758430Y-125145293D01*
%TO.C,J6*%
X110032953Y-72170639D02*
X112578537Y-69625055D01*
X112578537Y-77374945D02*
X110032953Y-74829361D01*
X115237259Y-77374945D02*
X117782843Y-74829361D01*
X117782843Y-72170639D02*
X115237259Y-69625055D01*
%TO.C,J5*%
X101547672Y-80655920D02*
X104093256Y-78110336D01*
X104093256Y-85860226D02*
X101547672Y-83314642D01*
X106751978Y-85860226D02*
X109297562Y-83314642D01*
X109297562Y-80655920D02*
X106751978Y-78110336D01*
%TO.C,D1*%
X146350000Y-87510000D02*
X146350000Y-82000000D01*
X146350000Y-87510000D02*
X149650000Y-87510000D01*
X149650000Y-87510000D02*
X149650000Y-82000000D01*
%TO.C,J7*%
X118489951Y-63713643D02*
X121035535Y-61168059D01*
X121035535Y-68917949D02*
X118489951Y-66372365D01*
X123694257Y-68917949D02*
X126239841Y-66372365D01*
X126239841Y-63713643D02*
X123694257Y-61168059D01*
D11*
%TO.C,J11*%
X161778751Y-77721249D02*
X161425198Y-78074802D01*
X161778751Y-77721249D02*
X161425198Y-78074802D01*
D13*
X162500000Y-75119096D02*
X158823045Y-78796051D01*
X162500000Y-82473006D02*
X158823045Y-78796051D01*
D11*
X163574802Y-79517300D02*
X163221249Y-79870853D01*
D13*
X164338478Y-76957573D02*
X162500000Y-75119096D01*
X164338478Y-76957573D02*
X166176955Y-78796051D01*
X164338478Y-80634529D02*
X162500000Y-82473006D01*
X164338478Y-80634529D02*
X166176955Y-78796051D01*
%TO.C,D2*%
X142350000Y-83010000D02*
X142350000Y-77500000D01*
X142350000Y-83010000D02*
X145650000Y-83010000D01*
X145650000Y-83010000D02*
X145650000Y-77500000D01*
%TD*%
M02*
