M48
; DRILL file {KiCad 9.0.7} date 2026-05-25T14:54:33+0200
; FORMAT={-:-/ absolute / metric / decimal}
; #@! TF.CreationDate,2026-05-25T14:54:33+02:00
; #@! TF.GenerationSoftware,Kicad,Pcbnew,9.0.7
; #@! TF.FileFunction,Plated,1,4,PTH
FMAT,2
METRIC
; #@! TA.AperFunction,Plated,PTH,ViaDrill
T1C0.250
; #@! TA.AperFunction,Plated,PTH,ViaDrill
T2C0.400
; #@! TA.AperFunction,Plated,PTH,ComponentDrill
T3C0.800
; #@! TA.AperFunction,Plated,PTH,ComponentDrill
T4C1.000
; #@! TA.AperFunction,Plated,PTH,ComponentDrill
T5C1.300
; #@! TA.AperFunction,Plated,PTH,ComponentDrill
T6C1.500
; #@! TA.AperFunction,Plated,PTH,ComponentDrill
T7C1.700
%
G90
G05
T1
X134.0Y-105.0
T2
X63.0Y-104.75
X63.568Y-120.223
X63.75Y-100.5
X64.0Y-109.25
X64.25Y-91.5
X65.5Y-112.5
X65.931Y-125.999
X66.25Y-84.75
X66.5Y-110.0
X66.75Y-107.0
X66.901Y-81.725
X67.0Y-97.0
X67.5Y-103.5
X68.0Y-75.25
X68.0Y-88.75
X68.446Y-128.963
X68.75Y-100.25
X68.98Y-126.182
X69.0Y-124.25
X69.25Y-95.0
X69.25Y-109.75
X69.5Y-114.25
X70.154Y-137.013
X70.248Y-77.63
X70.383Y-121.121
X70.75Y-116.5
X70.845Y-112.052
X70.885Y-71.196
X71.5Y-114.75
X71.75Y-97.25
X72.5Y-87.0
X72.75Y-82.0
X72.75Y-93.25
X73.0Y-137.5
X73.005Y-130.207
X73.25Y-64.75
X73.365Y-123.394
X73.528Y-144.208
X73.812Y-116.849
X74.0Y-68.75
X74.364Y-73.057
X74.829Y-133.11
X75.248Y-95.515
X76.5Y-77.5
X76.603Y-141.671
X76.75Y-112.25
X76.773Y-125.273
X77.25Y-62.75
X77.25Y-98.0
X77.25Y-117.5
X77.26Y-82.954
X77.268Y-138.029
X77.5Y-95.5
X78.0Y-147.379
X78.0Y-93.0
X78.292Y-89.097
X78.406Y-152.461
X78.75Y-58.25
X78.75Y-71.75
X79.0Y-67.75
X79.024Y-85.194
X79.463Y-115.263
X80.0Y-122.0
X80.305Y-82.267
X80.75Y-147.25
X80.98Y-135.945
X81.13Y-110.832
X81.374Y-99.693
X81.5Y-53.75
X81.5Y-96.75
X81.585Y-60.071
X81.585Y-68.73
X81.75Y-63.75
X81.786Y-125.877
X81.847Y-154.294
X82.065Y-143.924
X82.146Y-104.856
X82.195Y-76.657
X82.195Y-78.914
X82.317Y-89.158
X82.5Y-85.133
X82.75Y-131.75
X83.894Y-158.721
X84.39Y-77.511
X84.423Y-105.995
X84.75Y-98.75
X84.829Y-111.645
X85.0Y-73.243
X85.0Y-119.25
X85.0Y-151.75
X85.061Y-62.571
X85.25Y-58.5
X85.305Y-87.329
X85.5Y-130.75
X85.793Y-54.339
X86.0Y-50.0
X86.098Y-93.305
X86.224Y-66.977
X86.25Y-140.0
X86.5Y-126.75
X86.786Y-134.597
X86.89Y-90.012
X87.0Y-103.5
X87.378Y-70.194
X87.396Y-123.743
X87.762Y-115.816
X87.805Y-85.073
X87.927Y-75.438
X87.993Y-147.836
X88.354Y-79.95
X88.659Y-57.144
X88.677Y-158.806
X88.842Y-94.829
X88.92Y-153.074
X89.269Y-87.512
X89.408Y-164.294
X89.573Y-71.474
X89.75Y-44.5
X89.835Y-140.269
X89.878Y-81.597
X89.939Y-89.158
X90.0Y-99.5
X90.0Y-65.864
X90.122Y-49.095
X90.488Y-91.78
X90.5Y-131.25
X90.75Y-53.0
X90.793Y-74.95
X90.915Y-82.877
X91.159Y-62.876
X91.726Y-135.39
X91.969Y-145.33
X92.017Y-58.135
X92.379Y-98.732
X92.561Y-87.329
X92.622Y-94.768
X92.744Y-68.791
X92.75Y-106.75
X92.866Y-89.89
X93.0Y-169.0
X93.25Y-110.0
X93.415Y-115.196
X93.61Y-158.071
X93.677Y-120.023
X93.781Y-83.731
X93.964Y-71.962
X94.25Y-127.0
X94.391Y-60.925
X94.391Y-92.39
X94.448Y-78.767
X94.452Y-52.388
X94.5Y-40.5
X94.5Y-48.75
X94.574Y-85.987
X94.592Y-124.78
X94.879Y-65.925
X94.957Y-151.123
X95.384Y-164.904
X95.5Y-44.25
X95.75Y-143.439
X95.811Y-172.527
X95.933Y-147.22
X96.098Y-90.439
X96.159Y-57.754
X96.197Y-76.978
X96.53Y-159.849
X96.543Y-136.488
X96.75Y-38.5
X97.196Y-69.096
X97.318Y-87.085
X97.379Y-49.582
X97.416Y-80.759
X97.501Y-116.538
X97.623Y-63.181
X97.623Y-105.257
X97.623Y-113.306
X97.945Y-128.012
X98.05Y-108.794
X98.071Y-98.802
X98.25Y-123.75
X98.432Y-74.945
X98.537Y-92.512
X98.964Y-96.781
X98.964Y-111.294
X99.002Y-83.523
X99.147Y-54.583
X99.513Y-89.646
X99.714Y-156.245
X99.774Y-77.547
X100.001Y-58.912
X100.001Y-106.232
X100.428Y-65.559
X100.5Y-41.5
X100.564Y-101.946
X100.568Y-150.635
X100.733Y-94.646
X100.953Y-74.295
X101.099Y-114.526
X101.221Y-109.037
X101.221Y-118.977
X101.402Y-44.615
X101.5Y-160.25
X101.787Y-170.575
X101.83Y-91.902
X102.0Y-48.75
X102.091Y-86.409
X102.196Y-55.558
X102.275Y-165.148
X102.336Y-141.0
X102.379Y-96.537
X102.75Y-36.25
X102.946Y-145.391
X103.25Y-39.25
X103.25Y-134.75
X103.251Y-128.073
X103.355Y-113.428
X103.373Y-151.062
X103.416Y-62.937
X103.477Y-99.891
X103.5Y-93.75
X103.538Y-118.001
X103.556Y-173.624
X103.595Y-70.23
X104.026Y-122.087
X104.148Y-110.135
X104.209Y-57.937
X104.5Y-52.0
X104.512Y-43.883
X104.592Y-137.646
X104.958Y-169.356
X105.09Y-106.255
X105.243Y-49.92
X105.25Y-73.5
X105.367Y-96.354
X105.733Y-114.404
X105.75Y-33.25
X105.812Y-159.111
X105.934Y-173.563
X106.25Y-129.75
X106.36Y-90.109
X106.526Y-102.025
X106.848Y-68.034
X106.848Y-148.684
X107.0Y-177.75
X107.295Y-87.06
X107.378Y-52.482
X107.417Y-74.01
X107.501Y-122.819
X107.519Y-127.097
X107.623Y-60.193
X107.745Y-112.635
X107.928Y-99.403
X107.988Y-36.627
X108.189Y-77.019
X108.231Y-48.701
X108.288Y-108.559
X108.392Y-69.498
X108.556Y-160.941
X108.599Y-94.036
X108.84Y-65.026
X109.5Y-31.25
X109.514Y-104.464
X109.535Y-116.337
X109.714Y-174.173
X109.897Y-90.881
X110.019Y-157.16
X110.141Y-145.33
X110.547Y-89.052
X110.611Y-101.598
X110.669Y-77.506
X110.69Y-138.622
X110.751Y-178.32
X110.836Y-108.342
X110.934Y-149.72
X111.035Y-79.742
X111.099Y-96.964
X111.238Y-67.994
X111.279Y-83.808
X111.811Y-118.451
X111.89Y-53.274
X112.0Y-55.25
X112.134Y-50.896
X112.258Y-104.708
X112.459Y-133.134
X112.783Y-65.595
X113.173Y-100.012
X113.23Y-61.001
X113.25Y-129.75
X113.25Y-159.0
X113.416Y-102.452
X113.573Y-109.29
X113.598Y-35.163
X113.66Y-93.793
X114.223Y-121.269
X114.25Y-32.0
X114.328Y-81.328
X114.41Y-156.367
X114.653Y-82.832
X114.653Y-91.125
X114.654Y-149.537
X114.734Y-87.914
X115.019Y-62.912
X115.02Y-176.673
X115.5Y-27.75
X115.5Y-105.75
X115.734Y-99.586
X115.812Y-177.832
X115.873Y-66.53
X115.873Y-135.329
X115.915Y-51.262
X116.066Y-112.136
X116.25Y-141.75
X116.25Y-182.5
X116.36Y-78.685
X116.586Y-35.712
X116.75Y-54.25
X117.133Y-59.7
X117.197Y-96.781
X117.214Y-83.442
X117.215Y-174.173
X117.34Y-116.256
X117.503Y-124.142
X117.865Y-69.823
X118.13Y-146.367
X118.171Y-33.212
X118.556Y-81.856
X118.596Y-68.034
X118.637Y-90.556
X118.678Y-61.367
X118.8Y-176.368
X118.842Y-47.42
X118.861Y-150.879
X119.0Y-110.0
X119.105Y-159.355
X119.27Y-94.097
X119.373Y-117.882
X119.572Y-87.914
X119.779Y-114.033
X119.938Y-81.49
X119.939Y-41.078
X120.142Y-164.721
X120.183Y-53.213
X120.186Y-126.934
X120.263Y-75.352
X120.5Y-137.5
X120.732Y-49.433
X121.361Y-83.32
X121.483Y-175.332
X121.5Y-35.5
X121.527Y-96.903
X121.605Y-72.1
X121.645Y-58.643
X121.83Y-44.31
X121.893Y-115.442
X122.137Y-121.459
X122.276Y-161.55
X122.337Y-168.746
X122.743Y-90.19
X123.0Y-100.25
X123.0Y-141.5
X123.167Y-113.789
X123.313Y-165.636
X123.678Y-85.149
X123.8Y-74.62
X123.922Y-77.75
X124.061Y-123.546
X124.33Y-46.384
X124.5Y-54.75
X124.52Y-171.74
X124.75Y-40.75
X124.793Y-118.613
X124.857Y-58.44
X125.081Y-156.184
X125.182Y-71.408
X125.447Y-147.769
X125.507Y-92.304
X125.548Y-87.344
X125.833Y-62.018
X126.28Y-82.222
X126.39Y-105.646
X126.5Y-51.5
X126.5Y-152.0
X126.732Y-110.033
X126.89Y-73.929
X126.985Y-100.258
X127.0Y-53.5
X127.07Y-116.066
X127.093Y-67.099
X127.174Y-79.783
X127.666Y-126.69
X127.865Y-84.58
X127.961Y-108.045
X128.0Y-50.25
X128.191Y-160.514
X128.25Y-97.223
X128.25Y-47.75
X128.597Y-59.985
X128.76Y-62.587
X128.801Y-155.818
X129.0Y-44.0
X129.167Y-164.965
X129.247Y-65.636
X129.334Y-113.701
X129.369Y-68.156
X129.478Y-103.42
X129.533Y-168.624
X130.447Y-150.025
X130.467Y-75.514
X130.467Y-80.921
X130.5Y-46.75
X130.5Y-58.5
X130.691Y-161.124
X130.75Y-99.5
X130.752Y-70.921
X130.752Y-78.441
X130.815Y-110.358
X130.833Y-83.523
X131.036Y-63.4
X131.177Y-106.257
X131.339Y-115.399
X131.5Y-44.0
X131.5Y-54.5
X131.646Y-77.466
X131.677Y-125.443
X131.727Y-73.685
X131.768Y-80.433
X131.809Y-66.855
X132.0Y-157.0
X132.459Y-85.84
X132.704Y-164.965
X132.75Y-51.5
X133.25Y-109.0
X133.303Y-93.056
X133.309Y-117.567
X133.496Y-162.465
X133.742Y-113.05
X133.75Y-62.75
X133.959Y-102.137
X134.0Y-68.5
X134.0Y-77.5
X134.198Y-123.167
X134.25Y-47.75
X134.25Y-59.5
X134.25Y-81.25
X134.5Y-153.5
X134.55Y-128.885
X135.25Y-57.0
X135.309Y-131.731
X135.567Y-119.392
X135.603Y-111.189
X135.749Y-160.048
X135.75Y-65.75
X135.75Y-71.25
X135.875Y-163.174
X136.176Y-96.552
X136.25Y-75.25
X136.42Y-130.918
X136.5Y-81.75
X136.868Y-116.357
X136.962Y-125.66
X137.0Y-88.25
X137.0Y-136.0
X137.031Y-105.245
X137.775Y-128.289
X138.0Y-70.5
X138.182Y-133.709
X138.25Y-60.0
X138.25Y-76.25
X138.25Y-81.75
X138.615Y-130.267
X138.669Y-98.585
X138.675Y-108.118
X138.805Y-135.661
X138.928Y-123.15
X139.0Y-89.25
X139.228Y-158.318
X139.25Y-51.0
X139.482Y-129.264
X139.672Y-132.029
X139.813Y-115.453
X139.994Y-119.211
X140.0Y-56.75
X140.0Y-68.0
X140.0Y-73.0
X140.0Y-79.5
X140.0Y-82.25
X140.229Y-111.749
X140.5Y-62.25
X140.699Y-155.151
X141.06Y-109.31
X141.5Y-101.5
X141.75Y-66.0
X141.75Y-70.5
X142.0Y-73.5
X142.0Y-79.0
X142.25Y-53.75
X142.25Y-91.75
X142.5Y-88.0
X142.633Y-156.416
X142.75Y-139.75
X143.0Y-74.5
X143.011Y-127.83
X143.047Y-122.211
X143.102Y-114.839
X143.25Y-93.25
X143.337Y-118.94
X143.75Y-62.0
X144.0Y-56.5
X144.0Y-69.0
X144.024Y-152.893
X144.5Y-86.0
X144.5Y-136.5
X144.783Y-138.981
X145.174Y-106.282
X145.25Y-74.75
X145.5Y-84.5
X145.5Y-130.0
X145.75Y-59.5
X145.812Y-121.922
X145.812Y-125.517
X145.866Y-115.399
X146.0Y-88.0
X146.011Y-112.635
X146.084Y-137.228
X146.228Y-134.807
X146.25Y-76.75
X146.5Y-79.5
X146.5Y-92.25
X146.5Y-95.75
X146.5Y-129.0
X146.626Y-149.875
X147.149Y-119.049
X147.204Y-151.682
X147.25Y-65.5
X147.619Y-127.486
X147.637Y-139.866
X147.836Y-132.946
X148.0Y-62.75
X148.0Y-89.0
X148.071Y-135.331
X148.234Y-147.599
X148.5Y-131.0
X148.75Y-98.25
X148.865Y-116.863
X149.065Y-149.803
X149.388Y-70.388
X149.462Y-109.382
X149.642Y-126.204
X149.75Y-74.75
X149.75Y-77.5
X150.0Y-92.0
X150.0Y-95.5
X150.0Y-100.0
X150.0Y-103.0
X150.25Y-89.25
X150.348Y-82.767
X150.437Y-122.644
X150.5Y-130.0
X150.637Y-133.506
X150.637Y-146.009
X150.727Y-148.123
X150.75Y-86.25
X150.926Y-136.722
X151.0Y-128.5
X151.268Y-119.5
X151.396Y-139.848
X151.5Y-66.25
X152.0Y-62.75
X152.0Y-97.75
X152.25Y-91.5
X152.25Y-105.75
X152.497Y-131.064
X152.5Y-89.0
X152.544Y-84.691
X152.588Y-145.377
X152.75Y-112.75
X152.769Y-143.226
X153.0Y-127.5
X153.25Y-79.25
X153.816Y-121.271
X154.25Y-68.75
X154.25Y-99.5
X154.286Y-133.596
X154.412Y-128.824
X154.5Y-103.5
X154.75Y-72.0
X154.75Y-114.75
X155.154Y-136.343
X155.353Y-140.39
X155.5Y-122.75
X156.0Y-93.5
X156.0Y-106.75
X156.5Y-81.25
X156.5Y-86.75
X156.5Y-90.75
X156.527Y-142.757
X156.833Y-131.064
X157.25Y-99.75
X157.25Y-109.5
X157.5Y-96.0
X157.75Y-92.0
X157.918Y-133.56
X158.0Y-70.0
X158.047Y-84.6
X158.081Y-138.42
X158.25Y-103.75
X158.5Y-74.25
X158.75Y-78.5
X158.75Y-129.0
X158.984Y-139.523
X159.5Y-105.5
X159.5Y-109.0
X160.25Y-102.75
X160.5Y-130.75
X160.628Y-135.909
X160.75Y-95.25
X161.496Y-137.119
X161.5Y-82.75
X161.75Y-129.75
X162.002Y-133.361
X162.25Y-73.5
X162.75Y-101.25
X162.75Y-107.0
X164.0Y-88.0
X164.0Y-124.0
X164.25Y-130.75
X164.75Y-85.0
X164.75Y-109.25
X164.784Y-133.524
X165.25Y-91.75
X165.5Y-75.75
X166.612Y-112.922
X167.75Y-96.0
X167.94Y-130.945
X168.183Y-82.703
X168.25Y-79.75
X168.5Y-88.75
X169.0Y-85.0
X169.0Y-127.25
X169.25Y-115.25
X169.864Y-81.267
X170.0Y-121.0
T3
X123.044Y-92.732
X123.398Y-116.915
X124.459Y-94.146
X124.812Y-115.501
X132.732Y-126.956
X133.085Y-83.398
X134.146Y-125.541
X134.499Y-84.812
X155.501Y-125.188
X155.854Y-84.459
X156.915Y-126.602
X157.268Y-83.044
X165.188Y-94.499
X165.541Y-115.854
X166.602Y-93.085
X166.956Y-117.268
T4
X84.023Y-81.977
X85.819Y-80.181
X85.819Y-83.773
X87.615Y-81.977
X92.408Y-101.796
X94.204Y-100.0
X94.204Y-103.592
X96.0Y-101.796
X135.0Y-53.5
X136.796Y-51.704
X136.796Y-55.296
X138.592Y-53.5
X160.704Y-78.796
X162.5Y-77.0
X162.5Y-80.592
X164.296Y-78.796
T5
X144.0Y-65.0
X147.592Y-68.592
X151.184Y-72.184
X154.776Y-75.776
T6
X105.423Y-81.985
X113.908Y-73.5
X122.365Y-65.043
T7
X101.831Y-81.985
X105.423Y-78.393
X105.423Y-85.577
X109.015Y-81.985
X110.316Y-73.5
X113.908Y-69.908
X113.908Y-77.092
X117.5Y-73.5
X118.773Y-65.043
X122.365Y-61.451
X122.365Y-68.635
X125.957Y-65.043
M30
