%TF.GenerationSoftware,KiCad,Pcbnew,9.0.7*%
%TF.CreationDate,2026-05-25T14:52:45+02:00*%
%TF.ProjectId,DreamCrusher-breakout-external,44726561-6d43-4727-9573-6865722d6272,A*%
%TF.SameCoordinates,Original*%
%TF.FileFunction,Copper,L3,Inr*%
%TF.FilePolarity,Positive*%
%FSLAX46Y46*%
G04 Gerber Fmt 4.6, Leading zero omitted, Abs format (unit mm)*
G04 Created by KiCad (PCBNEW 9.0.7) date 2026-05-25 14:52:45*
%MOMM*%
%LPD*%
G01*
G04 APERTURE LIST*
G04 Aperture macros list*
%AMHorizOval*
0 Thick line with rounded ends*
0 $1 width*
0 $2 $3 position (X,Y) of the first rounded end (center of the circle)*
0 $4 $5 position (X,Y) of the second rounded end (center of the circle)*
0 Add line between two ends*
20,1,$1,$2,$3,$4,$5,0*
0 Add two circle primitives to create the rounded ends*
1,1,$1,$2,$3*
1,1,$1,$4,$5*%
%AMRotRect*
0 Rectangle, with rotation*
0 The origin of the aperture is its center*
0 $1 length*
0 $2 width*
0 $3 Rotation angle, in degrees counterclockwise*
0 Add horizontal line*
21,1,$1,$2,0,0,$3*%
G04 Aperture macros list end*
%TA.AperFunction,ComponentPad*%
%ADD10C,1.700000*%
%TD*%
%TA.AperFunction,ComponentPad*%
%ADD11HorizOval,1.700000X0.000000X0.000000X0.000000X0.000000X0*%
%TD*%
%TA.AperFunction,ComponentPad*%
%ADD12HorizOval,1.700000X0.000000X0.000000X0.000000X0.000000X0*%
%TD*%
%TA.AperFunction,ComponentPad*%
%ADD13RotRect,2.600000X2.600000X135.000000*%
%TD*%
%TA.AperFunction,ComponentPad*%
%ADD14C,2.600000*%
%TD*%
%TA.AperFunction,ComponentPad*%
%ADD15HorizOval,1.700000X0.000000X0.000000X0.000000X0.000000X0*%
%TD*%
%TA.AperFunction,ComponentPad*%
%ADD16C,2.050000*%
%TD*%
%TA.AperFunction,ComponentPad*%
%ADD17C,2.250000*%
%TD*%
%TA.AperFunction,ComponentPad*%
%ADD18C,1.200000*%
%TD*%
%TA.AperFunction,ViaPad*%
%ADD19C,0.800000*%
%TD*%
%TA.AperFunction,ViaPad*%
%ADD20C,0.500000*%
%TD*%
G04 APERTURE END LIST*
D10*
%TO.N,/IO17*%
%TO.C,J12*%
X138592102Y-53500000D03*
D11*
%TO.N,/IO16*%
X136796051Y-55296051D03*
%TO.N,/IO18*%
X136796051Y-51703949D03*
%TO.N,/IO19*%
X135000000Y-53500000D03*
%TD*%
D10*
%TO.N,/CLKin*%
%TO.C,J9*%
X92407898Y-101796051D03*
D12*
%TO.N,GNDD*%
X94203949Y-100000000D03*
%TO.N,/CLKout*%
X94203949Y-103592102D03*
%TO.N,GNDD*%
X96000000Y-101796051D03*
%TD*%
D13*
%TO.N,GNDD*%
%TO.C,J8*%
X154776308Y-75776308D03*
D14*
X151184205Y-72184205D03*
%TO.N,Net-(D2-A)*%
X147592103Y-68592103D03*
%TO.N,Net-(D1-A)*%
X144000000Y-65000000D03*
%TD*%
D10*
%TO.N,/IO0*%
%TO.C,J10*%
X85819157Y-83772945D03*
D15*
%TO.N,/IO1*%
X84023106Y-81976894D03*
%TO.N,/IO3*%
X87615208Y-81976894D03*
%TO.N,/IO2*%
X85819157Y-80180843D03*
%TD*%
D16*
%TO.N,/DAC_Ext*%
%TO.C,J6*%
X113907898Y-73500000D03*
D17*
%TO.N,GNDA*%
X113907898Y-77092102D03*
X117500000Y-73500000D03*
X110315796Y-73500000D03*
X113907898Y-69907898D03*
%TD*%
D16*
%TO.N,/VRef*%
%TO.C,J5*%
X105422617Y-81985281D03*
D17*
%TO.N,GNDA*%
X105422617Y-85577383D03*
X109014719Y-81985281D03*
X101830515Y-81985281D03*
X105422617Y-78393179D03*
%TD*%
D16*
%TO.N,/Ext*%
%TO.C,J7*%
X122364896Y-65043004D03*
D17*
%TO.N,GNDA*%
X122364896Y-68635106D03*
X125956998Y-65043004D03*
X118772794Y-65043004D03*
X122364896Y-61450902D03*
%TD*%
D10*
%TO.N,/IO4*%
%TO.C,J11*%
X164296051Y-78796051D03*
D11*
%TO.N,/IO5*%
X162500000Y-80592102D03*
%TO.N,/IO7*%
X162500000Y-77000000D03*
%TO.N,/IO6*%
X160703949Y-78796051D03*
%TD*%
D18*
%TO.N,*%
%TO.C,J1*%
X157268303Y-83044334D03*
X155854090Y-84458548D03*
X166602113Y-93085250D03*
X165187899Y-94499464D03*
%TD*%
%TO.N,*%
%TO.C,J2*%
X166955666Y-117268303D03*
X165541452Y-115854090D03*
X156914750Y-126602113D03*
X155500536Y-125187899D03*
%TD*%
%TO.N,*%
%TO.C,J4*%
X123044334Y-92731697D03*
X124458548Y-94145910D03*
X133085250Y-83397887D03*
X134499464Y-84812101D03*
%TD*%
%TO.N,*%
%TO.C,J3*%
X132731697Y-126955666D03*
X134145910Y-125541452D03*
X123397887Y-116914750D03*
X124812101Y-115500536D03*
%TD*%
D19*
%TO.N,GNDA*%
X107416771Y-74010241D03*
X106847629Y-68034256D03*
X127865211Y-84580011D03*
X97416142Y-80758633D03*
X100952950Y-74294812D03*
X119937883Y-81490386D03*
X131767895Y-80433409D03*
X131727242Y-73685018D03*
X131036142Y-63399818D03*
X111278802Y-83807605D03*
X94448476Y-78766638D03*
X129247411Y-65635731D03*
X128759576Y-62586759D03*
X127092804Y-67099238D03*
X121645308Y-58643422D03*
X105250000Y-73500000D03*
X127174110Y-79782962D03*
X121604655Y-72099552D03*
X125832563Y-62017618D03*
X130832877Y-83523034D03*
X121360737Y-83319770D03*
X112782962Y-65595078D03*
X99001608Y-83523034D03*
X123921873Y-77750314D03*
X106359794Y-90108814D03*
X131645936Y-77465743D03*
X114327774Y-81327774D03*
X118596335Y-68034256D03*
X102091233Y-86409395D03*
X125507339Y-92304074D03*
X126889540Y-73928935D03*
X110669008Y-77506396D03*
X125182115Y-71408452D03*
X110547049Y-89051837D03*
X120263107Y-75351789D03*
X118636988Y-90555997D03*
X114652998Y-82831934D03*
X125547992Y-87344413D03*
X114734304Y-87913554D03*
X132458995Y-85840253D03*
X108839625Y-65025937D03*
X107294812Y-87059842D03*
X111034885Y-79742309D03*
X119572007Y-87913554D03*
X99774014Y-77547049D03*
X130751571Y-78441414D03*
X122742938Y-90190120D03*
X128596964Y-59984969D03*
X130467000Y-75514401D03*
X114652998Y-91125138D03*
X124856892Y-58440157D03*
X109896602Y-90881220D03*
X117864582Y-69822986D03*
X108189177Y-77018560D03*
X130467000Y-80921245D03*
X129369370Y-68156215D03*
X123677956Y-85149153D03*
X130751571Y-70920616D03*
X123799915Y-74620036D03*
X111238149Y-67993603D03*
X117132829Y-59700399D03*
X131808548Y-66855320D03*
X118677641Y-61367170D03*
X113230144Y-61001294D03*
X96196553Y-76977908D03*
X108392442Y-69497763D03*
X116360423Y-78685332D03*
X115872587Y-66530096D03*
X115018875Y-62911983D03*
X103595393Y-70229516D03*
X117214135Y-83441728D03*
X126279745Y-82222140D03*
X98432466Y-74945259D03*
X118555682Y-81856263D03*
%TO.N,/SDO0*%
X142750000Y-139750000D03*
%TO.N,/~{CS}*%
X156000000Y-93500000D03*
X132000000Y-157000000D03*
X157500000Y-96000000D03*
%TO.N,/SDI*%
X134500000Y-153500000D03*
%TO.N,/SCK*%
X144500000Y-136500000D03*
%TO.N,/SDI1*%
X151000000Y-128500000D03*
%TO.N,/\u002ACS*%
X126500000Y-152000000D03*
%TO.N,/CNV*%
X153000000Y-127500000D03*
%TO.N,/+Vin*%
X144500000Y-86000000D03*
%TO.N,/-Vin*%
X148000000Y-89000000D03*
%TO.N,/CLK*%
X137000000Y-136000000D03*
%TO.N,/BSY*%
X123000000Y-141500000D03*
%TO.N,/IO1*%
X148500000Y-131000000D03*
X145500000Y-130000000D03*
%TO.N,/IO0*%
X150500000Y-130000000D03*
X146500000Y-129000000D03*
%TO.N,/IO6*%
X159500000Y-105500000D03*
X159500000Y-109000000D03*
%TO.N,/IO19*%
X141500000Y-101500000D03*
X142250000Y-91750000D03*
D20*
%TO.N,GNDD*%
X134000000Y-105000000D03*
D19*
X133750000Y-62750000D03*
X107623373Y-60192902D03*
X90488149Y-91780253D03*
X92744389Y-68791004D03*
X105733010Y-114403627D03*
X144000000Y-56500000D03*
X114653784Y-149537436D03*
X142000000Y-73500000D03*
X102750000Y-36250000D03*
X135603484Y-111189177D03*
X156833364Y-131063959D03*
X140000000Y-68000000D03*
X94500000Y-40500000D03*
X66750000Y-107000000D03*
X141750000Y-66000000D03*
X67000000Y-97000000D03*
X110751100Y-178319733D03*
X68446239Y-128963433D03*
X126390205Y-105646130D03*
X149750000Y-74750000D03*
X164750000Y-85000000D03*
X164000000Y-88000000D03*
X127960727Y-108045348D03*
X116250000Y-141750000D03*
X117197145Y-96780568D03*
X137000000Y-88250000D03*
X107519189Y-127097001D03*
X91969431Y-145329854D03*
X146010642Y-112634616D03*
X97945417Y-128011692D03*
X103250000Y-134750000D03*
X110141305Y-145329854D03*
X98537436Y-92512007D03*
X149388154Y-70388154D03*
X167750000Y-96000000D03*
X121829854Y-44310350D03*
X149461627Y-109382379D03*
X114223434Y-121269411D03*
X119270446Y-94097472D03*
X150925848Y-136722004D03*
X150000000Y-92000000D03*
X145866098Y-115399017D03*
X112257810Y-104707895D03*
X121483481Y-175331740D03*
X93415163Y-115196360D03*
X148000000Y-62750000D03*
X106250000Y-129750000D03*
X147250000Y-65500000D03*
X93610423Y-158070953D03*
X153250000Y-79250000D03*
X96098258Y-90438706D03*
X102335936Y-141000314D03*
X77267932Y-138029043D03*
X111099201Y-96963506D03*
X130815468Y-110358050D03*
X144000000Y-69000000D03*
X104511692Y-43883494D03*
X73004825Y-130206952D03*
X164250000Y-130750000D03*
X101830326Y-91902212D03*
X118841862Y-47420302D03*
X77999685Y-147379224D03*
X157918157Y-133560107D03*
X143101697Y-114838910D03*
X103537750Y-118001414D03*
X83894365Y-158721401D03*
X162250000Y-73500000D03*
X132703699Y-164965235D03*
X90793047Y-74949927D03*
X90122273Y-49094644D03*
X115500000Y-27750000D03*
X117502773Y-124142220D03*
X98070657Y-98801874D03*
X124519503Y-171739610D03*
X150636760Y-133505903D03*
X94390834Y-60924655D03*
X139813324Y-115453221D03*
X116750000Y-54250000D03*
X73527859Y-144208293D03*
X82146287Y-104856226D03*
X115812393Y-177831897D03*
X144023879Y-152892849D03*
X110019346Y-157159866D03*
X99513107Y-89645973D03*
X81785864Y-125877412D03*
X125447145Y-147769032D03*
X77250000Y-117500000D03*
X70382708Y-121121015D03*
X133959297Y-102137118D03*
X140000000Y-73000000D03*
X137030854Y-105244811D03*
X123312865Y-165636009D03*
X131500000Y-54500000D03*
X145500000Y-84500000D03*
X120732224Y-49432624D03*
X104208524Y-57936663D03*
X71750000Y-97250000D03*
X70885417Y-71195574D03*
X69250000Y-95000000D03*
X94573772Y-85987206D03*
X126732104Y-110032826D03*
X100567533Y-150635066D03*
X74000000Y-68750000D03*
X139000000Y-89250000D03*
X152750000Y-112750000D03*
X106848415Y-148683724D03*
X86224413Y-66976928D03*
X72500000Y-87000000D03*
X131339440Y-115399017D03*
X145811894Y-121921559D03*
X112134123Y-50896130D03*
X134250000Y-47750000D03*
X103500000Y-93750000D03*
X130500000Y-46750000D03*
X110690120Y-138622116D03*
X67500000Y-103500000D03*
X69500000Y-114250000D03*
X90000314Y-65863990D03*
X124330011Y-46383651D03*
X125081269Y-156184195D03*
X108555840Y-160940592D03*
X95750157Y-143439492D03*
X128801015Y-155818318D03*
X109714449Y-174173131D03*
X119939492Y-41078440D03*
X104147545Y-110135066D03*
X140000000Y-56750000D03*
X152250000Y-91500000D03*
X66250000Y-84750000D03*
X132750000Y-51500000D03*
X168250000Y-79750000D03*
X101401741Y-44615248D03*
X73365248Y-123393977D03*
X104500000Y-52000000D03*
X161750000Y-129750000D03*
X92561450Y-87328754D03*
X103250000Y-39250000D03*
X96159238Y-57753724D03*
X86500000Y-126750000D03*
X155500000Y-122750000D03*
X130750000Y-99500000D03*
X97622744Y-105256710D03*
X139250000Y-51000000D03*
X111811358Y-118450806D03*
X85000000Y-119250000D03*
X87992817Y-147835669D03*
X107928270Y-99402684D03*
X147148925Y-119048750D03*
X169250000Y-115250000D03*
X146000000Y-88000000D03*
X158047326Y-84600439D03*
X156526923Y-142756710D03*
X150727100Y-148122901D03*
X93000000Y-169000000D03*
X133250000Y-109000000D03*
X113250000Y-129750000D03*
X147836223Y-132945796D03*
X140500000Y-62250000D03*
X135308770Y-131730773D03*
X152500000Y-89000000D03*
X119779338Y-114033184D03*
X133742481Y-113050179D03*
X158000000Y-70000000D03*
X118171088Y-33212092D03*
X135748742Y-160047770D03*
X92378512Y-98731910D03*
X76750000Y-112250000D03*
X158250000Y-103750000D03*
X144782734Y-138980502D03*
X160500000Y-130750000D03*
X92622430Y-94768246D03*
X102196202Y-55558464D03*
X68000000Y-88750000D03*
X121500000Y-35500000D03*
X80000000Y-122000000D03*
X119105283Y-159355126D03*
X150636760Y-146008947D03*
X152250000Y-105750000D03*
X113250000Y-159000000D03*
X104958053Y-169355755D03*
X148233719Y-147598930D03*
X158750000Y-78500000D03*
X86097629Y-93304740D03*
X102000000Y-48750000D03*
X165250000Y-91750000D03*
X103354812Y-113427956D03*
X76772600Y-125273275D03*
X134250000Y-81250000D03*
X157250000Y-99750000D03*
X98964292Y-111293675D03*
X92866348Y-89889891D03*
X109500000Y-31250000D03*
X120183409Y-53213349D03*
X158080769Y-138420394D03*
X142500000Y-88000000D03*
X138669415Y-98585058D03*
X124793204Y-118613417D03*
X136500000Y-81750000D03*
X90915005Y-82877255D03*
X78750000Y-71750000D03*
X66500000Y-110000000D03*
X102945731Y-145390834D03*
X76602612Y-141671088D03*
X107987521Y-36626941D03*
X156000000Y-106750000D03*
X152543740Y-84690786D03*
X114250000Y-32000000D03*
X115733639Y-99585622D03*
X161500000Y-82750000D03*
X85000000Y-73242503D03*
X149750000Y-77500000D03*
X138250000Y-81750000D03*
X139994003Y-119211362D03*
X150437298Y-122644278D03*
X158984168Y-139522541D03*
X78292261Y-89097158D03*
X78000000Y-93000000D03*
X150250000Y-89250000D03*
X115914848Y-51262007D03*
X85304897Y-87328754D03*
X84390205Y-77511064D03*
X154250000Y-99500000D03*
X77250000Y-98000000D03*
X81373881Y-99693300D03*
X107000000Y-177750000D03*
X100500000Y-41500000D03*
X117340161Y-116255546D03*
X81585151Y-68730024D03*
X157750000Y-92000000D03*
X135875218Y-163173531D03*
X169863787Y-81266896D03*
X128249814Y-97222626D03*
X86250000Y-140000000D03*
X87927013Y-75437763D03*
X164000000Y-124000000D03*
X73250000Y-64750000D03*
X127069770Y-116065832D03*
X82194945Y-76657352D03*
X109513735Y-104463978D03*
X68980181Y-126182309D03*
X122337194Y-168745960D03*
X145173889Y-106282019D03*
X78750000Y-58250000D03*
X102379141Y-96536650D03*
X146500000Y-79500000D03*
X93250000Y-110000000D03*
X150000000Y-103000000D03*
X102274957Y-165148173D03*
X107745332Y-112635223D03*
X70247642Y-77630319D03*
X136250000Y-75250000D03*
X134197589Y-123166549D03*
X73000000Y-137500000D03*
X81585151Y-60070943D03*
X80980181Y-135944678D03*
X156500000Y-90750000D03*
X90000000Y-99500000D03*
X108599044Y-94036493D03*
X88841704Y-94829226D03*
X141060014Y-109310107D03*
X140000000Y-79500000D03*
X94591547Y-124779782D03*
X93781039Y-83730967D03*
X72750000Y-93250000D03*
X149642306Y-126203671D03*
X113572986Y-109290338D03*
X152000000Y-97750000D03*
X88920459Y-153074243D03*
X92750000Y-106750000D03*
X152000000Y-62750000D03*
X154750000Y-72000000D03*
X145811894Y-125517088D03*
X88658766Y-57143930D03*
X85060979Y-62571100D03*
X64250000Y-91500000D03*
X119372809Y-117881664D03*
X82194945Y-78913591D03*
X112000000Y-55250000D03*
X113597629Y-35163434D03*
X162750000Y-101250000D03*
X131500000Y-44000000D03*
X104592176Y-137646444D03*
X97378826Y-49582479D03*
X97500785Y-116537907D03*
X101220531Y-118977085D03*
X81500000Y-53750000D03*
X154250000Y-68750000D03*
X152768782Y-143226478D03*
X157250000Y-109500000D03*
X136868242Y-116356620D03*
X139672188Y-132028895D03*
X69000000Y-124250000D03*
X86000000Y-50000000D03*
X101500000Y-160250000D03*
X101098572Y-114525586D03*
X131677105Y-125443115D03*
X148071107Y-135330769D03*
X100427799Y-65559093D03*
X146250000Y-76750000D03*
X105367133Y-96353712D03*
X89408295Y-164294461D03*
X89878355Y-81596687D03*
X143336580Y-118940342D03*
X136176033Y-96552410D03*
X143250000Y-93250000D03*
X130500000Y-58500000D03*
X129478437Y-103419945D03*
X168500000Y-88750000D03*
X141750000Y-70500000D03*
X162001522Y-133361359D03*
X110934038Y-149720374D03*
X138250000Y-60000000D03*
X160628355Y-135908945D03*
X90500000Y-131250000D03*
X113660338Y-93792575D03*
X99147230Y-54582793D03*
X147203844Y-151682294D03*
X129333893Y-113700627D03*
X150750000Y-86250000D03*
X99713820Y-156245174D03*
X160750000Y-95250000D03*
X68000000Y-75250000D03*
X154750000Y-114750000D03*
X95811136Y-172526686D03*
X74363755Y-73056861D03*
X98250000Y-123750000D03*
X156500000Y-81250000D03*
X95384280Y-164904255D03*
X88353869Y-79950242D03*
X118800386Y-176368391D03*
X77500000Y-95500000D03*
X133303224Y-93056255D03*
X93676856Y-120023385D03*
X89750000Y-44500000D03*
X135567348Y-119392042D03*
X129532768Y-168624001D03*
X85250000Y-58500000D03*
X152497048Y-131063959D03*
X142250000Y-53750000D03*
X84750000Y-98750000D03*
X74828754Y-133110035D03*
X148865383Y-116862524D03*
X70844764Y-112051800D03*
X96750000Y-38500000D03*
X116066368Y-112136045D03*
X158500000Y-74250000D03*
X114409866Y-156367133D03*
X84422853Y-105994509D03*
X98964292Y-96780568D03*
X138675041Y-108117620D03*
X71500000Y-114750000D03*
X170000000Y-121000000D03*
X82499842Y-85133494D03*
X68750000Y-100250000D03*
X69250000Y-109750000D03*
X139482474Y-129264493D03*
X86890362Y-90011850D03*
X94451813Y-52387533D03*
X80304582Y-82267460D03*
X152588102Y-145376568D03*
X87378198Y-70193531D03*
X76500000Y-77500000D03*
X166611550Y-112922003D03*
X105090068Y-106254917D03*
X131176828Y-106256618D03*
X105811765Y-159111208D03*
X135750000Y-71250000D03*
X134000000Y-68500000D03*
X153816010Y-121271112D03*
X146083629Y-137227908D03*
X100564038Y-101945703D03*
X94878669Y-65924970D03*
X145750000Y-59500000D03*
X151268425Y-119500449D03*
X136961990Y-125659931D03*
X155352504Y-140389805D03*
X97195888Y-69095901D03*
X120185868Y-126933724D03*
X78406215Y-152460844D03*
X100000942Y-58912334D03*
X169000000Y-85000000D03*
X150348480Y-82766545D03*
X130447460Y-150025271D03*
X81500000Y-96750000D03*
X94250000Y-127000000D03*
X82316904Y-89158137D03*
X145250000Y-74750000D03*
X65500000Y-112500000D03*
X97622744Y-113305997D03*
X113172502Y-100012478D03*
X116250000Y-182500000D03*
X92017460Y-58134909D03*
X140000000Y-82250000D03*
X93963978Y-71961935D03*
X128191220Y-160513735D03*
X89268560Y-87511692D03*
X154286493Y-133596243D03*
X106525743Y-102024800D03*
X164783991Y-133523971D03*
X155153756Y-136342576D03*
X158750000Y-129000000D03*
X70750000Y-116500000D03*
X124500000Y-54750000D03*
X104025586Y-122087037D03*
X115873373Y-135329226D03*
X66901427Y-81724691D03*
X85792732Y-54338876D03*
X146228172Y-134806798D03*
X156500000Y-86750000D03*
X154500000Y-103500000D03*
X115019661Y-176673288D03*
X64000000Y-109250000D03*
X120500000Y-137500000D03*
X112458524Y-133133966D03*
X91158923Y-62875998D03*
X95933095Y-147220217D03*
X96542889Y-136487835D03*
X135250000Y-57000000D03*
X121893292Y-115442486D03*
X121526686Y-96902527D03*
X140699370Y-155151347D03*
X63567884Y-120223046D03*
X119000000Y-110000000D03*
X126500000Y-51500000D03*
X164750000Y-109250000D03*
X63750000Y-100500000D03*
X117214921Y-174173131D03*
X133496432Y-162465078D03*
X96529939Y-159848619D03*
X95500000Y-44250000D03*
X107501414Y-122818790D03*
X105933724Y-173563336D03*
X134000000Y-77500000D03*
X151395616Y-139847765D03*
X87000000Y-103500000D03*
X113416420Y-102451656D03*
X118861365Y-150878984D03*
X115500000Y-105750000D03*
X162750000Y-107000000D03*
X124750000Y-40750000D03*
X149064846Y-149803224D03*
X75248114Y-95515307D03*
X88676541Y-158806311D03*
X91725513Y-135390205D03*
X139228499Y-158318476D03*
X94390834Y-92390048D03*
X101220531Y-109037436D03*
X135750000Y-65750000D03*
X77260435Y-82953542D03*
X87805054Y-85072515D03*
X110835687Y-108341769D03*
X148750000Y-98250000D03*
X79000000Y-67750000D03*
X138181579Y-133709217D03*
X143047493Y-122210647D03*
X103415791Y-62936977D03*
X94500000Y-48750000D03*
X105750000Y-33250000D03*
X105243446Y-49920459D03*
X146625668Y-149875496D03*
X103476771Y-99890519D03*
X138927992Y-123150182D03*
X146500000Y-95750000D03*
X142000000Y-79000000D03*
X103372587Y-151061922D03*
X79024014Y-85194474D03*
X143750000Y-62000000D03*
X161495618Y-137119500D03*
X128250000Y-47750000D03*
X150000000Y-95500000D03*
X151500000Y-66250000D03*
X70153664Y-137012719D03*
X169000000Y-127250000D03*
X107377726Y-52481596D03*
X86786179Y-134597472D03*
X103555525Y-173624316D03*
X80750000Y-147250000D03*
X134549915Y-128885066D03*
X90750000Y-53000000D03*
X127666013Y-126689806D03*
X100732696Y-94646287D03*
X103250628Y-128072672D03*
X128000000Y-50250000D03*
X143011357Y-127829790D03*
X127000000Y-53500000D03*
X79463192Y-115263384D03*
X81846844Y-154293832D03*
X150000000Y-100000000D03*
X100000942Y-106232381D03*
X138615211Y-130267266D03*
X97622744Y-63180895D03*
X89573458Y-71474099D03*
X137775050Y-128288822D03*
X167939547Y-130944816D03*
X94957424Y-151122901D03*
X110611365Y-101597944D03*
X109534792Y-116336852D03*
X133308850Y-117567175D03*
X108231439Y-48700870D03*
X138250000Y-76250000D03*
X72750000Y-82000000D03*
X81129963Y-110832212D03*
X84829383Y-111645271D03*
X77250000Y-62750000D03*
X123000000Y-100250000D03*
X63000000Y-104750000D03*
X160250000Y-102750000D03*
X138000000Y-70500000D03*
X82750000Y-131750000D03*
X168183465Y-82703301D03*
X147618692Y-127486498D03*
X130691377Y-161123530D03*
X89939334Y-89158137D03*
X165500000Y-75750000D03*
X122276214Y-161550386D03*
X82064981Y-143923722D03*
X85500000Y-130750000D03*
X81750000Y-63750000D03*
X147637475Y-139865833D03*
X108288101Y-108558585D03*
X138804925Y-135660559D03*
X134250000Y-59500000D03*
X101787121Y-170575344D03*
X87761850Y-115815804D03*
X89835151Y-140268560D03*
X65931209Y-125999371D03*
X87395973Y-123743132D03*
X146500000Y-92250000D03*
X126985056Y-100258047D03*
X154412254Y-128823529D03*
X136419951Y-130917714D03*
X73812430Y-116848850D03*
X123167085Y-113789266D03*
X122137210Y-121459125D03*
X140228887Y-111749285D03*
X142632644Y-156416106D03*
X97317847Y-87084836D03*
X120141934Y-164721317D03*
X124061450Y-123545977D03*
X129000000Y-44000000D03*
X98049600Y-108793518D03*
X129166891Y-164965235D03*
X116585622Y-35712249D03*
X85000000Y-151750000D03*
X118129612Y-146366505D03*
X111890205Y-53274328D03*
%TO.N,Net-(D2-A)*%
X143000000Y-74500000D03*
%TD*%
%TA.AperFunction,Conductor*%
%TO.N,GNDD*%
G36*
X95149054Y-100711760D02*
G01*
X95163610Y-100714458D01*
X95187252Y-100714458D01*
X95198428Y-100720910D01*
X95211116Y-100723262D01*
X95229090Y-100738613D01*
X95249564Y-100750434D01*
X95256016Y-100761610D01*
X95265829Y-100769991D01*
X95273719Y-100792271D01*
X95285540Y-100812746D01*
X95285540Y-100825652D01*
X95289847Y-100837815D01*
X95289847Y-100852552D01*
X95781910Y-101344615D01*
X95692993Y-101395952D01*
X95599901Y-101489044D01*
X95548564Y-101577961D01*
X95054892Y-101084289D01*
X95040334Y-101081591D01*
X95016695Y-101081591D01*
X95005517Y-101075137D01*
X94992829Y-101072786D01*
X94974856Y-101057435D01*
X94954383Y-101045615D01*
X94947929Y-101034436D01*
X94938117Y-101026056D01*
X94930227Y-101003776D01*
X94918407Y-100983303D01*
X94916806Y-100965876D01*
X94914099Y-100958232D01*
X94915439Y-100951000D01*
X94914815Y-100944211D01*
X94422038Y-100451435D01*
X94510956Y-100400099D01*
X94604048Y-100307007D01*
X94655384Y-100218090D01*
X95149054Y-100711760D01*
G37*
%TD.AperFunction*%
%TA.AperFunction,Conductor*%
G36*
X116111049Y-25665103D02*
G01*
X116126913Y-25666633D01*
X116417408Y-25711611D01*
X116432985Y-25714948D01*
X116716415Y-25792927D01*
X116731510Y-25798028D01*
X116976051Y-25896654D01*
X117004129Y-25907978D01*
X117018562Y-25914787D01*
X117276765Y-26055250D01*
X117290321Y-26063667D01*
X117530728Y-26232803D01*
X117543226Y-26242716D01*
X117765753Y-26441048D01*
X117771552Y-26446524D01*
X117802285Y-26477258D01*
X117802289Y-26477260D01*
X170406068Y-79081039D01*
X170411425Y-79086706D01*
X170605345Y-79303706D01*
X170615064Y-79315893D01*
X170781204Y-79550051D01*
X170789497Y-79563249D01*
X170928378Y-79814542D01*
X170935141Y-79828586D01*
X170956189Y-79879401D01*
X171036762Y-80073930D01*
X171045008Y-80093837D01*
X171050156Y-80108550D01*
X171129637Y-80384446D01*
X171133105Y-80399644D01*
X171181193Y-80682695D01*
X171182938Y-80698184D01*
X171199280Y-80989255D01*
X171199499Y-80997044D01*
X171199499Y-81020076D01*
X171199499Y-81040231D01*
X171199499Y-81040233D01*
X171199500Y-81051434D01*
X171199500Y-93685548D01*
X171199499Y-93685566D01*
X171199499Y-93738027D01*
X171199309Y-93745300D01*
X171185096Y-94016576D01*
X171183575Y-94031046D01*
X171141654Y-94295738D01*
X171138629Y-94309970D01*
X171069268Y-94568835D01*
X171064772Y-94582672D01*
X170968735Y-94832866D01*
X170962817Y-94846158D01*
X170841154Y-95084937D01*
X170833880Y-95097537D01*
X170687920Y-95322301D01*
X170679368Y-95334072D01*
X170510715Y-95542343D01*
X170500980Y-95553155D01*
X170311480Y-95742658D01*
X170300667Y-95752394D01*
X170092398Y-95921049D01*
X170080627Y-95929601D01*
X169853242Y-96077268D01*
X169847038Y-96081070D01*
X169808532Y-96103302D01*
X169582779Y-96233642D01*
X169582770Y-96233648D01*
X169068202Y-96573311D01*
X169068198Y-96573314D01*
X168574858Y-96943147D01*
X168574852Y-96943152D01*
X168104545Y-97341800D01*
X168104529Y-97341814D01*
X167658885Y-97767894D01*
X167658883Y-97767896D01*
X167239526Y-98219854D01*
X166847927Y-98696109D01*
X166847917Y-98696122D01*
X166485523Y-99194915D01*
X166153593Y-99714510D01*
X166153587Y-99714521D01*
X165853336Y-100253017D01*
X165853331Y-100253026D01*
X165585805Y-100808549D01*
X165585802Y-100808557D01*
X165352008Y-101379011D01*
X165351987Y-101379066D01*
X165152722Y-101962493D01*
X165152713Y-101962521D01*
X164988685Y-102556866D01*
X164860498Y-103159934D01*
X164860497Y-103159942D01*
X164832547Y-103345380D01*
X164779246Y-103699014D01*
X164768599Y-103769651D01*
X164768599Y-103769653D01*
X164713335Y-104383692D01*
X164713333Y-104383718D01*
X164694889Y-105000000D01*
X164713333Y-105616281D01*
X164713335Y-105616307D01*
X164768599Y-106230346D01*
X164768599Y-106230348D01*
X164768601Y-106230363D01*
X164768602Y-106230371D01*
X164799098Y-106432697D01*
X164860497Y-106840057D01*
X164860498Y-106840065D01*
X164988685Y-107443133D01*
X165152713Y-108037478D01*
X165152722Y-108037506D01*
X165351987Y-108620933D01*
X165352008Y-108620988D01*
X165585802Y-109191442D01*
X165585805Y-109191450D01*
X165621225Y-109265000D01*
X165853330Y-109746972D01*
X165943394Y-109908500D01*
X166153587Y-110285478D01*
X166153593Y-110285489D01*
X166485523Y-110805084D01*
X166847917Y-111303877D01*
X166847927Y-111303890D01*
X167239526Y-111780145D01*
X167658883Y-112232103D01*
X167658885Y-112232105D01*
X168104529Y-112658185D01*
X168104545Y-112658199D01*
X168574852Y-113056847D01*
X168574858Y-113056852D01*
X168574862Y-113056855D01*
X168574868Y-113056860D01*
X169068202Y-113426689D01*
X169582770Y-113766352D01*
X169808529Y-113896695D01*
X169808531Y-113896697D01*
X169846591Y-113918670D01*
X169852771Y-113922458D01*
X170080616Y-114070424D01*
X170092376Y-114078968D01*
X170300649Y-114247625D01*
X170311462Y-114257361D01*
X170500960Y-114446862D01*
X170510695Y-114457674D01*
X170679345Y-114665943D01*
X170687897Y-114677714D01*
X170833856Y-114902475D01*
X170841130Y-114915075D01*
X170962792Y-115153852D01*
X170968710Y-115167144D01*
X171064746Y-115417335D01*
X171069242Y-115431172D01*
X171138602Y-115690034D01*
X171141627Y-115704265D01*
X171154903Y-115788091D01*
X171183187Y-115966678D01*
X171183548Y-115968954D01*
X171185069Y-115983425D01*
X171199308Y-116255190D01*
X171199498Y-116262463D01*
X171199498Y-116317117D01*
X171199499Y-116317130D01*
X171199500Y-128959765D01*
X171199500Y-129003474D01*
X171199281Y-129011266D01*
X171182968Y-129301819D01*
X171181223Y-129317309D01*
X171133134Y-129600363D01*
X171129666Y-129615560D01*
X171050184Y-129891460D01*
X171045036Y-129906173D01*
X170935168Y-130171426D01*
X170928405Y-130185469D01*
X170789522Y-130436766D01*
X170781229Y-130449965D01*
X170615087Y-130684125D01*
X170605368Y-130696312D01*
X170411801Y-130912917D01*
X170406448Y-130918580D01*
X170380865Y-130944165D01*
X170380861Y-130944169D01*
X117802287Y-183522740D01*
X117771464Y-183553563D01*
X117765660Y-183559042D01*
X117543229Y-183757288D01*
X117530726Y-183767205D01*
X117290325Y-183936337D01*
X117276768Y-183944755D01*
X117018564Y-184085219D01*
X117004131Y-184092028D01*
X116731521Y-184201974D01*
X116716402Y-184207083D01*
X116433001Y-184285054D01*
X116417397Y-184288397D01*
X116126924Y-184333371D01*
X116111039Y-184334904D01*
X115817311Y-184346288D01*
X115801356Y-184345989D01*
X115556015Y-184327274D01*
X115517509Y-184318725D01*
X114283737Y-183853120D01*
X114280988Y-183852049D01*
X114045166Y-183757288D01*
X112616940Y-183183379D01*
X112614214Y-183182249D01*
X110964820Y-182478447D01*
X110962119Y-182477261D01*
X109327955Y-181738572D01*
X109325279Y-181737328D01*
X107707187Y-180964132D01*
X107704539Y-180962832D01*
X106103241Y-180155474D01*
X106100620Y-180154118D01*
X104516762Y-179312925D01*
X104514171Y-179311513D01*
X102948577Y-178436919D01*
X102946017Y-178435453D01*
X101399339Y-177527827D01*
X101396810Y-177526307D01*
X99869704Y-176586030D01*
X99867208Y-176584456D01*
X98360428Y-175611994D01*
X98357967Y-175610368D01*
X96872188Y-174606157D01*
X96869761Y-174604479D01*
X95405621Y-173568950D01*
X95403230Y-173567221D01*
X93961356Y-172500816D01*
X93959003Y-172499036D01*
X92540169Y-171402331D01*
X92537853Y-171400502D01*
X91142527Y-170273853D01*
X91140252Y-170271975D01*
X89769226Y-169116027D01*
X89766990Y-169114101D01*
X88420794Y-167929299D01*
X88418600Y-167927327D01*
X87586335Y-167162889D01*
X87231644Y-166837104D01*
X110099500Y-166837104D01*
X110099500Y-167162895D01*
X110135976Y-167486622D01*
X110208468Y-167804228D01*
X110316066Y-168111725D01*
X110316067Y-168111729D01*
X110457408Y-168405225D01*
X110457421Y-168405247D01*
X110630732Y-168681072D01*
X110630737Y-168681079D01*
X110630739Y-168681081D01*
X110833857Y-168935783D01*
X111064217Y-169166143D01*
X111255243Y-169318481D01*
X111318920Y-169369262D01*
X111318927Y-169369267D01*
X111571820Y-169528169D01*
X111594763Y-169542585D01*
X111594767Y-169542587D01*
X111594774Y-169542591D01*
X111888270Y-169683932D01*
X111888273Y-169683932D01*
X111888278Y-169683935D01*
X112195773Y-169791532D01*
X112384850Y-169834687D01*
X112513377Y-169864023D01*
X112513380Y-169864023D01*
X112513383Y-169864024D01*
X112837111Y-169900500D01*
X112837113Y-169900500D01*
X113162887Y-169900500D01*
X113162889Y-169900500D01*
X113486617Y-169864024D01*
X113486620Y-169864023D01*
X113486622Y-169864023D01*
X113535746Y-169852810D01*
X113804227Y-169791532D01*
X114111722Y-169683935D01*
X114111727Y-169683932D01*
X114111729Y-169683932D01*
X114405225Y-169542591D01*
X114405227Y-169542589D01*
X114405237Y-169542585D01*
X114591445Y-169425582D01*
X114681072Y-169369267D01*
X114681079Y-169369262D01*
X114681081Y-169369261D01*
X114935783Y-169166143D01*
X115166143Y-168935783D01*
X115369261Y-168681081D01*
X115542585Y-168405237D01*
X115683935Y-168111722D01*
X115791532Y-167804227D01*
X115864024Y-167486617D01*
X115900500Y-167162889D01*
X115900500Y-166837111D01*
X115864024Y-166513383D01*
X115791532Y-166195773D01*
X115683935Y-165888278D01*
X115683932Y-165888273D01*
X115683932Y-165888270D01*
X115542591Y-165594774D01*
X115542578Y-165594752D01*
X115369267Y-165318927D01*
X115369262Y-165318920D01*
X115318481Y-165255243D01*
X115166143Y-165064217D01*
X114935783Y-164833857D01*
X114804095Y-164728839D01*
X114681079Y-164630737D01*
X114681072Y-164630732D01*
X114405247Y-164457421D01*
X114405225Y-164457408D01*
X114111729Y-164316067D01*
X114111725Y-164316066D01*
X113804228Y-164208468D01*
X113486622Y-164135976D01*
X113162895Y-164099500D01*
X113162889Y-164099500D01*
X112837111Y-164099500D01*
X112837104Y-164099500D01*
X112513377Y-164135976D01*
X112195771Y-164208468D01*
X111888274Y-164316066D01*
X111888270Y-164316067D01*
X111594774Y-164457408D01*
X111594752Y-164457421D01*
X111318927Y-164630732D01*
X111318920Y-164630737D01*
X111064214Y-164833859D01*
X110833859Y-165064214D01*
X110630737Y-165318920D01*
X110630732Y-165318927D01*
X110457421Y-165594752D01*
X110457408Y-165594774D01*
X110316067Y-165888270D01*
X110316066Y-165888274D01*
X110208468Y-166195771D01*
X110135976Y-166513377D01*
X110099500Y-166837104D01*
X87231644Y-166837104D01*
X87097804Y-166714172D01*
X87095653Y-166712153D01*
X85800978Y-165471308D01*
X85798869Y-165469244D01*
X84530755Y-164201130D01*
X84528691Y-164199021D01*
X83287846Y-162904346D01*
X83285827Y-162902195D01*
X82072672Y-161581399D01*
X82070700Y-161579205D01*
X80885898Y-160233009D01*
X80883972Y-160230773D01*
X79728024Y-158859747D01*
X79726146Y-158857472D01*
X78599497Y-157462146D01*
X78597668Y-157459830D01*
X78574870Y-157430336D01*
X78173073Y-156910521D01*
X131091500Y-156910521D01*
X131091500Y-157089478D01*
X131126411Y-157264995D01*
X131126412Y-157264999D01*
X131194894Y-157430328D01*
X131194896Y-157430331D01*
X131194898Y-157430336D01*
X131294322Y-157579135D01*
X131420865Y-157705678D01*
X131569664Y-157805102D01*
X131569670Y-157805104D01*
X131569671Y-157805105D01*
X131735000Y-157873587D01*
X131735004Y-157873588D01*
X131910521Y-157908500D01*
X132089479Y-157908500D01*
X132264995Y-157873588D01*
X132264995Y-157873587D01*
X132265000Y-157873587D01*
X132430336Y-157805102D01*
X132579135Y-157705678D01*
X132705678Y-157579135D01*
X132805102Y-157430336D01*
X132873587Y-157265000D01*
X132908500Y-157089479D01*
X132908500Y-156910521D01*
X132873587Y-156735000D01*
X132805102Y-156569664D01*
X132705678Y-156420865D01*
X132579135Y-156294322D01*
X132430336Y-156194898D01*
X132430331Y-156194896D01*
X132430328Y-156194894D01*
X132264999Y-156126412D01*
X132264995Y-156126411D01*
X132089479Y-156091500D01*
X131910521Y-156091500D01*
X131735004Y-156126411D01*
X131735000Y-156126412D01*
X131569671Y-156194894D01*
X131569665Y-156194897D01*
X131569664Y-156194898D01*
X131519617Y-156228338D01*
X131420867Y-156294320D01*
X131294320Y-156420867D01*
X131194897Y-156569666D01*
X131194894Y-156569671D01*
X131126412Y-156735000D01*
X131126411Y-156735004D01*
X131091500Y-156910521D01*
X78173073Y-156910521D01*
X77909603Y-156569664D01*
X77500963Y-156040996D01*
X77499183Y-156038643D01*
X76759518Y-155038550D01*
X76432754Y-154596735D01*
X76431074Y-154594413D01*
X75593753Y-153410521D01*
X133591500Y-153410521D01*
X133591500Y-153589478D01*
X133626411Y-153764995D01*
X133626412Y-153764999D01*
X133694894Y-153930328D01*
X133694896Y-153930331D01*
X133694898Y-153930336D01*
X133794322Y-154079135D01*
X133920865Y-154205678D01*
X134069664Y-154305102D01*
X134069670Y-154305104D01*
X134069671Y-154305105D01*
X134235000Y-154373587D01*
X134235004Y-154373588D01*
X134410521Y-154408500D01*
X134589479Y-154408500D01*
X134764995Y-154373588D01*
X134764995Y-154373587D01*
X134765000Y-154373587D01*
X134930336Y-154305102D01*
X135079135Y-154205678D01*
X135205678Y-154079135D01*
X135305102Y-153930336D01*
X135373587Y-153765000D01*
X135408500Y-153589479D01*
X135408500Y-153410521D01*
X135373587Y-153235000D01*
X135329696Y-153129039D01*
X135305105Y-153069671D01*
X135305104Y-153069670D01*
X135305102Y-153069664D01*
X135205678Y-152920865D01*
X135079135Y-152794322D01*
X134930336Y-152694898D01*
X134930331Y-152694896D01*
X134930328Y-152694894D01*
X134764999Y-152626412D01*
X134764995Y-152626411D01*
X134589479Y-152591500D01*
X134410521Y-152591500D01*
X134235004Y-152626411D01*
X134235000Y-152626412D01*
X134069671Y-152694894D01*
X134069665Y-152694897D01*
X134069664Y-152694898D01*
X134053531Y-152705678D01*
X133920867Y-152794320D01*
X133794320Y-152920867D01*
X133694897Y-153069666D01*
X133694894Y-153069671D01*
X133626412Y-153235000D01*
X133626411Y-153235004D01*
X133591500Y-153410521D01*
X75593753Y-153410521D01*
X75395519Y-153130237D01*
X75393842Y-153127811D01*
X75354543Y-153069666D01*
X74571098Y-151910521D01*
X125591500Y-151910521D01*
X125591500Y-152089478D01*
X125626411Y-152264995D01*
X125626412Y-152264999D01*
X125694894Y-152430328D01*
X125694896Y-152430331D01*
X125694898Y-152430336D01*
X125794322Y-152579135D01*
X125920865Y-152705678D01*
X126069664Y-152805102D01*
X126069670Y-152805104D01*
X126069671Y-152805105D01*
X126235000Y-152873587D01*
X126235004Y-152873588D01*
X126410521Y-152908500D01*
X126589479Y-152908500D01*
X126764995Y-152873588D01*
X126764995Y-152873587D01*
X126765000Y-152873587D01*
X126930336Y-152805102D01*
X127079135Y-152705678D01*
X127205678Y-152579135D01*
X127305102Y-152430336D01*
X127373587Y-152265000D01*
X127408500Y-152089479D01*
X127408500Y-151910521D01*
X127373587Y-151735000D01*
X127305102Y-151569664D01*
X127205678Y-151420865D01*
X127079135Y-151294322D01*
X126930336Y-151194898D01*
X126930331Y-151194896D01*
X126930328Y-151194894D01*
X126764999Y-151126412D01*
X126764995Y-151126411D01*
X126589479Y-151091500D01*
X126410521Y-151091500D01*
X126235004Y-151126411D01*
X126235000Y-151126412D01*
X126069671Y-151194894D01*
X126069665Y-151194897D01*
X126069664Y-151194898D01*
X126019617Y-151228338D01*
X125920867Y-151294320D01*
X125794320Y-151420867D01*
X125694897Y-151569666D01*
X125694894Y-151569671D01*
X125626412Y-151735000D01*
X125626411Y-151735004D01*
X125591500Y-151910521D01*
X74571098Y-151910521D01*
X74389614Y-151642006D01*
X74388005Y-151639571D01*
X74342892Y-151569671D01*
X73415541Y-150132788D01*
X73413969Y-150130295D01*
X72473692Y-148603189D01*
X72472172Y-148600660D01*
X71564546Y-147053982D01*
X71563080Y-147051422D01*
X70688467Y-145485794D01*
X70687074Y-145483237D01*
X69845881Y-143899379D01*
X69844525Y-143896758D01*
X69037167Y-142295460D01*
X69035867Y-142292812D01*
X68994231Y-142205679D01*
X68614269Y-141410521D01*
X122091500Y-141410521D01*
X122091500Y-141589478D01*
X122126411Y-141764995D01*
X122126412Y-141764999D01*
X122194894Y-141930328D01*
X122194896Y-141930331D01*
X122194898Y-141930336D01*
X122294322Y-142079135D01*
X122420865Y-142205678D01*
X122569664Y-142305102D01*
X122569670Y-142305104D01*
X122569671Y-142305105D01*
X122735000Y-142373587D01*
X122735004Y-142373588D01*
X122910521Y-142408500D01*
X123089479Y-142408500D01*
X123264995Y-142373588D01*
X123264995Y-142373587D01*
X123265000Y-142373587D01*
X123430336Y-142305102D01*
X123579135Y-142205678D01*
X123705678Y-142079135D01*
X123805102Y-141930336D01*
X123873587Y-141765000D01*
X123908500Y-141589479D01*
X123908500Y-141410521D01*
X123873587Y-141235000D01*
X123805102Y-141069664D01*
X123705678Y-140920865D01*
X123579135Y-140794322D01*
X123430336Y-140694898D01*
X123430331Y-140694896D01*
X123430328Y-140694894D01*
X123264999Y-140626412D01*
X123264995Y-140626411D01*
X123089479Y-140591500D01*
X122910521Y-140591500D01*
X122735004Y-140626411D01*
X122735000Y-140626412D01*
X122569671Y-140694894D01*
X122569665Y-140694897D01*
X122569664Y-140694898D01*
X122519617Y-140728338D01*
X122420867Y-140794320D01*
X122294320Y-140920867D01*
X122194897Y-141069666D01*
X122194894Y-141069671D01*
X122126412Y-141235000D01*
X122126411Y-141235004D01*
X122091500Y-141410521D01*
X68614269Y-141410521D01*
X68262670Y-140674719D01*
X68261427Y-140672044D01*
X68255305Y-140658500D01*
X67804190Y-139660521D01*
X141841500Y-139660521D01*
X141841500Y-139839478D01*
X141876411Y-140014995D01*
X141876412Y-140014999D01*
X141944894Y-140180328D01*
X141944896Y-140180331D01*
X141944898Y-140180336D01*
X142044322Y-140329135D01*
X142170865Y-140455678D01*
X142319664Y-140555102D01*
X142319670Y-140555104D01*
X142319671Y-140555105D01*
X142485000Y-140623587D01*
X142485004Y-140623588D01*
X142660521Y-140658500D01*
X142839479Y-140658500D01*
X143014995Y-140623588D01*
X143014995Y-140623587D01*
X143015000Y-140623587D01*
X143180336Y-140555102D01*
X143329135Y-140455678D01*
X143455678Y-140329135D01*
X143555102Y-140180336D01*
X143623587Y-140015000D01*
X143658500Y-139839479D01*
X143658500Y-139660521D01*
X143623587Y-139485000D01*
X143555102Y-139319664D01*
X143455678Y-139170865D01*
X143329135Y-139044322D01*
X143180336Y-138944898D01*
X143180331Y-138944896D01*
X143180328Y-138944894D01*
X143014999Y-138876412D01*
X143014995Y-138876411D01*
X142839479Y-138841500D01*
X142660521Y-138841500D01*
X142485004Y-138876411D01*
X142485000Y-138876412D01*
X142319671Y-138944894D01*
X142319665Y-138944897D01*
X142319664Y-138944898D01*
X142269617Y-138978338D01*
X142170867Y-139044320D01*
X142044320Y-139170867D01*
X141944897Y-139319666D01*
X141944894Y-139319671D01*
X141876412Y-139485000D01*
X141876411Y-139485004D01*
X141841500Y-139660521D01*
X67804190Y-139660521D01*
X67522733Y-139037869D01*
X67521552Y-139035179D01*
X67483029Y-138944898D01*
X66817731Y-137385740D01*
X66816638Y-137383102D01*
X66224906Y-135910521D01*
X136091500Y-135910521D01*
X136091500Y-136089478D01*
X136126411Y-136264995D01*
X136126412Y-136264999D01*
X136194894Y-136430328D01*
X136194896Y-136430331D01*
X136194898Y-136430336D01*
X136294322Y-136579135D01*
X136420865Y-136705678D01*
X136569664Y-136805102D01*
X136569670Y-136805104D01*
X136569671Y-136805105D01*
X136735000Y-136873587D01*
X136735004Y-136873588D01*
X136910521Y-136908500D01*
X137089479Y-136908500D01*
X137264995Y-136873588D01*
X137264995Y-136873587D01*
X137265000Y-136873587D01*
X137430336Y-136805102D01*
X137579135Y-136705678D01*
X137705678Y-136579135D01*
X137805102Y-136430336D01*
X137813310Y-136410521D01*
X143591500Y-136410521D01*
X143591500Y-136589478D01*
X143626411Y-136764995D01*
X143626412Y-136764999D01*
X143694894Y-136930328D01*
X143694896Y-136930331D01*
X143694898Y-136930336D01*
X143794322Y-137079135D01*
X143920865Y-137205678D01*
X144069664Y-137305102D01*
X144069670Y-137305104D01*
X144069671Y-137305105D01*
X144235000Y-137373587D01*
X144235004Y-137373588D01*
X144410521Y-137408500D01*
X144589479Y-137408500D01*
X144764995Y-137373588D01*
X144764995Y-137373587D01*
X144765000Y-137373587D01*
X144930336Y-137305102D01*
X145079135Y-137205678D01*
X145205678Y-137079135D01*
X145305102Y-136930336D01*
X145373587Y-136765000D01*
X145408500Y-136589479D01*
X145408500Y-136410521D01*
X145373587Y-136235000D01*
X145305102Y-136069664D01*
X145205678Y-135920865D01*
X145079135Y-135794322D01*
X144930336Y-135694898D01*
X144930331Y-135694896D01*
X144930328Y-135694894D01*
X144764999Y-135626412D01*
X144764995Y-135626411D01*
X144589479Y-135591500D01*
X144410521Y-135591500D01*
X144235004Y-135626411D01*
X144235000Y-135626412D01*
X144069671Y-135694894D01*
X144069665Y-135694897D01*
X144069664Y-135694898D01*
X144035631Y-135717638D01*
X143920867Y-135794320D01*
X143794320Y-135920867D01*
X143694897Y-136069666D01*
X143694894Y-136069671D01*
X143626412Y-136235000D01*
X143626411Y-136235004D01*
X143591500Y-136410521D01*
X137813310Y-136410521D01*
X137873587Y-136265000D01*
X137908500Y-136089479D01*
X137908500Y-135910521D01*
X137885387Y-135794322D01*
X137873588Y-135735004D01*
X137873587Y-135735000D01*
X137805105Y-135569671D01*
X137805104Y-135569670D01*
X137805102Y-135569664D01*
X137705678Y-135420865D01*
X137579135Y-135294322D01*
X137430336Y-135194898D01*
X137430331Y-135194896D01*
X137430328Y-135194894D01*
X137264999Y-135126412D01*
X137264995Y-135126411D01*
X137089479Y-135091500D01*
X136910521Y-135091500D01*
X136735004Y-135126411D01*
X136735000Y-135126412D01*
X136569671Y-135194894D01*
X136569665Y-135194897D01*
X136569664Y-135194898D01*
X136519617Y-135228338D01*
X136420867Y-135294320D01*
X136294320Y-135420867D01*
X136194897Y-135569666D01*
X136194894Y-135569671D01*
X136126412Y-135735000D01*
X136126411Y-135735004D01*
X136091500Y-135910521D01*
X66224906Y-135910521D01*
X66147927Y-135718952D01*
X66146901Y-135716320D01*
X65513680Y-134038395D01*
X65512668Y-134035623D01*
X65485349Y-133958303D01*
X64915234Y-132344720D01*
X64914288Y-132341948D01*
X64704561Y-131705679D01*
X64445118Y-130918580D01*
X64442462Y-130910521D01*
X147591500Y-130910521D01*
X147591500Y-131089478D01*
X147626411Y-131264995D01*
X147626412Y-131264999D01*
X147694894Y-131430328D01*
X147694896Y-131430331D01*
X147694898Y-131430336D01*
X147794322Y-131579135D01*
X147920865Y-131705678D01*
X148069664Y-131805102D01*
X148069670Y-131805104D01*
X148069671Y-131805105D01*
X148235000Y-131873587D01*
X148235004Y-131873588D01*
X148410521Y-131908500D01*
X148589479Y-131908500D01*
X148764995Y-131873588D01*
X148764995Y-131873587D01*
X148765000Y-131873587D01*
X148930336Y-131805102D01*
X149079135Y-131705678D01*
X149205678Y-131579135D01*
X149305102Y-131430336D01*
X149373587Y-131265000D01*
X149408500Y-131089479D01*
X149408500Y-130910521D01*
X149387531Y-130805102D01*
X149373588Y-130735004D01*
X149373587Y-130735000D01*
X149305105Y-130569671D01*
X149305104Y-130569670D01*
X149305102Y-130569664D01*
X149205678Y-130420865D01*
X149079135Y-130294322D01*
X148930336Y-130194898D01*
X148930331Y-130194896D01*
X148930328Y-130194894D01*
X148764999Y-130126412D01*
X148764995Y-130126411D01*
X148589479Y-130091500D01*
X148410521Y-130091500D01*
X148235004Y-130126411D01*
X148235000Y-130126412D01*
X148069671Y-130194894D01*
X148069665Y-130194897D01*
X148069664Y-130194898D01*
X148019617Y-130228338D01*
X147920867Y-130294320D01*
X147794320Y-130420867D01*
X147694897Y-130569666D01*
X147694894Y-130569671D01*
X147626412Y-130735000D01*
X147626411Y-130735004D01*
X147591500Y-130910521D01*
X64442462Y-130910521D01*
X64352886Y-130638765D01*
X64351992Y-130635953D01*
X64140204Y-129944394D01*
X64129831Y-129910521D01*
X144591500Y-129910521D01*
X144591500Y-130089478D01*
X144626411Y-130264995D01*
X144626412Y-130264999D01*
X144694894Y-130430328D01*
X144694896Y-130430331D01*
X144694898Y-130430336D01*
X144794322Y-130579135D01*
X144920865Y-130705678D01*
X145069664Y-130805102D01*
X145069670Y-130805104D01*
X145069671Y-130805105D01*
X145235000Y-130873587D01*
X145235004Y-130873588D01*
X145410521Y-130908500D01*
X145589479Y-130908500D01*
X145764995Y-130873588D01*
X145764995Y-130873587D01*
X145765000Y-130873587D01*
X145930336Y-130805102D01*
X146079135Y-130705678D01*
X146205678Y-130579135D01*
X146305102Y-130430336D01*
X146373587Y-130265000D01*
X146408500Y-130089479D01*
X146408500Y-130047500D01*
X146427122Y-129978000D01*
X146478000Y-129927122D01*
X146539957Y-129910521D01*
X149591500Y-129910521D01*
X149591500Y-130089478D01*
X149626411Y-130264995D01*
X149626412Y-130264999D01*
X149694894Y-130430328D01*
X149694896Y-130430331D01*
X149694898Y-130430336D01*
X149794322Y-130579135D01*
X149920865Y-130705678D01*
X150069664Y-130805102D01*
X150069670Y-130805104D01*
X150069671Y-130805105D01*
X150235000Y-130873587D01*
X150235004Y-130873588D01*
X150410521Y-130908500D01*
X150589479Y-130908500D01*
X150764995Y-130873588D01*
X150764995Y-130873587D01*
X150765000Y-130873587D01*
X150930336Y-130805102D01*
X151079135Y-130705678D01*
X151205678Y-130579135D01*
X151305102Y-130430336D01*
X151373587Y-130265000D01*
X151408500Y-130089479D01*
X151408500Y-129910521D01*
X151387531Y-129805102D01*
X151373588Y-129735004D01*
X151373587Y-129735000D01*
X151305105Y-129569671D01*
X151305104Y-129569670D01*
X151305102Y-129569664D01*
X151287892Y-129543907D01*
X151264765Y-129475773D01*
X151278802Y-129405204D01*
X151326244Y-129351109D01*
X151350274Y-129338265D01*
X151430336Y-129305102D01*
X151579135Y-129205678D01*
X151705678Y-129079135D01*
X151805102Y-128930336D01*
X151873587Y-128765000D01*
X151908500Y-128589479D01*
X151908500Y-128410521D01*
X151885387Y-128294322D01*
X151873588Y-128235004D01*
X151873587Y-128235000D01*
X151805105Y-128069671D01*
X151805104Y-128069670D01*
X151805102Y-128069664D01*
X151705678Y-127920865D01*
X151579135Y-127794322D01*
X151430336Y-127694898D01*
X151430331Y-127694896D01*
X151430328Y-127694894D01*
X151264999Y-127626412D01*
X151264995Y-127626411D01*
X151089479Y-127591500D01*
X150910521Y-127591500D01*
X150735004Y-127626411D01*
X150735000Y-127626412D01*
X150569671Y-127694894D01*
X150569665Y-127694897D01*
X150569664Y-127694898D01*
X150546145Y-127710613D01*
X150420867Y-127794320D01*
X150294320Y-127920867D01*
X150194897Y-128069666D01*
X150194894Y-128069671D01*
X150126412Y-128235000D01*
X150126411Y-128235004D01*
X150091500Y-128410521D01*
X150091500Y-128589478D01*
X150126411Y-128764995D01*
X150126412Y-128764999D01*
X150194894Y-128930328D01*
X150194896Y-128930332D01*
X150194898Y-128930336D01*
X150212107Y-128956092D01*
X150235235Y-129024224D01*
X150221199Y-129094793D01*
X150173758Y-129148889D01*
X150149727Y-129161734D01*
X150069668Y-129194896D01*
X150069666Y-129194897D01*
X150069664Y-129194898D01*
X150053531Y-129205678D01*
X149920867Y-129294320D01*
X149794320Y-129420867D01*
X149694897Y-129569666D01*
X149694894Y-129569671D01*
X149626412Y-129735000D01*
X149626411Y-129735004D01*
X149591500Y-129910521D01*
X146539957Y-129910521D01*
X146547500Y-129908500D01*
X146589479Y-129908500D01*
X146764995Y-129873588D01*
X146764995Y-129873587D01*
X146765000Y-129873587D01*
X146930336Y-129805102D01*
X147079135Y-129705678D01*
X147205678Y-129579135D01*
X147305102Y-129430336D01*
X147373587Y-129265000D01*
X147408500Y-129089479D01*
X147408500Y-128910521D01*
X147373587Y-128735000D01*
X147305102Y-128569664D01*
X147205678Y-128420865D01*
X147079135Y-128294322D01*
X146930336Y-128194898D01*
X146930331Y-128194896D01*
X146930328Y-128194894D01*
X146764999Y-128126412D01*
X146764995Y-128126411D01*
X146589479Y-128091500D01*
X146410521Y-128091500D01*
X146235004Y-128126411D01*
X146235000Y-128126412D01*
X146069671Y-128194894D01*
X146069665Y-128194897D01*
X146069664Y-128194898D01*
X146053531Y-128205678D01*
X145920867Y-128294320D01*
X145794320Y-128420867D01*
X145694897Y-128569666D01*
X145694894Y-128569671D01*
X145626412Y-128735000D01*
X145626411Y-128735004D01*
X145591500Y-128910521D01*
X145591500Y-128952500D01*
X145572878Y-129022000D01*
X145522000Y-129072878D01*
X145452500Y-129091500D01*
X145410521Y-129091500D01*
X145235004Y-129126411D01*
X145235000Y-129126412D01*
X145069671Y-129194894D01*
X145069665Y-129194897D01*
X145069664Y-129194898D01*
X145053531Y-129205678D01*
X144920867Y-129294320D01*
X144794320Y-129420867D01*
X144694897Y-129569666D01*
X144694894Y-129569671D01*
X144626412Y-129735000D01*
X144626411Y-129735004D01*
X144591500Y-129910521D01*
X64129831Y-129910521D01*
X64067098Y-129705678D01*
X63826841Y-128921159D01*
X63826044Y-128918456D01*
X63337412Y-127192907D01*
X63336640Y-127190067D01*
X63260589Y-126897989D01*
X63252891Y-126868425D01*
X131623197Y-126868425D01*
X131623197Y-127042907D01*
X131645401Y-127183094D01*
X131650493Y-127215247D01*
X131693455Y-127347470D01*
X131704409Y-127381182D01*
X131783623Y-127536647D01*
X131783625Y-127536650D01*
X131886177Y-127677801D01*
X131886180Y-127677805D01*
X132009558Y-127801183D01*
X132150716Y-127903740D01*
X132306181Y-127982954D01*
X132409933Y-128016664D01*
X132472115Y-128036869D01*
X132472118Y-128036869D01*
X132472123Y-128036871D01*
X132644456Y-128064166D01*
X132644459Y-128064166D01*
X132818935Y-128064166D01*
X132818938Y-128064166D01*
X132991271Y-128036871D01*
X132991276Y-128036869D01*
X132991278Y-128036869D01*
X133019748Y-128027618D01*
X133157213Y-127982954D01*
X133312678Y-127903740D01*
X133453836Y-127801183D01*
X133577214Y-127677805D01*
X133679771Y-127536647D01*
X133744036Y-127410521D01*
X152091500Y-127410521D01*
X152091500Y-127589478D01*
X152126411Y-127764995D01*
X152126412Y-127764999D01*
X152194894Y-127930328D01*
X152194896Y-127930331D01*
X152194898Y-127930336D01*
X152294322Y-128079135D01*
X152420865Y-128205678D01*
X152569664Y-128305102D01*
X152569670Y-128305104D01*
X152569671Y-128305105D01*
X152735000Y-128373587D01*
X152735004Y-128373588D01*
X152910521Y-128408500D01*
X153089479Y-128408500D01*
X153264995Y-128373588D01*
X153264995Y-128373587D01*
X153265000Y-128373587D01*
X153430336Y-128305102D01*
X153579135Y-128205678D01*
X153705678Y-128079135D01*
X153805102Y-127930336D01*
X153873587Y-127765000D01*
X153908500Y-127589479D01*
X153908500Y-127410521D01*
X153873587Y-127235000D01*
X153805102Y-127069664D01*
X153705678Y-126920865D01*
X153579135Y-126794322D01*
X153430336Y-126694898D01*
X153430331Y-126694896D01*
X153430328Y-126694894D01*
X153264999Y-126626412D01*
X153264995Y-126626411D01*
X153089479Y-126591500D01*
X152910521Y-126591500D01*
X152735004Y-126626411D01*
X152735000Y-126626412D01*
X152569671Y-126694894D01*
X152569665Y-126694897D01*
X152569664Y-126694898D01*
X152522754Y-126726242D01*
X152420867Y-126794320D01*
X152294320Y-126920867D01*
X152228338Y-127019617D01*
X152212777Y-127042907D01*
X152194897Y-127069666D01*
X152194894Y-127069671D01*
X152126412Y-127235000D01*
X152126411Y-127235004D01*
X152091500Y-127410521D01*
X133744036Y-127410521D01*
X133758985Y-127381182D01*
X133812902Y-127215240D01*
X133840197Y-127042907D01*
X133840197Y-126868425D01*
X133829010Y-126797795D01*
X133836531Y-126726242D01*
X133878823Y-126668031D01*
X133944554Y-126638765D01*
X133988037Y-126638765D01*
X134058669Y-126649952D01*
X134058672Y-126649952D01*
X134233148Y-126649952D01*
X134233151Y-126649952D01*
X134405484Y-126622657D01*
X134405489Y-126622655D01*
X134405491Y-126622655D01*
X134433961Y-126613404D01*
X134571426Y-126568740D01*
X134726891Y-126489526D01*
X134868049Y-126386969D01*
X134991427Y-126263591D01*
X135093984Y-126122433D01*
X135173198Y-125966968D01*
X135227115Y-125801026D01*
X135254410Y-125628693D01*
X135254410Y-125454211D01*
X135227115Y-125281878D01*
X135173198Y-125115936D01*
X135165413Y-125100658D01*
X154392036Y-125100658D01*
X154392036Y-125275140D01*
X154403222Y-125345765D01*
X154419332Y-125447480D01*
X154462294Y-125579703D01*
X154473248Y-125613415D01*
X154552462Y-125768880D01*
X154552464Y-125768883D01*
X154633173Y-125879970D01*
X154655019Y-125910038D01*
X154778397Y-126033416D01*
X154919555Y-126135973D01*
X155075020Y-126215187D01*
X155178772Y-126248897D01*
X155240954Y-126269102D01*
X155240957Y-126269102D01*
X155240962Y-126269104D01*
X155413295Y-126296399D01*
X155413298Y-126296399D01*
X155587774Y-126296399D01*
X155587777Y-126296399D01*
X155658405Y-126285212D01*
X155729959Y-126292733D01*
X155788170Y-126335025D01*
X155817436Y-126400756D01*
X155817436Y-126444244D01*
X155806250Y-126514872D01*
X155806250Y-126689354D01*
X155823426Y-126797799D01*
X155833546Y-126861694D01*
X155852773Y-126920867D01*
X155887462Y-127027629D01*
X155908884Y-127069671D01*
X155966678Y-127183097D01*
X155990031Y-127215240D01*
X156069233Y-127324252D01*
X156192611Y-127447630D01*
X156333769Y-127550187D01*
X156489234Y-127629401D01*
X156592986Y-127663111D01*
X156655168Y-127683316D01*
X156655171Y-127683316D01*
X156655176Y-127683318D01*
X156827509Y-127710613D01*
X156827512Y-127710613D01*
X157001988Y-127710613D01*
X157001991Y-127710613D01*
X157174324Y-127683318D01*
X157174329Y-127683316D01*
X157174331Y-127683316D01*
X157202801Y-127674065D01*
X157340266Y-127629401D01*
X157495731Y-127550187D01*
X157636889Y-127447630D01*
X157760267Y-127324252D01*
X157862824Y-127183094D01*
X157942038Y-127027629D01*
X157995955Y-126861687D01*
X158023250Y-126689354D01*
X158023250Y-126514872D01*
X157995955Y-126342539D01*
X157995953Y-126342534D01*
X157995953Y-126342531D01*
X157972094Y-126269102D01*
X157942038Y-126176597D01*
X157862824Y-126021132D01*
X157760267Y-125879974D01*
X157636889Y-125756596D01*
X157495731Y-125654039D01*
X157340266Y-125574825D01*
X157306554Y-125563871D01*
X157174331Y-125520909D01*
X157142245Y-125515827D01*
X157001991Y-125493613D01*
X156827509Y-125493613D01*
X156808538Y-125496617D01*
X156756881Y-125504799D01*
X156685324Y-125497277D01*
X156627114Y-125454985D01*
X156597849Y-125389253D01*
X156597849Y-125345771D01*
X156609036Y-125275140D01*
X156609036Y-125100658D01*
X156581741Y-124928325D01*
X156581739Y-124928320D01*
X156581739Y-124928317D01*
X156546320Y-124819309D01*
X156527824Y-124762383D01*
X156448610Y-124606918D01*
X156346053Y-124465760D01*
X156222675Y-124342382D01*
X156081517Y-124239825D01*
X155926052Y-124160611D01*
X155892340Y-124149657D01*
X155760117Y-124106695D01*
X155728031Y-124101613D01*
X155587777Y-124079399D01*
X155413295Y-124079399D01*
X155302969Y-124096872D01*
X155240954Y-124106695D01*
X155075020Y-124160611D01*
X154919551Y-124239827D01*
X154778400Y-124342379D01*
X154778393Y-124342385D01*
X154655022Y-124465756D01*
X154655016Y-124465763D01*
X154552464Y-124606914D01*
X154473248Y-124762383D01*
X154419332Y-124928317D01*
X154409509Y-124990332D01*
X154392036Y-125100658D01*
X135165413Y-125100658D01*
X135093984Y-124960471D01*
X134991427Y-124819313D01*
X134868049Y-124695935D01*
X134726891Y-124593378D01*
X134571426Y-124514164D01*
X134537714Y-124503210D01*
X134405491Y-124460248D01*
X134373405Y-124455166D01*
X134233151Y-124432952D01*
X134058669Y-124432952D01*
X133948343Y-124450425D01*
X133886328Y-124460248D01*
X133720394Y-124514164D01*
X133564925Y-124593380D01*
X133423774Y-124695932D01*
X133423767Y-124695938D01*
X133300396Y-124819309D01*
X133300390Y-124819316D01*
X133197838Y-124960467D01*
X133118622Y-125115936D01*
X133064706Y-125281870D01*
X133064705Y-125281878D01*
X133037410Y-125454211D01*
X133037410Y-125628693D01*
X133041425Y-125654041D01*
X133048596Y-125699319D01*
X133041074Y-125770877D01*
X132998782Y-125829087D01*
X132933051Y-125858352D01*
X132889563Y-125858352D01*
X132818938Y-125847166D01*
X132644456Y-125847166D01*
X132534130Y-125864639D01*
X132472115Y-125874462D01*
X132306181Y-125928378D01*
X132150712Y-126007594D01*
X132009561Y-126110146D01*
X132009554Y-126110152D01*
X131886183Y-126233523D01*
X131886177Y-126233530D01*
X131783625Y-126374681D01*
X131704409Y-126530150D01*
X131650493Y-126696084D01*
X131650492Y-126696092D01*
X131623197Y-126868425D01*
X63252891Y-126868425D01*
X63115959Y-126342531D01*
X62884747Y-125454552D01*
X62884040Y-125451712D01*
X62883033Y-125447480D01*
X62469089Y-123707013D01*
X62468442Y-123704153D01*
X62090628Y-121951088D01*
X62090046Y-121948243D01*
X61749513Y-120187489D01*
X61748985Y-120184596D01*
X61445890Y-118416941D01*
X61445442Y-118414149D01*
X61207936Y-116827509D01*
X122289387Y-116827509D01*
X122289387Y-117001991D01*
X122299675Y-117066947D01*
X122316683Y-117174331D01*
X122359645Y-117306554D01*
X122370599Y-117340266D01*
X122449813Y-117495731D01*
X122552370Y-117636889D01*
X122675748Y-117760267D01*
X122816906Y-117862824D01*
X122972371Y-117942038D01*
X123076123Y-117975748D01*
X123138305Y-117995953D01*
X123138308Y-117995953D01*
X123138313Y-117995955D01*
X123310646Y-118023250D01*
X123310649Y-118023250D01*
X123485125Y-118023250D01*
X123485128Y-118023250D01*
X123657461Y-117995955D01*
X123657466Y-117995953D01*
X123657468Y-117995953D01*
X123685938Y-117986702D01*
X123823403Y-117942038D01*
X123978868Y-117862824D01*
X124120026Y-117760267D01*
X124243404Y-117636889D01*
X124345961Y-117495731D01*
X124425175Y-117340266D01*
X124476902Y-117181065D01*
X124479090Y-117174331D01*
X124479090Y-117174329D01*
X124479092Y-117174324D01*
X124506387Y-117001991D01*
X124506387Y-116827509D01*
X124495200Y-116756879D01*
X124502721Y-116685326D01*
X124545013Y-116627115D01*
X124610744Y-116597849D01*
X124654228Y-116597849D01*
X124724860Y-116609036D01*
X124724863Y-116609036D01*
X124899339Y-116609036D01*
X124899342Y-116609036D01*
X125071675Y-116581741D01*
X125071680Y-116581739D01*
X125071682Y-116581739D01*
X125100152Y-116572488D01*
X125237617Y-116527824D01*
X125393082Y-116448610D01*
X125534240Y-116346053D01*
X125657618Y-116222675D01*
X125760175Y-116081517D01*
X125839389Y-115926052D01*
X125891116Y-115766849D01*
X164432952Y-115766849D01*
X164432952Y-115941331D01*
X164444138Y-116011954D01*
X164460248Y-116113671D01*
X164495590Y-116222441D01*
X164514164Y-116279606D01*
X164587120Y-116422789D01*
X164593380Y-116435074D01*
X164674094Y-116546167D01*
X164695935Y-116576229D01*
X164819313Y-116699607D01*
X164960471Y-116802164D01*
X165115936Y-116881378D01*
X165219688Y-116915088D01*
X165281870Y-116935293D01*
X165281873Y-116935293D01*
X165281878Y-116935295D01*
X165454211Y-116962590D01*
X165454214Y-116962590D01*
X165628690Y-116962590D01*
X165628693Y-116962590D01*
X165699321Y-116951403D01*
X165770875Y-116958924D01*
X165829086Y-117001216D01*
X165858352Y-117066947D01*
X165858352Y-117110436D01*
X165847166Y-117181062D01*
X165847166Y-117355544D01*
X165869370Y-117495731D01*
X165874462Y-117527884D01*
X165917424Y-117660107D01*
X165928378Y-117693819D01*
X166007592Y-117849284D01*
X166007594Y-117849287D01*
X166110146Y-117990438D01*
X166110149Y-117990442D01*
X166233527Y-118113820D01*
X166374685Y-118216377D01*
X166530150Y-118295591D01*
X166633902Y-118329301D01*
X166696084Y-118349506D01*
X166696087Y-118349506D01*
X166696092Y-118349508D01*
X166868425Y-118376803D01*
X166868428Y-118376803D01*
X167042904Y-118376803D01*
X167042907Y-118376803D01*
X167215240Y-118349508D01*
X167215245Y-118349506D01*
X167215247Y-118349506D01*
X167243717Y-118340255D01*
X167381182Y-118295591D01*
X167536647Y-118216377D01*
X167677805Y-118113820D01*
X167801183Y-117990442D01*
X167903740Y-117849284D01*
X167982954Y-117693819D01*
X168036871Y-117527877D01*
X168064166Y-117355544D01*
X168064166Y-117181062D01*
X168036871Y-117008729D01*
X168036869Y-117008724D01*
X168036869Y-117008721D01*
X168013011Y-116935295D01*
X167982954Y-116842787D01*
X167903740Y-116687322D01*
X167801183Y-116546164D01*
X167677805Y-116422786D01*
X167536647Y-116320229D01*
X167381182Y-116241015D01*
X167324746Y-116222678D01*
X167215247Y-116187099D01*
X167183161Y-116182017D01*
X167042907Y-116159803D01*
X166868425Y-116159803D01*
X166849454Y-116162807D01*
X166797797Y-116170989D01*
X166726240Y-116163467D01*
X166668030Y-116121175D01*
X166638765Y-116055443D01*
X166638766Y-116011954D01*
X166649952Y-115941332D01*
X166649952Y-115766852D01*
X166649952Y-115766849D01*
X166622657Y-115594516D01*
X166622655Y-115594511D01*
X166622655Y-115594508D01*
X166585231Y-115479329D01*
X166568740Y-115428574D01*
X166489526Y-115273109D01*
X166386969Y-115131951D01*
X166263591Y-115008573D01*
X166141068Y-114919555D01*
X166122436Y-114906018D01*
X166122435Y-114906017D01*
X166122433Y-114906016D01*
X165966968Y-114826802D01*
X165933256Y-114815848D01*
X165801033Y-114772886D01*
X165768947Y-114767804D01*
X165628693Y-114745590D01*
X165454211Y-114745590D01*
X165343885Y-114763063D01*
X165281870Y-114772886D01*
X165115936Y-114826802D01*
X164960467Y-114906018D01*
X164819316Y-115008570D01*
X164819309Y-115008576D01*
X164695938Y-115131947D01*
X164695932Y-115131954D01*
X164593380Y-115273105D01*
X164514164Y-115428574D01*
X164460248Y-115594508D01*
X164460247Y-115594516D01*
X164432952Y-115766849D01*
X125891116Y-115766849D01*
X125893306Y-115760110D01*
X125920601Y-115587777D01*
X125920601Y-115413295D01*
X125893306Y-115240962D01*
X125893304Y-115240957D01*
X125893304Y-115240954D01*
X125867112Y-115160345D01*
X125839389Y-115075020D01*
X125760175Y-114919555D01*
X125657618Y-114778397D01*
X125534240Y-114655019D01*
X125393082Y-114552462D01*
X125237617Y-114473248D01*
X125203905Y-114462294D01*
X125071682Y-114419332D01*
X125039596Y-114414250D01*
X124899342Y-114392036D01*
X124724860Y-114392036D01*
X124614534Y-114409509D01*
X124552519Y-114419332D01*
X124386585Y-114473248D01*
X124231116Y-114552464D01*
X124089965Y-114655016D01*
X124089958Y-114655022D01*
X123966587Y-114778393D01*
X123966581Y-114778400D01*
X123864029Y-114919551D01*
X123784813Y-115075020D01*
X123730897Y-115240954D01*
X123730896Y-115240962D01*
X123703601Y-115413295D01*
X123703601Y-115587777D01*
X123711817Y-115639651D01*
X123714787Y-115658403D01*
X123707265Y-115729961D01*
X123664973Y-115788171D01*
X123599242Y-115817436D01*
X123555754Y-115817436D01*
X123537002Y-115814466D01*
X123485128Y-115806250D01*
X123310646Y-115806250D01*
X123200320Y-115823723D01*
X123138305Y-115833546D01*
X122972371Y-115887462D01*
X122816902Y-115966678D01*
X122675751Y-116069230D01*
X122675744Y-116069236D01*
X122552373Y-116192607D01*
X122552367Y-116192614D01*
X122449815Y-116333765D01*
X122370599Y-116489234D01*
X122316683Y-116655168D01*
X122309645Y-116699603D01*
X122289387Y-116827509D01*
X61207936Y-116827509D01*
X61179947Y-116640534D01*
X61179543Y-116637626D01*
X61175882Y-116609036D01*
X60951750Y-114858764D01*
X60951419Y-114855942D01*
X60761429Y-113072586D01*
X60761151Y-113069674D01*
X60760060Y-113056860D01*
X60609066Y-111282805D01*
X60608848Y-111279874D01*
X60578572Y-110805084D01*
X60494723Y-109490166D01*
X60494568Y-109487245D01*
X60470069Y-108910521D01*
X158591500Y-108910521D01*
X158591500Y-109089478D01*
X158626411Y-109264995D01*
X158626412Y-109264999D01*
X158694894Y-109430328D01*
X158694896Y-109430331D01*
X158694898Y-109430336D01*
X158794322Y-109579135D01*
X158920865Y-109705678D01*
X159069664Y-109805102D01*
X159069670Y-109805104D01*
X159069671Y-109805105D01*
X159235000Y-109873587D01*
X159235004Y-109873588D01*
X159410521Y-109908500D01*
X159589479Y-109908500D01*
X159764995Y-109873588D01*
X159764995Y-109873587D01*
X159765000Y-109873587D01*
X159930336Y-109805102D01*
X160079135Y-109705678D01*
X160205678Y-109579135D01*
X160305102Y-109430336D01*
X160373587Y-109265000D01*
X160408500Y-109089479D01*
X160408500Y-108910521D01*
X160373587Y-108735000D01*
X160326361Y-108620988D01*
X160305105Y-108569671D01*
X160305104Y-108569670D01*
X160305102Y-108569664D01*
X160205678Y-108420865D01*
X160079135Y-108294322D01*
X159930336Y-108194898D01*
X159930331Y-108194896D01*
X159930328Y-108194894D01*
X159764999Y-108126412D01*
X159764995Y-108126411D01*
X159589479Y-108091500D01*
X159410521Y-108091500D01*
X159235004Y-108126411D01*
X159235000Y-108126412D01*
X159069671Y-108194894D01*
X159069665Y-108194897D01*
X159069664Y-108194898D01*
X159047068Y-108209996D01*
X158920867Y-108294320D01*
X158794320Y-108420867D01*
X158694897Y-108569666D01*
X158694894Y-108569671D01*
X158626412Y-108735000D01*
X158626411Y-108735004D01*
X158591500Y-108910521D01*
X60470069Y-108910521D01*
X60418452Y-107695434D01*
X60418363Y-107692626D01*
X60380297Y-105899604D01*
X60380266Y-105896654D01*
X60380266Y-104837104D01*
X72099500Y-104837104D01*
X72099500Y-105162895D01*
X72135976Y-105486622D01*
X72208468Y-105804228D01*
X72316066Y-106111725D01*
X72316067Y-106111729D01*
X72457408Y-106405225D01*
X72457421Y-106405247D01*
X72630732Y-106681072D01*
X72630737Y-106681079D01*
X72630739Y-106681081D01*
X72833857Y-106935783D01*
X73064217Y-107166143D01*
X73255243Y-107318481D01*
X73318920Y-107369262D01*
X73318927Y-107369267D01*
X73571820Y-107528169D01*
X73594763Y-107542585D01*
X73594767Y-107542587D01*
X73594774Y-107542591D01*
X73888270Y-107683932D01*
X73888273Y-107683932D01*
X73888278Y-107683935D01*
X74195773Y-107791532D01*
X74384850Y-107834687D01*
X74513377Y-107864023D01*
X74513380Y-107864023D01*
X74513383Y-107864024D01*
X74837111Y-107900500D01*
X74837113Y-107900500D01*
X75162887Y-107900500D01*
X75162889Y-107900500D01*
X75486617Y-107864024D01*
X75486620Y-107864023D01*
X75486622Y-107864023D01*
X75535746Y-107852810D01*
X75804227Y-107791532D01*
X76111722Y-107683935D01*
X76111727Y-107683932D01*
X76111729Y-107683932D01*
X76405225Y-107542591D01*
X76405227Y-107542589D01*
X76405237Y-107542585D01*
X76619724Y-107407814D01*
X76681072Y-107369267D01*
X76681079Y-107369262D01*
X76681081Y-107369261D01*
X76935783Y-107166143D01*
X77166143Y-106935783D01*
X77369261Y-106681081D01*
X77542585Y-106405237D01*
X77542591Y-106405225D01*
X77683932Y-106111729D01*
X77683932Y-106111727D01*
X77683935Y-106111722D01*
X77791532Y-105804227D01*
X77864024Y-105486617D01*
X77900500Y-105162889D01*
X77900500Y-104996100D01*
X117559846Y-104996100D01*
X117579999Y-105509997D01*
X117579999Y-105510001D01*
X117689998Y-105969994D01*
X117690004Y-105970013D01*
X117773375Y-106195114D01*
X117774832Y-106199049D01*
X117825091Y-106364716D01*
X117859385Y-106427341D01*
X117890000Y-106509999D01*
X117890001Y-106510002D01*
X117987505Y-106661995D01*
X117992425Y-106670284D01*
X118150358Y-106958683D01*
X118150364Y-106958691D01*
X118567551Y-107432446D01*
X118567553Y-107432447D01*
X118918898Y-107757277D01*
X118948014Y-107784195D01*
X118996950Y-107792503D01*
X119024882Y-107809551D01*
X119094211Y-107864023D01*
X119139997Y-107899998D01*
X119140003Y-107900002D01*
X119719992Y-108209996D01*
X119719994Y-108209997D01*
X119720000Y-108210000D01*
X120370000Y-108400000D01*
X121000000Y-108440000D01*
X121000000Y-108439999D01*
X121000001Y-108440000D01*
X121000002Y-108440000D01*
X121204000Y-108432000D01*
X121510000Y-108420000D01*
X121510001Y-108420000D01*
X121673224Y-108380968D01*
X121970000Y-108310000D01*
X122510000Y-108110000D01*
X123040000Y-107770000D01*
X123365715Y-107468867D01*
X123429388Y-107435362D01*
X123429797Y-107435312D01*
X123432446Y-107432446D01*
X123432447Y-107432447D01*
X123778930Y-107057681D01*
X124026417Y-106654630D01*
X124128386Y-106432697D01*
X124210000Y-106280000D01*
X124230034Y-106211464D01*
X124266833Y-106131371D01*
X124305361Y-105954951D01*
X124307732Y-105945650D01*
X124400000Y-105630000D01*
X124413935Y-105410521D01*
X158591500Y-105410521D01*
X158591500Y-105589478D01*
X158626411Y-105764995D01*
X158626412Y-105764999D01*
X158694894Y-105930328D01*
X158694896Y-105930331D01*
X158694898Y-105930336D01*
X158794322Y-106079135D01*
X158920865Y-106205678D01*
X159069664Y-106305102D01*
X159069670Y-106305104D01*
X159069671Y-106305105D01*
X159235000Y-106373587D01*
X159235004Y-106373588D01*
X159410521Y-106408500D01*
X159589479Y-106408500D01*
X159764995Y-106373588D01*
X159764995Y-106373587D01*
X159765000Y-106373587D01*
X159930336Y-106305102D01*
X160079135Y-106205678D01*
X160205678Y-106079135D01*
X160305102Y-105930336D01*
X160373587Y-105765000D01*
X160408500Y-105589479D01*
X160408500Y-105410521D01*
X160373587Y-105235000D01*
X160305102Y-105069664D01*
X160205678Y-104920865D01*
X160079135Y-104794322D01*
X159930336Y-104694898D01*
X159930331Y-104694896D01*
X159930328Y-104694894D01*
X159764999Y-104626412D01*
X159764995Y-104626411D01*
X159589479Y-104591500D01*
X159410521Y-104591500D01*
X159235004Y-104626411D01*
X159235000Y-104626412D01*
X159069671Y-104694894D01*
X159069665Y-104694897D01*
X159069664Y-104694898D01*
X159023393Y-104725815D01*
X158920867Y-104794320D01*
X158794320Y-104920867D01*
X158694897Y-105069666D01*
X158694894Y-105069671D01*
X158626412Y-105235000D01*
X158626411Y-105235004D01*
X158591500Y-105410521D01*
X124413935Y-105410521D01*
X124440000Y-105000000D01*
X124437139Y-104927057D01*
X124420000Y-104490002D01*
X124420000Y-104489998D01*
X124327183Y-104101856D01*
X124310000Y-104030000D01*
X124225170Y-103800959D01*
X124174909Y-103635284D01*
X124140615Y-103572659D01*
X124110000Y-103490000D01*
X124097984Y-103471269D01*
X124012494Y-103338004D01*
X124007574Y-103329715D01*
X124001666Y-103318927D01*
X123849640Y-103041314D01*
X123847445Y-103038821D01*
X123432448Y-102567553D01*
X123432446Y-102567552D01*
X123313325Y-102457421D01*
X123057681Y-102221070D01*
X122942525Y-102150360D01*
X122654632Y-101973584D01*
X122654630Y-101973583D01*
X122500927Y-101902963D01*
X122436491Y-101873357D01*
X122432694Y-101871612D01*
X122280000Y-101790000D01*
X122211464Y-101769966D01*
X122131371Y-101733167D01*
X122131369Y-101733166D01*
X122131363Y-101733164D01*
X121954968Y-101694642D01*
X121945626Y-101692260D01*
X121630002Y-101600000D01*
X121629999Y-101599999D01*
X120999998Y-101559999D01*
X120999997Y-101559999D01*
X120482248Y-101580304D01*
X120441767Y-101609033D01*
X120409962Y-101616729D01*
X120328269Y-101626532D01*
X120264609Y-101634172D01*
X120264606Y-101634172D01*
X120264604Y-101634173D01*
X119635279Y-101825092D01*
X119041316Y-102150358D01*
X119041308Y-102150364D01*
X118567553Y-102567551D01*
X118567552Y-102567553D01*
X118221069Y-102942320D01*
X118221068Y-102942321D01*
X117973584Y-103345367D01*
X117973577Y-103345380D01*
X117733167Y-103868626D01*
X117733164Y-103868636D01*
X117598816Y-104483804D01*
X117598815Y-104483817D01*
X117581434Y-104927057D01*
X117577205Y-104940680D01*
X117577485Y-104954944D01*
X117566714Y-104974474D01*
X117560103Y-104995773D01*
X117559846Y-104996100D01*
X77900500Y-104996100D01*
X77900500Y-104837111D01*
X77864024Y-104513383D01*
X77858687Y-104490002D01*
X77816259Y-104304111D01*
X77791532Y-104195773D01*
X77683935Y-103888278D01*
X77683932Y-103888273D01*
X77683932Y-103888270D01*
X77542591Y-103594774D01*
X77542578Y-103594752D01*
X77369267Y-103318927D01*
X77369262Y-103318920D01*
X77242481Y-103159942D01*
X77166143Y-103064217D01*
X76935783Y-102833857D01*
X76744179Y-102681058D01*
X76681079Y-102630737D01*
X76681072Y-102630732D01*
X76405247Y-102457421D01*
X76405225Y-102457408D01*
X76111729Y-102316067D01*
X76111725Y-102316066D01*
X75804228Y-102208468D01*
X75486622Y-102135976D01*
X75162895Y-102099500D01*
X75162889Y-102099500D01*
X74837111Y-102099500D01*
X74837104Y-102099500D01*
X74513377Y-102135976D01*
X74195771Y-102208468D01*
X73888274Y-102316066D01*
X73888270Y-102316067D01*
X73594774Y-102457408D01*
X73594752Y-102457421D01*
X73318927Y-102630732D01*
X73318920Y-102630737D01*
X73064214Y-102833859D01*
X72833859Y-103064214D01*
X72630737Y-103318920D01*
X72630732Y-103318927D01*
X72457421Y-103594752D01*
X72457408Y-103594774D01*
X72316067Y-103888270D01*
X72316066Y-103888274D01*
X72208468Y-104195771D01*
X72135976Y-104513377D01*
X72099500Y-104837104D01*
X60380266Y-104837104D01*
X60380266Y-104103345D01*
X60380297Y-104100395D01*
X60381791Y-104030005D01*
X60418363Y-102307370D01*
X60418452Y-102304568D01*
X60444595Y-101689135D01*
X91049398Y-101689135D01*
X91049398Y-101902967D01*
X91072393Y-102048149D01*
X91082850Y-102114174D01*
X91129704Y-102258375D01*
X91148926Y-102317534D01*
X91220195Y-102457408D01*
X91246006Y-102508063D01*
X91289130Y-102567418D01*
X91371692Y-102681055D01*
X91522894Y-102832257D01*
X91695889Y-102957945D01*
X91886415Y-103055023D01*
X91994138Y-103090024D01*
X92089774Y-103121098D01*
X92089777Y-103121098D01*
X92089782Y-103121100D01*
X92300982Y-103154551D01*
X92300985Y-103154551D01*
X92514811Y-103154551D01*
X92514814Y-103154551D01*
X92718712Y-103122256D01*
X92790267Y-103129777D01*
X92848477Y-103172069D01*
X92877743Y-103237800D01*
X92877743Y-103281289D01*
X92845449Y-103485186D01*
X92845449Y-103699018D01*
X92872312Y-103868626D01*
X92878901Y-103910225D01*
X92940691Y-104100395D01*
X92944977Y-104113585D01*
X93042055Y-104304111D01*
X93167743Y-104477106D01*
X93318945Y-104628308D01*
X93491940Y-104753996D01*
X93682466Y-104851074D01*
X93790189Y-104886075D01*
X93885825Y-104917149D01*
X93885828Y-104917149D01*
X93885833Y-104917151D01*
X94097033Y-104950602D01*
X94097036Y-104950602D01*
X94310862Y-104950602D01*
X94310865Y-104950602D01*
X94522065Y-104917151D01*
X94522070Y-104917149D01*
X94522072Y-104917149D01*
X94556963Y-104905811D01*
X94725432Y-104851074D01*
X94915958Y-104753996D01*
X95088953Y-104628308D01*
X95240155Y-104477106D01*
X95365843Y-104304111D01*
X95462921Y-104113585D01*
X95528998Y-103910218D01*
X95562449Y-103699018D01*
X95562449Y-103485186D01*
X95528998Y-103273986D01*
X95528996Y-103273981D01*
X95528996Y-103273978D01*
X95482142Y-103129777D01*
X95471532Y-103097124D01*
X95467767Y-103025273D01*
X95500433Y-102961164D01*
X95560777Y-102921976D01*
X95632630Y-102918210D01*
X95646684Y-102921976D01*
X95723684Y-102946995D01*
X95907134Y-102976051D01*
X96092866Y-102976051D01*
X96276317Y-102946995D01*
X96452963Y-102889599D01*
X96618448Y-102805282D01*
X96709634Y-102739030D01*
X96218089Y-102247486D01*
X96307007Y-102196150D01*
X96400099Y-102103058D01*
X96451435Y-102014141D01*
X96942979Y-102505685D01*
X97009231Y-102414499D01*
X97093548Y-102249014D01*
X97150944Y-102072368D01*
X97180000Y-101888916D01*
X97180000Y-101703185D01*
X97150944Y-101519735D01*
X97127196Y-101446646D01*
X97127195Y-101446644D01*
X97115458Y-101410521D01*
X140591500Y-101410521D01*
X140591500Y-101589479D01*
X140596920Y-101616729D01*
X140626411Y-101764995D01*
X140626412Y-101764999D01*
X140694894Y-101930328D01*
X140694896Y-101930331D01*
X140694898Y-101930336D01*
X140794322Y-102079135D01*
X140920865Y-102205678D01*
X141069664Y-102305102D01*
X141069670Y-102305104D01*
X141069671Y-102305105D01*
X141235000Y-102373587D01*
X141235004Y-102373588D01*
X141410521Y-102408500D01*
X141589479Y-102408500D01*
X141764995Y-102373588D01*
X141764995Y-102373587D01*
X141765000Y-102373587D01*
X141930336Y-102305102D01*
X142079135Y-102205678D01*
X142205678Y-102079135D01*
X142305102Y-101930336D01*
X142373587Y-101765000D01*
X142408500Y-101589479D01*
X142408500Y-101410521D01*
X142385731Y-101296051D01*
X142373588Y-101235004D01*
X142373587Y-101235000D01*
X142305105Y-101069671D01*
X142305104Y-101069670D01*
X142305102Y-101069664D01*
X142205678Y-100920865D01*
X142079135Y-100794322D01*
X141930336Y-100694898D01*
X141930331Y-100694896D01*
X141930328Y-100694894D01*
X141764999Y-100626412D01*
X141764995Y-100626411D01*
X141589479Y-100591500D01*
X141410521Y-100591500D01*
X141235004Y-100626411D01*
X141235000Y-100626412D01*
X141069671Y-100694894D01*
X141069665Y-100694897D01*
X141069664Y-100694898D01*
X141030734Y-100720910D01*
X140920867Y-100794320D01*
X140794320Y-100920867D01*
X140694897Y-101069666D01*
X140694894Y-101069671D01*
X140626412Y-101235000D01*
X140626411Y-101235004D01*
X140597761Y-101379043D01*
X140591500Y-101410521D01*
X97115458Y-101410521D01*
X97093548Y-101343087D01*
X97009229Y-101177599D01*
X96942980Y-101086415D01*
X96942979Y-101086415D01*
X96451434Y-101577960D01*
X96400099Y-101489044D01*
X96307007Y-101395952D01*
X96218088Y-101344614D01*
X96709634Y-100853069D01*
X96709634Y-100853068D01*
X96618457Y-100786824D01*
X96618454Y-100786823D01*
X96452963Y-100702502D01*
X96276317Y-100645106D01*
X96092866Y-100616051D01*
X95907134Y-100616051D01*
X95723682Y-100645106D01*
X95547039Y-100702501D01*
X95419436Y-100767517D01*
X95349057Y-100782475D01*
X95280627Y-100760240D01*
X95232482Y-100706769D01*
X95217524Y-100636390D01*
X95232483Y-100580562D01*
X95297497Y-100452963D01*
X95354893Y-100276317D01*
X95383949Y-100092865D01*
X95383949Y-99907134D01*
X95354893Y-99723682D01*
X95297497Y-99547036D01*
X95213178Y-99381548D01*
X95146929Y-99290364D01*
X95146928Y-99290364D01*
X94655383Y-99781909D01*
X94604048Y-99692993D01*
X94510956Y-99599901D01*
X94422037Y-99548563D01*
X94913583Y-99057018D01*
X94913583Y-99057017D01*
X94822406Y-98990773D01*
X94822403Y-98990772D01*
X94656912Y-98906451D01*
X94480266Y-98849055D01*
X94296815Y-98820000D01*
X94111083Y-98820000D01*
X93927631Y-98849055D01*
X93750985Y-98906451D01*
X93585495Y-98990772D01*
X93585494Y-98990772D01*
X93494313Y-99057018D01*
X93985859Y-99548564D01*
X93896942Y-99599901D01*
X93803850Y-99692993D01*
X93752513Y-99781910D01*
X93260967Y-99290364D01*
X93194721Y-99381545D01*
X93194721Y-99381546D01*
X93110400Y-99547036D01*
X93053004Y-99723682D01*
X93023949Y-99907134D01*
X93023949Y-100092865D01*
X93053004Y-100276317D01*
X93078023Y-100353316D01*
X93081788Y-100425169D01*
X93049123Y-100489278D01*
X92988779Y-100528466D01*
X92916926Y-100532231D01*
X92902873Y-100528466D01*
X92726021Y-100471003D01*
X92686699Y-100464775D01*
X92514814Y-100437551D01*
X92300982Y-100437551D01*
X92165774Y-100458965D01*
X92089774Y-100471003D01*
X91886414Y-100537079D01*
X91695885Y-100634159D01*
X91522897Y-100759842D01*
X91522890Y-100759848D01*
X91371695Y-100911043D01*
X91371689Y-100911050D01*
X91246006Y-101084038D01*
X91148926Y-101274567D01*
X91082850Y-101477927D01*
X91082849Y-101477935D01*
X91049398Y-101689135D01*
X60444595Y-101689135D01*
X60494569Y-100512724D01*
X60494725Y-100509807D01*
X60608849Y-98720106D01*
X60609067Y-98717183D01*
X60610860Y-98696122D01*
X60761154Y-96930291D01*
X60761432Y-96927388D01*
X60762808Y-96914475D01*
X60951420Y-95144046D01*
X60951749Y-95141246D01*
X61179548Y-93362334D01*
X61179949Y-93359451D01*
X61180430Y-93356238D01*
X61445445Y-91585835D01*
X61445888Y-91583073D01*
X61748989Y-89815377D01*
X61749515Y-89812500D01*
X62090049Y-88051738D01*
X62090614Y-88048975D01*
X62468450Y-86295807D01*
X62469094Y-86292968D01*
X62475747Y-86264995D01*
X62884051Y-84548240D01*
X62884741Y-84545469D01*
X63336648Y-82809902D01*
X63337414Y-82807085D01*
X63343736Y-82784760D01*
X63602780Y-81869978D01*
X82664606Y-81869978D01*
X82664606Y-82083810D01*
X82682822Y-82198820D01*
X82698058Y-82295017D01*
X82744912Y-82439218D01*
X82764134Y-82498377D01*
X82854509Y-82675748D01*
X82861214Y-82688906D01*
X82952175Y-82814103D01*
X82986900Y-82861898D01*
X83138102Y-83013100D01*
X83311097Y-83138788D01*
X83501623Y-83235866D01*
X83609346Y-83270867D01*
X83704982Y-83301941D01*
X83704985Y-83301941D01*
X83704990Y-83301943D01*
X83916190Y-83335394D01*
X83916193Y-83335394D01*
X84130019Y-83335394D01*
X84130022Y-83335394D01*
X84333920Y-83303099D01*
X84405475Y-83310620D01*
X84463685Y-83352912D01*
X84492951Y-83418643D01*
X84492951Y-83462132D01*
X84485294Y-83510476D01*
X84460657Y-83666029D01*
X84460657Y-83879861D01*
X84478483Y-83992408D01*
X84494109Y-84091068D01*
X84560185Y-84294428D01*
X84657263Y-84484954D01*
X84782951Y-84657949D01*
X84934153Y-84809151D01*
X85107148Y-84934839D01*
X85297674Y-85031917D01*
X85405397Y-85066918D01*
X85501033Y-85097992D01*
X85501036Y-85097992D01*
X85501041Y-85097994D01*
X85712241Y-85131445D01*
X85712244Y-85131445D01*
X85926070Y-85131445D01*
X85926073Y-85131445D01*
X86137273Y-85097994D01*
X86137278Y-85097992D01*
X86137280Y-85097992D01*
X86181067Y-85083764D01*
X86340640Y-85031917D01*
X86531166Y-84934839D01*
X86704161Y-84809151D01*
X86855363Y-84657949D01*
X86981051Y-84484954D01*
X87078129Y-84294428D01*
X87138256Y-84109374D01*
X87144204Y-84091068D01*
X87144204Y-84091066D01*
X87144206Y-84091061D01*
X87177657Y-83879861D01*
X87177657Y-83666029D01*
X87145362Y-83462129D01*
X87152883Y-83390575D01*
X87195175Y-83332365D01*
X87260906Y-83303099D01*
X87304391Y-83303099D01*
X87508292Y-83335394D01*
X87508295Y-83335394D01*
X87722121Y-83335394D01*
X87722124Y-83335394D01*
X87933324Y-83301943D01*
X87933329Y-83301941D01*
X87933331Y-83301941D01*
X87977118Y-83287713D01*
X88136691Y-83235866D01*
X88327217Y-83138788D01*
X88500212Y-83013100D01*
X88651414Y-82861898D01*
X88777102Y-82688903D01*
X88874180Y-82498377D01*
X88931424Y-82322195D01*
X88940255Y-82295017D01*
X88940255Y-82295015D01*
X88940257Y-82295010D01*
X88973708Y-82083810D01*
X88973708Y-81869978D01*
X88940257Y-81658778D01*
X88940255Y-81658773D01*
X88940255Y-81658770D01*
X88901451Y-81539343D01*
X88874180Y-81455411D01*
X88777102Y-81264885D01*
X88651414Y-81091890D01*
X88500212Y-80940688D01*
X88458274Y-80910218D01*
X88327220Y-80815002D01*
X88327219Y-80815001D01*
X88327217Y-80815000D01*
X88136691Y-80717922D01*
X87933331Y-80651846D01*
X87894009Y-80645618D01*
X87722124Y-80618394D01*
X87508292Y-80618394D01*
X87405456Y-80634681D01*
X87304395Y-80650688D01*
X87232838Y-80643167D01*
X87174628Y-80600874D01*
X87145362Y-80535143D01*
X87145362Y-80491660D01*
X87177657Y-80287759D01*
X87177657Y-80073927D01*
X87144206Y-79862727D01*
X87144204Y-79862722D01*
X87144204Y-79862719D01*
X87113130Y-79767083D01*
X87078129Y-79659360D01*
X86981051Y-79468834D01*
X86855363Y-79295839D01*
X86704161Y-79144637D01*
X86662223Y-79114167D01*
X86531169Y-79018951D01*
X86531168Y-79018950D01*
X86531166Y-79018949D01*
X86340640Y-78921871D01*
X86137280Y-78855795D01*
X86079351Y-78846620D01*
X85926073Y-78822343D01*
X85712241Y-78822343D01*
X85577033Y-78843757D01*
X85501033Y-78855795D01*
X85297673Y-78921871D01*
X85107144Y-79018951D01*
X84934156Y-79144634D01*
X84934149Y-79144640D01*
X84782954Y-79295835D01*
X84782948Y-79295842D01*
X84657265Y-79468830D01*
X84560185Y-79659359D01*
X84494109Y-79862719D01*
X84494108Y-79862727D01*
X84460657Y-80073927D01*
X84460657Y-80287759D01*
X84478378Y-80399644D01*
X84492951Y-80491655D01*
X84485430Y-80563212D01*
X84443137Y-80621422D01*
X84377406Y-80650688D01*
X84333918Y-80650688D01*
X84267534Y-80640174D01*
X84130022Y-80618394D01*
X83916190Y-80618394D01*
X83780982Y-80639808D01*
X83704982Y-80651846D01*
X83501622Y-80717922D01*
X83311093Y-80815002D01*
X83138105Y-80940685D01*
X83138098Y-80940691D01*
X82986903Y-81091886D01*
X82986897Y-81091893D01*
X82861214Y-81264881D01*
X82764134Y-81455410D01*
X82698058Y-81658770D01*
X82698057Y-81658778D01*
X82664606Y-81869978D01*
X63602780Y-81869978D01*
X63826052Y-81081518D01*
X63826833Y-81078866D01*
X64351995Y-79364036D01*
X64352886Y-79361234D01*
X64628591Y-78524800D01*
X90799190Y-78524800D01*
X90799190Y-78524802D01*
X90810324Y-78646204D01*
X90810327Y-78646215D01*
X90860885Y-78783335D01*
X90860889Y-78783344D01*
X90895134Y-78846621D01*
X90895135Y-78846623D01*
X90973781Y-78955179D01*
X90973783Y-78955181D01*
X90973789Y-78955189D01*
X91040113Y-79025267D01*
X91059376Y-79045620D01*
X93223650Y-81332401D01*
X93223651Y-81332401D01*
X93499999Y-81624391D01*
X94019456Y-82173252D01*
X94386168Y-82560722D01*
X94386184Y-82560737D01*
X94439781Y-82617369D01*
X94459044Y-82637722D01*
X94459046Y-82637724D01*
X96623318Y-84924503D01*
X96623319Y-84924503D01*
X96899667Y-85216493D01*
X97419124Y-85765354D01*
X97785836Y-86152824D01*
X97785852Y-86152839D01*
X97839449Y-86209471D01*
X97858712Y-86229824D01*
X104085922Y-92809518D01*
X104085933Y-92809528D01*
X104085939Y-92809534D01*
X104140682Y-92859580D01*
X104172147Y-92884420D01*
X104200796Y-92904351D01*
X104223072Y-92919848D01*
X104357429Y-92977382D01*
X104426929Y-92996004D01*
X104559829Y-93013500D01*
X120991232Y-93013500D01*
X121060732Y-93032122D01*
X121086497Y-93051280D01*
X121349634Y-93298937D01*
X121358467Y-93306335D01*
X121395175Y-93337080D01*
X121420941Y-93356238D01*
X121460077Y-93382633D01*
X121505654Y-93402150D01*
X121594430Y-93440166D01*
X121594434Y-93440167D01*
X121663934Y-93458789D01*
X121663949Y-93458791D01*
X121663953Y-93458792D01*
X121784610Y-93476139D01*
X121784611Y-93476139D01*
X121929734Y-93458789D01*
X121999234Y-93440167D01*
X122018931Y-93432281D01*
X122046880Y-93421093D01*
X122118322Y-93412551D01*
X122184465Y-93440874D01*
X122196829Y-93451848D01*
X122198817Y-93453836D01*
X122322195Y-93577214D01*
X122463353Y-93679771D01*
X122618818Y-93758985D01*
X122722570Y-93792695D01*
X122784752Y-93812900D01*
X122784755Y-93812900D01*
X122784760Y-93812902D01*
X122957093Y-93840197D01*
X122957096Y-93840197D01*
X123131572Y-93840197D01*
X123131575Y-93840197D01*
X123202203Y-93829010D01*
X123273757Y-93836531D01*
X123331968Y-93878823D01*
X123361234Y-93944554D01*
X123361234Y-93988043D01*
X123350048Y-94058669D01*
X123350048Y-94233151D01*
X123362215Y-94309970D01*
X123377344Y-94405491D01*
X123420306Y-94537714D01*
X123431260Y-94571426D01*
X123510474Y-94726891D01*
X123510476Y-94726894D01*
X123597126Y-94846158D01*
X123613031Y-94868049D01*
X123736409Y-94991427D01*
X123805207Y-95041411D01*
X123846204Y-95071198D01*
X123891484Y-95127115D01*
X123902739Y-95198181D01*
X123896703Y-95222905D01*
X123897106Y-95223005D01*
X123894909Y-95231849D01*
X123878504Y-95377064D01*
X123878503Y-95377083D01*
X123880683Y-95448984D01*
X123880684Y-95448994D01*
X123898816Y-95569548D01*
X123898817Y-95569550D01*
X123957221Y-95703531D01*
X123957226Y-95703541D01*
X123995060Y-95764716D01*
X123995064Y-95764721D01*
X123995066Y-95764724D01*
X124079858Y-95868560D01*
X124079860Y-95868562D01*
X124140498Y-95925633D01*
X125050963Y-96782541D01*
X125150400Y-96855742D01*
X125208184Y-96888373D01*
X125310489Y-96932285D01*
X125454916Y-96954709D01*
X125518612Y-96955424D01*
X125526852Y-96955517D01*
X125526853Y-96955516D01*
X125526863Y-96955517D01*
X125648075Y-96942403D01*
X125784365Y-96889611D01*
X125847077Y-96854338D01*
X125954338Y-96773932D01*
X126837372Y-95910521D01*
X156591500Y-95910521D01*
X156591500Y-96089478D01*
X156626411Y-96264995D01*
X156626412Y-96264999D01*
X156694894Y-96430328D01*
X156694896Y-96430331D01*
X156694898Y-96430336D01*
X156794322Y-96579135D01*
X156920865Y-96705678D01*
X157069664Y-96805102D01*
X157069670Y-96805104D01*
X157069671Y-96805105D01*
X157235000Y-96873587D01*
X157235004Y-96873588D01*
X157410521Y-96908500D01*
X157589479Y-96908500D01*
X157764995Y-96873588D01*
X157764995Y-96873587D01*
X157765000Y-96873587D01*
X157930336Y-96805102D01*
X158079135Y-96705678D01*
X158205678Y-96579135D01*
X158305102Y-96430336D01*
X158373587Y-96265000D01*
X158408500Y-96089479D01*
X158408500Y-95910521D01*
X158387373Y-95804306D01*
X158373588Y-95735004D01*
X158373587Y-95735000D01*
X158305105Y-95569671D01*
X158305104Y-95569670D01*
X158305102Y-95569664D01*
X158205678Y-95420865D01*
X158079135Y-95294322D01*
X157930336Y-95194898D01*
X157930331Y-95194896D01*
X157930328Y-95194894D01*
X157764999Y-95126412D01*
X157764995Y-95126411D01*
X157589479Y-95091500D01*
X157410521Y-95091500D01*
X157235004Y-95126411D01*
X157235000Y-95126412D01*
X157069671Y-95194894D01*
X157069665Y-95194897D01*
X157069664Y-95194898D01*
X157027599Y-95223005D01*
X156920867Y-95294320D01*
X156794320Y-95420867D01*
X156728338Y-95519617D01*
X156694975Y-95569550D01*
X156694897Y-95569666D01*
X156694894Y-95569671D01*
X156626412Y-95735000D01*
X156626411Y-95735004D01*
X156591500Y-95910521D01*
X126837372Y-95910521D01*
X127309388Y-95448994D01*
X128369723Y-94412223D01*
X164079399Y-94412223D01*
X164079399Y-94586705D01*
X164101602Y-94726891D01*
X164106695Y-94759045D01*
X164142112Y-94868045D01*
X164160611Y-94924980D01*
X164239825Y-95080445D01*
X164239827Y-95080448D01*
X164322977Y-95194894D01*
X164342382Y-95221603D01*
X164465760Y-95344981D01*
X164606918Y-95447538D01*
X164762383Y-95526752D01*
X164866135Y-95560462D01*
X164928317Y-95580667D01*
X164928320Y-95580667D01*
X164928325Y-95580669D01*
X165100658Y-95607964D01*
X165100661Y-95607964D01*
X165275137Y-95607964D01*
X165275140Y-95607964D01*
X165447473Y-95580669D01*
X165447478Y-95580667D01*
X165447480Y-95580667D01*
X165481700Y-95569548D01*
X165613415Y-95526752D01*
X165768880Y-95447538D01*
X165910038Y-95344981D01*
X166033416Y-95221603D01*
X166135973Y-95080445D01*
X166215187Y-94924980D01*
X166269104Y-94759038D01*
X166296399Y-94586705D01*
X166296399Y-94412223D01*
X166285212Y-94341593D01*
X166292733Y-94270040D01*
X166335025Y-94211829D01*
X166400756Y-94182563D01*
X166444240Y-94182563D01*
X166514872Y-94193750D01*
X166514875Y-94193750D01*
X166689351Y-94193750D01*
X166689354Y-94193750D01*
X166861687Y-94166455D01*
X166861692Y-94166453D01*
X166861694Y-94166453D01*
X166890164Y-94157202D01*
X167027629Y-94112538D01*
X167183094Y-94033324D01*
X167324252Y-93930767D01*
X167447630Y-93807389D01*
X167550187Y-93666231D01*
X167629401Y-93510766D01*
X167677616Y-93362373D01*
X167683316Y-93344831D01*
X167683316Y-93344829D01*
X167683318Y-93344824D01*
X167710613Y-93172491D01*
X167710613Y-92998009D01*
X167683318Y-92825676D01*
X167683316Y-92825671D01*
X167683316Y-92825668D01*
X167640826Y-92694898D01*
X167629401Y-92659734D01*
X167550187Y-92504269D01*
X167447630Y-92363111D01*
X167324252Y-92239733D01*
X167183094Y-92137176D01*
X167027629Y-92057962D01*
X166993917Y-92047008D01*
X166861694Y-92004046D01*
X166829608Y-91998964D01*
X166689354Y-91976750D01*
X166514872Y-91976750D01*
X166404546Y-91994223D01*
X166342531Y-92004046D01*
X166176597Y-92057962D01*
X166021128Y-92137178D01*
X165879977Y-92239730D01*
X165879970Y-92239736D01*
X165756599Y-92363107D01*
X165756593Y-92363114D01*
X165654041Y-92504265D01*
X165574825Y-92659734D01*
X165520909Y-92825668D01*
X165520908Y-92825676D01*
X165496881Y-92977381D01*
X165493613Y-92998012D01*
X165493613Y-93172489D01*
X165504799Y-93243117D01*
X165497277Y-93314675D01*
X165454985Y-93372885D01*
X165389254Y-93402150D01*
X165345766Y-93402150D01*
X165327014Y-93399180D01*
X165275140Y-93390964D01*
X165100658Y-93390964D01*
X164990332Y-93408437D01*
X164928317Y-93418260D01*
X164762383Y-93472176D01*
X164606914Y-93551392D01*
X164465763Y-93653944D01*
X164465756Y-93653950D01*
X164342385Y-93777321D01*
X164342379Y-93777328D01*
X164239827Y-93918479D01*
X164160611Y-94073948D01*
X164106695Y-94239882D01*
X164096872Y-94301897D01*
X164079399Y-94412223D01*
X128369723Y-94412223D01*
X129394191Y-93410521D01*
X155091500Y-93410521D01*
X155091500Y-93589478D01*
X155126411Y-93764995D01*
X155126412Y-93764999D01*
X155194894Y-93930328D01*
X155194896Y-93930331D01*
X155194898Y-93930336D01*
X155294322Y-94079135D01*
X155420865Y-94205678D01*
X155569664Y-94305102D01*
X155569670Y-94305104D01*
X155569671Y-94305105D01*
X155735000Y-94373587D01*
X155735004Y-94373588D01*
X155910521Y-94408500D01*
X156089479Y-94408500D01*
X156264995Y-94373588D01*
X156264995Y-94373587D01*
X156265000Y-94373587D01*
X156430336Y-94305102D01*
X156579135Y-94205678D01*
X156705678Y-94079135D01*
X156805102Y-93930336D01*
X156873587Y-93765000D01*
X156908500Y-93589479D01*
X156908500Y-93410521D01*
X156873587Y-93235000D01*
X156805102Y-93069664D01*
X156705678Y-92920865D01*
X156579135Y-92794322D01*
X156430336Y-92694898D01*
X156430331Y-92694896D01*
X156430328Y-92694894D01*
X156264999Y-92626412D01*
X156264995Y-92626411D01*
X156089479Y-92591500D01*
X155910521Y-92591500D01*
X155735004Y-92626411D01*
X155735000Y-92626412D01*
X155569671Y-92694894D01*
X155569665Y-92694897D01*
X155569664Y-92694898D01*
X155519617Y-92728338D01*
X155420867Y-92794320D01*
X155294320Y-92920867D01*
X155194897Y-93069666D01*
X155194894Y-93069671D01*
X155126412Y-93235000D01*
X155126411Y-93235004D01*
X155091500Y-93410521D01*
X129394191Y-93410521D01*
X129502820Y-93304306D01*
X131183964Y-91660521D01*
X141341500Y-91660521D01*
X141341500Y-91839478D01*
X141376411Y-92014995D01*
X141376412Y-92014999D01*
X141444894Y-92180328D01*
X141444896Y-92180331D01*
X141444898Y-92180336D01*
X141544322Y-92329135D01*
X141670865Y-92455678D01*
X141819664Y-92555102D01*
X141819670Y-92555104D01*
X141819671Y-92555105D01*
X141985000Y-92623587D01*
X141985004Y-92623588D01*
X142160521Y-92658500D01*
X142339479Y-92658500D01*
X142514995Y-92623588D01*
X142514995Y-92623587D01*
X142515000Y-92623587D01*
X142680336Y-92555102D01*
X142829135Y-92455678D01*
X142955678Y-92329135D01*
X143055102Y-92180336D01*
X143123587Y-92015000D01*
X143158500Y-91839479D01*
X143158500Y-91660521D01*
X143123588Y-91485004D01*
X143123587Y-91485000D01*
X143055105Y-91319671D01*
X143055104Y-91319670D01*
X143055102Y-91319664D01*
X142955678Y-91170865D01*
X142829135Y-91044322D01*
X142680336Y-90944898D01*
X142680331Y-90944896D01*
X142680328Y-90944894D01*
X142514999Y-90876412D01*
X142514995Y-90876411D01*
X142339479Y-90841500D01*
X142160521Y-90841500D01*
X141985004Y-90876411D01*
X141985000Y-90876412D01*
X141819671Y-90944894D01*
X141819665Y-90944897D01*
X141819664Y-90944898D01*
X141769617Y-90978338D01*
X141670867Y-91044320D01*
X141544320Y-91170867D01*
X141444897Y-91319666D01*
X141444894Y-91319671D01*
X141376412Y-91485000D01*
X141376411Y-91485004D01*
X141341500Y-91660521D01*
X131183964Y-91660521D01*
X131292593Y-91554306D01*
X133996464Y-88910521D01*
X147091500Y-88910521D01*
X147091500Y-89089478D01*
X147126411Y-89264995D01*
X147126412Y-89264999D01*
X147194894Y-89430328D01*
X147194896Y-89430331D01*
X147194898Y-89430336D01*
X147294322Y-89579135D01*
X147420865Y-89705678D01*
X147569664Y-89805102D01*
X147569670Y-89805104D01*
X147569671Y-89805105D01*
X147735000Y-89873587D01*
X147735004Y-89873588D01*
X147910521Y-89908500D01*
X148089479Y-89908500D01*
X148264995Y-89873588D01*
X148264995Y-89873587D01*
X148265000Y-89873587D01*
X148430336Y-89805102D01*
X148579135Y-89705678D01*
X148705678Y-89579135D01*
X148805102Y-89430336D01*
X148873587Y-89265000D01*
X148908500Y-89089479D01*
X148908500Y-88910521D01*
X148873587Y-88735000D01*
X148805102Y-88569664D01*
X148705678Y-88420865D01*
X148579135Y-88294322D01*
X148430336Y-88194898D01*
X148430331Y-88194896D01*
X148430328Y-88194894D01*
X148264999Y-88126412D01*
X148264995Y-88126411D01*
X148089479Y-88091500D01*
X147910521Y-88091500D01*
X147735004Y-88126411D01*
X147735000Y-88126412D01*
X147569671Y-88194894D01*
X147569665Y-88194897D01*
X147569664Y-88194898D01*
X147519617Y-88228338D01*
X147420867Y-88294320D01*
X147294320Y-88420867D01*
X147194897Y-88569666D01*
X147194894Y-88569671D01*
X147126412Y-88735000D01*
X147126411Y-88735004D01*
X147091500Y-88910521D01*
X133996464Y-88910521D01*
X134105093Y-88804306D01*
X137008392Y-85965524D01*
X137010565Y-85963388D01*
X137010949Y-85963007D01*
X137011557Y-85962407D01*
X137051614Y-85910521D01*
X143591500Y-85910521D01*
X143591500Y-86089478D01*
X143626411Y-86264995D01*
X143626412Y-86264999D01*
X143694894Y-86430328D01*
X143694896Y-86430331D01*
X143694898Y-86430336D01*
X143794322Y-86579135D01*
X143920865Y-86705678D01*
X144069664Y-86805102D01*
X144069670Y-86805104D01*
X144069671Y-86805105D01*
X144235000Y-86873587D01*
X144235004Y-86873588D01*
X144410521Y-86908500D01*
X144589479Y-86908500D01*
X144764995Y-86873588D01*
X144764995Y-86873587D01*
X144765000Y-86873587D01*
X144930336Y-86805102D01*
X145079135Y-86705678D01*
X145205678Y-86579135D01*
X145305102Y-86430336D01*
X145373587Y-86265000D01*
X145408500Y-86089479D01*
X145408500Y-85910521D01*
X145373587Y-85735000D01*
X145305102Y-85569664D01*
X145205678Y-85420865D01*
X145079135Y-85294322D01*
X144930336Y-85194898D01*
X144930331Y-85194896D01*
X144930328Y-85194894D01*
X144764999Y-85126412D01*
X144764995Y-85126411D01*
X144589479Y-85091500D01*
X144410521Y-85091500D01*
X144235004Y-85126411D01*
X144235000Y-85126412D01*
X144069671Y-85194894D01*
X144069665Y-85194897D01*
X144069664Y-85194898D01*
X144037345Y-85216493D01*
X143920867Y-85294320D01*
X143794320Y-85420867D01*
X143694897Y-85569666D01*
X143694894Y-85569671D01*
X143626412Y-85735000D01*
X143626411Y-85735004D01*
X143591500Y-85910521D01*
X137051614Y-85910521D01*
X137095305Y-85853928D01*
X137131281Y-85791616D01*
X137179277Y-85679535D01*
X137195073Y-85569671D01*
X137200077Y-85534869D01*
X137200077Y-85462914D01*
X137200077Y-85462913D01*
X137185602Y-85341850D01*
X137131281Y-85206162D01*
X137095305Y-85143850D01*
X137013700Y-85037502D01*
X136347505Y-84371307D01*
X154745590Y-84371307D01*
X154745590Y-84545789D01*
X154763355Y-84657952D01*
X154772886Y-84718129D01*
X154802462Y-84809153D01*
X154826802Y-84884064D01*
X154906016Y-85039529D01*
X155008573Y-85180687D01*
X155131951Y-85304065D01*
X155273109Y-85406622D01*
X155428574Y-85485836D01*
X155532326Y-85519546D01*
X155594508Y-85539751D01*
X155594511Y-85539751D01*
X155594516Y-85539753D01*
X155766849Y-85567048D01*
X155766852Y-85567048D01*
X155941328Y-85567048D01*
X155941331Y-85567048D01*
X156113664Y-85539753D01*
X156113669Y-85539751D01*
X156113671Y-85539751D01*
X156142141Y-85530500D01*
X156279606Y-85485836D01*
X156435071Y-85406622D01*
X156576229Y-85304065D01*
X156699607Y-85180687D01*
X156802164Y-85039529D01*
X156881378Y-84884064D01*
X156935295Y-84718122D01*
X156962590Y-84545789D01*
X156962590Y-84371307D01*
X156951403Y-84300677D01*
X156958924Y-84229124D01*
X157001216Y-84170913D01*
X157066947Y-84141647D01*
X157110430Y-84141647D01*
X157181062Y-84152834D01*
X157181065Y-84152834D01*
X157355541Y-84152834D01*
X157355544Y-84152834D01*
X157527877Y-84125539D01*
X157527882Y-84125537D01*
X157527884Y-84125537D01*
X157567755Y-84112582D01*
X157693819Y-84071622D01*
X157849284Y-83992408D01*
X157990442Y-83889851D01*
X158113820Y-83766473D01*
X158216377Y-83625315D01*
X158295591Y-83469850D01*
X158349508Y-83303908D01*
X158376803Y-83131575D01*
X158376803Y-82957093D01*
X158349508Y-82784760D01*
X158349506Y-82784755D01*
X158349506Y-82784752D01*
X158321438Y-82698368D01*
X158295591Y-82618818D01*
X158216377Y-82463353D01*
X158113820Y-82322195D01*
X157990442Y-82198817D01*
X157990438Y-82198814D01*
X157849287Y-82096262D01*
X157849286Y-82096261D01*
X157849284Y-82096260D01*
X157693819Y-82017046D01*
X157660107Y-82006092D01*
X157527884Y-81963130D01*
X157495798Y-81958048D01*
X157355544Y-81935834D01*
X157181062Y-81935834D01*
X157087821Y-81950602D01*
X157008721Y-81963130D01*
X156842787Y-82017046D01*
X156687318Y-82096262D01*
X156546167Y-82198814D01*
X156546160Y-82198820D01*
X156422789Y-82322191D01*
X156422783Y-82322198D01*
X156320231Y-82463349D01*
X156241015Y-82618818D01*
X156187099Y-82784752D01*
X156177276Y-82846767D01*
X156159803Y-82957093D01*
X156159803Y-83131575D01*
X156168019Y-83183449D01*
X156170989Y-83202201D01*
X156163467Y-83273759D01*
X156121175Y-83331969D01*
X156055444Y-83361234D01*
X156011956Y-83361234D01*
X155941331Y-83350048D01*
X155766849Y-83350048D01*
X155656523Y-83367521D01*
X155594508Y-83377344D01*
X155428574Y-83431260D01*
X155273105Y-83510476D01*
X155131954Y-83613028D01*
X155131947Y-83613034D01*
X155008576Y-83736405D01*
X155008570Y-83736412D01*
X154906018Y-83877563D01*
X154826802Y-84033032D01*
X154772886Y-84198966D01*
X154768110Y-84229124D01*
X154745590Y-84371307D01*
X136347505Y-84371307D01*
X136204515Y-84228317D01*
X136168269Y-84198966D01*
X136121079Y-84160752D01*
X136072613Y-84129279D01*
X136072606Y-84129275D01*
X136072604Y-84129274D01*
X135988304Y-84085051D01*
X135988303Y-84085050D01*
X135988302Y-84085050D01*
X135988298Y-84085049D01*
X135846602Y-84049247D01*
X135810821Y-84045487D01*
X135775043Y-84041728D01*
X135775041Y-84041728D01*
X135653136Y-84043470D01*
X135653131Y-84043471D01*
X135512514Y-84083314D01*
X135512508Y-84083316D01*
X135479270Y-84098116D01*
X135468314Y-84099851D01*
X135458706Y-84105399D01*
X135433296Y-84105399D01*
X135408204Y-84109374D01*
X135397848Y-84105399D01*
X135386754Y-84105399D01*
X135364747Y-84092693D01*
X135341031Y-84083590D01*
X135324442Y-84069423D01*
X135241971Y-83986952D01*
X135205995Y-83924640D01*
X135205995Y-83852688D01*
X135212475Y-83833962D01*
X135248824Y-83749082D01*
X135250646Y-83736412D01*
X135269624Y-83604416D01*
X135269624Y-83532461D01*
X135269624Y-83532460D01*
X135255149Y-83411397D01*
X135200828Y-83275709D01*
X135164852Y-83213397D01*
X135083247Y-83107049D01*
X134790301Y-82814103D01*
X134785150Y-82809932D01*
X134706865Y-82746538D01*
X134658399Y-82715065D01*
X134658392Y-82715061D01*
X134658390Y-82715060D01*
X134574090Y-82670837D01*
X134574089Y-82670836D01*
X134574088Y-82670836D01*
X134574084Y-82670835D01*
X134432388Y-82635033D01*
X134396607Y-82631273D01*
X134360829Y-82627514D01*
X134360827Y-82627514D01*
X134238922Y-82629256D01*
X134238917Y-82629257D01*
X134098300Y-82669100D01*
X134098294Y-82669102D01*
X134065056Y-82683902D01*
X134054100Y-82685637D01*
X134044492Y-82691185D01*
X134019082Y-82691185D01*
X133993990Y-82695160D01*
X133983634Y-82691185D01*
X133972540Y-82691185D01*
X133950533Y-82678479D01*
X133926817Y-82669376D01*
X133910228Y-82655209D01*
X133827757Y-82572738D01*
X133791781Y-82510426D01*
X133791781Y-82438474D01*
X133798261Y-82419748D01*
X133834610Y-82334868D01*
X133834611Y-82334864D01*
X133855410Y-82190202D01*
X133855410Y-82118247D01*
X133855410Y-82118246D01*
X133840935Y-81997183D01*
X133786614Y-81861495D01*
X133750638Y-81799183D01*
X133669033Y-81692835D01*
X133304212Y-81328014D01*
X133268236Y-81265702D01*
X133263500Y-81229726D01*
X133263500Y-78689135D01*
X159345449Y-78689135D01*
X159345449Y-78902967D01*
X159363819Y-79018949D01*
X159378901Y-79114174D01*
X159417706Y-79233602D01*
X159444977Y-79317534D01*
X159522068Y-79468834D01*
X159542057Y-79508063D01*
X159582152Y-79563249D01*
X159667743Y-79681055D01*
X159818945Y-79832257D01*
X159991940Y-79957945D01*
X160182466Y-80055023D01*
X160290189Y-80090024D01*
X160385825Y-80121098D01*
X160385828Y-80121098D01*
X160385833Y-80121100D01*
X160597033Y-80154551D01*
X160597036Y-80154551D01*
X160810862Y-80154551D01*
X160810865Y-80154551D01*
X161014763Y-80122256D01*
X161086318Y-80129777D01*
X161144528Y-80172069D01*
X161173794Y-80237800D01*
X161173794Y-80281289D01*
X161157456Y-80384446D01*
X161141500Y-80485186D01*
X161141500Y-80699018D01*
X161159870Y-80815000D01*
X161174952Y-80910225D01*
X161217194Y-81040231D01*
X161241028Y-81113585D01*
X161329541Y-81287302D01*
X161338108Y-81304114D01*
X161448031Y-81455410D01*
X161463794Y-81477106D01*
X161614996Y-81628308D01*
X161787991Y-81753996D01*
X161978517Y-81851074D01*
X162086240Y-81886075D01*
X162181876Y-81917149D01*
X162181879Y-81917149D01*
X162181884Y-81917151D01*
X162393084Y-81950602D01*
X162393087Y-81950602D01*
X162606913Y-81950602D01*
X162606916Y-81950602D01*
X162818116Y-81917151D01*
X162818121Y-81917149D01*
X162818123Y-81917149D01*
X162861910Y-81902921D01*
X163021483Y-81851074D01*
X163212009Y-81753996D01*
X163385004Y-81628308D01*
X163536206Y-81477106D01*
X163661894Y-81304111D01*
X163758972Y-81113585D01*
X163825049Y-80910218D01*
X163858500Y-80699018D01*
X163858500Y-80485186D01*
X163826205Y-80281286D01*
X163833726Y-80209732D01*
X163876018Y-80151522D01*
X163941749Y-80122256D01*
X163985234Y-80122256D01*
X164189135Y-80154551D01*
X164189138Y-80154551D01*
X164402964Y-80154551D01*
X164402967Y-80154551D01*
X164614167Y-80121100D01*
X164614172Y-80121098D01*
X164614174Y-80121098D01*
X164675869Y-80101052D01*
X164817534Y-80055023D01*
X165008060Y-79957945D01*
X165181055Y-79832257D01*
X165332257Y-79681055D01*
X165457945Y-79508060D01*
X165555023Y-79317534D01*
X165621100Y-79114167D01*
X165654551Y-78902967D01*
X165654551Y-78689135D01*
X165621100Y-78477935D01*
X165621098Y-78477930D01*
X165621098Y-78477927D01*
X165582294Y-78358500D01*
X165555023Y-78274568D01*
X165457945Y-78084042D01*
X165332257Y-77911047D01*
X165181055Y-77759845D01*
X165154152Y-77740299D01*
X165008063Y-77634159D01*
X165008062Y-77634158D01*
X165008060Y-77634157D01*
X164817534Y-77537079D01*
X164614174Y-77471003D01*
X164574852Y-77464775D01*
X164402967Y-77437551D01*
X164189135Y-77437551D01*
X164086299Y-77453838D01*
X163985238Y-77469845D01*
X163913681Y-77462324D01*
X163855471Y-77420031D01*
X163826205Y-77354300D01*
X163826205Y-77310817D01*
X163858500Y-77106916D01*
X163858500Y-76893084D01*
X163825049Y-76681884D01*
X163825047Y-76681879D01*
X163825047Y-76681876D01*
X163782126Y-76549779D01*
X163758972Y-76478517D01*
X163661894Y-76287991D01*
X163536206Y-76114996D01*
X163385004Y-75963794D01*
X163212009Y-75838106D01*
X163021483Y-75741028D01*
X162818123Y-75674952D01*
X162778801Y-75668724D01*
X162606916Y-75641500D01*
X162393084Y-75641500D01*
X162257876Y-75662914D01*
X162181876Y-75674952D01*
X161978516Y-75741028D01*
X161787987Y-75838108D01*
X161614999Y-75963791D01*
X161614992Y-75963797D01*
X161463797Y-76114992D01*
X161463791Y-76114999D01*
X161338108Y-76287987D01*
X161241028Y-76478516D01*
X161174952Y-76681876D01*
X161141500Y-76893087D01*
X161141500Y-77106913D01*
X161173794Y-77310812D01*
X161166273Y-77382369D01*
X161123980Y-77440579D01*
X161058249Y-77469845D01*
X161014761Y-77469845D01*
X160948377Y-77459331D01*
X160810865Y-77437551D01*
X160597033Y-77437551D01*
X160461825Y-77458965D01*
X160385825Y-77471003D01*
X160182465Y-77537079D01*
X159991936Y-77634159D01*
X159818948Y-77759842D01*
X159818941Y-77759848D01*
X159667746Y-77911043D01*
X159667740Y-77911050D01*
X159542057Y-78084038D01*
X159444977Y-78274567D01*
X159378901Y-78477927D01*
X159378900Y-78477935D01*
X159345449Y-78689135D01*
X133263500Y-78689135D01*
X133263500Y-75718116D01*
X152607831Y-75718116D01*
X152607831Y-75834499D01*
X152647633Y-75943852D01*
X152647634Y-75943854D01*
X152677140Y-75982308D01*
X153507051Y-76812219D01*
X154214219Y-76105050D01*
X154271420Y-76190659D01*
X154361957Y-76281196D01*
X154447564Y-76338396D01*
X153740396Y-77045564D01*
X154570307Y-77875475D01*
X154608761Y-77904981D01*
X154608763Y-77904982D01*
X154718116Y-77944784D01*
X154718121Y-77944785D01*
X154834495Y-77944785D01*
X154834499Y-77944784D01*
X154943852Y-77904982D01*
X154943854Y-77904981D01*
X154982308Y-77875475D01*
X155812219Y-77045564D01*
X155105051Y-76338396D01*
X155190659Y-76281196D01*
X155281196Y-76190659D01*
X155338396Y-76105051D01*
X156045564Y-76812219D01*
X156875475Y-75982308D01*
X156904981Y-75943854D01*
X156904982Y-75943852D01*
X156944784Y-75834499D01*
X156944785Y-75834495D01*
X156944785Y-75718120D01*
X156944784Y-75718116D01*
X156904982Y-75608763D01*
X156904981Y-75608761D01*
X156875475Y-75570307D01*
X156045564Y-74740396D01*
X155338395Y-75447564D01*
X155281196Y-75361957D01*
X155190659Y-75271420D01*
X155105050Y-75214218D01*
X155812219Y-74507051D01*
X154982308Y-73677140D01*
X154943854Y-73647634D01*
X154943852Y-73647633D01*
X154834499Y-73607831D01*
X154718116Y-73607831D01*
X154608763Y-73647633D01*
X154608761Y-73647634D01*
X154570307Y-73677140D01*
X153740396Y-74507051D01*
X154447564Y-75214219D01*
X154361957Y-75271420D01*
X154271420Y-75361957D01*
X154214219Y-75447564D01*
X153507051Y-74740396D01*
X152677140Y-75570307D01*
X152647634Y-75608761D01*
X152647633Y-75608763D01*
X152607831Y-75718116D01*
X133263500Y-75718116D01*
X133263500Y-74410521D01*
X142091500Y-74410521D01*
X142091500Y-74589478D01*
X142126411Y-74764995D01*
X142126412Y-74764999D01*
X142194894Y-74930328D01*
X142194896Y-74930331D01*
X142194898Y-74930336D01*
X142294322Y-75079135D01*
X142420865Y-75205678D01*
X142569664Y-75305102D01*
X142569670Y-75305104D01*
X142569671Y-75305105D01*
X142735000Y-75373587D01*
X142735004Y-75373588D01*
X142910521Y-75408500D01*
X143089479Y-75408500D01*
X143264995Y-75373588D01*
X143264995Y-75373587D01*
X143265000Y-75373587D01*
X143430336Y-75305102D01*
X143579135Y-75205678D01*
X143705678Y-75079135D01*
X143805102Y-74930336D01*
X143873587Y-74765000D01*
X143908500Y-74589479D01*
X143908500Y-74410521D01*
X143873587Y-74235000D01*
X143805105Y-74069671D01*
X143805104Y-74069670D01*
X143805102Y-74069664D01*
X143705678Y-73920865D01*
X143579135Y-73794322D01*
X143430336Y-73694898D01*
X143430331Y-73694896D01*
X143430328Y-73694894D01*
X143264999Y-73626412D01*
X143264995Y-73626411D01*
X143089479Y-73591500D01*
X142910521Y-73591500D01*
X142735004Y-73626411D01*
X142735000Y-73626412D01*
X142569671Y-73694894D01*
X142569665Y-73694897D01*
X142569664Y-73694898D01*
X142519617Y-73728338D01*
X142420867Y-73794320D01*
X142294320Y-73920867D01*
X142194897Y-74069666D01*
X142194894Y-74069671D01*
X142126412Y-74235000D01*
X142126411Y-74235004D01*
X142091500Y-74410521D01*
X133263500Y-74410521D01*
X133263500Y-72019203D01*
X149560020Y-72019203D01*
X149560021Y-72019204D01*
X150554291Y-72019204D01*
X150534205Y-72120186D01*
X150534205Y-72248224D01*
X150554291Y-72349205D01*
X149560020Y-72349205D01*
X149594341Y-72565898D01*
X149673625Y-72809909D01*
X149790101Y-73038507D01*
X149940908Y-73246075D01*
X149940914Y-73246082D01*
X150122327Y-73427495D01*
X150122334Y-73427501D01*
X150329902Y-73578308D01*
X150558500Y-73694784D01*
X150802511Y-73774068D01*
X151019204Y-73808388D01*
X151019204Y-72814118D01*
X151120186Y-72834205D01*
X151248224Y-72834205D01*
X151349205Y-72814118D01*
X151349205Y-73808388D01*
X151565902Y-73774067D01*
X151809910Y-73694783D01*
X152038507Y-73578308D01*
X152246075Y-73427501D01*
X152246082Y-73427495D01*
X152427495Y-73246082D01*
X152427501Y-73246075D01*
X152578308Y-73038507D01*
X152694783Y-72809910D01*
X152774067Y-72565902D01*
X152808389Y-72349205D01*
X151814119Y-72349205D01*
X151834205Y-72248224D01*
X151834205Y-72120186D01*
X151814119Y-72019204D01*
X152808389Y-72019204D01*
X152774068Y-71802511D01*
X152694784Y-71558500D01*
X152578308Y-71329902D01*
X152427501Y-71122334D01*
X152427495Y-71122327D01*
X152246082Y-70940914D01*
X152246075Y-70940908D01*
X152038507Y-70790101D01*
X151809909Y-70673625D01*
X151565898Y-70594341D01*
X151349205Y-70560020D01*
X151349205Y-71554291D01*
X151248224Y-71534205D01*
X151120186Y-71534205D01*
X151019204Y-71554291D01*
X151019204Y-70560020D01*
X151019203Y-70560020D01*
X150802509Y-70594341D01*
X150558500Y-70673625D01*
X150329902Y-70790101D01*
X150122334Y-70940908D01*
X150122327Y-70940914D01*
X149940914Y-71122327D01*
X149940908Y-71122334D01*
X149790101Y-71329902D01*
X149673625Y-71558500D01*
X149594341Y-71802509D01*
X149560020Y-72019203D01*
X133263500Y-72019203D01*
X133263500Y-68473562D01*
X145783603Y-68473562D01*
X145783603Y-68710643D01*
X145814546Y-68945674D01*
X145814546Y-68945677D01*
X145875908Y-69174679D01*
X145966626Y-69393693D01*
X145966627Y-69393694D01*
X145966629Y-69393698D01*
X146085164Y-69599007D01*
X146229484Y-69787088D01*
X146397118Y-69954722D01*
X146585199Y-70099042D01*
X146790508Y-70217577D01*
X146790511Y-70217578D01*
X146790512Y-70217579D01*
X146959909Y-70287745D01*
X147009533Y-70308300D01*
X147238525Y-70369659D01*
X147473568Y-70400603D01*
X147473572Y-70400603D01*
X147710634Y-70400603D01*
X147710638Y-70400603D01*
X147945681Y-70369659D01*
X148174673Y-70308300D01*
X148393698Y-70217577D01*
X148599007Y-70099042D01*
X148787088Y-69954722D01*
X148954722Y-69787088D01*
X149099042Y-69599007D01*
X149217577Y-69393698D01*
X149308300Y-69174673D01*
X149369659Y-68945681D01*
X149400603Y-68710638D01*
X149400603Y-68473568D01*
X149369659Y-68238525D01*
X149308300Y-68009533D01*
X149217577Y-67790508D01*
X149099042Y-67585199D01*
X148954722Y-67397118D01*
X148787088Y-67229484D01*
X148599007Y-67085164D01*
X148393698Y-66966629D01*
X148393696Y-66966628D01*
X148393694Y-66966627D01*
X148393693Y-66966626D01*
X148174679Y-66875908D01*
X148174675Y-66875907D01*
X148174673Y-66875906D01*
X147945681Y-66814547D01*
X147945678Y-66814546D01*
X147945676Y-66814546D01*
X147710643Y-66783603D01*
X147710638Y-66783603D01*
X147473568Y-66783603D01*
X147473562Y-66783603D01*
X147238531Y-66814546D01*
X147238528Y-66814546D01*
X147009526Y-66875908D01*
X146790512Y-66966626D01*
X146790511Y-66966627D01*
X146585195Y-67085166D01*
X146397122Y-67229480D01*
X146229480Y-67397122D01*
X146085166Y-67585195D01*
X145966627Y-67790511D01*
X145966626Y-67790512D01*
X145875908Y-68009526D01*
X145814546Y-68238528D01*
X145814546Y-68238531D01*
X145783603Y-68473562D01*
X133263500Y-68473562D01*
X133263500Y-64881459D01*
X142191500Y-64881459D01*
X142191500Y-65118540D01*
X142222443Y-65353571D01*
X142222443Y-65353574D01*
X142283805Y-65582576D01*
X142374523Y-65801590D01*
X142374524Y-65801591D01*
X142374526Y-65801595D01*
X142493061Y-66006904D01*
X142637381Y-66194985D01*
X142805015Y-66362619D01*
X142993096Y-66506939D01*
X143198405Y-66625474D01*
X143198408Y-66625475D01*
X143198409Y-66625476D01*
X143367806Y-66695642D01*
X143417430Y-66716197D01*
X143646422Y-66777556D01*
X143881465Y-66808500D01*
X143881469Y-66808500D01*
X144118531Y-66808500D01*
X144118535Y-66808500D01*
X144353578Y-66777556D01*
X144582570Y-66716197D01*
X144801595Y-66625474D01*
X145006904Y-66506939D01*
X145194985Y-66362619D01*
X145362619Y-66194985D01*
X145506939Y-66006904D01*
X145625474Y-65801595D01*
X145716197Y-65582570D01*
X145777556Y-65353578D01*
X145808500Y-65118535D01*
X145808500Y-64881465D01*
X145777556Y-64646422D01*
X145716197Y-64417430D01*
X145625474Y-64198405D01*
X145506939Y-63993096D01*
X145362619Y-63805015D01*
X145194985Y-63637381D01*
X145006904Y-63493061D01*
X144801595Y-63374526D01*
X144801593Y-63374525D01*
X144801591Y-63374524D01*
X144801590Y-63374523D01*
X144582576Y-63283805D01*
X144582572Y-63283804D01*
X144582570Y-63283803D01*
X144353578Y-63222444D01*
X144353575Y-63222443D01*
X144353573Y-63222443D01*
X144118540Y-63191500D01*
X144118535Y-63191500D01*
X143881465Y-63191500D01*
X143881459Y-63191500D01*
X143646428Y-63222443D01*
X143646425Y-63222443D01*
X143417423Y-63283805D01*
X143198409Y-63374523D01*
X143198408Y-63374524D01*
X142993092Y-63493063D01*
X142805019Y-63637377D01*
X142637377Y-63805019D01*
X142493063Y-63993092D01*
X142374524Y-64198408D01*
X142374523Y-64198409D01*
X142283805Y-64417423D01*
X142222443Y-64646425D01*
X142222443Y-64646428D01*
X142191500Y-64881459D01*
X133263500Y-64881459D01*
X133263500Y-62307586D01*
X133263500Y-62307576D01*
X133259108Y-62240555D01*
X133254372Y-62204579D01*
X133249483Y-62178379D01*
X133244290Y-62150539D01*
X133189968Y-62014848D01*
X133189967Y-62014847D01*
X133184401Y-62005207D01*
X133153992Y-61952537D01*
X133072387Y-61846189D01*
X127413149Y-56186951D01*
X127329824Y-56119459D01*
X127314955Y-56109798D01*
X127281424Y-56088011D01*
X127281425Y-56088011D01*
X127281416Y-56088006D01*
X127281411Y-56088003D01*
X127197242Y-56043809D01*
X127197239Y-56043808D01*
X127055563Y-56007934D01*
X127055565Y-56007934D01*
X127055556Y-56007933D01*
X126984003Y-56000378D01*
X126983997Y-56000378D01*
X126983996Y-56000378D01*
X126850002Y-56003822D01*
X126849986Y-56003824D01*
X112711310Y-58236246D01*
X112695495Y-58238997D01*
X112687077Y-58240597D01*
X112683984Y-58241197D01*
X112683322Y-58241326D01*
X112683321Y-58241326D01*
X112683317Y-58241327D01*
X112545438Y-58289784D01*
X112545428Y-58289789D01*
X112481641Y-58323058D01*
X112481634Y-58323062D01*
X112371892Y-58400036D01*
X112371887Y-58400039D01*
X109759162Y-60798022D01*
X109639784Y-60907588D01*
X109441024Y-61090012D01*
X108359124Y-62082989D01*
X108359121Y-62082992D01*
X108336944Y-62103345D01*
X105845380Y-64390124D01*
X105726002Y-64499690D01*
X105527242Y-64682114D01*
X104445342Y-65675091D01*
X104445339Y-65675094D01*
X104423162Y-65695447D01*
X101931597Y-67982226D01*
X101613459Y-68274216D01*
X100544824Y-69255018D01*
X100509382Y-69287547D01*
X100425446Y-69364584D01*
X100226685Y-69547008D01*
X99144785Y-70539985D01*
X99144782Y-70539988D01*
X99122605Y-70560341D01*
X96631041Y-72847120D01*
X96511663Y-72956686D01*
X96312902Y-73139110D01*
X95231002Y-74132087D01*
X95230999Y-74132090D01*
X95208822Y-74152443D01*
X94152853Y-75121619D01*
X94152781Y-75121687D01*
X94151703Y-75122678D01*
X93076691Y-76114996D01*
X92725446Y-76439222D01*
X92605676Y-76549779D01*
X92409124Y-76731212D01*
X91315946Y-77740299D01*
X91196176Y-77850856D01*
X91196175Y-77850855D01*
X91005198Y-78027143D01*
X91005078Y-78027253D01*
X91005019Y-78027309D01*
X91002369Y-78029772D01*
X91002276Y-78029858D01*
X91002190Y-78029939D01*
X91001209Y-78030856D01*
X91001208Y-78030858D01*
X91000039Y-78032291D01*
X91000024Y-78032309D01*
X90914699Y-78136805D01*
X90914691Y-78136816D01*
X90877015Y-78198110D01*
X90825947Y-78308833D01*
X90825945Y-78308838D01*
X90801172Y-78452870D01*
X90801171Y-78452885D01*
X90799190Y-78524800D01*
X64628591Y-78524800D01*
X64914304Y-77658001D01*
X64915224Y-77655307D01*
X65512678Y-75964346D01*
X65513680Y-75961604D01*
X65520379Y-75943854D01*
X66146914Y-74283647D01*
X66147914Y-74281079D01*
X66816651Y-72616864D01*
X66817716Y-72614293D01*
X67521572Y-70964773D01*
X67522718Y-70962163D01*
X68261444Y-69327918D01*
X68262671Y-69325279D01*
X69035886Y-67707147D01*
X69037147Y-67704577D01*
X69844540Y-66103211D01*
X69845881Y-66100620D01*
X70687113Y-64516689D01*
X70688445Y-64514245D01*
X71563104Y-62948534D01*
X71564521Y-62946060D01*
X72472186Y-61399314D01*
X72473692Y-61396810D01*
X73413996Y-59869660D01*
X73415514Y-59867253D01*
X74388049Y-58360360D01*
X74389584Y-58358037D01*
X75393872Y-56872143D01*
X75395488Y-56869805D01*
X76431106Y-55405541D01*
X76432721Y-55403308D01*
X77499209Y-53961321D01*
X77500935Y-53959039D01*
X77938397Y-53393084D01*
X133641500Y-53393084D01*
X133641500Y-53606916D01*
X133670053Y-53787192D01*
X133674952Y-53818123D01*
X133721806Y-53962324D01*
X133741028Y-54021483D01*
X133838106Y-54212009D01*
X133963794Y-54385004D01*
X134114996Y-54536206D01*
X134287991Y-54661894D01*
X134478517Y-54758972D01*
X134586240Y-54793973D01*
X134681876Y-54825047D01*
X134681879Y-54825047D01*
X134681884Y-54825049D01*
X134893084Y-54858500D01*
X134893087Y-54858500D01*
X135106913Y-54858500D01*
X135106916Y-54858500D01*
X135310814Y-54826205D01*
X135382369Y-54833726D01*
X135440579Y-54876018D01*
X135469845Y-54941749D01*
X135469845Y-54985238D01*
X135437551Y-55189135D01*
X135437551Y-55402967D01*
X135466104Y-55583243D01*
X135471003Y-55614174D01*
X135537079Y-55817534D01*
X135634092Y-56007933D01*
X135634159Y-56008063D01*
X135759842Y-56181051D01*
X135759845Y-56181055D01*
X135911047Y-56332257D01*
X136084042Y-56457945D01*
X136274568Y-56555023D01*
X136382291Y-56590024D01*
X136477927Y-56621098D01*
X136477930Y-56621098D01*
X136477935Y-56621100D01*
X136689135Y-56654551D01*
X136689138Y-56654551D01*
X136902964Y-56654551D01*
X136902967Y-56654551D01*
X137114167Y-56621100D01*
X137114172Y-56621098D01*
X137114174Y-56621098D01*
X137157961Y-56606870D01*
X137317534Y-56555023D01*
X137508060Y-56457945D01*
X137681055Y-56332257D01*
X137832257Y-56181055D01*
X137957945Y-56008060D01*
X138055023Y-55817534D01*
X138121100Y-55614167D01*
X138154551Y-55402967D01*
X138154551Y-55189135D01*
X138122256Y-54985235D01*
X138129777Y-54913681D01*
X138172069Y-54855471D01*
X138237800Y-54826205D01*
X138281285Y-54826205D01*
X138485186Y-54858500D01*
X138485189Y-54858500D01*
X138699015Y-54858500D01*
X138699018Y-54858500D01*
X138910218Y-54825049D01*
X138910223Y-54825047D01*
X138910225Y-54825047D01*
X138954012Y-54810819D01*
X139113585Y-54758972D01*
X139304111Y-54661894D01*
X139477106Y-54536206D01*
X139628308Y-54385004D01*
X139753996Y-54212009D01*
X139851074Y-54021483D01*
X139917151Y-53818116D01*
X139950602Y-53606916D01*
X139950602Y-53393084D01*
X139917151Y-53181884D01*
X139917149Y-53181879D01*
X139917149Y-53181876D01*
X139878345Y-53062449D01*
X139851074Y-52978517D01*
X139753996Y-52787991D01*
X139628308Y-52614996D01*
X139477106Y-52463794D01*
X139304111Y-52338106D01*
X139113585Y-52241028D01*
X138910225Y-52174952D01*
X138870903Y-52168724D01*
X138699018Y-52141500D01*
X138485186Y-52141500D01*
X138382350Y-52157787D01*
X138281289Y-52173794D01*
X138209732Y-52166273D01*
X138151522Y-52123980D01*
X138122256Y-52058249D01*
X138122256Y-52014766D01*
X138154551Y-51810865D01*
X138154551Y-51597033D01*
X138121100Y-51385833D01*
X138121098Y-51385828D01*
X138121098Y-51385825D01*
X138090024Y-51290189D01*
X138055023Y-51182466D01*
X137957945Y-50991940D01*
X137832257Y-50818945D01*
X137681055Y-50667743D01*
X137681051Y-50667740D01*
X137508063Y-50542057D01*
X137508062Y-50542056D01*
X137508060Y-50542055D01*
X137317534Y-50444977D01*
X137114174Y-50378901D01*
X137074852Y-50372673D01*
X136902967Y-50345449D01*
X136689135Y-50345449D01*
X136553927Y-50366863D01*
X136477927Y-50378901D01*
X136274567Y-50444977D01*
X136084038Y-50542057D01*
X135911050Y-50667740D01*
X135911043Y-50667746D01*
X135759848Y-50818941D01*
X135759842Y-50818948D01*
X135634159Y-50991936D01*
X135537079Y-51182465D01*
X135471003Y-51385825D01*
X135437551Y-51597036D01*
X135437551Y-51810862D01*
X135469845Y-52014761D01*
X135462324Y-52086318D01*
X135420031Y-52144528D01*
X135354300Y-52173794D01*
X135310812Y-52173794D01*
X135244428Y-52163280D01*
X135106916Y-52141500D01*
X134893084Y-52141500D01*
X134757876Y-52162914D01*
X134681876Y-52174952D01*
X134478516Y-52241028D01*
X134287987Y-52338108D01*
X134114999Y-52463791D01*
X134114992Y-52463797D01*
X133963797Y-52614992D01*
X133963791Y-52614999D01*
X133838108Y-52787987D01*
X133741028Y-52978516D01*
X133674952Y-53181876D01*
X133674951Y-53181884D01*
X133641500Y-53393084D01*
X77938397Y-53393084D01*
X78597723Y-52540098D01*
X78599444Y-52537919D01*
X79726165Y-51142503D01*
X79728024Y-51140252D01*
X79853070Y-50991940D01*
X80884006Y-49769185D01*
X80885862Y-49767030D01*
X82070742Y-48420747D01*
X82072631Y-48418644D01*
X83285867Y-47097760D01*
X83287803Y-47095697D01*
X84528738Y-45800929D01*
X84530709Y-45798915D01*
X85798915Y-44530709D01*
X85800929Y-44528738D01*
X87095697Y-43287803D01*
X87097760Y-43285867D01*
X87586341Y-42837104D01*
X110099500Y-42837104D01*
X110099500Y-43162895D01*
X110135976Y-43486622D01*
X110208468Y-43804228D01*
X110316066Y-44111725D01*
X110316067Y-44111729D01*
X110457408Y-44405225D01*
X110457421Y-44405247D01*
X110630732Y-44681072D01*
X110630737Y-44681079D01*
X110630739Y-44681081D01*
X110833857Y-44935783D01*
X111064217Y-45166143D01*
X111255243Y-45318481D01*
X111318920Y-45369262D01*
X111318927Y-45369267D01*
X111571820Y-45528169D01*
X111594763Y-45542585D01*
X111594767Y-45542587D01*
X111594774Y-45542591D01*
X111888270Y-45683932D01*
X111888273Y-45683932D01*
X111888278Y-45683935D01*
X112195773Y-45791532D01*
X112384850Y-45834687D01*
X112513377Y-45864023D01*
X112513380Y-45864023D01*
X112513383Y-45864024D01*
X112837111Y-45900500D01*
X112837113Y-45900500D01*
X113162887Y-45900500D01*
X113162889Y-45900500D01*
X113486617Y-45864024D01*
X113486620Y-45864023D01*
X113486622Y-45864023D01*
X113535746Y-45852810D01*
X113804227Y-45791532D01*
X114111722Y-45683935D01*
X114111727Y-45683932D01*
X114111729Y-45683932D01*
X114405225Y-45542591D01*
X114405227Y-45542589D01*
X114405237Y-45542585D01*
X114591445Y-45425582D01*
X114681072Y-45369267D01*
X114681079Y-45369262D01*
X114681081Y-45369261D01*
X114935783Y-45166143D01*
X115166143Y-44935783D01*
X115369261Y-44681081D01*
X115542585Y-44405237D01*
X115683935Y-44111722D01*
X115791532Y-43804227D01*
X115864024Y-43486617D01*
X115900500Y-43162889D01*
X115900500Y-42837111D01*
X115864024Y-42513383D01*
X115791532Y-42195773D01*
X115683935Y-41888278D01*
X115683932Y-41888273D01*
X115683932Y-41888270D01*
X115542591Y-41594774D01*
X115542578Y-41594752D01*
X115369267Y-41318927D01*
X115369262Y-41318920D01*
X115318481Y-41255243D01*
X115166143Y-41064217D01*
X114935783Y-40833857D01*
X114808432Y-40732298D01*
X114681079Y-40630737D01*
X114681072Y-40630732D01*
X114405247Y-40457421D01*
X114405225Y-40457408D01*
X114111729Y-40316067D01*
X114111725Y-40316066D01*
X113804228Y-40208468D01*
X113486622Y-40135976D01*
X113162895Y-40099500D01*
X113162889Y-40099500D01*
X112837111Y-40099500D01*
X112837104Y-40099500D01*
X112513377Y-40135976D01*
X112195771Y-40208468D01*
X111888274Y-40316066D01*
X111888270Y-40316067D01*
X111594774Y-40457408D01*
X111594752Y-40457421D01*
X111318927Y-40630732D01*
X111318920Y-40630737D01*
X111064214Y-40833859D01*
X110833859Y-41064214D01*
X110630737Y-41318920D01*
X110630732Y-41318927D01*
X110457421Y-41594752D01*
X110457408Y-41594774D01*
X110316067Y-41888270D01*
X110316066Y-41888274D01*
X110208468Y-42195771D01*
X110135976Y-42513377D01*
X110099500Y-42837104D01*
X87586341Y-42837104D01*
X88418644Y-42072631D01*
X88420747Y-42070742D01*
X89767030Y-40885862D01*
X89769185Y-40884006D01*
X91140276Y-39728003D01*
X91142503Y-39726165D01*
X92537919Y-38599444D01*
X92540098Y-38597723D01*
X93959039Y-37500935D01*
X93961321Y-37499209D01*
X95403308Y-36432721D01*
X95405541Y-36431106D01*
X96869805Y-35395488D01*
X96872143Y-35393872D01*
X98358037Y-34389584D01*
X98360360Y-34388049D01*
X99867253Y-33415514D01*
X99869660Y-33413996D01*
X101396833Y-32473677D01*
X101399314Y-32472186D01*
X102946060Y-31564521D01*
X102948534Y-31563104D01*
X104514245Y-30688445D01*
X104516689Y-30687113D01*
X106100649Y-29845865D01*
X106103211Y-29844540D01*
X107704577Y-29037147D01*
X107707147Y-29035886D01*
X109325316Y-28262653D01*
X109327918Y-28261444D01*
X110962163Y-27522718D01*
X110964773Y-27521572D01*
X112614293Y-26817716D01*
X112616864Y-26816651D01*
X114281079Y-26147914D01*
X114283647Y-26146913D01*
X115517492Y-25681280D01*
X115555990Y-25672732D01*
X115801361Y-25654016D01*
X115817305Y-25653718D01*
X116111049Y-25665103D01*
G37*
%TD.AperFunction*%
%TD*%
%TA.AperFunction,Conductor*%
%TO.N,GNDA*%
G36*
X127001637Y-56518594D02*
G01*
X127050050Y-56550050D01*
X132709288Y-62209288D01*
X132745264Y-62271600D01*
X132750000Y-62307576D01*
X132750000Y-81500000D01*
X133305934Y-82055934D01*
X133341910Y-82118246D01*
X133341910Y-82190198D01*
X133305934Y-82252510D01*
X133243622Y-82288486D01*
X133185905Y-82291511D01*
X133172493Y-82289387D01*
X133172491Y-82289387D01*
X132998009Y-82289387D01*
X132916070Y-82302365D01*
X132825668Y-82316683D01*
X132659734Y-82370599D01*
X132504265Y-82449815D01*
X132363114Y-82552367D01*
X132363107Y-82552373D01*
X132239736Y-82675744D01*
X132239730Y-82675751D01*
X132137178Y-82816902D01*
X132057962Y-82972371D01*
X132004046Y-83138305D01*
X131994223Y-83200320D01*
X131976750Y-83310646D01*
X131976750Y-83485128D01*
X131984247Y-83532460D01*
X132004046Y-83657468D01*
X132045730Y-83785755D01*
X132057962Y-83823403D01*
X132137176Y-83978868D01*
X132239733Y-84120026D01*
X132363111Y-84243404D01*
X132504269Y-84345961D01*
X132659734Y-84425175D01*
X132763486Y-84458885D01*
X132825668Y-84479090D01*
X132825671Y-84479090D01*
X132825676Y-84479092D01*
X132998009Y-84506387D01*
X132998012Y-84506387D01*
X133172488Y-84506387D01*
X133172491Y-84506387D01*
X133243119Y-84495200D01*
X133314673Y-84502721D01*
X133372884Y-84545013D01*
X133402150Y-84610744D01*
X133402150Y-84654232D01*
X133390964Y-84724860D01*
X133390964Y-84899342D01*
X133393784Y-84917145D01*
X133418260Y-85071682D01*
X133451752Y-85174757D01*
X133472176Y-85237617D01*
X133551390Y-85393082D01*
X133653947Y-85534240D01*
X133777325Y-85657618D01*
X133918483Y-85760175D01*
X134073948Y-85839389D01*
X134177700Y-85873099D01*
X134239882Y-85893304D01*
X134239885Y-85893304D01*
X134239890Y-85893306D01*
X134412223Y-85920601D01*
X134412226Y-85920601D01*
X134586702Y-85920601D01*
X134586705Y-85920601D01*
X134759038Y-85893306D01*
X134759043Y-85893304D01*
X134759045Y-85893304D01*
X134787515Y-85884053D01*
X134924980Y-85839389D01*
X135080445Y-85760175D01*
X135221603Y-85657618D01*
X135344981Y-85534240D01*
X135447538Y-85393082D01*
X135526752Y-85237617D01*
X135580669Y-85071675D01*
X135607964Y-84899342D01*
X135607964Y-84724860D01*
X135605840Y-84711450D01*
X135613359Y-84639894D01*
X135655650Y-84581683D01*
X135721381Y-84552416D01*
X135792938Y-84559935D01*
X135841416Y-84591416D01*
X136650601Y-85400601D01*
X136686577Y-85462913D01*
X136686577Y-85534865D01*
X136650601Y-85597177D01*
X136649490Y-85598275D01*
X125595341Y-96406776D01*
X125532629Y-96442049D01*
X125460682Y-96441241D01*
X125402898Y-96408610D01*
X124431793Y-95494629D01*
X124393948Y-95433436D01*
X124391768Y-95361517D01*
X124425840Y-95298144D01*
X124487034Y-95260298D01*
X124527060Y-95254410D01*
X124545786Y-95254410D01*
X124545789Y-95254410D01*
X124718122Y-95227115D01*
X124718127Y-95227113D01*
X124718129Y-95227113D01*
X124746599Y-95217862D01*
X124884064Y-95173198D01*
X125039529Y-95093984D01*
X125180687Y-94991427D01*
X125304065Y-94868049D01*
X125406622Y-94726891D01*
X125485836Y-94571426D01*
X125539753Y-94405484D01*
X125567048Y-94233151D01*
X125567048Y-94058669D01*
X125539753Y-93886336D01*
X125539751Y-93886331D01*
X125539751Y-93886328D01*
X125504409Y-93777558D01*
X125485836Y-93720394D01*
X125406622Y-93564929D01*
X125304065Y-93423771D01*
X125180687Y-93300393D01*
X125085714Y-93231391D01*
X125039532Y-93197838D01*
X125039531Y-93197837D01*
X125039529Y-93197836D01*
X124884064Y-93118622D01*
X124850352Y-93107668D01*
X124718129Y-93064706D01*
X124686043Y-93059624D01*
X124545789Y-93037410D01*
X124371307Y-93037410D01*
X124352336Y-93040414D01*
X124300679Y-93048596D01*
X124229122Y-93041074D01*
X124170912Y-92998782D01*
X124141647Y-92933050D01*
X124141648Y-92889561D01*
X124152834Y-92818939D01*
X124152834Y-92644459D01*
X124129954Y-92500000D01*
X124125539Y-92472123D01*
X124125537Y-92472118D01*
X124125537Y-92472115D01*
X124105332Y-92409933D01*
X124071622Y-92306181D01*
X123992408Y-92150716D01*
X123889851Y-92009558D01*
X123766473Y-91886180D01*
X123625315Y-91783623D01*
X123469850Y-91704409D01*
X123427885Y-91690774D01*
X123303915Y-91650493D01*
X123271829Y-91645411D01*
X123131575Y-91623197D01*
X122957093Y-91623197D01*
X122846767Y-91640670D01*
X122784752Y-91650493D01*
X122618818Y-91704409D01*
X122463349Y-91783625D01*
X122322198Y-91886177D01*
X122322191Y-91886183D01*
X122198820Y-92009554D01*
X122198814Y-92009561D01*
X122096262Y-92150712D01*
X122017046Y-92306181D01*
X121963130Y-92472115D01*
X121935834Y-92644459D01*
X121935834Y-92823785D01*
X121917212Y-92893285D01*
X121866334Y-92944163D01*
X121796834Y-92962785D01*
X121727334Y-92944163D01*
X121701568Y-92925005D01*
X121250000Y-92500000D01*
X104559829Y-92500000D01*
X104490329Y-92481378D01*
X104458874Y-92456546D01*
X98155509Y-85796386D01*
X98155506Y-85796384D01*
X97966971Y-85597177D01*
X97921822Y-85549472D01*
X97792076Y-85412382D01*
X103975613Y-85412382D01*
X104588785Y-85412382D01*
X104572617Y-85493665D01*
X104572617Y-85661101D01*
X104588785Y-85742383D01*
X103975614Y-85742383D01*
X104003444Y-85918098D01*
X104074216Y-86135910D01*
X104178187Y-86339965D01*
X104312805Y-86525252D01*
X104474747Y-86687194D01*
X104660034Y-86821812D01*
X104864089Y-86925783D01*
X105081902Y-86996554D01*
X105257616Y-87024385D01*
X105257616Y-86411214D01*
X105338899Y-86427383D01*
X105506335Y-86427383D01*
X105587617Y-86411215D01*
X105587617Y-87024385D01*
X105763330Y-86996555D01*
X105981144Y-86925783D01*
X106185199Y-86821812D01*
X106370486Y-86687194D01*
X106532428Y-86525252D01*
X106667046Y-86339965D01*
X106771017Y-86135910D01*
X106841789Y-85918096D01*
X106869620Y-85742383D01*
X106256449Y-85742383D01*
X106272617Y-85661101D01*
X106272617Y-85493665D01*
X106256449Y-85412382D01*
X106869619Y-85412382D01*
X106841788Y-85236668D01*
X106771017Y-85018855D01*
X106667046Y-84814800D01*
X106532428Y-84629513D01*
X106370486Y-84467571D01*
X106185199Y-84332953D01*
X105981144Y-84228982D01*
X105763332Y-84158210D01*
X105587617Y-84130379D01*
X105587617Y-84743550D01*
X105506335Y-84727383D01*
X105338899Y-84727383D01*
X105257616Y-84743551D01*
X105257616Y-84130379D01*
X105081901Y-84158210D01*
X104864089Y-84228982D01*
X104660034Y-84332953D01*
X104474747Y-84467571D01*
X104312805Y-84629513D01*
X104178187Y-84814800D01*
X104074216Y-85018855D01*
X104003444Y-85236667D01*
X103975613Y-85412382D01*
X97792076Y-85412382D01*
X94755841Y-82204284D01*
X94755838Y-82204282D01*
X94392408Y-81820280D01*
X100383511Y-81820280D01*
X100996683Y-81820280D01*
X100980515Y-81901563D01*
X100980515Y-82068999D01*
X100996683Y-82150281D01*
X100383512Y-82150281D01*
X100411342Y-82325996D01*
X100482114Y-82543808D01*
X100586085Y-82747863D01*
X100720703Y-82933150D01*
X100882645Y-83095092D01*
X101067932Y-83229710D01*
X101271987Y-83333681D01*
X101489800Y-83404452D01*
X101665514Y-83432283D01*
X101665514Y-82819112D01*
X101746797Y-82835281D01*
X101914233Y-82835281D01*
X101995515Y-82819113D01*
X101995515Y-83432283D01*
X102171228Y-83404453D01*
X102389042Y-83333681D01*
X102593097Y-83229710D01*
X102778384Y-83095092D01*
X102940326Y-82933150D01*
X103074944Y-82747863D01*
X103178915Y-82543808D01*
X103249687Y-82325994D01*
X103277518Y-82150281D01*
X102664347Y-82150281D01*
X102680515Y-82068999D01*
X102680515Y-81901563D01*
X102673161Y-81864592D01*
X103889117Y-81864592D01*
X103889117Y-82105970D01*
X103926877Y-82344376D01*
X104001467Y-82573941D01*
X104001468Y-82573944D01*
X104001469Y-82573945D01*
X104111047Y-82789006D01*
X104252926Y-82984286D01*
X104423611Y-83154971D01*
X104618891Y-83296850D01*
X104691177Y-83333681D01*
X104833957Y-83406431D01*
X105063522Y-83481021D01*
X105301928Y-83518781D01*
X105301931Y-83518781D01*
X105543303Y-83518781D01*
X105543306Y-83518781D01*
X105781712Y-83481021D01*
X106011277Y-83406431D01*
X106226346Y-83296848D01*
X106421625Y-83154969D01*
X106592305Y-82984289D01*
X106734184Y-82789010D01*
X106843767Y-82573941D01*
X106918357Y-82344376D01*
X106956117Y-82105970D01*
X106956117Y-81864592D01*
X106949099Y-81820280D01*
X107567715Y-81820280D01*
X108180887Y-81820280D01*
X108164719Y-81901563D01*
X108164719Y-82068999D01*
X108180887Y-82150281D01*
X107567716Y-82150281D01*
X107595546Y-82325996D01*
X107666318Y-82543808D01*
X107770289Y-82747863D01*
X107904907Y-82933150D01*
X108066849Y-83095092D01*
X108252136Y-83229710D01*
X108456191Y-83333681D01*
X108674004Y-83404452D01*
X108849718Y-83432283D01*
X108849718Y-82819112D01*
X108931001Y-82835281D01*
X109098437Y-82835281D01*
X109179719Y-82819113D01*
X109179719Y-83432283D01*
X109355432Y-83404453D01*
X109573246Y-83333681D01*
X109777301Y-83229710D01*
X109962588Y-83095092D01*
X110124530Y-82933150D01*
X110259148Y-82747863D01*
X110363119Y-82543808D01*
X110433891Y-82325994D01*
X110461722Y-82150281D01*
X109848551Y-82150281D01*
X109864719Y-82068999D01*
X109864719Y-81901563D01*
X109848551Y-81820280D01*
X110461721Y-81820280D01*
X110433890Y-81644566D01*
X110363119Y-81426753D01*
X110259148Y-81222698D01*
X110124530Y-81037411D01*
X109962588Y-80875469D01*
X109777301Y-80740851D01*
X109573246Y-80636880D01*
X109355434Y-80566108D01*
X109179719Y-80538277D01*
X109179719Y-81151448D01*
X109098437Y-81135281D01*
X108931001Y-81135281D01*
X108849718Y-81151449D01*
X108849718Y-80538277D01*
X108674003Y-80566108D01*
X108456191Y-80636880D01*
X108252136Y-80740851D01*
X108066849Y-80875469D01*
X107904907Y-81037411D01*
X107770289Y-81222698D01*
X107666318Y-81426753D01*
X107595546Y-81644565D01*
X107567715Y-81820280D01*
X106949099Y-81820280D01*
X106918357Y-81626186D01*
X106843767Y-81396621D01*
X106734184Y-81181552D01*
X106660541Y-81080191D01*
X106592307Y-80986275D01*
X106421622Y-80815590D01*
X106226342Y-80673711D01*
X106011281Y-80564133D01*
X106011280Y-80564132D01*
X106011277Y-80564131D01*
X105850511Y-80511895D01*
X105781716Y-80489542D01*
X105781714Y-80489541D01*
X105781712Y-80489541D01*
X105543306Y-80451781D01*
X105301928Y-80451781D01*
X105063522Y-80489541D01*
X105063520Y-80489541D01*
X105063517Y-80489542D01*
X104920132Y-80536131D01*
X104833957Y-80564131D01*
X104833954Y-80564132D01*
X104833952Y-80564133D01*
X104618891Y-80673711D01*
X104423611Y-80815590D01*
X104252926Y-80986275D01*
X104111047Y-81181555D01*
X104001469Y-81396616D01*
X103926878Y-81626181D01*
X103926877Y-81626184D01*
X103926877Y-81626186D01*
X103889117Y-81864592D01*
X102673161Y-81864592D01*
X102664347Y-81820280D01*
X103277517Y-81820280D01*
X103249686Y-81644566D01*
X103178915Y-81426753D01*
X103074944Y-81222698D01*
X102940326Y-81037411D01*
X102778384Y-80875469D01*
X102593097Y-80740851D01*
X102389042Y-80636880D01*
X102171230Y-80566108D01*
X101995515Y-80538277D01*
X101995515Y-81151448D01*
X101914233Y-81135281D01*
X101746797Y-81135281D01*
X101665514Y-81151449D01*
X101665514Y-80538277D01*
X101489799Y-80566108D01*
X101271987Y-80636880D01*
X101067932Y-80740851D01*
X100882645Y-80875469D01*
X100720703Y-81037411D01*
X100586085Y-81222698D01*
X100482114Y-81426753D01*
X100411342Y-81644565D01*
X100383511Y-81820280D01*
X94392408Y-81820280D01*
X91346741Y-78602217D01*
X91312496Y-78538939D01*
X91314477Y-78467014D01*
X91352155Y-78405717D01*
X91353315Y-78404631D01*
X91544473Y-78228178D01*
X103975613Y-78228178D01*
X104588785Y-78228178D01*
X104572617Y-78309461D01*
X104572617Y-78476897D01*
X104588785Y-78558179D01*
X103975614Y-78558179D01*
X104003444Y-78733894D01*
X104074216Y-78951706D01*
X104178187Y-79155761D01*
X104312805Y-79341048D01*
X104474747Y-79502990D01*
X104660034Y-79637608D01*
X104864089Y-79741579D01*
X105081902Y-79812350D01*
X105257616Y-79840181D01*
X105257616Y-79227010D01*
X105338899Y-79243179D01*
X105506335Y-79243179D01*
X105587617Y-79227011D01*
X105587617Y-79840181D01*
X105763330Y-79812351D01*
X105981144Y-79741579D01*
X106185199Y-79637608D01*
X106370486Y-79502990D01*
X106532428Y-79341048D01*
X106667046Y-79155761D01*
X106771017Y-78951706D01*
X106841789Y-78733892D01*
X106869620Y-78558179D01*
X106256449Y-78558179D01*
X106272617Y-78476897D01*
X106272617Y-78309461D01*
X106256449Y-78228178D01*
X106869619Y-78228178D01*
X106841788Y-78052464D01*
X106771017Y-77834651D01*
X106667046Y-77630596D01*
X106532428Y-77445309D01*
X106370486Y-77283367D01*
X106185202Y-77148751D01*
X106074797Y-77092497D01*
X106074795Y-77092495D01*
X105981144Y-77044778D01*
X105763332Y-76974006D01*
X105587617Y-76946175D01*
X105587617Y-77559346D01*
X105506335Y-77543179D01*
X105338899Y-77543179D01*
X105257616Y-77559347D01*
X105257616Y-76946175D01*
X105081901Y-76974006D01*
X104864089Y-77044778D01*
X104660034Y-77148749D01*
X104474747Y-77283367D01*
X104312805Y-77445309D01*
X104178187Y-77630596D01*
X104074216Y-77834651D01*
X104003444Y-78052463D01*
X103975613Y-78228178D01*
X91544473Y-78228178D01*
X92953973Y-76927101D01*
X112460894Y-76927101D01*
X113074066Y-76927101D01*
X113057898Y-77008384D01*
X113057898Y-77175820D01*
X113074066Y-77257102D01*
X112460895Y-77257102D01*
X112488725Y-77432817D01*
X112559497Y-77650629D01*
X112663468Y-77854684D01*
X112798086Y-78039971D01*
X112960028Y-78201913D01*
X113145315Y-78336531D01*
X113349370Y-78440502D01*
X113567183Y-78511273D01*
X113742897Y-78539104D01*
X113742897Y-77925933D01*
X113824180Y-77942102D01*
X113991616Y-77942102D01*
X114072898Y-77925934D01*
X114072898Y-78539104D01*
X114248611Y-78511274D01*
X114466425Y-78440502D01*
X114670480Y-78336531D01*
X114855767Y-78201913D01*
X115017709Y-78039971D01*
X115152327Y-77854684D01*
X115256298Y-77650629D01*
X115327070Y-77432815D01*
X115354901Y-77257102D01*
X114741730Y-77257102D01*
X114757898Y-77175820D01*
X114757898Y-77008384D01*
X114741730Y-76927101D01*
X115354900Y-76927101D01*
X115327069Y-76751387D01*
X115256298Y-76533574D01*
X115152327Y-76329519D01*
X115017709Y-76144232D01*
X114855767Y-75982290D01*
X114670480Y-75847672D01*
X114466425Y-75743701D01*
X114248613Y-75672929D01*
X114072898Y-75645098D01*
X114072898Y-76258269D01*
X113991616Y-76242102D01*
X113824180Y-76242102D01*
X113742897Y-76258270D01*
X113742897Y-75645098D01*
X113567182Y-75672929D01*
X113349370Y-75743701D01*
X113145315Y-75847672D01*
X112960028Y-75982290D01*
X112798086Y-76144232D01*
X112663468Y-76329519D01*
X112559497Y-76533574D01*
X112488725Y-76751386D01*
X112460894Y-76927101D01*
X92953973Y-76927101D01*
X94500000Y-75500000D01*
X95130691Y-74921147D01*
X96656172Y-73521048D01*
X96858882Y-73334999D01*
X108868792Y-73334999D01*
X109481964Y-73334999D01*
X109465796Y-73416282D01*
X109465796Y-73583718D01*
X109481964Y-73665000D01*
X108868793Y-73665000D01*
X108896623Y-73840715D01*
X108967395Y-74058527D01*
X109071366Y-74262582D01*
X109205984Y-74447869D01*
X109367926Y-74609811D01*
X109553213Y-74744429D01*
X109757268Y-74848400D01*
X109975081Y-74919171D01*
X110150795Y-74947002D01*
X110150795Y-74333831D01*
X110232078Y-74350000D01*
X110399514Y-74350000D01*
X110480796Y-74333832D01*
X110480796Y-74947002D01*
X110656509Y-74919172D01*
X110874323Y-74848400D01*
X111078378Y-74744429D01*
X111263665Y-74609811D01*
X111425607Y-74447869D01*
X111560225Y-74262582D01*
X111664196Y-74058527D01*
X111734968Y-73840713D01*
X111762799Y-73665000D01*
X111149628Y-73665000D01*
X111165796Y-73583718D01*
X111165796Y-73416282D01*
X111158442Y-73379311D01*
X112374398Y-73379311D01*
X112374398Y-73620689D01*
X112412158Y-73859095D01*
X112486748Y-74088660D01*
X112486749Y-74088663D01*
X112486750Y-74088664D01*
X112596328Y-74303725D01*
X112738207Y-74499005D01*
X112908892Y-74669690D01*
X113104172Y-74811569D01*
X113176458Y-74848400D01*
X113319238Y-74921150D01*
X113548803Y-74995740D01*
X113787209Y-75033500D01*
X113787212Y-75033500D01*
X114028584Y-75033500D01*
X114028587Y-75033500D01*
X114266993Y-74995740D01*
X114496558Y-74921150D01*
X114711627Y-74811567D01*
X114906906Y-74669688D01*
X115077586Y-74499008D01*
X115219465Y-74303729D01*
X115329048Y-74088660D01*
X115403638Y-73859095D01*
X115441398Y-73620689D01*
X115441398Y-73379311D01*
X115434380Y-73334999D01*
X116052996Y-73334999D01*
X116666168Y-73334999D01*
X116650000Y-73416282D01*
X116650000Y-73583718D01*
X116666168Y-73665000D01*
X116052997Y-73665000D01*
X116080827Y-73840715D01*
X116151599Y-74058527D01*
X116255570Y-74262582D01*
X116390188Y-74447869D01*
X116552130Y-74609811D01*
X116737417Y-74744429D01*
X116941472Y-74848400D01*
X117159285Y-74919171D01*
X117334999Y-74947002D01*
X117334999Y-74333831D01*
X117416282Y-74350000D01*
X117583718Y-74350000D01*
X117665000Y-74333832D01*
X117665000Y-74947002D01*
X117840713Y-74919172D01*
X118058527Y-74848400D01*
X118262582Y-74744429D01*
X118447869Y-74609811D01*
X118609811Y-74447869D01*
X118744429Y-74262582D01*
X118848400Y-74058527D01*
X118919172Y-73840713D01*
X118947003Y-73665000D01*
X118333832Y-73665000D01*
X118350000Y-73583718D01*
X118350000Y-73416282D01*
X118333832Y-73334999D01*
X118947002Y-73334999D01*
X118919171Y-73159285D01*
X118848400Y-72941472D01*
X118744429Y-72737417D01*
X118609811Y-72552130D01*
X118447869Y-72390188D01*
X118262582Y-72255570D01*
X118058527Y-72151599D01*
X117840715Y-72080827D01*
X117665000Y-72052996D01*
X117665000Y-72666167D01*
X117583718Y-72650000D01*
X117416282Y-72650000D01*
X117334999Y-72666168D01*
X117334999Y-72052996D01*
X117159284Y-72080827D01*
X116941472Y-72151599D01*
X116737417Y-72255570D01*
X116552130Y-72390188D01*
X116390188Y-72552130D01*
X116255570Y-72737417D01*
X116151599Y-72941472D01*
X116080827Y-73159284D01*
X116052996Y-73334999D01*
X115434380Y-73334999D01*
X115403638Y-73140905D01*
X115329048Y-72911340D01*
X115219465Y-72696271D01*
X115114740Y-72552130D01*
X115077588Y-72500994D01*
X114906903Y-72330309D01*
X114711623Y-72188430D01*
X114496562Y-72078852D01*
X114496561Y-72078851D01*
X114496558Y-72078850D01*
X114335792Y-72026614D01*
X114266997Y-72004261D01*
X114266995Y-72004260D01*
X114266993Y-72004260D01*
X114028587Y-71966500D01*
X113787209Y-71966500D01*
X113548803Y-72004260D01*
X113548801Y-72004260D01*
X113548798Y-72004261D01*
X113405413Y-72050850D01*
X113319238Y-72078850D01*
X113319235Y-72078851D01*
X113319233Y-72078852D01*
X113104172Y-72188430D01*
X112908892Y-72330309D01*
X112738207Y-72500994D01*
X112596328Y-72696274D01*
X112486750Y-72911335D01*
X112412159Y-73140900D01*
X112412158Y-73140903D01*
X112412158Y-73140905D01*
X112374398Y-73379311D01*
X111158442Y-73379311D01*
X111149628Y-73334999D01*
X111762798Y-73334999D01*
X111734967Y-73159285D01*
X111664196Y-72941472D01*
X111560225Y-72737417D01*
X111425607Y-72552130D01*
X111263665Y-72390188D01*
X111078378Y-72255570D01*
X110874323Y-72151599D01*
X110656511Y-72080827D01*
X110480796Y-72052996D01*
X110480796Y-72666167D01*
X110399514Y-72650000D01*
X110232078Y-72650000D01*
X110150795Y-72666168D01*
X110150795Y-72052996D01*
X109975080Y-72080827D01*
X109757268Y-72151599D01*
X109553213Y-72255570D01*
X109367926Y-72390188D01*
X109205984Y-72552130D01*
X109071366Y-72737417D01*
X108967395Y-72941472D01*
X108896623Y-73159284D01*
X108868792Y-73334999D01*
X96858882Y-73334999D01*
X96925192Y-73274139D01*
X100569955Y-69928946D01*
X100772665Y-69742897D01*
X112460894Y-69742897D01*
X113074066Y-69742897D01*
X113057898Y-69824180D01*
X113057898Y-69991616D01*
X113074066Y-70072898D01*
X112460895Y-70072898D01*
X112488725Y-70248613D01*
X112559497Y-70466425D01*
X112663468Y-70670480D01*
X112798086Y-70855767D01*
X112960028Y-71017709D01*
X113145315Y-71152327D01*
X113349370Y-71256298D01*
X113567183Y-71327069D01*
X113742897Y-71354900D01*
X113742897Y-70741729D01*
X113824180Y-70757898D01*
X113991616Y-70757898D01*
X114072898Y-70741730D01*
X114072898Y-71354900D01*
X114248611Y-71327070D01*
X114466425Y-71256298D01*
X114670480Y-71152327D01*
X114855767Y-71017709D01*
X115017709Y-70855767D01*
X115152327Y-70670480D01*
X115256298Y-70466425D01*
X115327070Y-70248611D01*
X115354901Y-70072898D01*
X114741730Y-70072898D01*
X114757898Y-69991616D01*
X114757898Y-69824180D01*
X114741730Y-69742897D01*
X115354900Y-69742897D01*
X115327069Y-69567183D01*
X115256298Y-69349370D01*
X115152327Y-69145315D01*
X115017709Y-68960028D01*
X114855767Y-68798086D01*
X114670480Y-68663468D01*
X114615591Y-68635501D01*
X114615590Y-68635501D01*
X114466422Y-68559496D01*
X114248613Y-68488725D01*
X114131053Y-68470105D01*
X120917892Y-68470105D01*
X121531064Y-68470105D01*
X121514896Y-68551388D01*
X121514896Y-68718824D01*
X121531064Y-68800106D01*
X120917893Y-68800106D01*
X120945723Y-68975821D01*
X121016495Y-69193633D01*
X121120466Y-69397688D01*
X121255084Y-69582975D01*
X121417026Y-69744917D01*
X121602313Y-69879535D01*
X121806368Y-69983506D01*
X122024181Y-70054277D01*
X122199895Y-70082108D01*
X122199895Y-69468937D01*
X122281178Y-69485106D01*
X122448614Y-69485106D01*
X122529896Y-69468938D01*
X122529896Y-70082108D01*
X122705609Y-70054278D01*
X122923423Y-69983506D01*
X123127478Y-69879535D01*
X123312765Y-69744917D01*
X123474707Y-69582975D01*
X123609325Y-69397688D01*
X123713296Y-69193633D01*
X123784068Y-68975819D01*
X123811899Y-68800106D01*
X123198728Y-68800106D01*
X123214896Y-68718824D01*
X123214896Y-68551388D01*
X123198728Y-68470105D01*
X123811898Y-68470105D01*
X123784067Y-68294391D01*
X123713296Y-68076578D01*
X123609325Y-67872523D01*
X123474707Y-67687236D01*
X123312765Y-67525294D01*
X123127478Y-67390676D01*
X122923423Y-67286705D01*
X122705611Y-67215933D01*
X122529896Y-67188102D01*
X122529896Y-67801273D01*
X122448614Y-67785106D01*
X122281178Y-67785106D01*
X122199895Y-67801274D01*
X122199895Y-67188102D01*
X122024180Y-67215933D01*
X121806368Y-67286705D01*
X121602313Y-67390676D01*
X121417026Y-67525294D01*
X121255084Y-67687236D01*
X121120466Y-67872523D01*
X121016495Y-68076578D01*
X120945723Y-68294390D01*
X120917892Y-68470105D01*
X114131053Y-68470105D01*
X114072898Y-68460894D01*
X114072898Y-69074065D01*
X113991616Y-69057898D01*
X113824180Y-69057898D01*
X113742897Y-69074066D01*
X113742897Y-68460894D01*
X113567182Y-68488725D01*
X113349370Y-68559497D01*
X113145315Y-68663468D01*
X112960028Y-68798086D01*
X112798086Y-68960028D01*
X112663468Y-69145315D01*
X112559497Y-69349370D01*
X112488725Y-69567182D01*
X112460894Y-69742897D01*
X100772665Y-69742897D01*
X100838975Y-69682037D01*
X105870511Y-65064052D01*
X106073221Y-64878003D01*
X117325790Y-64878003D01*
X117938962Y-64878003D01*
X117922794Y-64959286D01*
X117922794Y-65126722D01*
X117938962Y-65208004D01*
X117325791Y-65208004D01*
X117353621Y-65383719D01*
X117424393Y-65601531D01*
X117528364Y-65805586D01*
X117662982Y-65990873D01*
X117824924Y-66152815D01*
X118010211Y-66287433D01*
X118214266Y-66391404D01*
X118432079Y-66462175D01*
X118607793Y-66490006D01*
X118607793Y-65876835D01*
X118689076Y-65893004D01*
X118856512Y-65893004D01*
X118937794Y-65876836D01*
X118937794Y-66490006D01*
X119113507Y-66462176D01*
X119331321Y-66391404D01*
X119535376Y-66287433D01*
X119720663Y-66152815D01*
X119882605Y-65990873D01*
X120017223Y-65805586D01*
X120121194Y-65601531D01*
X120191966Y-65383717D01*
X120219797Y-65208004D01*
X119606626Y-65208004D01*
X119622794Y-65126722D01*
X119622794Y-64959286D01*
X119615440Y-64922315D01*
X120831396Y-64922315D01*
X120831396Y-65163693D01*
X120869156Y-65402099D01*
X120943746Y-65631664D01*
X120943747Y-65631667D01*
X120943748Y-65631668D01*
X121053326Y-65846729D01*
X121195205Y-66042009D01*
X121365890Y-66212694D01*
X121437568Y-66264771D01*
X121526157Y-66329135D01*
X121561170Y-66354573D01*
X121633456Y-66391404D01*
X121776236Y-66464154D01*
X122005801Y-66538744D01*
X122244207Y-66576504D01*
X122244210Y-66576504D01*
X122485582Y-66576504D01*
X122485585Y-66576504D01*
X122723991Y-66538744D01*
X122953556Y-66464154D01*
X123168625Y-66354571D01*
X123363904Y-66212692D01*
X123534584Y-66042012D01*
X123676463Y-65846733D01*
X123786046Y-65631664D01*
X123860636Y-65402099D01*
X123898396Y-65163693D01*
X123898396Y-64922315D01*
X123891378Y-64878003D01*
X124509994Y-64878003D01*
X125123166Y-64878003D01*
X125106998Y-64959286D01*
X125106998Y-65126722D01*
X125123166Y-65208004D01*
X124509995Y-65208004D01*
X124537825Y-65383719D01*
X124608597Y-65601531D01*
X124712568Y-65805586D01*
X124847186Y-65990873D01*
X125009128Y-66152815D01*
X125194415Y-66287433D01*
X125398470Y-66391404D01*
X125616283Y-66462175D01*
X125791997Y-66490006D01*
X125791997Y-65876835D01*
X125873280Y-65893004D01*
X126040716Y-65893004D01*
X126121998Y-65876836D01*
X126121998Y-66490006D01*
X126297711Y-66462176D01*
X126515525Y-66391404D01*
X126719580Y-66287433D01*
X126904867Y-66152815D01*
X127066809Y-65990873D01*
X127201427Y-65805586D01*
X127305398Y-65601531D01*
X127376170Y-65383717D01*
X127404001Y-65208004D01*
X126790830Y-65208004D01*
X126806998Y-65126722D01*
X126806998Y-64959286D01*
X126790830Y-64878003D01*
X127404000Y-64878003D01*
X127376169Y-64702289D01*
X127305398Y-64484476D01*
X127201427Y-64280421D01*
X127066809Y-64095134D01*
X126904867Y-63933192D01*
X126719580Y-63798574D01*
X126515525Y-63694603D01*
X126297713Y-63623831D01*
X126121998Y-63596000D01*
X126121998Y-64209171D01*
X126040716Y-64193004D01*
X125873280Y-64193004D01*
X125791997Y-64209172D01*
X125791997Y-63596000D01*
X125616282Y-63623831D01*
X125398470Y-63694603D01*
X125194415Y-63798574D01*
X125009128Y-63933192D01*
X124847186Y-64095134D01*
X124712568Y-64280421D01*
X124608597Y-64484476D01*
X124537825Y-64702288D01*
X124509994Y-64878003D01*
X123891378Y-64878003D01*
X123860636Y-64683909D01*
X123786046Y-64454344D01*
X123676463Y-64239275D01*
X123571738Y-64095134D01*
X123534586Y-64043998D01*
X123363901Y-63873313D01*
X123168621Y-63731434D01*
X122953560Y-63621856D01*
X122953559Y-63621855D01*
X122953556Y-63621854D01*
X122792790Y-63569618D01*
X122723995Y-63547265D01*
X122723993Y-63547264D01*
X122723991Y-63547264D01*
X122485585Y-63509504D01*
X122244207Y-63509504D01*
X122005801Y-63547264D01*
X122005799Y-63547264D01*
X122005796Y-63547265D01*
X121899891Y-63581676D01*
X121776236Y-63621854D01*
X121776233Y-63621855D01*
X121776231Y-63621856D01*
X121561170Y-63731434D01*
X121365890Y-63873313D01*
X121195205Y-64043998D01*
X121053326Y-64239278D01*
X120943748Y-64454339D01*
X120869157Y-64683904D01*
X120869156Y-64683907D01*
X120869156Y-64683909D01*
X120831396Y-64922315D01*
X119615440Y-64922315D01*
X119606626Y-64878003D01*
X120219796Y-64878003D01*
X120191965Y-64702289D01*
X120121194Y-64484476D01*
X120017223Y-64280421D01*
X119882605Y-64095134D01*
X119720663Y-63933192D01*
X119535376Y-63798574D01*
X119331321Y-63694603D01*
X119113509Y-63623831D01*
X118937794Y-63596000D01*
X118937794Y-64209171D01*
X118856512Y-64193004D01*
X118689076Y-64193004D01*
X118607793Y-64209172D01*
X118607793Y-63596000D01*
X118432078Y-63623831D01*
X118214266Y-63694603D01*
X118010211Y-63798574D01*
X117824924Y-63933192D01*
X117662982Y-64095134D01*
X117528364Y-64280421D01*
X117424393Y-64484476D01*
X117353621Y-64702288D01*
X117325790Y-64878003D01*
X106073221Y-64878003D01*
X106139531Y-64817143D01*
X109435999Y-61791617D01*
X109987003Y-61285901D01*
X120917892Y-61285901D01*
X121531064Y-61285901D01*
X121514896Y-61367184D01*
X121514896Y-61534620D01*
X121531064Y-61615902D01*
X120917893Y-61615902D01*
X120945723Y-61791617D01*
X121016495Y-62009429D01*
X121120466Y-62213484D01*
X121255084Y-62398771D01*
X121417026Y-62560713D01*
X121602313Y-62695331D01*
X121806368Y-62799302D01*
X122024181Y-62870073D01*
X122199895Y-62897904D01*
X122199895Y-62284733D01*
X122281178Y-62300902D01*
X122448614Y-62300902D01*
X122529896Y-62284734D01*
X122529896Y-62897904D01*
X122705609Y-62870074D01*
X122923423Y-62799302D01*
X123127478Y-62695331D01*
X123312765Y-62560713D01*
X123474707Y-62398771D01*
X123609325Y-62213484D01*
X123713296Y-62009429D01*
X123784068Y-61791615D01*
X123811899Y-61615902D01*
X123198728Y-61615902D01*
X123214896Y-61534620D01*
X123214896Y-61367184D01*
X123198728Y-61285901D01*
X123811898Y-61285901D01*
X123784067Y-61110187D01*
X123713296Y-60892374D01*
X123609325Y-60688319D01*
X123474707Y-60503032D01*
X123312765Y-60341090D01*
X123127478Y-60206472D01*
X122923423Y-60102501D01*
X122705611Y-60031729D01*
X122529896Y-60003898D01*
X122529896Y-60617069D01*
X122448614Y-60600902D01*
X122281178Y-60600902D01*
X122199895Y-60617070D01*
X122199895Y-60003898D01*
X122024180Y-60031729D01*
X121806368Y-60102501D01*
X121602313Y-60206472D01*
X121417026Y-60341090D01*
X121255084Y-60503032D01*
X121120466Y-60688319D01*
X121016495Y-60892374D01*
X120945723Y-61110186D01*
X120917892Y-61285901D01*
X109987003Y-61285901D01*
X112719109Y-58778351D01*
X112782902Y-58745078D01*
X112791402Y-58743462D01*
X126930084Y-56511039D01*
X127001637Y-56518594D01*
G37*
%TD.AperFunction*%
%TD*%
M02*
