G04 #@! TF.GenerationSoftware,KiCad,Pcbnew,(5.1.8-0-10_14)*
G04 #@! TF.CreationDate,2021-01-01T16:59:03+01:00*
G04 #@! TF.ProjectId,DreamCrusher-breakout-external,44726561-6d43-4727-9573-6865722d6272,A*
G04 #@! TF.SameCoordinates,Original*
G04 #@! TF.FileFunction,Paste,Bot*
G04 #@! TF.FilePolarity,Positive*
%FSLAX46Y46*%
G04 Gerber Fmt 4.6, Leading zero omitted, Abs format (unit mm)*
G04 Created by KiCad (PCBNEW (5.1.8-0-10_14)) date 2021-01-01 16:59:03*
%MOMM*%
%LPD*%
G01*
G04 APERTURE LIST*
G04 APERTURE END LIST*
G36*
G01*
X154102586Y-84477640D02*
X155392349Y-83187877D01*
G75*
G02*
X155714789Y-83187877I161220J-161220D01*
G01*
X157124760Y-84597848D01*
G75*
G02*
X157124760Y-84920288I-161220J-161220D01*
G01*
X155834997Y-86210051D01*
G75*
G02*
X155512557Y-86210051I-161220J161220D01*
G01*
X154102586Y-84800080D01*
G75*
G02*
X154102586Y-84477640I161220J161220D01*
G01*
G37*
G36*
G01*
X155997632Y-82582594D02*
X157287395Y-81292831D01*
G75*
G02*
X157609835Y-81292831I161220J-161220D01*
G01*
X159019806Y-82702802D01*
G75*
G02*
X159019806Y-83025242I-161220J-161220D01*
G01*
X157730043Y-84315005D01*
G75*
G02*
X157407603Y-84315005I-161220J161220D01*
G01*
X155997632Y-82905034D01*
G75*
G02*
X155997632Y-82582594I161220J161220D01*
G01*
G37*
G36*
G01*
X163436396Y-94518556D02*
X164726159Y-93228793D01*
G75*
G02*
X165048599Y-93228793I161220J-161220D01*
G01*
X166458570Y-94638764D01*
G75*
G02*
X166458570Y-94961204I-161220J-161220D01*
G01*
X165168807Y-96250967D01*
G75*
G02*
X164846367Y-96250967I-161220J161220D01*
G01*
X163436396Y-94840996D01*
G75*
G02*
X163436396Y-94518556I161220J161220D01*
G01*
G37*
G36*
G01*
X165331442Y-92623510D02*
X166621205Y-91333747D01*
G75*
G02*
X166943645Y-91333747I161220J-161220D01*
G01*
X168353616Y-92743718D01*
G75*
G02*
X168353616Y-93066158I-161220J-161220D01*
G01*
X167063853Y-94355921D01*
G75*
G02*
X166741413Y-94355921I-161220J161220D01*
G01*
X165331442Y-92945950D01*
G75*
G02*
X165331442Y-92623510I161220J161220D01*
G01*
G37*
G36*
G01*
X161572815Y-91785941D02*
X163605747Y-89753009D01*
G75*
G02*
X164047689Y-89753009I220971J-220971D01*
G01*
X164489631Y-90194951D01*
G75*
G02*
X164489631Y-90636893I-220971J-220971D01*
G01*
X162456699Y-92669825D01*
G75*
G02*
X162014757Y-92669825I-220971J220971D01*
G01*
X161572815Y-92227883D01*
G75*
G02*
X161572815Y-91785941I220971J220971D01*
G01*
G37*
G36*
G01*
X160158602Y-90371728D02*
X162191534Y-88338796D01*
G75*
G02*
X162633476Y-88338796I220971J-220971D01*
G01*
X163075418Y-88780738D01*
G75*
G02*
X163075418Y-89222680I-220971J-220971D01*
G01*
X161042486Y-91255612D01*
G75*
G02*
X160600544Y-91255612I-220971J220971D01*
G01*
X160158602Y-90813670D01*
G75*
G02*
X160158602Y-90371728I220971J220971D01*
G01*
G37*
G36*
G01*
X158744388Y-88957514D02*
X160777320Y-86924582D01*
G75*
G02*
X161219262Y-86924582I220971J-220971D01*
G01*
X161661204Y-87366524D01*
G75*
G02*
X161661204Y-87808466I-220971J-220971D01*
G01*
X159628272Y-89841398D01*
G75*
G02*
X159186330Y-89841398I-220971J220971D01*
G01*
X158744388Y-89399456D01*
G75*
G02*
X158744388Y-88957514I220971J220971D01*
G01*
G37*
G36*
G01*
X157330175Y-87543301D02*
X159363107Y-85510369D01*
G75*
G02*
X159805049Y-85510369I220971J-220971D01*
G01*
X160246991Y-85952311D01*
G75*
G02*
X160246991Y-86394253I-220971J-220971D01*
G01*
X158214059Y-88427185D01*
G75*
G02*
X157772117Y-88427185I-220971J220971D01*
G01*
X157330175Y-87985243D01*
G75*
G02*
X157330175Y-87543301I220971J220971D01*
G01*
G37*
G36*
G01*
X124477640Y-95897414D02*
X123187877Y-94607651D01*
G75*
G02*
X123187877Y-94285211I161220J161220D01*
G01*
X124597848Y-92875240D01*
G75*
G02*
X124920288Y-92875240I161220J-161220D01*
G01*
X126210051Y-94165003D01*
G75*
G02*
X126210051Y-94487443I-161220J-161220D01*
G01*
X124800080Y-95897414D01*
G75*
G02*
X124477640Y-95897414I-161220J161220D01*
G01*
G37*
G36*
G01*
X122582594Y-94002368D02*
X121292831Y-92712605D01*
G75*
G02*
X121292831Y-92390165I161220J161220D01*
G01*
X122702802Y-90980194D01*
G75*
G02*
X123025242Y-90980194I161220J-161220D01*
G01*
X124315005Y-92269957D01*
G75*
G02*
X124315005Y-92592397I-161220J-161220D01*
G01*
X122905034Y-94002368D01*
G75*
G02*
X122582594Y-94002368I-161220J161220D01*
G01*
G37*
G36*
G01*
X134518556Y-86563604D02*
X133228793Y-85273841D01*
G75*
G02*
X133228793Y-84951401I161220J161220D01*
G01*
X134638764Y-83541430D01*
G75*
G02*
X134961204Y-83541430I161220J-161220D01*
G01*
X136250967Y-84831193D01*
G75*
G02*
X136250967Y-85153633I-161220J-161220D01*
G01*
X134840996Y-86563604D01*
G75*
G02*
X134518556Y-86563604I-161220J161220D01*
G01*
G37*
G36*
G01*
X132623510Y-84668558D02*
X131333747Y-83378795D01*
G75*
G02*
X131333747Y-83056355I161220J161220D01*
G01*
X132743718Y-81646384D01*
G75*
G02*
X133066158Y-81646384I161220J-161220D01*
G01*
X134355921Y-82936147D01*
G75*
G02*
X134355921Y-83258587I-161220J-161220D01*
G01*
X132945950Y-84668558D01*
G75*
G02*
X132623510Y-84668558I-161220J161220D01*
G01*
G37*
G36*
G01*
X131785941Y-88427185D02*
X129753009Y-86394253D01*
G75*
G02*
X129753009Y-85952311I220971J220971D01*
G01*
X130194951Y-85510369D01*
G75*
G02*
X130636893Y-85510369I220971J-220971D01*
G01*
X132669825Y-87543301D01*
G75*
G02*
X132669825Y-87985243I-220971J-220971D01*
G01*
X132227883Y-88427185D01*
G75*
G02*
X131785941Y-88427185I-220971J220971D01*
G01*
G37*
G36*
G01*
X130371728Y-89841398D02*
X128338796Y-87808466D01*
G75*
G02*
X128338796Y-87366524I220971J220971D01*
G01*
X128780738Y-86924582D01*
G75*
G02*
X129222680Y-86924582I220971J-220971D01*
G01*
X131255612Y-88957514D01*
G75*
G02*
X131255612Y-89399456I-220971J-220971D01*
G01*
X130813670Y-89841398D01*
G75*
G02*
X130371728Y-89841398I-220971J220971D01*
G01*
G37*
G36*
G01*
X128957514Y-91255612D02*
X126924582Y-89222680D01*
G75*
G02*
X126924582Y-88780738I220971J220971D01*
G01*
X127366524Y-88338796D01*
G75*
G02*
X127808466Y-88338796I220971J-220971D01*
G01*
X129841398Y-90371728D01*
G75*
G02*
X129841398Y-90813670I-220971J-220971D01*
G01*
X129399456Y-91255612D01*
G75*
G02*
X128957514Y-91255612I-220971J220971D01*
G01*
G37*
G36*
G01*
X127543301Y-92669825D02*
X125510369Y-90636893D01*
G75*
G02*
X125510369Y-90194951I220971J220971D01*
G01*
X125952311Y-89753009D01*
G75*
G02*
X126394253Y-89753009I220971J-220971D01*
G01*
X128427185Y-91785941D01*
G75*
G02*
X128427185Y-92227883I-220971J-220971D01*
G01*
X127985243Y-92669825D01*
G75*
G02*
X127543301Y-92669825I-220971J220971D01*
G01*
G37*
G36*
G01*
X135897414Y-125522360D02*
X134607651Y-126812123D01*
G75*
G02*
X134285211Y-126812123I-161220J161220D01*
G01*
X132875240Y-125402152D01*
G75*
G02*
X132875240Y-125079712I161220J161220D01*
G01*
X134165003Y-123789949D01*
G75*
G02*
X134487443Y-123789949I161220J-161220D01*
G01*
X135897414Y-125199920D01*
G75*
G02*
X135897414Y-125522360I-161220J-161220D01*
G01*
G37*
G36*
G01*
X134002368Y-127417406D02*
X132712605Y-128707169D01*
G75*
G02*
X132390165Y-128707169I-161220J161220D01*
G01*
X130980194Y-127297198D01*
G75*
G02*
X130980194Y-126974758I161220J161220D01*
G01*
X132269957Y-125684995D01*
G75*
G02*
X132592397Y-125684995I161220J-161220D01*
G01*
X134002368Y-127094966D01*
G75*
G02*
X134002368Y-127417406I-161220J-161220D01*
G01*
G37*
G36*
G01*
X126563604Y-115481444D02*
X125273841Y-116771207D01*
G75*
G02*
X124951401Y-116771207I-161220J161220D01*
G01*
X123541430Y-115361236D01*
G75*
G02*
X123541430Y-115038796I161220J161220D01*
G01*
X124831193Y-113749033D01*
G75*
G02*
X125153633Y-113749033I161220J-161220D01*
G01*
X126563604Y-115159004D01*
G75*
G02*
X126563604Y-115481444I-161220J-161220D01*
G01*
G37*
G36*
G01*
X124668558Y-117376490D02*
X123378795Y-118666253D01*
G75*
G02*
X123056355Y-118666253I-161220J161220D01*
G01*
X121646384Y-117256282D01*
G75*
G02*
X121646384Y-116933842I161220J161220D01*
G01*
X122936147Y-115644079D01*
G75*
G02*
X123258587Y-115644079I161220J-161220D01*
G01*
X124668558Y-117054050D01*
G75*
G02*
X124668558Y-117376490I-161220J-161220D01*
G01*
G37*
G36*
G01*
X128427185Y-118214059D02*
X126394253Y-120246991D01*
G75*
G02*
X125952311Y-120246991I-220971J220971D01*
G01*
X125510369Y-119805049D01*
G75*
G02*
X125510369Y-119363107I220971J220971D01*
G01*
X127543301Y-117330175D01*
G75*
G02*
X127985243Y-117330175I220971J-220971D01*
G01*
X128427185Y-117772117D01*
G75*
G02*
X128427185Y-118214059I-220971J-220971D01*
G01*
G37*
G36*
G01*
X129841398Y-119628272D02*
X127808466Y-121661204D01*
G75*
G02*
X127366524Y-121661204I-220971J220971D01*
G01*
X126924582Y-121219262D01*
G75*
G02*
X126924582Y-120777320I220971J220971D01*
G01*
X128957514Y-118744388D01*
G75*
G02*
X129399456Y-118744388I220971J-220971D01*
G01*
X129841398Y-119186330D01*
G75*
G02*
X129841398Y-119628272I-220971J-220971D01*
G01*
G37*
G36*
G01*
X131255612Y-121042486D02*
X129222680Y-123075418D01*
G75*
G02*
X128780738Y-123075418I-220971J220971D01*
G01*
X128338796Y-122633476D01*
G75*
G02*
X128338796Y-122191534I220971J220971D01*
G01*
X130371728Y-120158602D01*
G75*
G02*
X130813670Y-120158602I220971J-220971D01*
G01*
X131255612Y-120600544D01*
G75*
G02*
X131255612Y-121042486I-220971J-220971D01*
G01*
G37*
G36*
G01*
X132669825Y-122456699D02*
X130636893Y-124489631D01*
G75*
G02*
X130194951Y-124489631I-220971J220971D01*
G01*
X129753009Y-124047689D01*
G75*
G02*
X129753009Y-123605747I220971J220971D01*
G01*
X131785941Y-121572815D01*
G75*
G02*
X132227883Y-121572815I220971J-220971D01*
G01*
X132669825Y-122014757D01*
G75*
G02*
X132669825Y-122456699I-220971J-220971D01*
G01*
G37*
G36*
G01*
X165522360Y-114102586D02*
X166812123Y-115392349D01*
G75*
G02*
X166812123Y-115714789I-161220J-161220D01*
G01*
X165402152Y-117124760D01*
G75*
G02*
X165079712Y-117124760I-161220J161220D01*
G01*
X163789949Y-115834997D01*
G75*
G02*
X163789949Y-115512557I161220J161220D01*
G01*
X165199920Y-114102586D01*
G75*
G02*
X165522360Y-114102586I161220J-161220D01*
G01*
G37*
G36*
G01*
X167417406Y-115997632D02*
X168707169Y-117287395D01*
G75*
G02*
X168707169Y-117609835I-161220J-161220D01*
G01*
X167297198Y-119019806D01*
G75*
G02*
X166974758Y-119019806I-161220J161220D01*
G01*
X165684995Y-117730043D01*
G75*
G02*
X165684995Y-117407603I161220J161220D01*
G01*
X167094966Y-115997632D01*
G75*
G02*
X167417406Y-115997632I161220J-161220D01*
G01*
G37*
G36*
G01*
X155481444Y-123436396D02*
X156771207Y-124726159D01*
G75*
G02*
X156771207Y-125048599I-161220J-161220D01*
G01*
X155361236Y-126458570D01*
G75*
G02*
X155038796Y-126458570I-161220J161220D01*
G01*
X153749033Y-125168807D01*
G75*
G02*
X153749033Y-124846367I161220J161220D01*
G01*
X155159004Y-123436396D01*
G75*
G02*
X155481444Y-123436396I161220J-161220D01*
G01*
G37*
G36*
G01*
X157376490Y-125331442D02*
X158666253Y-126621205D01*
G75*
G02*
X158666253Y-126943645I-161220J-161220D01*
G01*
X157256282Y-128353616D01*
G75*
G02*
X156933842Y-128353616I-161220J161220D01*
G01*
X155644079Y-127063853D01*
G75*
G02*
X155644079Y-126741413I161220J161220D01*
G01*
X157054050Y-125331442D01*
G75*
G02*
X157376490Y-125331442I161220J-161220D01*
G01*
G37*
G36*
G01*
X158214059Y-121572815D02*
X160246991Y-123605747D01*
G75*
G02*
X160246991Y-124047689I-220971J-220971D01*
G01*
X159805049Y-124489631D01*
G75*
G02*
X159363107Y-124489631I-220971J220971D01*
G01*
X157330175Y-122456699D01*
G75*
G02*
X157330175Y-122014757I220971J220971D01*
G01*
X157772117Y-121572815D01*
G75*
G02*
X158214059Y-121572815I220971J-220971D01*
G01*
G37*
G36*
G01*
X159628272Y-120158602D02*
X161661204Y-122191534D01*
G75*
G02*
X161661204Y-122633476I-220971J-220971D01*
G01*
X161219262Y-123075418D01*
G75*
G02*
X160777320Y-123075418I-220971J220971D01*
G01*
X158744388Y-121042486D01*
G75*
G02*
X158744388Y-120600544I220971J220971D01*
G01*
X159186330Y-120158602D01*
G75*
G02*
X159628272Y-120158602I220971J-220971D01*
G01*
G37*
G36*
G01*
X161042486Y-118744388D02*
X163075418Y-120777320D01*
G75*
G02*
X163075418Y-121219262I-220971J-220971D01*
G01*
X162633476Y-121661204D01*
G75*
G02*
X162191534Y-121661204I-220971J220971D01*
G01*
X160158602Y-119628272D01*
G75*
G02*
X160158602Y-119186330I220971J220971D01*
G01*
X160600544Y-118744388D01*
G75*
G02*
X161042486Y-118744388I220971J-220971D01*
G01*
G37*
G36*
G01*
X162456699Y-117330175D02*
X164489631Y-119363107D01*
G75*
G02*
X164489631Y-119805049I-220971J-220971D01*
G01*
X164047689Y-120246991D01*
G75*
G02*
X163605747Y-120246991I-220971J220971D01*
G01*
X161572815Y-118214059D01*
G75*
G02*
X161572815Y-117772117I220971J220971D01*
G01*
X162014757Y-117330175D01*
G75*
G02*
X162456699Y-117330175I220971J-220971D01*
G01*
G37*
M02*
