M48
METRIC
T1C0.200
T2C0.400
T3C0.800
T4C0.900
T5C1.000
T6C1.300
T7C1.500
T8C1.600
T9C1.700
T10C3.200
T11C3.250
T12C5.300
%
G90
G05
T1
X63.25Y-113.25
X63.75Y-94.5
X65.75Y-81.5
X67.0Y-131.5
X68.5Y-73.0
X68.75Y-111.25
X69.0Y-95.0
X69.25Y-125.25
X70.75Y-122.5
X71.0Y-81.5
X71.25Y-86.0
X72.0Y-131.25
X72.5Y-144.75
X73.5Y-77.75
X73.5Y-116.0
X74.25Y-67.0
X74.5Y-97.0
X75.25Y-150.5
X75.5Y-60.0
X76.5Y-113.0
X76.75Y-130.75
X76.75Y-145.75
X77.75Y-120.5
X78.5Y-136.5
X79.25Y-90.0
X79.75Y-76.0
X80.0Y-63.0
X80.0Y-142.25
X80.0Y-147.25
X80.5Y-67.5
X81.75Y-126.25
X82.25Y-158.0
X83.0Y-51.25
X83.25Y-112.75
X83.5Y-73.25
X83.5Y-110.0
X84.0Y-98.0
X85.0Y-90.0
X86.25Y-107.0
X86.25Y-148.5
X86.75Y-144.75
X86.75Y-157.5
X87.5Y-53.5
X87.5Y-67.5
X87.75Y-133.0
X88.0Y-47.75
X88.0Y-102.25
X88.0Y-124.0
X88.25Y-165.0
X89.5Y-110.5
X90.25Y-98.5
X90.75Y-78.75
X91.0Y-118.25
X92.0Y-167.0
X92.25Y-155.25
X93.25Y-41.25
X94.5Y-164.0
X95.0Y-45.25
X95.25Y-101.0
X95.25Y-167.75
X95.5Y-109.0
X95.75Y-127.5
X96.0Y-71.25
X96.25Y-160.25
X96.5Y-91.0
X96.75Y-148.25
X97.25Y-172.75
X97.5Y-84.5
X97.5Y-122.0
X98.75Y-36.75
X98.75Y-45.0
X98.75Y-54.0
X98.75Y-144.0
X98.75Y-152.5
X99.0Y-73.5
X99.5Y-66.5
X99.75Y-107.0
X100.0Y-156.5
X100.5Y-169.25
X101.25Y-101.5
X101.5Y-165.5
X101.75Y-110.75
X101.75Y-139.75
X102.5Y-94.0
X102.75Y-116.75
X103.0Y-41.25
X103.0Y-46.0
X103.25Y-37.5
X103.25Y-53.75
X103.5Y-75.5
X104.25Y-70.75
X104.5Y-50.75
X104.75Y-63.5
X104.75Y-140.75
X105.0Y-124.5
X105.25Y-32.25
X105.5Y-138.0
X105.75Y-49.5
X106.0Y-173.5
X106.25Y-99.0
X106.25Y-168.5
X106.5Y-144.5
X106.75Y-87.75
X106.75Y-120.25
X108.0Y-79.25
X108.0Y-158.75
X109.5Y-70.0
X109.75Y-110.75
X110.0Y-104.75
X110.0Y-131.5
X111.0Y-125.25
X111.25Y-151.0
X111.25Y-172.5
X112.25Y-93.0
X112.25Y-122.75
X113.0Y-153.0
X113.75Y-158.25
X114.0Y-35.75
X114.25Y-49.5
X114.5Y-98.5
X114.75Y-58.25
X116.0Y-112.25
X116.0Y-183.0
X116.25Y-148.25
X116.5Y-27.25
X116.75Y-118.0
X117.5Y-87.75
X117.75Y-152.25
X118.25Y-130.75
X118.5Y-50.5
X118.5Y-75.25
X118.75Y-56.25
X119.5Y-81.0
X119.5Y-123.75
X120.0Y-63.75
X120.25Y-96.25
X120.25Y-118.0
X120.5Y-33.0
X120.5Y-136.75
X121.0Y-158.25
X121.25Y-149.25
X121.75Y-154.0
X122.75Y-110.75
X123.0Y-53.75
X124.25Y-81.0
X124.5Y-39.75
X127.039Y-89.019
X127.039Y-120.981
X127.25Y-46.0
X127.322Y-88.737
X127.322Y-121.263
X127.393Y-89.373
X127.393Y-120.627
X127.5Y-68.75
X127.605Y-88.454
X127.605Y-121.546
X127.676Y-89.09
X127.676Y-120.91
X127.747Y-89.726
X127.747Y-120.274
X127.959Y-88.807
X127.959Y-121.193
X128.0Y-102.25
X128.029Y-89.444
X128.029Y-120.556
X128.1Y-90.08
X128.1Y-119.92
X128.312Y-89.161
X128.312Y-120.839
X128.383Y-89.797
X128.383Y-120.203
X128.454Y-90.434
X128.454Y-119.566
X128.454Y-87.605
X128.454Y-122.395
X128.666Y-89.514
X128.666Y-120.486
X128.737Y-90.151
X128.737Y-119.849
X128.737Y-87.322
X128.737Y-122.678
X128.75Y-75.5
X128.807Y-90.787
X128.807Y-119.213
X128.807Y-87.959
X128.807Y-122.041
X129.019Y-89.868
X129.019Y-120.132
X129.019Y-87.039
X129.019Y-122.961
X129.09Y-90.504
X129.09Y-119.496
X129.09Y-87.676
X129.09Y-122.324
X129.161Y-91.141
X129.161Y-118.859
X129.161Y-88.312
X129.161Y-121.688
X129.373Y-90.221
X129.373Y-119.779
X129.373Y-87.393
X129.373Y-122.607
X129.444Y-90.858
X129.444Y-119.142
X129.444Y-88.029
X129.444Y-121.971
X129.5Y-162.5
X129.514Y-88.666
X129.514Y-121.334
X129.726Y-90.575
X129.726Y-119.425
X129.726Y-87.747
X129.726Y-122.253
X129.797Y-88.383
X129.797Y-121.617
X129.868Y-89.019
X129.868Y-120.981
X130.0Y-109.5
X130.08Y-88.1
X130.08Y-121.9
X130.151Y-88.737
X130.151Y-121.263
X130.221Y-89.373
X130.221Y-120.627
X130.434Y-88.454
X130.434Y-121.546
X130.5Y-168.0
X130.504Y-89.09
X130.504Y-120.91
X130.575Y-89.726
X130.575Y-120.274
X130.787Y-88.807
X130.787Y-121.193
X130.858Y-89.444
X130.858Y-120.556
X131.141Y-89.161
X131.141Y-120.839
X133.25Y-63.0
X133.25Y-80.5
X134.0Y-49.5
X134.0Y-105.0
X135.0Y-130.75
X135.25Y-149.75
X135.75Y-100.5
X137.25Y-57.25
X137.5Y-136.5
X138.5Y-108.0
X139.75Y-69.0
X140.0Y-75.5
X142.5Y-82.5
X143.0Y-122.75
X143.25Y-57.75
X143.75Y-141.75
X145.0Y-119.0
X145.25Y-91.25
X147.0Y-71.25
X147.25Y-62.75
X147.75Y-82.75
X148.0Y-150.75
X151.5Y-124.75
X152.25Y-89.25
X152.25Y-93.0
X152.25Y-96.75
X152.25Y-113.25
X152.25Y-117.0
X152.25Y-120.75
X152.25Y-131.25
X152.75Y-85.0
X153.5Y-109.5
X153.75Y-65.25
X154.0Y-100.5
X155.25Y-133.5
X155.25Y-143.5
X155.75Y-76.75
X156.75Y-89.25
X156.75Y-120.75
X158.435Y-87.322
X158.435Y-122.678
X158.5Y-92.5
X158.5Y-117.5
X158.789Y-86.969
X158.789Y-123.031
X159.142Y-86.615
X159.142Y-123.385
X159.25Y-139.5
X159.5Y-70.75
X159.75Y-72.0
X159.75Y-137.75
X159.849Y-88.737
X159.849Y-121.263
X160.203Y-88.383
X160.203Y-121.617
X160.556Y-88.029
X160.556Y-121.971
X161.0Y-132.25
X161.25Y-78.0
X161.25Y-94.0
X161.25Y-116.0
X161.263Y-90.151
X161.263Y-119.849
X161.617Y-89.797
X161.617Y-120.203
X161.971Y-89.444
X161.971Y-120.556
X162.678Y-91.565
X162.678Y-118.435
X163.031Y-91.211
X163.031Y-118.789
X163.25Y-110.25
X163.385Y-90.858
X163.385Y-119.142
X164.0Y-98.75
X165.0Y-83.75
X165.0Y-126.75
X169.5Y-88.25
X169.5Y-115.75
X169.75Y-122.0
T2
X84.797Y-57.703
X85.703Y-56.797
X88.147Y-153.147
X89.053Y-154.053
X145.0Y-105.0
T3
X155.501Y-125.188
X156.915Y-126.602
X165.541Y-115.854
X166.956Y-117.268
X123.398Y-116.915
X124.812Y-115.501
X132.732Y-126.956
X134.146Y-125.541
X123.044Y-92.732
X124.459Y-94.146
X133.085Y-83.398
X134.499Y-84.812
X155.854Y-84.459
X157.268Y-83.044
X165.188Y-94.499
X166.602Y-93.085
T4
X89.312Y-62.404
X90.441Y-65.009
X90.945Y-60.458
X92.074Y-63.063
X92.577Y-58.512
X93.707Y-61.118
X94.21Y-56.566
X95.339Y-59.172
X88.483Y-146.608
X90.115Y-148.554
X91.245Y-145.948
X91.748Y-150.5
X92.877Y-147.894
X93.381Y-152.445
X94.51Y-149.84
X96.143Y-151.786
T5
X105.595Y-60.015
X107.228Y-61.96
X107.541Y-58.382
X109.173Y-60.328
X85.652Y-114.175
X86.093Y-116.677
X88.153Y-113.734
X88.594Y-116.235
X92.369Y-133.92
X93.639Y-136.12
X94.569Y-132.65
X95.839Y-134.85
X105.434Y-150.177
X107.067Y-148.231
X107.38Y-151.81
X109.013Y-149.864
X92.369Y-76.08
X93.639Y-73.88
X94.569Y-77.35
X95.839Y-75.15
X123.272Y-160.985
X124.14Y-158.598
X125.659Y-161.854
X126.527Y-159.467
X85.652Y-95.825
X86.093Y-93.323
X88.153Y-96.266
X88.594Y-93.765
X123.272Y-49.015
X124.14Y-51.402
X125.659Y-48.146
X126.527Y-50.533
T6
X127.591Y-111.633
X131.183Y-115.225
X134.775Y-118.817
X138.367Y-122.409
X145.552Y-80.407
X149.144Y-76.815
X152.736Y-73.223
X156.328Y-69.631
X145.552Y-129.593
X149.144Y-133.185
X152.736Y-136.777
X156.328Y-140.369
X127.591Y-98.367
X131.183Y-94.775
X134.775Y-91.183
X138.367Y-87.591
T7
X112.861Y-143.302
X95.76Y-113.682
X113.021Y-66.889
X101.699Y-80.0
X127.899Y-151.985
X127.899Y-58.015
X101.699Y-130.0
X95.76Y-96.318
T8
X83.672Y-63.82
X93.796Y-51.755
X83.672Y-146.18
X93.796Y-158.245
T9
X120.732Y-88.268
X124.268Y-84.732
X98.229Y-129.07
X100.769Y-133.47
X102.628Y-126.53
X105.168Y-130.93
X109.282Y-143.615
X112.548Y-139.724
X113.174Y-146.881
X116.439Y-142.989
X123.275Y-123.275
X125.75Y-125.75
X128.225Y-128.225
X92.817Y-98.378
X93.699Y-93.375
X97.82Y-99.26
X98.702Y-94.257
X92.817Y-111.622
X93.699Y-116.625
X97.82Y-110.74
X98.702Y-115.743
X109.443Y-66.576
X112.708Y-70.468
X113.334Y-63.311
X116.6Y-67.202
X98.229Y-80.93
X100.769Y-76.53
X102.628Y-83.47
X105.168Y-79.07
X124.643Y-153.503
X126.381Y-148.729
X129.417Y-155.24
X131.155Y-150.467
X121.232Y-129.232
X124.768Y-132.768
X124.643Y-56.497
X126.381Y-61.271
X129.417Y-54.76
X131.155Y-59.533
T10
X121.0Y-105.0
T11
X82.801Y-60.269
X90.148Y-51.513
X82.801Y-149.731
X90.148Y-158.487
T12
X75.0Y-105.0
X113.0Y-167.0
X113.0Y-43.0
T0
M30
