G04 #@! TF.GenerationSoftware,KiCad,Pcbnew,(5.1.8-0-10_14)*
G04 #@! TF.CreationDate,2021-01-01T16:59:03+01:00*
G04 #@! TF.ProjectId,DreamCrusher-breakout-external,44726561-6d43-4727-9573-6865722d6272,A*
G04 #@! TF.SameCoordinates,Original*
G04 #@! TF.FileFunction,Soldermask,Top*
G04 #@! TF.FilePolarity,Negative*
%FSLAX46Y46*%
G04 Gerber Fmt 4.6, Leading zero omitted, Abs format (unit mm)*
G04 Created by KiCad (PCBNEW (5.1.8-0-10_14)) date 2021-01-01 16:59:03*
%MOMM*%
%LPD*%
G01*
G04 APERTURE LIST*
%ADD10C,1.000000*%
%ADD11C,10.600000*%
%ADD12C,5.300000*%
%ADD13C,1.700000*%
%ADD14C,2.900000*%
%ADD15C,3.250000*%
%ADD16C,1.200000*%
%ADD17C,6.400000*%
%ADD18C,3.200000*%
%ADD19R,0.800000X1.600000*%
%ADD20R,0.800000X4.800000*%
%ADD21C,2.600000*%
%ADD22C,0.100000*%
%ADD23C,2.250000*%
%ADD24C,2.050000*%
G04 APERTURE END LIST*
D10*
X134000000Y-105000000D03*
D11*
X113000000Y-43000000D03*
D12*
X113000000Y-43000000D03*
D11*
X113000000Y-167000000D03*
D12*
X113000000Y-167000000D03*
D11*
X75000000Y-105000000D03*
D12*
X75000000Y-105000000D03*
D13*
X91244721Y-145948312D03*
X92877402Y-147894065D03*
X94510083Y-149839818D03*
X96142763Y-151785571D03*
X88482628Y-146608117D03*
X90115309Y-148553869D03*
X91747989Y-150499622D03*
X93380670Y-152445375D03*
D14*
X93795988Y-158245350D03*
X83672083Y-146180150D03*
D15*
X90147736Y-158486918D03*
X82800673Y-149731030D03*
D16*
X155854090Y-84458548D03*
X157268303Y-83044334D03*
X166602113Y-93085250D03*
X165187899Y-94499464D03*
D14*
X124767767Y-132767767D03*
X121232233Y-129232233D03*
X125750000Y-125750000D03*
X128224874Y-128224874D03*
X123275126Y-123275126D03*
X124267767Y-84732233D03*
X120732233Y-88267767D03*
D17*
X121000000Y-105000000D03*
D18*
X121000000Y-105000000D03*
G36*
G01*
X86929764Y-93471058D02*
X86929764Y-93471058D01*
G75*
G02*
X85945076Y-94160544I-837087J147601D01*
G01*
X85945076Y-94160544D01*
G75*
G02*
X85255590Y-93175856I147601J837087D01*
G01*
X85255590Y-93175856D01*
G75*
G02*
X86240278Y-92486370I837087J-147601D01*
G01*
X86240278Y-92486370D01*
G75*
G02*
X86929764Y-93471058I-147601J-837087D01*
G01*
G37*
G36*
G01*
X89431176Y-93912124D02*
X89431176Y-93912124D01*
G75*
G02*
X88446488Y-94601610I-837087J147601D01*
G01*
X88446488Y-94601610D01*
G75*
G02*
X87757002Y-93616922I147601J837087D01*
G01*
X87757002Y-93616922D01*
G75*
G02*
X88741690Y-92927436I837087J-147601D01*
G01*
X88741690Y-92927436D01*
G75*
G02*
X89431176Y-93912124I-147601J-837087D01*
G01*
G37*
G36*
G01*
X86488698Y-95972470D02*
X86488698Y-95972470D01*
G75*
G02*
X85504010Y-96661956I-837087J147601D01*
G01*
X85504010Y-96661956D01*
G75*
G02*
X84814524Y-95677268I147601J837087D01*
G01*
X84814524Y-95677268D01*
G75*
G02*
X85799212Y-94987782I837087J-147601D01*
G01*
X85799212Y-94987782D01*
G75*
G02*
X86488698Y-95972470I-147601J-837087D01*
G01*
G37*
D13*
X88153023Y-96265935D03*
G36*
G01*
X125949238Y-48945228D02*
X125949238Y-48945228D01*
G75*
G02*
X124859782Y-48437206I-290717J798739D01*
G01*
X124859782Y-48437206D01*
G75*
G02*
X125367804Y-47347750I798739J290717D01*
G01*
X125367804Y-47347750D01*
G75*
G02*
X126457260Y-47855772I290717J-798739D01*
G01*
X126457260Y-47855772D01*
G75*
G02*
X125949238Y-48945228I-798739J-290717D01*
G01*
G37*
G36*
G01*
X126817969Y-51332047D02*
X126817969Y-51332047D01*
G75*
G02*
X125728513Y-50824025I-290717J798739D01*
G01*
X125728513Y-50824025D01*
G75*
G02*
X126236535Y-49734569I798739J290717D01*
G01*
X126236535Y-49734569D01*
G75*
G02*
X127325991Y-50242591I290717J-798739D01*
G01*
X127325991Y-50242591D01*
G75*
G02*
X126817969Y-51332047I-798739J-290717D01*
G01*
G37*
G36*
G01*
X123562419Y-49813959D02*
X123562419Y-49813959D01*
G75*
G02*
X122472963Y-49305937I-290717J798739D01*
G01*
X122472963Y-49305937D01*
G75*
G02*
X122980985Y-48216481I798739J290717D01*
G01*
X122980985Y-48216481D01*
G75*
G02*
X124070441Y-48724503I290717J-798739D01*
G01*
X124070441Y-48724503D01*
G75*
G02*
X123562419Y-49813959I-798739J-290717D01*
G01*
G37*
X124140433Y-51402039D03*
G36*
G01*
X108086974Y-59033000D02*
X108086974Y-59033000D01*
G75*
G02*
X106889467Y-58928231I-546369J651138D01*
G01*
X106889467Y-58928231D01*
G75*
G02*
X106994236Y-57730724I651138J546369D01*
G01*
X106994236Y-57730724D01*
G75*
G02*
X108191743Y-57835493I546369J-651138D01*
G01*
X108191743Y-57835493D01*
G75*
G02*
X108086974Y-59033000I-651138J-546369D01*
G01*
G37*
G36*
G01*
X109719655Y-60978753D02*
X109719655Y-60978753D01*
G75*
G02*
X108522148Y-60873984I-546369J651138D01*
G01*
X108522148Y-60873984D01*
G75*
G02*
X108626917Y-59676477I651138J546369D01*
G01*
X108626917Y-59676477D01*
G75*
G02*
X109824424Y-59781246I546369J-651138D01*
G01*
X109824424Y-59781246D01*
G75*
G02*
X109719655Y-60978753I-651138J-546369D01*
G01*
G37*
G36*
G01*
X106141221Y-60665681D02*
X106141221Y-60665681D01*
G75*
G02*
X104943714Y-60560912I-546369J651138D01*
G01*
X104943714Y-60560912D01*
G75*
G02*
X105048483Y-59363405I651138J546369D01*
G01*
X105048483Y-59363405D01*
G75*
G02*
X106245990Y-59468174I546369J-651138D01*
G01*
X106245990Y-59468174D01*
G75*
G02*
X106141221Y-60665681I-651138J-546369D01*
G01*
G37*
X107227533Y-61960296D03*
G36*
G01*
X105980524Y-149525830D02*
X105980524Y-149525830D01*
G75*
G02*
X106085293Y-150723337I-546369J-651138D01*
G01*
X106085293Y-150723337D01*
G75*
G02*
X104887786Y-150828106I-651138J546369D01*
G01*
X104887786Y-150828106D01*
G75*
G02*
X104783017Y-149630599I546369J651138D01*
G01*
X104783017Y-149630599D01*
G75*
G02*
X105980524Y-149525830I651138J-546369D01*
G01*
G37*
G36*
G01*
X107613205Y-147580077D02*
X107613205Y-147580077D01*
G75*
G02*
X107717974Y-148777584I-546369J-651138D01*
G01*
X107717974Y-148777584D01*
G75*
G02*
X106520467Y-148882353I-651138J546369D01*
G01*
X106520467Y-148882353D01*
G75*
G02*
X106415698Y-147684846I546369J651138D01*
G01*
X106415698Y-147684846D01*
G75*
G02*
X107613205Y-147580077I651138J-546369D01*
G01*
G37*
G36*
G01*
X107926277Y-151158511D02*
X107926277Y-151158511D01*
G75*
G02*
X108031046Y-152356018I-546369J-651138D01*
G01*
X108031046Y-152356018D01*
G75*
G02*
X106833539Y-152460787I-651138J546369D01*
G01*
X106833539Y-152460787D01*
G75*
G02*
X106728770Y-151263280I546369J651138D01*
G01*
X106728770Y-151263280D01*
G75*
G02*
X107926277Y-151158511I651138J-546369D01*
G01*
G37*
X109012589Y-149863896D03*
G36*
G01*
X123562419Y-160186041D02*
X123562419Y-160186041D01*
G75*
G02*
X124070441Y-161275497I-290717J-798739D01*
G01*
X124070441Y-161275497D01*
G75*
G02*
X122980985Y-161783519I-798739J290717D01*
G01*
X122980985Y-161783519D01*
G75*
G02*
X122472963Y-160694063I290717J798739D01*
G01*
X122472963Y-160694063D01*
G75*
G02*
X123562419Y-160186041I798739J-290717D01*
G01*
G37*
G36*
G01*
X124431150Y-157799222D02*
X124431150Y-157799222D01*
G75*
G02*
X124939172Y-158888678I-290717J-798739D01*
G01*
X124939172Y-158888678D01*
G75*
G02*
X123849716Y-159396700I-798739J290717D01*
G01*
X123849716Y-159396700D01*
G75*
G02*
X123341694Y-158307244I290717J798739D01*
G01*
X123341694Y-158307244D01*
G75*
G02*
X124431150Y-157799222I798739J-290717D01*
G01*
G37*
G36*
G01*
X125949238Y-161054772D02*
X125949238Y-161054772D01*
G75*
G02*
X126457260Y-162144228I-290717J-798739D01*
G01*
X126457260Y-162144228D01*
G75*
G02*
X125367804Y-162652250I-798739J290717D01*
G01*
X125367804Y-162652250D01*
G75*
G02*
X124859782Y-161562794I290717J798739D01*
G01*
X124859782Y-161562794D01*
G75*
G02*
X125949238Y-161054772I798739J-290717D01*
G01*
G37*
X126527252Y-159466692D03*
G36*
G01*
X86488698Y-114027530D02*
X86488698Y-114027530D01*
G75*
G02*
X85799212Y-115012218I-837087J-147601D01*
G01*
X85799212Y-115012218D01*
G75*
G02*
X84814524Y-114322732I-147601J837087D01*
G01*
X84814524Y-114322732D01*
G75*
G02*
X85504010Y-113338044I837087J147601D01*
G01*
X85504010Y-113338044D01*
G75*
G02*
X86488698Y-114027530I147601J-837087D01*
G01*
G37*
G36*
G01*
X88990110Y-113586464D02*
X88990110Y-113586464D01*
G75*
G02*
X88300624Y-114571152I-837087J-147601D01*
G01*
X88300624Y-114571152D01*
G75*
G02*
X87315936Y-113881666I-147601J837087D01*
G01*
X87315936Y-113881666D01*
G75*
G02*
X88005422Y-112896978I837087J147601D01*
G01*
X88005422Y-112896978D01*
G75*
G02*
X88990110Y-113586464I147601J-837087D01*
G01*
G37*
G36*
G01*
X86929764Y-116528942D02*
X86929764Y-116528942D01*
G75*
G02*
X86240278Y-117513630I-837087J-147601D01*
G01*
X86240278Y-117513630D01*
G75*
G02*
X85255590Y-116824144I-147601J837087D01*
G01*
X85255590Y-116824144D01*
G75*
G02*
X85945076Y-115839456I837087J147601D01*
G01*
X85945076Y-115839456D01*
G75*
G02*
X86929764Y-116528942I147601J-837087D01*
G01*
G37*
X88594089Y-116235477D03*
G36*
G01*
X93104957Y-133495148D02*
X93104957Y-133495148D01*
G75*
G02*
X92793835Y-134656270I-736122J-425000D01*
G01*
X92793835Y-134656270D01*
G75*
G02*
X91632713Y-134345148I-425000J736122D01*
G01*
X91632713Y-134345148D01*
G75*
G02*
X91943835Y-133184026I736122J425000D01*
G01*
X91943835Y-133184026D01*
G75*
G02*
X93104957Y-133495148I425000J-736122D01*
G01*
G37*
G36*
G01*
X95304661Y-132225148D02*
X95304661Y-132225148D01*
G75*
G02*
X94993539Y-133386270I-736122J-425000D01*
G01*
X94993539Y-133386270D01*
G75*
G02*
X93832417Y-133075148I-425000J736122D01*
G01*
X93832417Y-133075148D01*
G75*
G02*
X94143539Y-131914026I736122J425000D01*
G01*
X94143539Y-131914026D01*
G75*
G02*
X95304661Y-132225148I425000J-736122D01*
G01*
G37*
G36*
G01*
X94374957Y-135694852D02*
X94374957Y-135694852D01*
G75*
G02*
X94063835Y-136855974I-736122J-425000D01*
G01*
X94063835Y-136855974D01*
G75*
G02*
X92902713Y-136544852I-425000J736122D01*
G01*
X92902713Y-136544852D01*
G75*
G02*
X93213835Y-135383730I736122J425000D01*
G01*
X93213835Y-135383730D01*
G75*
G02*
X94374957Y-135694852I425000J-736122D01*
G01*
G37*
X95838539Y-134849852D03*
G36*
G01*
X94374957Y-74305148D02*
X94374957Y-74305148D01*
G75*
G02*
X93213835Y-74616270I-736122J425000D01*
G01*
X93213835Y-74616270D01*
G75*
G02*
X92902713Y-73455148I425000J736122D01*
G01*
X92902713Y-73455148D01*
G75*
G02*
X94063835Y-73144026I736122J-425000D01*
G01*
X94063835Y-73144026D01*
G75*
G02*
X94374957Y-74305148I-425000J-736122D01*
G01*
G37*
G36*
G01*
X96574661Y-75575148D02*
X96574661Y-75575148D01*
G75*
G02*
X95413539Y-75886270I-736122J425000D01*
G01*
X95413539Y-75886270D01*
G75*
G02*
X95102417Y-74725148I425000J736122D01*
G01*
X95102417Y-74725148D01*
G75*
G02*
X96263539Y-74414026I736122J-425000D01*
G01*
X96263539Y-74414026D01*
G75*
G02*
X96574661Y-75575148I-425000J-736122D01*
G01*
G37*
G36*
G01*
X93104957Y-76504852D02*
X93104957Y-76504852D01*
G75*
G02*
X91943835Y-76815974I-736122J425000D01*
G01*
X91943835Y-76815974D01*
G75*
G02*
X91632713Y-75654852I425000J736122D01*
G01*
X91632713Y-75654852D01*
G75*
G02*
X92793835Y-75343730I736122J-425000D01*
G01*
X92793835Y-75343730D01*
G75*
G02*
X93104957Y-76504852I-425000J-736122D01*
G01*
G37*
X94568539Y-77349852D03*
D19*
X140625000Y-108695000D03*
X141875000Y-108695000D03*
X143125000Y-108695000D03*
X144375000Y-108695000D03*
X145625000Y-108695000D03*
X146875000Y-108695000D03*
X148125000Y-108695000D03*
X149375000Y-108695000D03*
X140625000Y-101305000D03*
X141875000Y-101305000D03*
X143125000Y-101305000D03*
X144375000Y-101305000D03*
X145625000Y-101305000D03*
X146875000Y-101305000D03*
X148125000Y-101305000D03*
X149375000Y-101305000D03*
D20*
X151575000Y-103645000D03*
X138425000Y-103645000D03*
D21*
X152735748Y-73222622D03*
X149143646Y-76814724D03*
X145551543Y-80406827D03*
D22*
G36*
X156327851Y-67792041D02*
G01*
X158166329Y-69630519D01*
X156327851Y-71468997D01*
X154489373Y-69630519D01*
X156327851Y-67792041D01*
G37*
G36*
X125752554Y-111632660D02*
G01*
X127591032Y-109794182D01*
X129429510Y-111632660D01*
X127591032Y-113471138D01*
X125752554Y-111632660D01*
G37*
D21*
X138367340Y-122408968D03*
X134775237Y-118816865D03*
X131183135Y-115224763D03*
X134775236Y-91183134D03*
X131183134Y-94775236D03*
X127591031Y-98367339D03*
D22*
G36*
X138367339Y-85752553D02*
G01*
X140205817Y-87591031D01*
X138367339Y-89429509D01*
X136528861Y-87591031D01*
X138367339Y-85752553D01*
G37*
D23*
X131154543Y-59533457D03*
X126380905Y-61270919D03*
X124643443Y-56497281D03*
X129417081Y-54759819D03*
D24*
X127898993Y-58015369D03*
D23*
X116599749Y-67202361D03*
X112708244Y-70467722D03*
X109442883Y-66576217D03*
X113334388Y-63310856D03*
D24*
X113021316Y-66889289D03*
D23*
X112547548Y-139723789D03*
X116439053Y-142989150D03*
X113173692Y-146880655D03*
X109282187Y-143615294D03*
D24*
X112860620Y-143302222D03*
D23*
X126380905Y-148729080D03*
X131154543Y-150466542D03*
X129417081Y-155240180D03*
X124643443Y-153502718D03*
D24*
X127898993Y-151984630D03*
D23*
X97819957Y-110739931D03*
X98702090Y-115742754D03*
X93699267Y-116624887D03*
X92817134Y-111622064D03*
D24*
X95759612Y-113682409D03*
D23*
X102628435Y-126530295D03*
X105168435Y-130929705D03*
X100769025Y-133469705D03*
X98229025Y-129070295D03*
D24*
X101698730Y-130000000D03*
X101698730Y-79999999D03*
D23*
X100769025Y-76530294D03*
X98229025Y-80929704D03*
X102628435Y-83469704D03*
X105168435Y-79070294D03*
D24*
X95759612Y-96317591D03*
D23*
X93699267Y-93375113D03*
X92817134Y-98377936D03*
X97819957Y-99260069D03*
X98702090Y-94257246D03*
D13*
X95339279Y-59171984D03*
X93706598Y-61117737D03*
X92073917Y-63063490D03*
X90441237Y-65009243D03*
X94209866Y-56566427D03*
X92577185Y-58512180D03*
X90944505Y-60457933D03*
X89311824Y-62403686D03*
D14*
X83672083Y-63819850D03*
X93795988Y-51754650D03*
D15*
X82800673Y-60268970D03*
X90147736Y-51513082D03*
D21*
X149143647Y-133185275D03*
X152735749Y-136777377D03*
X156327852Y-140369480D03*
D22*
G36*
X143713066Y-129593172D02*
G01*
X145551544Y-127754694D01*
X147390022Y-129593172D01*
X145551544Y-131431650D01*
X143713066Y-129593172D01*
G37*
D16*
X124458548Y-94145910D03*
X123044334Y-92731697D03*
X133085250Y-83397887D03*
X134499464Y-84812101D03*
X134145910Y-125541452D03*
X132731697Y-126955666D03*
X123397887Y-116914750D03*
X124812101Y-115500536D03*
X165541452Y-115854090D03*
X166955666Y-117268303D03*
X156914750Y-126602113D03*
X155500536Y-125187899D03*
M02*
