G04 #@! TF.GenerationSoftware,KiCad,Pcbnew,(5.1.8-0-10_14)*
G04 #@! TF.CreationDate,2021-01-01T16:59:03+01:00*
G04 #@! TF.ProjectId,DreamCrusher-breakout-external,44726561-6d43-4727-9573-6865722d6272,A*
G04 #@! TF.SameCoordinates,Original*
G04 #@! TF.FileFunction,Copper,L2,Inr*
G04 #@! TF.FilePolarity,Positive*
%FSLAX46Y46*%
G04 Gerber Fmt 4.6, Leading zero omitted, Abs format (unit mm)*
G04 Created by KiCad (PCBNEW (5.1.8-0-10_14)) date 2021-01-01 16:59:03*
%MOMM*%
%LPD*%
G01*
G04 APERTURE LIST*
G04 #@! TA.AperFunction,ComponentPad*
%ADD10C,1.700000*%
G04 #@! TD*
G04 #@! TA.AperFunction,ComponentPad*
%ADD11C,2.900000*%
G04 #@! TD*
G04 #@! TA.AperFunction,ComponentPad*
%ADD12C,1.200000*%
G04 #@! TD*
G04 #@! TA.AperFunction,ComponentPad*
%ADD13C,2.600000*%
G04 #@! TD*
G04 #@! TA.AperFunction,ComponentPad*
%ADD14C,0.100000*%
G04 #@! TD*
G04 #@! TA.AperFunction,ComponentPad*
%ADD15C,2.250000*%
G04 #@! TD*
G04 #@! TA.AperFunction,ComponentPad*
%ADD16C,2.050000*%
G04 #@! TD*
G04 #@! TA.AperFunction,ViaPad*
%ADD17C,0.400000*%
G04 #@! TD*
G04 #@! TA.AperFunction,ViaPad*
%ADD18C,0.800000*%
G04 #@! TD*
G04 #@! TA.AperFunction,Conductor*
%ADD19C,1.500000*%
G04 #@! TD*
G04 #@! TA.AperFunction,Conductor*
%ADD20C,0.254000*%
G04 #@! TD*
G04 #@! TA.AperFunction,Conductor*
%ADD21C,0.100000*%
G04 #@! TD*
G04 #@! TA.AperFunction,Conductor*
%ADD22C,0.250000*%
G04 #@! TD*
G04 APERTURE END LIST*
D10*
X91244721Y-145948312D03*
X92877402Y-147894065D03*
X94510083Y-149839818D03*
X96142763Y-151785571D03*
X88482628Y-146608117D03*
X90115309Y-148553869D03*
X91747989Y-150499622D03*
X93380670Y-152445375D03*
D11*
X93795988Y-158245350D03*
X83672083Y-146180150D03*
D12*
X155854090Y-84458548D03*
X157268303Y-83044334D03*
X166602113Y-93085250D03*
X165187899Y-94499464D03*
D11*
X124767767Y-132767767D03*
X121232233Y-129232233D03*
X125750000Y-125750000D03*
X128224874Y-128224874D03*
X123275126Y-123275126D03*
X124267767Y-84732233D03*
X120732233Y-88267767D03*
G04 #@! TA.AperFunction,ComponentPad*
G36*
G01*
X86929764Y-93471058D02*
X86929764Y-93471058D01*
G75*
G02*
X85945076Y-94160544I-837087J147601D01*
G01*
X85945076Y-94160544D01*
G75*
G02*
X85255590Y-93175856I147601J837087D01*
G01*
X85255590Y-93175856D01*
G75*
G02*
X86240278Y-92486370I837087J-147601D01*
G01*
X86240278Y-92486370D01*
G75*
G02*
X86929764Y-93471058I-147601J-837087D01*
G01*
G37*
G04 #@! TD.AperFunction*
G04 #@! TA.AperFunction,ComponentPad*
G36*
G01*
X89431176Y-93912124D02*
X89431176Y-93912124D01*
G75*
G02*
X88446488Y-94601610I-837087J147601D01*
G01*
X88446488Y-94601610D01*
G75*
G02*
X87757002Y-93616922I147601J837087D01*
G01*
X87757002Y-93616922D01*
G75*
G02*
X88741690Y-92927436I837087J-147601D01*
G01*
X88741690Y-92927436D01*
G75*
G02*
X89431176Y-93912124I-147601J-837087D01*
G01*
G37*
G04 #@! TD.AperFunction*
G04 #@! TA.AperFunction,ComponentPad*
G36*
G01*
X86488698Y-95972470D02*
X86488698Y-95972470D01*
G75*
G02*
X85504010Y-96661956I-837087J147601D01*
G01*
X85504010Y-96661956D01*
G75*
G02*
X84814524Y-95677268I147601J837087D01*
G01*
X84814524Y-95677268D01*
G75*
G02*
X85799212Y-94987782I837087J-147601D01*
G01*
X85799212Y-94987782D01*
G75*
G02*
X86488698Y-95972470I-147601J-837087D01*
G01*
G37*
G04 #@! TD.AperFunction*
D10*
X88153023Y-96265935D03*
G04 #@! TA.AperFunction,ComponentPad*
G36*
G01*
X125949238Y-48945228D02*
X125949238Y-48945228D01*
G75*
G02*
X124859782Y-48437206I-290717J798739D01*
G01*
X124859782Y-48437206D01*
G75*
G02*
X125367804Y-47347750I798739J290717D01*
G01*
X125367804Y-47347750D01*
G75*
G02*
X126457260Y-47855772I290717J-798739D01*
G01*
X126457260Y-47855772D01*
G75*
G02*
X125949238Y-48945228I-798739J-290717D01*
G01*
G37*
G04 #@! TD.AperFunction*
G04 #@! TA.AperFunction,ComponentPad*
G36*
G01*
X126817969Y-51332047D02*
X126817969Y-51332047D01*
G75*
G02*
X125728513Y-50824025I-290717J798739D01*
G01*
X125728513Y-50824025D01*
G75*
G02*
X126236535Y-49734569I798739J290717D01*
G01*
X126236535Y-49734569D01*
G75*
G02*
X127325991Y-50242591I290717J-798739D01*
G01*
X127325991Y-50242591D01*
G75*
G02*
X126817969Y-51332047I-798739J-290717D01*
G01*
G37*
G04 #@! TD.AperFunction*
G04 #@! TA.AperFunction,ComponentPad*
G36*
G01*
X123562419Y-49813959D02*
X123562419Y-49813959D01*
G75*
G02*
X122472963Y-49305937I-290717J798739D01*
G01*
X122472963Y-49305937D01*
G75*
G02*
X122980985Y-48216481I798739J290717D01*
G01*
X122980985Y-48216481D01*
G75*
G02*
X124070441Y-48724503I290717J-798739D01*
G01*
X124070441Y-48724503D01*
G75*
G02*
X123562419Y-49813959I-798739J-290717D01*
G01*
G37*
G04 #@! TD.AperFunction*
X124140433Y-51402039D03*
G04 #@! TA.AperFunction,ComponentPad*
G36*
G01*
X108086974Y-59033000D02*
X108086974Y-59033000D01*
G75*
G02*
X106889467Y-58928231I-546369J651138D01*
G01*
X106889467Y-58928231D01*
G75*
G02*
X106994236Y-57730724I651138J546369D01*
G01*
X106994236Y-57730724D01*
G75*
G02*
X108191743Y-57835493I546369J-651138D01*
G01*
X108191743Y-57835493D01*
G75*
G02*
X108086974Y-59033000I-651138J-546369D01*
G01*
G37*
G04 #@! TD.AperFunction*
G04 #@! TA.AperFunction,ComponentPad*
G36*
G01*
X109719655Y-60978753D02*
X109719655Y-60978753D01*
G75*
G02*
X108522148Y-60873984I-546369J651138D01*
G01*
X108522148Y-60873984D01*
G75*
G02*
X108626917Y-59676477I651138J546369D01*
G01*
X108626917Y-59676477D01*
G75*
G02*
X109824424Y-59781246I546369J-651138D01*
G01*
X109824424Y-59781246D01*
G75*
G02*
X109719655Y-60978753I-651138J-546369D01*
G01*
G37*
G04 #@! TD.AperFunction*
G04 #@! TA.AperFunction,ComponentPad*
G36*
G01*
X106141221Y-60665681D02*
X106141221Y-60665681D01*
G75*
G02*
X104943714Y-60560912I-546369J651138D01*
G01*
X104943714Y-60560912D01*
G75*
G02*
X105048483Y-59363405I651138J546369D01*
G01*
X105048483Y-59363405D01*
G75*
G02*
X106245990Y-59468174I546369J-651138D01*
G01*
X106245990Y-59468174D01*
G75*
G02*
X106141221Y-60665681I-651138J-546369D01*
G01*
G37*
G04 #@! TD.AperFunction*
X107227533Y-61960296D03*
G04 #@! TA.AperFunction,ComponentPad*
G36*
G01*
X105980524Y-149525830D02*
X105980524Y-149525830D01*
G75*
G02*
X106085293Y-150723337I-546369J-651138D01*
G01*
X106085293Y-150723337D01*
G75*
G02*
X104887786Y-150828106I-651138J546369D01*
G01*
X104887786Y-150828106D01*
G75*
G02*
X104783017Y-149630599I546369J651138D01*
G01*
X104783017Y-149630599D01*
G75*
G02*
X105980524Y-149525830I651138J-546369D01*
G01*
G37*
G04 #@! TD.AperFunction*
G04 #@! TA.AperFunction,ComponentPad*
G36*
G01*
X107613205Y-147580077D02*
X107613205Y-147580077D01*
G75*
G02*
X107717974Y-148777584I-546369J-651138D01*
G01*
X107717974Y-148777584D01*
G75*
G02*
X106520467Y-148882353I-651138J546369D01*
G01*
X106520467Y-148882353D01*
G75*
G02*
X106415698Y-147684846I546369J651138D01*
G01*
X106415698Y-147684846D01*
G75*
G02*
X107613205Y-147580077I651138J-546369D01*
G01*
G37*
G04 #@! TD.AperFunction*
G04 #@! TA.AperFunction,ComponentPad*
G36*
G01*
X107926277Y-151158511D02*
X107926277Y-151158511D01*
G75*
G02*
X108031046Y-152356018I-546369J-651138D01*
G01*
X108031046Y-152356018D01*
G75*
G02*
X106833539Y-152460787I-651138J546369D01*
G01*
X106833539Y-152460787D01*
G75*
G02*
X106728770Y-151263280I546369J651138D01*
G01*
X106728770Y-151263280D01*
G75*
G02*
X107926277Y-151158511I651138J-546369D01*
G01*
G37*
G04 #@! TD.AperFunction*
X109012589Y-149863896D03*
G04 #@! TA.AperFunction,ComponentPad*
G36*
G01*
X123562419Y-160186041D02*
X123562419Y-160186041D01*
G75*
G02*
X124070441Y-161275497I-290717J-798739D01*
G01*
X124070441Y-161275497D01*
G75*
G02*
X122980985Y-161783519I-798739J290717D01*
G01*
X122980985Y-161783519D01*
G75*
G02*
X122472963Y-160694063I290717J798739D01*
G01*
X122472963Y-160694063D01*
G75*
G02*
X123562419Y-160186041I798739J-290717D01*
G01*
G37*
G04 #@! TD.AperFunction*
G04 #@! TA.AperFunction,ComponentPad*
G36*
G01*
X124431150Y-157799222D02*
X124431150Y-157799222D01*
G75*
G02*
X124939172Y-158888678I-290717J-798739D01*
G01*
X124939172Y-158888678D01*
G75*
G02*
X123849716Y-159396700I-798739J290717D01*
G01*
X123849716Y-159396700D01*
G75*
G02*
X123341694Y-158307244I290717J798739D01*
G01*
X123341694Y-158307244D01*
G75*
G02*
X124431150Y-157799222I798739J-290717D01*
G01*
G37*
G04 #@! TD.AperFunction*
G04 #@! TA.AperFunction,ComponentPad*
G36*
G01*
X125949238Y-161054772D02*
X125949238Y-161054772D01*
G75*
G02*
X126457260Y-162144228I-290717J-798739D01*
G01*
X126457260Y-162144228D01*
G75*
G02*
X125367804Y-162652250I-798739J290717D01*
G01*
X125367804Y-162652250D01*
G75*
G02*
X124859782Y-161562794I290717J798739D01*
G01*
X124859782Y-161562794D01*
G75*
G02*
X125949238Y-161054772I798739J-290717D01*
G01*
G37*
G04 #@! TD.AperFunction*
X126527252Y-159466692D03*
G04 #@! TA.AperFunction,ComponentPad*
G36*
G01*
X86488698Y-114027530D02*
X86488698Y-114027530D01*
G75*
G02*
X85799212Y-115012218I-837087J-147601D01*
G01*
X85799212Y-115012218D01*
G75*
G02*
X84814524Y-114322732I-147601J837087D01*
G01*
X84814524Y-114322732D01*
G75*
G02*
X85504010Y-113338044I837087J147601D01*
G01*
X85504010Y-113338044D01*
G75*
G02*
X86488698Y-114027530I147601J-837087D01*
G01*
G37*
G04 #@! TD.AperFunction*
G04 #@! TA.AperFunction,ComponentPad*
G36*
G01*
X88990110Y-113586464D02*
X88990110Y-113586464D01*
G75*
G02*
X88300624Y-114571152I-837087J-147601D01*
G01*
X88300624Y-114571152D01*
G75*
G02*
X87315936Y-113881666I-147601J837087D01*
G01*
X87315936Y-113881666D01*
G75*
G02*
X88005422Y-112896978I837087J147601D01*
G01*
X88005422Y-112896978D01*
G75*
G02*
X88990110Y-113586464I147601J-837087D01*
G01*
G37*
G04 #@! TD.AperFunction*
G04 #@! TA.AperFunction,ComponentPad*
G36*
G01*
X86929764Y-116528942D02*
X86929764Y-116528942D01*
G75*
G02*
X86240278Y-117513630I-837087J-147601D01*
G01*
X86240278Y-117513630D01*
G75*
G02*
X85255590Y-116824144I-147601J837087D01*
G01*
X85255590Y-116824144D01*
G75*
G02*
X85945076Y-115839456I837087J147601D01*
G01*
X85945076Y-115839456D01*
G75*
G02*
X86929764Y-116528942I147601J-837087D01*
G01*
G37*
G04 #@! TD.AperFunction*
X88594089Y-116235477D03*
G04 #@! TA.AperFunction,ComponentPad*
G36*
G01*
X93104957Y-133495148D02*
X93104957Y-133495148D01*
G75*
G02*
X92793835Y-134656270I-736122J-425000D01*
G01*
X92793835Y-134656270D01*
G75*
G02*
X91632713Y-134345148I-425000J736122D01*
G01*
X91632713Y-134345148D01*
G75*
G02*
X91943835Y-133184026I736122J425000D01*
G01*
X91943835Y-133184026D01*
G75*
G02*
X93104957Y-133495148I425000J-736122D01*
G01*
G37*
G04 #@! TD.AperFunction*
G04 #@! TA.AperFunction,ComponentPad*
G36*
G01*
X95304661Y-132225148D02*
X95304661Y-132225148D01*
G75*
G02*
X94993539Y-133386270I-736122J-425000D01*
G01*
X94993539Y-133386270D01*
G75*
G02*
X93832417Y-133075148I-425000J736122D01*
G01*
X93832417Y-133075148D01*
G75*
G02*
X94143539Y-131914026I736122J425000D01*
G01*
X94143539Y-131914026D01*
G75*
G02*
X95304661Y-132225148I425000J-736122D01*
G01*
G37*
G04 #@! TD.AperFunction*
G04 #@! TA.AperFunction,ComponentPad*
G36*
G01*
X94374957Y-135694852D02*
X94374957Y-135694852D01*
G75*
G02*
X94063835Y-136855974I-736122J-425000D01*
G01*
X94063835Y-136855974D01*
G75*
G02*
X92902713Y-136544852I-425000J736122D01*
G01*
X92902713Y-136544852D01*
G75*
G02*
X93213835Y-135383730I736122J425000D01*
G01*
X93213835Y-135383730D01*
G75*
G02*
X94374957Y-135694852I425000J-736122D01*
G01*
G37*
G04 #@! TD.AperFunction*
X95838539Y-134849852D03*
G04 #@! TA.AperFunction,ComponentPad*
G36*
G01*
X94374957Y-74305148D02*
X94374957Y-74305148D01*
G75*
G02*
X93213835Y-74616270I-736122J425000D01*
G01*
X93213835Y-74616270D01*
G75*
G02*
X92902713Y-73455148I425000J736122D01*
G01*
X92902713Y-73455148D01*
G75*
G02*
X94063835Y-73144026I736122J-425000D01*
G01*
X94063835Y-73144026D01*
G75*
G02*
X94374957Y-74305148I-425000J-736122D01*
G01*
G37*
G04 #@! TD.AperFunction*
G04 #@! TA.AperFunction,ComponentPad*
G36*
G01*
X96574661Y-75575148D02*
X96574661Y-75575148D01*
G75*
G02*
X95413539Y-75886270I-736122J425000D01*
G01*
X95413539Y-75886270D01*
G75*
G02*
X95102417Y-74725148I425000J736122D01*
G01*
X95102417Y-74725148D01*
G75*
G02*
X96263539Y-74414026I736122J-425000D01*
G01*
X96263539Y-74414026D01*
G75*
G02*
X96574661Y-75575148I-425000J-736122D01*
G01*
G37*
G04 #@! TD.AperFunction*
G04 #@! TA.AperFunction,ComponentPad*
G36*
G01*
X93104957Y-76504852D02*
X93104957Y-76504852D01*
G75*
G02*
X91943835Y-76815974I-736122J425000D01*
G01*
X91943835Y-76815974D01*
G75*
G02*
X91632713Y-75654852I425000J736122D01*
G01*
X91632713Y-75654852D01*
G75*
G02*
X92793835Y-75343730I736122J-425000D01*
G01*
X92793835Y-75343730D01*
G75*
G02*
X93104957Y-76504852I-425000J-736122D01*
G01*
G37*
G04 #@! TD.AperFunction*
X94568539Y-77349852D03*
D13*
X152735748Y-73222622D03*
X149143646Y-76814724D03*
X145551543Y-80406827D03*
G04 #@! TA.AperFunction,ComponentPad*
D14*
G36*
X156327851Y-67792041D02*
G01*
X158166329Y-69630519D01*
X156327851Y-71468997D01*
X154489373Y-69630519D01*
X156327851Y-67792041D01*
G37*
G04 #@! TD.AperFunction*
G04 #@! TA.AperFunction,ComponentPad*
G36*
X125752554Y-111632660D02*
G01*
X127591032Y-109794182D01*
X129429510Y-111632660D01*
X127591032Y-113471138D01*
X125752554Y-111632660D01*
G37*
G04 #@! TD.AperFunction*
D13*
X138367340Y-122408968D03*
X134775237Y-118816865D03*
X131183135Y-115224763D03*
X134775236Y-91183134D03*
X131183134Y-94775236D03*
X127591031Y-98367339D03*
G04 #@! TA.AperFunction,ComponentPad*
D14*
G36*
X138367339Y-85752553D02*
G01*
X140205817Y-87591031D01*
X138367339Y-89429509D01*
X136528861Y-87591031D01*
X138367339Y-85752553D01*
G37*
G04 #@! TD.AperFunction*
D15*
X131154543Y-59533457D03*
X126380905Y-61270919D03*
X124643443Y-56497281D03*
X129417081Y-54759819D03*
D16*
X127898993Y-58015369D03*
D15*
X116599749Y-67202361D03*
X112708244Y-70467722D03*
X109442883Y-66576217D03*
X113334388Y-63310856D03*
D16*
X113021316Y-66889289D03*
D15*
X112547548Y-139723789D03*
X116439053Y-142989150D03*
X113173692Y-146880655D03*
X109282187Y-143615294D03*
D16*
X112860620Y-143302222D03*
D15*
X126380905Y-148729080D03*
X131154543Y-150466542D03*
X129417081Y-155240180D03*
X124643443Y-153502718D03*
D16*
X127898993Y-151984630D03*
D15*
X97819957Y-110739931D03*
X98702090Y-115742754D03*
X93699267Y-116624887D03*
X92817134Y-111622064D03*
D16*
X95759612Y-113682409D03*
D15*
X102628435Y-126530295D03*
X105168435Y-130929705D03*
X100769025Y-133469705D03*
X98229025Y-129070295D03*
D16*
X101698730Y-130000000D03*
X101698730Y-79999999D03*
D15*
X100769025Y-76530294D03*
X98229025Y-80929704D03*
X102628435Y-83469704D03*
X105168435Y-79070294D03*
D16*
X95759612Y-96317591D03*
D15*
X93699267Y-93375113D03*
X92817134Y-98377936D03*
X97819957Y-99260069D03*
X98702090Y-94257246D03*
D10*
X95339279Y-59171984D03*
X93706598Y-61117737D03*
X92073917Y-63063490D03*
X90441237Y-65009243D03*
X94209866Y-56566427D03*
X92577185Y-58512180D03*
X90944505Y-60457933D03*
X89311824Y-62403686D03*
D11*
X83672083Y-63819850D03*
X93795988Y-51754650D03*
D13*
X149143647Y-133185275D03*
X152735749Y-136777377D03*
X156327852Y-140369480D03*
G04 #@! TA.AperFunction,ComponentPad*
D14*
G36*
X143713066Y-129593172D02*
G01*
X145551544Y-127754694D01*
X147390022Y-129593172D01*
X145551544Y-131431650D01*
X143713066Y-129593172D01*
G37*
G04 #@! TD.AperFunction*
D12*
X124458548Y-94145910D03*
X123044334Y-92731697D03*
X133085250Y-83397887D03*
X134499464Y-84812101D03*
X134145910Y-125541452D03*
X132731697Y-126955666D03*
X123397887Y-116914750D03*
X124812101Y-115500536D03*
X165541452Y-115854090D03*
X166955666Y-117268303D03*
X156914750Y-126602113D03*
X155500536Y-125187899D03*
D17*
X129372939Y-119778533D03*
X128807253Y-119212847D03*
X129726492Y-119424980D03*
X127958727Y-121192745D03*
X127746594Y-120273506D03*
X128029437Y-120556349D03*
X127605174Y-121546298D03*
X128665833Y-120485639D03*
X128736543Y-119849243D03*
X127393041Y-120627058D03*
X129090096Y-119495690D03*
X128100147Y-119919953D03*
X127675885Y-120909902D03*
X128453700Y-119566400D03*
X127039488Y-120980612D03*
X127322331Y-121263455D03*
X128312280Y-120839192D03*
X129443649Y-119142137D03*
X129019386Y-120132086D03*
X128382990Y-120202797D03*
X129160806Y-118859294D03*
X130150757Y-121263457D03*
X129019388Y-122960512D03*
X130080047Y-121899853D03*
X130221467Y-120627061D03*
X130787153Y-121192747D03*
X131140706Y-120839194D03*
X129372942Y-122606959D03*
X129443651Y-121970563D03*
X129160808Y-121687720D03*
X130857863Y-120556351D03*
X129726494Y-122253406D03*
X129797203Y-121617010D03*
X128736545Y-122677669D03*
X130433600Y-121546300D03*
X130575020Y-120273508D03*
X129090098Y-122324115D03*
X128453702Y-122394826D03*
X129867914Y-120980614D03*
X129514361Y-121334167D03*
X128807255Y-122041273D03*
X130504310Y-120909904D03*
X130221467Y-89372939D03*
X130787153Y-88807253D03*
X130575020Y-89726492D03*
X128807255Y-87958727D03*
X129726494Y-87746594D03*
X129443651Y-88029437D03*
X128453702Y-87605174D03*
X129514361Y-88665833D03*
X130150757Y-88736543D03*
X129372942Y-87393041D03*
X130504310Y-89090096D03*
X130080047Y-88100147D03*
X129090098Y-87675885D03*
X130433600Y-88453700D03*
X129019388Y-87039488D03*
X128736545Y-87322331D03*
X129160808Y-88312280D03*
X130857863Y-89443649D03*
X129867914Y-89019386D03*
X129797203Y-88382990D03*
X131140706Y-89160806D03*
X128736543Y-90150757D03*
X127039488Y-89019388D03*
X128100147Y-90080047D03*
X129372939Y-90221467D03*
X128807253Y-90787153D03*
X129160806Y-91140706D03*
X127393041Y-89372942D03*
X128029437Y-89443651D03*
X128312280Y-89160808D03*
X129443649Y-90857863D03*
X127746594Y-89726494D03*
X128382990Y-89797203D03*
X127322331Y-88736545D03*
X128453700Y-90433600D03*
X129726492Y-90575020D03*
X127675885Y-89090098D03*
X127605174Y-88453702D03*
X129019386Y-89867914D03*
X128665833Y-89514361D03*
X127958727Y-88807255D03*
X129090096Y-90504310D03*
X163384776Y-90857864D03*
X162677670Y-91564970D03*
X163031224Y-91211417D03*
X161263457Y-90150757D03*
X161970563Y-89443651D03*
X161617010Y-89797203D03*
X160556349Y-88029437D03*
X159849243Y-88736543D03*
X160202797Y-88382990D03*
X159142136Y-86615224D03*
X158435030Y-87322330D03*
X158788584Y-86968777D03*
X158435030Y-122677670D03*
X158788584Y-123031223D03*
X159142136Y-123384776D03*
X160556349Y-121970563D03*
X159849243Y-121263457D03*
X160202797Y-121617010D03*
X161263457Y-119849243D03*
X161970563Y-120556349D03*
X161617010Y-120202797D03*
X163031224Y-118788583D03*
X163384776Y-119142136D03*
X162677670Y-118435030D03*
D18*
X88147451Y-153147451D03*
X89052549Y-154052549D03*
X84797451Y-57702549D03*
X85702549Y-56797451D03*
D17*
X161250000Y-94000000D03*
X158500000Y-92500000D03*
X156750000Y-89250000D03*
X152250000Y-96750000D03*
X152250000Y-89250000D03*
X152250000Y-93000000D03*
X147000000Y-71250000D03*
D18*
X145000000Y-105000000D03*
D17*
X139750000Y-69000000D03*
X127500000Y-68750000D03*
X124500000Y-39750000D03*
X134000000Y-49500000D03*
X143250000Y-57750000D03*
X153750000Y-65250000D03*
X159750000Y-72000000D03*
X169500000Y-88250000D03*
X165000000Y-83750000D03*
X161250000Y-78000000D03*
X155750000Y-76750000D03*
X164000000Y-98750000D03*
X163250000Y-110250000D03*
X169500000Y-115750000D03*
X169750000Y-122000000D03*
X165000000Y-126750000D03*
X161000000Y-132250000D03*
X155250000Y-133500000D03*
X152250000Y-131250000D03*
X143750000Y-141750000D03*
X155250000Y-143500000D03*
X159250000Y-139500000D03*
X159750000Y-137750000D03*
X159500000Y-70750000D03*
X148000000Y-150750000D03*
X130500000Y-168000000D03*
X135250000Y-149750000D03*
X129500000Y-162500000D03*
X116000000Y-183000000D03*
X101500000Y-165500000D03*
X108000000Y-158750000D03*
X113750000Y-158250000D03*
X100000000Y-156500000D03*
X98750000Y-144000000D03*
X104750000Y-140750000D03*
X101750000Y-139750000D03*
X96750000Y-148250000D03*
X105500000Y-138000000D03*
X98750000Y-152500000D03*
X100500000Y-169250000D03*
X106000000Y-173500000D03*
X111250000Y-172500000D03*
X106250000Y-168500000D03*
X97250000Y-172750000D03*
X95250000Y-167750000D03*
X96250000Y-160250000D03*
X94500000Y-164000000D03*
X88250000Y-165000000D03*
X92000000Y-167000000D03*
X82250000Y-158000000D03*
X75250000Y-150500000D03*
X86750000Y-157500000D03*
X92250000Y-155250000D03*
X86750000Y-144750000D03*
X78500000Y-136500000D03*
X76750000Y-145750000D03*
X80000000Y-147250000D03*
X80000000Y-142250000D03*
X76750000Y-130750000D03*
X77750000Y-120500000D03*
X76500000Y-113000000D03*
X68750000Y-111250000D03*
X70750000Y-122500000D03*
X72000000Y-131250000D03*
X72500000Y-144750000D03*
X67000000Y-131500000D03*
X69250000Y-125250000D03*
X63250000Y-113250000D03*
X63750000Y-94500000D03*
X71000000Y-81500000D03*
X86250000Y-148500000D03*
X69000000Y-95000000D03*
X73500000Y-77750000D03*
X80500000Y-67500000D03*
X80000000Y-63000000D03*
X83500000Y-73250000D03*
X79750000Y-76000000D03*
X87500000Y-67500000D03*
X104250000Y-70750000D03*
X99500000Y-66500000D03*
X96000000Y-71250000D03*
X99000000Y-73500000D03*
X90750000Y-78750000D03*
X97500000Y-84500000D03*
X96500000Y-91000000D03*
X102500000Y-94000000D03*
X106750000Y-87750000D03*
X119500000Y-81000000D03*
X124250000Y-81000000D03*
X79250000Y-90000000D03*
X85000000Y-90000000D03*
X84000000Y-98000000D03*
X90250000Y-98500000D03*
X83500000Y-110000000D03*
X83250000Y-112750000D03*
X89500000Y-110500000D03*
X95500000Y-109000000D03*
X101750000Y-110750000D03*
X109750000Y-110750000D03*
X116750000Y-118000000D03*
X120250000Y-118000000D03*
X122750000Y-110750000D03*
X130000000Y-109500000D03*
X138500000Y-108000000D03*
X135750000Y-100500000D03*
X128000000Y-102250000D03*
X120250000Y-96250000D03*
X114500000Y-98500000D03*
X117500000Y-87750000D03*
X112250000Y-93000000D03*
X106250000Y-99000000D03*
X101250000Y-101500000D03*
X95250000Y-101000000D03*
X88000000Y-102250000D03*
X110000000Y-104750000D03*
X116000000Y-112250000D03*
X134000000Y-105000000D03*
X99750000Y-107000000D03*
X86250000Y-107000000D03*
X137500000Y-136500000D03*
X120500000Y-136750000D03*
X110000000Y-131500000D03*
X135000000Y-130750000D03*
X143000000Y-122750000D03*
X145000000Y-119000000D03*
X151500000Y-124750000D03*
X153500000Y-109500000D03*
X154000000Y-100500000D03*
X98750000Y-54000000D03*
X98750000Y-36750000D03*
X98750000Y-45000000D03*
X93250000Y-41250000D03*
X83000000Y-51250000D03*
X75500000Y-60000000D03*
X87500000Y-53500000D03*
X88000000Y-47750000D03*
X95000000Y-45250000D03*
X105250000Y-32250000D03*
X116500000Y-27250000D03*
X114000000Y-35750000D03*
X120500000Y-33000000D03*
X120000000Y-63750000D03*
X118500000Y-75250000D03*
X108000000Y-79250000D03*
X103500000Y-75500000D03*
X109500000Y-70000000D03*
X104750000Y-63500000D03*
X123000000Y-53750000D03*
X127250000Y-46000000D03*
X133250000Y-63000000D03*
X147250000Y-62750000D03*
X137250000Y-57250000D03*
X118750000Y-56250000D03*
X128750000Y-75500000D03*
X140000000Y-75500000D03*
X133250000Y-80500000D03*
X142500000Y-82500000D03*
X145250000Y-91250000D03*
X152750000Y-85000000D03*
X147750000Y-82750000D03*
X87750000Y-133000000D03*
X81750000Y-126250000D03*
X91000000Y-118250000D03*
X102750000Y-116750000D03*
X112250000Y-122750000D03*
X119500000Y-123750000D03*
X118250000Y-130750000D03*
X111000000Y-125250000D03*
X105000000Y-124500000D03*
X95750000Y-127500000D03*
X88000000Y-124000000D03*
X106750000Y-120250000D03*
X97500000Y-122000000D03*
X73500000Y-116000000D03*
X104500000Y-50750000D03*
X103250000Y-53750000D03*
X152250000Y-113250000D03*
X152250000Y-117000000D03*
X152250000Y-120750000D03*
X156750000Y-120750000D03*
X158500000Y-117500000D03*
X161250000Y-116000000D03*
X118500000Y-50500000D03*
X114250000Y-49500000D03*
X114750000Y-58250000D03*
X105750000Y-49500000D03*
X103250000Y-37500000D03*
X103000000Y-46000000D03*
X103000000Y-41250000D03*
X74500000Y-97000000D03*
X71250000Y-86000000D03*
X74250000Y-67000000D03*
X65750000Y-81500000D03*
X68500000Y-73000000D03*
X117750000Y-152250000D03*
X116250000Y-148250000D03*
X121250000Y-149250000D03*
X121000000Y-158250000D03*
X121750000Y-154000000D03*
X113000000Y-153000000D03*
X111250000Y-151000000D03*
X106500000Y-144500000D03*
D19*
X92817134Y-111622064D02*
X93699267Y-116624887D01*
X97819958Y-110739931D02*
X98702090Y-115742754D01*
X98229025Y-129070295D02*
X100769025Y-133469705D01*
X102628434Y-126530295D02*
X105168434Y-130929705D01*
X100769025Y-76530295D02*
X98229025Y-80929705D01*
X105168434Y-79070295D02*
X102628434Y-83469705D01*
X93699267Y-93375113D02*
X92817134Y-98377936D01*
X98702090Y-94257246D02*
X97819958Y-99260069D01*
X129417081Y-54759819D02*
X124643442Y-56497281D01*
X131154543Y-59533457D02*
X126380905Y-61270919D01*
X113173692Y-63119344D02*
X109282186Y-66384705D01*
X116439053Y-67010850D02*
X112547547Y-70276211D01*
X109282186Y-143615295D02*
X113173692Y-146880656D01*
X112547547Y-139723789D02*
X116439053Y-142989150D01*
X124643442Y-153502719D02*
X129417081Y-155240181D01*
X126380905Y-148729081D02*
X131154543Y-150466543D01*
D20*
X135588587Y-119663367D02*
X132909659Y-122410735D01*
X131670658Y-123649736D01*
X127295363Y-126353102D01*
X127237256Y-126377171D01*
X127002031Y-126534344D01*
X126533026Y-126824128D01*
X125173923Y-124543753D01*
X127565341Y-123108902D01*
X127589803Y-123089803D01*
X132084836Y-118594771D01*
X132700031Y-118102614D01*
X133056292Y-117865105D01*
X133407659Y-117747984D01*
X134012577Y-117627000D01*
X134668037Y-117627000D01*
X135588587Y-119663367D01*
G04 #@! TA.AperFunction,Conductor*
D21*
G36*
X135588587Y-119663367D02*
G01*
X132909659Y-122410735D01*
X131670658Y-123649736D01*
X127295363Y-126353102D01*
X127237256Y-126377171D01*
X127002031Y-126534344D01*
X126533026Y-126824128D01*
X125173923Y-124543753D01*
X127565341Y-123108902D01*
X127589803Y-123089803D01*
X132084836Y-118594771D01*
X132700031Y-118102614D01*
X133056292Y-117865105D01*
X133407659Y-117747984D01*
X134012577Y-117627000D01*
X134668037Y-117627000D01*
X135588587Y-119663367D01*
G37*
G04 #@! TD.AperFunction*
D20*
X126604060Y-126756334D02*
X123749549Y-129610845D01*
X123379603Y-129951391D01*
X122983494Y-130236565D01*
X122714238Y-130370903D01*
X122371907Y-130465995D01*
X121878877Y-130553000D01*
X121324641Y-130553000D01*
X120362896Y-128246680D01*
X121696303Y-127112573D01*
X123056863Y-126001200D01*
X124136432Y-125240029D01*
X125077660Y-124623052D01*
X126604060Y-126756334D01*
G04 #@! TA.AperFunction,Conductor*
D21*
G36*
X126604060Y-126756334D02*
G01*
X123749549Y-129610845D01*
X123379603Y-129951391D01*
X122983494Y-130236565D01*
X122714238Y-130370903D01*
X122371907Y-130465995D01*
X121878877Y-130553000D01*
X121324641Y-130553000D01*
X120362896Y-128246680D01*
X121696303Y-127112573D01*
X123056863Y-126001200D01*
X124136432Y-125240029D01*
X125077660Y-124623052D01*
X126604060Y-126756334D01*
G37*
G04 #@! TD.AperFunction*
D20*
X131592340Y-86747983D02*
X131943706Y-86865105D01*
X132299969Y-87102614D01*
X132823065Y-87521091D01*
X133630659Y-88328685D01*
X135588587Y-90336633D01*
X134668037Y-92373000D01*
X134012577Y-92373000D01*
X133407660Y-92252017D01*
X133056294Y-92134895D01*
X132700031Y-91897386D01*
X132084836Y-91405230D01*
X128179606Y-87500000D01*
X129052606Y-86627000D01*
X130987424Y-86627000D01*
X131592340Y-86747983D01*
G04 #@! TA.AperFunction,Conductor*
D21*
G36*
X131592340Y-86747983D02*
G01*
X131943706Y-86865105D01*
X132299969Y-87102614D01*
X132823065Y-87521091D01*
X133630659Y-88328685D01*
X135588587Y-90336633D01*
X134668037Y-92373000D01*
X134012577Y-92373000D01*
X133407660Y-92252017D01*
X133056294Y-92134895D01*
X132700031Y-91897386D01*
X132084836Y-91405230D01*
X128179606Y-87500000D01*
X129052606Y-86627000D01*
X130987424Y-86627000D01*
X131592340Y-86747983D01*
G37*
G04 #@! TD.AperFunction*
D20*
X134585583Y-82844696D02*
X135555930Y-83203724D01*
X136532384Y-83936065D01*
X139150552Y-86716543D01*
X138275459Y-88764633D01*
X137856631Y-88772845D01*
X135394161Y-88466390D01*
X134807663Y-88284902D01*
X134282761Y-87903155D01*
X130708236Y-84328630D01*
X130627000Y-84125541D01*
X130627000Y-84015634D01*
X130669827Y-83844326D01*
X130757000Y-83669980D01*
X130993071Y-83386694D01*
X131189424Y-83197906D01*
X131827632Y-82912141D01*
X132604705Y-82737300D01*
X133541188Y-82688525D01*
X134585583Y-82844696D01*
G04 #@! TA.AperFunction,Conductor*
D21*
G36*
X134585583Y-82844696D02*
G01*
X135555930Y-83203724D01*
X136532384Y-83936065D01*
X139150552Y-86716543D01*
X138275459Y-88764633D01*
X137856631Y-88772845D01*
X135394161Y-88466390D01*
X134807663Y-88284902D01*
X134282761Y-87903155D01*
X130708236Y-84328630D01*
X130627000Y-84125541D01*
X130627000Y-84015634D01*
X130669827Y-83844326D01*
X130757000Y-83669980D01*
X130993071Y-83386694D01*
X131189424Y-83197906D01*
X131827632Y-82912141D01*
X132604705Y-82737300D01*
X133541188Y-82688525D01*
X134585583Y-82844696D01*
G37*
G04 #@! TD.AperFunction*
D20*
X126426232Y-86121443D02*
X126430008Y-86128489D01*
X127000008Y-87115989D01*
X127003072Y-87121023D01*
X127623072Y-88088523D01*
X127633710Y-88102809D01*
X128493710Y-89102809D01*
X128496935Y-89106417D01*
X129406935Y-90086417D01*
X129410197Y-90089803D01*
X131405230Y-92084836D01*
X131897386Y-92700031D01*
X132134895Y-93056294D01*
X132252016Y-93407659D01*
X132373000Y-94012577D01*
X132373000Y-94668037D01*
X130337281Y-95588294D01*
X126869353Y-92154751D01*
X125105803Y-90408686D01*
X124278708Y-89535641D01*
X123979374Y-89155059D01*
X123712339Y-88749674D01*
X123502682Y-88258064D01*
X123313927Y-87571681D01*
X123165784Y-86761826D01*
X122968028Y-84906695D01*
X125511534Y-84277755D01*
X126426232Y-86121443D01*
G04 #@! TA.AperFunction,Conductor*
D21*
G36*
X126426232Y-86121443D02*
G01*
X126430008Y-86128489D01*
X127000008Y-87115989D01*
X127003072Y-87121023D01*
X127623072Y-88088523D01*
X127633710Y-88102809D01*
X128493710Y-89102809D01*
X128496935Y-89106417D01*
X129406935Y-90086417D01*
X129410197Y-90089803D01*
X131405230Y-92084836D01*
X131897386Y-92700031D01*
X132134895Y-93056294D01*
X132252016Y-93407659D01*
X132373000Y-94012577D01*
X132373000Y-94668037D01*
X130337281Y-95588294D01*
X126869353Y-92154751D01*
X125105803Y-90408686D01*
X124278708Y-89535641D01*
X123979374Y-89155059D01*
X123712339Y-88749674D01*
X123502682Y-88258064D01*
X123313927Y-87571681D01*
X123165784Y-86761826D01*
X122968028Y-84906695D01*
X125511534Y-84277755D01*
X126426232Y-86121443D01*
G37*
G04 #@! TD.AperFunction*
D20*
X121441619Y-87059924D02*
X121719770Y-87239376D01*
X121982071Y-87501677D01*
X122531886Y-88296945D01*
X123118786Y-89361323D01*
X123130361Y-89378747D01*
X123620361Y-89998747D01*
X123630197Y-90009803D01*
X128183007Y-94562613D01*
X128375467Y-95524907D01*
X128382084Y-95547167D01*
X129372999Y-98024460D01*
X129373000Y-98447394D01*
X127500000Y-100320394D01*
X119957370Y-92777764D01*
X119748107Y-92482894D01*
X119617017Y-92239440D01*
X119522823Y-91956858D01*
X119476035Y-91732278D01*
X119436874Y-91203597D01*
X119426962Y-90836874D01*
X119417000Y-90388573D01*
X119417000Y-88473761D01*
X120970707Y-86967423D01*
X121441619Y-87059924D01*
G04 #@! TA.AperFunction,Conductor*
D21*
G36*
X121441619Y-87059924D02*
G01*
X121719770Y-87239376D01*
X121982071Y-87501677D01*
X122531886Y-88296945D01*
X123118786Y-89361323D01*
X123130361Y-89378747D01*
X123620361Y-89998747D01*
X123630197Y-90009803D01*
X128183007Y-94562613D01*
X128375467Y-95524907D01*
X128382084Y-95547167D01*
X129372999Y-98024460D01*
X129373000Y-98447394D01*
X127500000Y-100320394D01*
X119957370Y-92777764D01*
X119748107Y-92482894D01*
X119617017Y-92239440D01*
X119522823Y-91956858D01*
X119476035Y-91732278D01*
X119436874Y-91203597D01*
X119426962Y-90836874D01*
X119417000Y-90388573D01*
X119417000Y-88473761D01*
X120970707Y-86967423D01*
X121441619Y-87059924D01*
G37*
G04 #@! TD.AperFunction*
D20*
X132373000Y-115331963D02*
X132373000Y-115987423D01*
X132252016Y-116592341D01*
X132134895Y-116943706D01*
X131897386Y-117299969D01*
X131405230Y-117915164D01*
X127418292Y-121902102D01*
X124264856Y-124085250D01*
X122429998Y-122250392D01*
X130337334Y-114411730D01*
X132373000Y-115331963D01*
G04 #@! TA.AperFunction,Conductor*
D21*
G36*
X132373000Y-115331963D02*
G01*
X132373000Y-115987423D01*
X132252016Y-116592341D01*
X132134895Y-116943706D01*
X131897386Y-117299969D01*
X131405230Y-117915164D01*
X127418292Y-121902102D01*
X124264856Y-124085250D01*
X122429998Y-122250392D01*
X130337334Y-114411730D01*
X132373000Y-115331963D01*
G37*
G04 #@! TD.AperFunction*
D20*
X140320184Y-122499790D02*
X131049917Y-131726738D01*
X130414718Y-132304584D01*
X130093563Y-132525038D01*
X129753112Y-132726103D01*
X129277314Y-132923364D01*
X128780643Y-133101557D01*
X127758839Y-133332567D01*
X125780916Y-133633963D01*
X123421874Y-132650233D01*
X123421874Y-132095997D01*
X123508879Y-131602967D01*
X123603971Y-131260636D01*
X123738309Y-130991380D01*
X124023483Y-130595271D01*
X124364029Y-130225325D01*
X127177330Y-127412024D01*
X127554430Y-127083590D01*
X130414158Y-125409603D01*
X130417586Y-125407523D01*
X131292586Y-124857523D01*
X131300733Y-124851948D01*
X132175733Y-124201948D01*
X132189803Y-124189803D01*
X134134216Y-122245390D01*
X134302480Y-122114518D01*
X134487412Y-122000714D01*
X134651183Y-121916489D01*
X134831030Y-121850229D01*
X135178078Y-121741157D01*
X135180161Y-121740483D01*
X135540161Y-121620482D01*
X135547167Y-121617916D01*
X138024460Y-120627001D01*
X138447394Y-120627000D01*
X140320184Y-122499790D01*
G04 #@! TA.AperFunction,Conductor*
D21*
G36*
X140320184Y-122499790D02*
G01*
X131049917Y-131726738D01*
X130414718Y-132304584D01*
X130093563Y-132525038D01*
X129753112Y-132726103D01*
X129277314Y-132923364D01*
X128780643Y-133101557D01*
X127758839Y-133332567D01*
X125780916Y-133633963D01*
X123421874Y-132650233D01*
X123421874Y-132095997D01*
X123508879Y-131602967D01*
X123603971Y-131260636D01*
X123738309Y-130991380D01*
X124023483Y-130595271D01*
X124364029Y-130225325D01*
X127177330Y-127412024D01*
X127554430Y-127083590D01*
X130414158Y-125409603D01*
X130417586Y-125407523D01*
X131292586Y-124857523D01*
X131300733Y-124851948D01*
X132175733Y-124201948D01*
X132189803Y-124189803D01*
X134134216Y-122245390D01*
X134302480Y-122114518D01*
X134487412Y-122000714D01*
X134651183Y-121916489D01*
X134831030Y-121850229D01*
X135178078Y-121741157D01*
X135180161Y-121740483D01*
X135540161Y-121620482D01*
X135547167Y-121617916D01*
X138024460Y-120627001D01*
X138447394Y-120627000D01*
X140320184Y-122499790D01*
G37*
G04 #@! TD.AperFunction*
D22*
X116095625Y-27313089D02*
X116293017Y-27378691D01*
X116484098Y-27487170D01*
X116678280Y-27650640D01*
X155447611Y-66419972D01*
X155420681Y-66434366D01*
X155173243Y-66637433D01*
X153334765Y-68475911D01*
X153131698Y-68723349D01*
X152980805Y-69005650D01*
X152887886Y-69311963D01*
X152856511Y-69630519D01*
X152887886Y-69949075D01*
X152980805Y-70255388D01*
X153003380Y-70297622D01*
X152447661Y-70297622D01*
X151882557Y-70410028D01*
X151350241Y-70630520D01*
X150871169Y-70950626D01*
X150463752Y-71358043D01*
X150143646Y-71837115D01*
X149923154Y-72369431D01*
X149810748Y-72934535D01*
X149810748Y-73510709D01*
X149904858Y-73983834D01*
X149431733Y-73889724D01*
X148855559Y-73889724D01*
X148290455Y-74002130D01*
X147758139Y-74222622D01*
X147279067Y-74542728D01*
X146871650Y-74950145D01*
X146551544Y-75429217D01*
X146331052Y-75961533D01*
X146218646Y-76526637D01*
X146218646Y-77102811D01*
X146312757Y-77575938D01*
X145839630Y-77481827D01*
X145263456Y-77481827D01*
X144698352Y-77594233D01*
X144166036Y-77814725D01*
X143686964Y-78134831D01*
X143279547Y-78542248D01*
X142959441Y-79021320D01*
X142738949Y-79553636D01*
X142626543Y-80118740D01*
X142626543Y-80694914D01*
X142738949Y-81260018D01*
X142959441Y-81792334D01*
X143279547Y-82271406D01*
X143686964Y-82678823D01*
X144166036Y-82998929D01*
X144698352Y-83219421D01*
X145263456Y-83331827D01*
X145839630Y-83331827D01*
X146404734Y-83219421D01*
X146937050Y-82998929D01*
X147416122Y-82678823D01*
X147823539Y-82271406D01*
X148143645Y-81792334D01*
X148364137Y-81260018D01*
X148476543Y-80694914D01*
X148476543Y-80118740D01*
X148382432Y-79645613D01*
X148855559Y-79739724D01*
X149431733Y-79739724D01*
X149996837Y-79627318D01*
X150529153Y-79406826D01*
X151008225Y-79086720D01*
X151415642Y-78679303D01*
X151735748Y-78200231D01*
X151956240Y-77667915D01*
X152068646Y-77102811D01*
X152068646Y-76526637D01*
X151974536Y-76053512D01*
X152447661Y-76147622D01*
X153023835Y-76147622D01*
X153588939Y-76035216D01*
X154121255Y-75814724D01*
X154600327Y-75494618D01*
X155007744Y-75087201D01*
X155327850Y-74608129D01*
X155548342Y-74075813D01*
X155660748Y-73510709D01*
X155660748Y-72954990D01*
X155702982Y-72977565D01*
X156009295Y-73070484D01*
X156327851Y-73101859D01*
X156646407Y-73070484D01*
X156952720Y-72977565D01*
X157235021Y-72826672D01*
X157482459Y-72623605D01*
X159320937Y-70785127D01*
X159524004Y-70537689D01*
X159538398Y-70510759D01*
X169193565Y-80165926D01*
X169385638Y-80399759D01*
X169483928Y-80583070D01*
X169544744Y-80781987D01*
X169575000Y-81079858D01*
X169575001Y-93647507D01*
X169545470Y-93948683D01*
X169485352Y-94147803D01*
X169387701Y-94331458D01*
X169256239Y-94492647D01*
X169049055Y-94664044D01*
X168979910Y-94707251D01*
X168975783Y-94710429D01*
X168968533Y-94714415D01*
X168261398Y-95163177D01*
X168179885Y-95222399D01*
X168097154Y-95279899D01*
X167112984Y-96059942D01*
X166989583Y-96171053D01*
X166933335Y-96221699D01*
X166054696Y-97118936D01*
X166054687Y-97118944D01*
X165896728Y-97301942D01*
X165137472Y-98302226D01*
X165137468Y-98302231D01*
X165102135Y-98355412D01*
X165003688Y-98503586D01*
X165003683Y-98503596D01*
X164375788Y-99591139D01*
X164375782Y-99591149D01*
X164268295Y-99807681D01*
X163781649Y-100965367D01*
X163702148Y-101193663D01*
X163364437Y-102403208D01*
X163364436Y-102403212D01*
X163314175Y-102639673D01*
X163130723Y-103882003D01*
X163130721Y-103882014D01*
X163110493Y-104122909D01*
X163084194Y-105378444D01*
X163094317Y-105619975D01*
X163225585Y-106868904D01*
X163265900Y-107107262D01*
X163552665Y-108329893D01*
X163601441Y-108491447D01*
X163622537Y-108561319D01*
X164060275Y-109738363D01*
X164060277Y-109738368D01*
X164158603Y-109959211D01*
X164740415Y-111072115D01*
X164865644Y-111278893D01*
X164865652Y-111278903D01*
X165582348Y-112310095D01*
X165582353Y-112310103D01*
X165732512Y-112499555D01*
X166572814Y-113432804D01*
X166745532Y-113601943D01*
X167696167Y-114422508D01*
X167696174Y-114422515D01*
X167888730Y-114568672D01*
X168906740Y-115245036D01*
X169202008Y-115456427D01*
X169344395Y-115608054D01*
X169454622Y-115784454D01*
X169528483Y-115978895D01*
X169573326Y-116244026D01*
X169574999Y-116291923D01*
X169575002Y-128913198D01*
X169545471Y-129214373D01*
X169485353Y-129413493D01*
X169387702Y-129597148D01*
X169198470Y-129829170D01*
X159201983Y-139825657D01*
X159140446Y-139516289D01*
X158919954Y-138983973D01*
X158599848Y-138504901D01*
X158192431Y-138097484D01*
X157713359Y-137777378D01*
X157181043Y-137556886D01*
X156615939Y-137444480D01*
X156039765Y-137444480D01*
X155566638Y-137538591D01*
X155660749Y-137065464D01*
X155660749Y-136489290D01*
X155548343Y-135924186D01*
X155327851Y-135391870D01*
X155007745Y-134912798D01*
X154600328Y-134505381D01*
X154121256Y-134185275D01*
X153588940Y-133964783D01*
X153023836Y-133852377D01*
X152447662Y-133852377D01*
X151974537Y-133946487D01*
X152068647Y-133473362D01*
X152068647Y-132897188D01*
X151956241Y-132332084D01*
X151735749Y-131799768D01*
X151415643Y-131320696D01*
X151008226Y-130913279D01*
X150529154Y-130593173D01*
X149996838Y-130372681D01*
X149431734Y-130260275D01*
X148876015Y-130260275D01*
X148898590Y-130218041D01*
X148991509Y-129911728D01*
X149022884Y-129593172D01*
X148991509Y-129274616D01*
X148898590Y-128968303D01*
X148747697Y-128686002D01*
X148544630Y-128438564D01*
X146706152Y-126600086D01*
X146458714Y-126397019D01*
X146176413Y-126246126D01*
X145870100Y-126153207D01*
X145551544Y-126121832D01*
X145232988Y-126153207D01*
X144926675Y-126246126D01*
X144644374Y-126397019D01*
X144396936Y-126600086D01*
X142558458Y-128438564D01*
X142355391Y-128686002D01*
X142204498Y-128968303D01*
X142111579Y-129274616D01*
X142080204Y-129593172D01*
X142111579Y-129911728D01*
X142204498Y-130218041D01*
X142355391Y-130500342D01*
X142558458Y-130747780D01*
X144396936Y-132586258D01*
X144644374Y-132789325D01*
X144926675Y-132940218D01*
X145232988Y-133033137D01*
X145551544Y-133064512D01*
X145870100Y-133033137D01*
X146176413Y-132940218D01*
X146218647Y-132917643D01*
X146218647Y-133473362D01*
X146331053Y-134038466D01*
X146551545Y-134570782D01*
X146871651Y-135049854D01*
X147279068Y-135457271D01*
X147758140Y-135777377D01*
X148290456Y-135997869D01*
X148855560Y-136110275D01*
X149431734Y-136110275D01*
X149904859Y-136016165D01*
X149810749Y-136489290D01*
X149810749Y-137065464D01*
X149923155Y-137630568D01*
X150143647Y-138162884D01*
X150463753Y-138641956D01*
X150871170Y-139049373D01*
X151350242Y-139369479D01*
X151882558Y-139589971D01*
X152447662Y-139702377D01*
X153023836Y-139702377D01*
X153496963Y-139608266D01*
X153402852Y-140081393D01*
X153402852Y-140657567D01*
X153515258Y-141222671D01*
X153735750Y-141754987D01*
X154055856Y-142234059D01*
X154463273Y-142641476D01*
X154942345Y-142961582D01*
X155474661Y-143182074D01*
X155784029Y-143243611D01*
X116686519Y-182341120D01*
X116452678Y-182533199D01*
X116269367Y-182631489D01*
X116070452Y-182692303D01*
X115863521Y-182713323D01*
X115644761Y-182692644D01*
X115420091Y-182628611D01*
X112252103Y-181347630D01*
X109083703Y-179909312D01*
X105978334Y-178339587D01*
X102941433Y-176641206D01*
X99978283Y-174817121D01*
X97094164Y-172870585D01*
X94294054Y-170804958D01*
X91582898Y-168623884D01*
X89248306Y-166578949D01*
X108725000Y-166578949D01*
X108725000Y-167421051D01*
X108889286Y-168246972D01*
X109211544Y-169024972D01*
X109679391Y-169725154D01*
X110274846Y-170320609D01*
X110975028Y-170788456D01*
X111753028Y-171110714D01*
X112578949Y-171275000D01*
X113421051Y-171275000D01*
X114246972Y-171110714D01*
X115024972Y-170788456D01*
X115725154Y-170320609D01*
X116320609Y-169725154D01*
X116788456Y-169024972D01*
X117110714Y-168246972D01*
X117275000Y-167421051D01*
X117275000Y-166578949D01*
X117110714Y-165753028D01*
X116788456Y-164975028D01*
X116320609Y-164274846D01*
X115725154Y-163679391D01*
X115024972Y-163211544D01*
X114246972Y-162889286D01*
X113421051Y-162725000D01*
X112578949Y-162725000D01*
X111753028Y-162889286D01*
X110975028Y-163211544D01*
X110274846Y-163679391D01*
X109679391Y-164274846D01*
X109211544Y-164975028D01*
X108889286Y-165753028D01*
X108725000Y-166578949D01*
X89248306Y-166578949D01*
X88965468Y-166331204D01*
X86446329Y-163930918D01*
X84029935Y-161427267D01*
X81720470Y-158824590D01*
X79522032Y-156127499D01*
X77438489Y-153340745D01*
X75473452Y-150469162D01*
X74812609Y-149410933D01*
X79550673Y-149410933D01*
X79550673Y-150051127D01*
X79675569Y-150679020D01*
X79920561Y-151270482D01*
X80276233Y-151802784D01*
X80728919Y-152255470D01*
X81261221Y-152611142D01*
X81852683Y-152856134D01*
X82480576Y-152981030D01*
X83120770Y-152981030D01*
X83748663Y-152856134D01*
X84340125Y-152611142D01*
X84872427Y-152255470D01*
X85325113Y-151802784D01*
X85680785Y-151270482D01*
X85925777Y-150679020D01*
X86050673Y-150051127D01*
X86050673Y-149410933D01*
X85925777Y-148783040D01*
X85777023Y-148423917D01*
X86060592Y-148140348D01*
X86295184Y-147789257D01*
X86560170Y-148185837D01*
X86904908Y-148530575D01*
X87310276Y-148801433D01*
X87670766Y-148950753D01*
X87735422Y-149275800D01*
X87921993Y-149726221D01*
X88192851Y-150131589D01*
X88537589Y-150476327D01*
X88942957Y-150747185D01*
X89303446Y-150896505D01*
X89368102Y-151221553D01*
X89554673Y-151671974D01*
X89592765Y-151728983D01*
X89438313Y-151574531D01*
X89106648Y-151352919D01*
X88738122Y-151200271D01*
X88346896Y-151122451D01*
X87948006Y-151122451D01*
X87556780Y-151200271D01*
X87188254Y-151352919D01*
X86856589Y-151574531D01*
X86574531Y-151856589D01*
X86352919Y-152188254D01*
X86200271Y-152556780D01*
X86122451Y-152948006D01*
X86122451Y-153346896D01*
X86200271Y-153738122D01*
X86352919Y-154106648D01*
X86574531Y-154438313D01*
X86856589Y-154720371D01*
X87188254Y-154941983D01*
X87237584Y-154962416D01*
X87258017Y-155011746D01*
X87479629Y-155343411D01*
X87761687Y-155625469D01*
X88093352Y-155847081D01*
X88189242Y-155886800D01*
X88075982Y-155962478D01*
X87623296Y-156415164D01*
X87267624Y-156947466D01*
X87022632Y-157538928D01*
X86897736Y-158166821D01*
X86897736Y-158807015D01*
X87022632Y-159434908D01*
X87267624Y-160026370D01*
X87623296Y-160558672D01*
X88075982Y-161011358D01*
X88608284Y-161367030D01*
X89199746Y-161612022D01*
X89827639Y-161736918D01*
X90467833Y-161736918D01*
X91095726Y-161612022D01*
X91687188Y-161367030D01*
X92219490Y-161011358D01*
X92292095Y-160938753D01*
X92339429Y-160970380D01*
X92899043Y-161202180D01*
X93493127Y-161320350D01*
X94098849Y-161320350D01*
X94692933Y-161202180D01*
X95252547Y-160970380D01*
X95595817Y-160741014D01*
X120796702Y-160741014D01*
X120796702Y-161228546D01*
X120891815Y-161706711D01*
X121078386Y-162157132D01*
X121349244Y-162562500D01*
X121693982Y-162907238D01*
X122099350Y-163178096D01*
X122549771Y-163364667D01*
X123027936Y-163459780D01*
X123515468Y-163459780D01*
X123727021Y-163417699D01*
X123736063Y-163431231D01*
X124080801Y-163775969D01*
X124486169Y-164046827D01*
X124936590Y-164233398D01*
X125414755Y-164328511D01*
X125902287Y-164328511D01*
X126380452Y-164233398D01*
X126830873Y-164046827D01*
X127236241Y-163775969D01*
X127580979Y-163431231D01*
X127851837Y-163025863D01*
X128038408Y-162575442D01*
X128133521Y-162097277D01*
X128133521Y-161609745D01*
X128091440Y-161398192D01*
X128104972Y-161389150D01*
X128449710Y-161044412D01*
X128720568Y-160639044D01*
X128907139Y-160188623D01*
X129002252Y-159710458D01*
X129002252Y-159222926D01*
X128907139Y-158744761D01*
X128720568Y-158294340D01*
X128449710Y-157888972D01*
X128325241Y-157764503D01*
X128614936Y-157884499D01*
X129146230Y-157990180D01*
X129687932Y-157990180D01*
X130219226Y-157884499D01*
X130719694Y-157677198D01*
X131170104Y-157376244D01*
X131553145Y-156993203D01*
X131854099Y-156542793D01*
X132061400Y-156042325D01*
X132167081Y-155511031D01*
X132167081Y-154969329D01*
X132061400Y-154438035D01*
X131854099Y-153937567D01*
X131553145Y-153487157D01*
X131282530Y-153216542D01*
X131425394Y-153216542D01*
X131956688Y-153110861D01*
X132457156Y-152903560D01*
X132907566Y-152602606D01*
X133290607Y-152219565D01*
X133591561Y-151769155D01*
X133798862Y-151268687D01*
X133904543Y-150737393D01*
X133904543Y-150195691D01*
X133798862Y-149664397D01*
X133591561Y-149163929D01*
X133290607Y-148713519D01*
X132907566Y-148330478D01*
X132457156Y-148029524D01*
X131956688Y-147822223D01*
X131425394Y-147716542D01*
X130883692Y-147716542D01*
X130663401Y-147760361D01*
X128519676Y-146980108D01*
X128516969Y-146976057D01*
X128133928Y-146593016D01*
X127683518Y-146292062D01*
X127183050Y-146084761D01*
X126651756Y-145979080D01*
X126110054Y-145979080D01*
X125578760Y-146084761D01*
X125078292Y-146292062D01*
X124627882Y-146593016D01*
X124244841Y-146976057D01*
X123943887Y-147426467D01*
X123736586Y-147926935D01*
X123630905Y-148458229D01*
X123630905Y-148999931D01*
X123736586Y-149531225D01*
X123943887Y-150031693D01*
X124244841Y-150482103D01*
X124515456Y-150752718D01*
X124372592Y-150752718D01*
X123841298Y-150858399D01*
X123340830Y-151065700D01*
X122890420Y-151366654D01*
X122507379Y-151749695D01*
X122206425Y-152200105D01*
X121999124Y-152700573D01*
X121893443Y-153231867D01*
X121893443Y-153773569D01*
X121999124Y-154304863D01*
X122206425Y-154805331D01*
X122507379Y-155255741D01*
X122890420Y-155638782D01*
X123340830Y-155939736D01*
X123819993Y-156138212D01*
X123418502Y-156218074D01*
X122968081Y-156404645D01*
X122562713Y-156675503D01*
X122217975Y-157020241D01*
X121947117Y-157425609D01*
X121760546Y-157876030D01*
X121665433Y-158354195D01*
X121665433Y-158841727D01*
X121707514Y-159053280D01*
X121693982Y-159062322D01*
X121349244Y-159407060D01*
X121078386Y-159812428D01*
X120891815Y-160262849D01*
X120796702Y-160741014D01*
X95595817Y-160741014D01*
X95756186Y-160633859D01*
X96184497Y-160205548D01*
X96521018Y-159701909D01*
X96752818Y-159142295D01*
X96870988Y-158548211D01*
X96870988Y-157942489D01*
X96752818Y-157348405D01*
X96521018Y-156788791D01*
X96184497Y-156285152D01*
X95756186Y-155856841D01*
X95252547Y-155520320D01*
X94692933Y-155288520D01*
X94098849Y-155170350D01*
X93493127Y-155170350D01*
X92899043Y-155288520D01*
X92339429Y-155520320D01*
X91948591Y-155781470D01*
X91687188Y-155606806D01*
X91095726Y-155361814D01*
X90669784Y-155277089D01*
X90847081Y-155011746D01*
X90999729Y-154643220D01*
X91077549Y-154251994D01*
X91077549Y-153853104D01*
X90999729Y-153461878D01*
X90847081Y-153093352D01*
X90625469Y-152761687D01*
X90518628Y-152654846D01*
X90575637Y-152692938D01*
X90936127Y-152842258D01*
X91000783Y-153167306D01*
X91187354Y-153617727D01*
X91458212Y-154023095D01*
X91802950Y-154367833D01*
X92208318Y-154638691D01*
X92658739Y-154825262D01*
X93136904Y-154920375D01*
X93624436Y-154920375D01*
X94102601Y-154825262D01*
X94553022Y-154638691D01*
X94958390Y-154367833D01*
X95236937Y-154089286D01*
X95420832Y-154165458D01*
X95898997Y-154260571D01*
X96386529Y-154260571D01*
X96864694Y-154165458D01*
X97315115Y-153978887D01*
X97720483Y-153708029D01*
X98065221Y-153363291D01*
X98336079Y-152957923D01*
X98522650Y-152507502D01*
X98617763Y-152029337D01*
X98617763Y-151541805D01*
X98522650Y-151063640D01*
X98336079Y-150613219D01*
X98065221Y-150207851D01*
X97790572Y-149933202D01*
X102959155Y-149933202D01*
X102959155Y-150420734D01*
X103054268Y-150898899D01*
X103240839Y-151349320D01*
X103511697Y-151754688D01*
X103856435Y-152099426D01*
X104261803Y-152370284D01*
X104712224Y-152556855D01*
X105037272Y-152621511D01*
X105186592Y-152982001D01*
X105457450Y-153387369D01*
X105802188Y-153732107D01*
X106207556Y-154002965D01*
X106657977Y-154189536D01*
X107136142Y-154284649D01*
X107623674Y-154284649D01*
X108101839Y-154189536D01*
X108552260Y-154002965D01*
X108957628Y-153732107D01*
X109302366Y-153387369D01*
X109573224Y-152982001D01*
X109759795Y-152531580D01*
X109824451Y-152206532D01*
X110184941Y-152057212D01*
X110590309Y-151786354D01*
X110935047Y-151441616D01*
X111205905Y-151036248D01*
X111392476Y-150585827D01*
X111487589Y-150107662D01*
X111487589Y-149620130D01*
X111392476Y-149141965D01*
X111283978Y-148880028D01*
X111420669Y-149016719D01*
X111871079Y-149317673D01*
X112371547Y-149524974D01*
X112902841Y-149630655D01*
X113444543Y-149630655D01*
X113975837Y-149524974D01*
X114476305Y-149317673D01*
X114926715Y-149016719D01*
X115309756Y-148633678D01*
X115610710Y-148183268D01*
X115818011Y-147682800D01*
X115923692Y-147151506D01*
X115923692Y-146609804D01*
X115818011Y-146078510D01*
X115632998Y-145631849D01*
X115636908Y-145633469D01*
X116168202Y-145739150D01*
X116709904Y-145739150D01*
X117241198Y-145633469D01*
X117741666Y-145426168D01*
X118192076Y-145125214D01*
X118575117Y-144742173D01*
X118876071Y-144291763D01*
X119083372Y-143791295D01*
X119189053Y-143260001D01*
X119189053Y-142718299D01*
X119083372Y-142187005D01*
X118876071Y-141686537D01*
X118575117Y-141236127D01*
X118192076Y-140853086D01*
X117741666Y-140552132D01*
X117241198Y-140344831D01*
X116902147Y-140277389D01*
X115141491Y-138800025D01*
X114984566Y-138421176D01*
X114683612Y-137970766D01*
X114300571Y-137587725D01*
X113850161Y-137286771D01*
X113349693Y-137079470D01*
X112818399Y-136973789D01*
X112276697Y-136973789D01*
X111745403Y-137079470D01*
X111244935Y-137286771D01*
X110794525Y-137587725D01*
X110411484Y-137970766D01*
X110110530Y-138421176D01*
X109903229Y-138921644D01*
X109797548Y-139452938D01*
X109797548Y-139994640D01*
X109903229Y-140525934D01*
X110088242Y-140972595D01*
X110084332Y-140970975D01*
X109553038Y-140865294D01*
X109011336Y-140865294D01*
X108480042Y-140970975D01*
X107979574Y-141178276D01*
X107529164Y-141479230D01*
X107146123Y-141862271D01*
X106845169Y-142312681D01*
X106637868Y-142813149D01*
X106532187Y-143344443D01*
X106532187Y-143886145D01*
X106637868Y-144417439D01*
X106845169Y-144917907D01*
X107146123Y-145368317D01*
X107529164Y-145751358D01*
X107632158Y-145820177D01*
X107310602Y-145756215D01*
X106823070Y-145756215D01*
X106344905Y-145851328D01*
X105894484Y-146037899D01*
X105489116Y-146308757D01*
X105144378Y-146653495D01*
X104873520Y-147058863D01*
X104686949Y-147509284D01*
X104622293Y-147834332D01*
X104261803Y-147983652D01*
X103856435Y-148254510D01*
X103511697Y-148599248D01*
X103240839Y-149004616D01*
X103054268Y-149455037D01*
X102959155Y-149933202D01*
X97790572Y-149933202D01*
X97720483Y-149863113D01*
X97315115Y-149592255D01*
X96954626Y-149442935D01*
X96889970Y-149117887D01*
X96703399Y-148667466D01*
X96432541Y-148262098D01*
X96087803Y-147917360D01*
X95682435Y-147646502D01*
X95321945Y-147497182D01*
X95257289Y-147172134D01*
X95070718Y-146721713D01*
X94799860Y-146316345D01*
X94455122Y-145971607D01*
X94049754Y-145700749D01*
X93689264Y-145551429D01*
X93624608Y-145226381D01*
X93438037Y-144775960D01*
X93167179Y-144370592D01*
X92822441Y-144025854D01*
X92417073Y-143754996D01*
X91966652Y-143568425D01*
X91488487Y-143473312D01*
X91000955Y-143473312D01*
X90522790Y-143568425D01*
X90072369Y-143754996D01*
X89667001Y-144025854D01*
X89388453Y-144304402D01*
X89204559Y-144228230D01*
X88726394Y-144133117D01*
X88238862Y-144133117D01*
X87760697Y-144228230D01*
X87310276Y-144414801D01*
X86904908Y-144685659D01*
X86560170Y-145030397D01*
X86537963Y-145063632D01*
X86397113Y-144723591D01*
X86060592Y-144219952D01*
X85632281Y-143791641D01*
X85128642Y-143455120D01*
X84569028Y-143223320D01*
X83974944Y-143105150D01*
X83369222Y-143105150D01*
X82775138Y-143223320D01*
X82215524Y-143455120D01*
X81711885Y-143791641D01*
X81283574Y-144219952D01*
X80947053Y-144723591D01*
X80715253Y-145283205D01*
X80597083Y-145877289D01*
X80597083Y-146483011D01*
X80715253Y-147077095D01*
X80760227Y-147185671D01*
X80728919Y-147206590D01*
X80276233Y-147659276D01*
X79920561Y-148191578D01*
X79675569Y-148783040D01*
X79550673Y-149410933D01*
X74812609Y-149410933D01*
X73630371Y-147517778D01*
X71912524Y-144491851D01*
X70322886Y-141396624D01*
X68864262Y-138237552D01*
X67539196Y-135020147D01*
X67050531Y-133676382D01*
X89893835Y-133676382D01*
X89893835Y-134163914D01*
X89988948Y-134642079D01*
X90175519Y-135092500D01*
X90446377Y-135497868D01*
X90791115Y-135842606D01*
X91163835Y-136091649D01*
X91163835Y-136363618D01*
X91258948Y-136841783D01*
X91445519Y-137292204D01*
X91716377Y-137697572D01*
X92061115Y-138042310D01*
X92466483Y-138313168D01*
X92916904Y-138499739D01*
X93395069Y-138594852D01*
X93882601Y-138594852D01*
X94360766Y-138499739D01*
X94811187Y-138313168D01*
X95216555Y-138042310D01*
X95561293Y-137697572D01*
X95810336Y-137324852D01*
X96082305Y-137324852D01*
X96560470Y-137229739D01*
X97010891Y-137043168D01*
X97416259Y-136772310D01*
X97760997Y-136427572D01*
X98031855Y-136022204D01*
X98218426Y-135571783D01*
X98313539Y-135093618D01*
X98313539Y-134727732D01*
X98332007Y-134772318D01*
X98632961Y-135222728D01*
X99016002Y-135605769D01*
X99466412Y-135906723D01*
X99966880Y-136114024D01*
X100498174Y-136219705D01*
X101039876Y-136219705D01*
X101571170Y-136114024D01*
X102071638Y-135906723D01*
X102522048Y-135605769D01*
X102905089Y-135222728D01*
X103206043Y-134772318D01*
X103413344Y-134271850D01*
X103519025Y-133740556D01*
X103519025Y-133198854D01*
X103504377Y-133125213D01*
X103865822Y-133366723D01*
X104366290Y-133574024D01*
X104897584Y-133679705D01*
X105439286Y-133679705D01*
X105970580Y-133574024D01*
X106471048Y-133366723D01*
X106921458Y-133065769D01*
X107304499Y-132682728D01*
X107605453Y-132232318D01*
X107812754Y-131731850D01*
X107918435Y-131200556D01*
X107918435Y-130658854D01*
X107812754Y-130127560D01*
X107605453Y-129627092D01*
X107304499Y-129176682D01*
X107057189Y-128929372D01*
X118157233Y-128929372D01*
X118157233Y-129535094D01*
X118275403Y-130129178D01*
X118507203Y-130688792D01*
X118843724Y-131192431D01*
X119272035Y-131620742D01*
X119775674Y-131957263D01*
X120335288Y-132189063D01*
X120929372Y-132307233D01*
X121535094Y-132307233D01*
X121546320Y-132305000D01*
X121669874Y-132305000D01*
X121669874Y-132734874D01*
X121692767Y-132970181D01*
X121692767Y-133070628D01*
X121810937Y-133664712D01*
X122042737Y-134224326D01*
X122379258Y-134727965D01*
X122807569Y-135156276D01*
X123311208Y-135492797D01*
X123870822Y-135724597D01*
X124464906Y-135842767D01*
X125070628Y-135842767D01*
X125664712Y-135724597D01*
X126224326Y-135492797D01*
X126523235Y-135293072D01*
X128027229Y-135063893D01*
X128140774Y-135042435D01*
X129174556Y-134808717D01*
X129364977Y-134753258D01*
X129871868Y-134571399D01*
X129945454Y-134542964D01*
X130432344Y-134341104D01*
X130636349Y-134239204D01*
X130988224Y-134031392D01*
X131081522Y-133971917D01*
X131413397Y-133744104D01*
X131587250Y-133606408D01*
X132231000Y-133020783D01*
X132283854Y-132970486D01*
X140323150Y-124968756D01*
X153275536Y-124968756D01*
X153275536Y-125407042D01*
X153361041Y-125836908D01*
X153528766Y-126241832D01*
X153772266Y-126606254D01*
X154082181Y-126916169D01*
X154446603Y-127159669D01*
X154797595Y-127305054D01*
X154942980Y-127656046D01*
X155186480Y-128020468D01*
X155496395Y-128330383D01*
X155860817Y-128573883D01*
X156265741Y-128741608D01*
X156695607Y-128827113D01*
X157133893Y-128827113D01*
X157563759Y-128741608D01*
X157968683Y-128573883D01*
X158333105Y-128330383D01*
X158643020Y-128020468D01*
X158886520Y-127656046D01*
X159054245Y-127251122D01*
X159139750Y-126821256D01*
X159139750Y-126382970D01*
X159054245Y-125953104D01*
X158886520Y-125548180D01*
X158643020Y-125183758D01*
X158591197Y-125131935D01*
X158609803Y-125139642D01*
X158962389Y-125209776D01*
X159321883Y-125209776D01*
X159674469Y-125139642D01*
X160006597Y-125002070D01*
X160305505Y-124802346D01*
X160559706Y-124548145D01*
X160759430Y-124249237D01*
X160897002Y-123917109D01*
X160928804Y-123757231D01*
X161088682Y-123725429D01*
X161420810Y-123587857D01*
X161719718Y-123388133D01*
X161973919Y-123133932D01*
X162173643Y-122835024D01*
X162311215Y-122502896D01*
X162343017Y-122343017D01*
X162502896Y-122311215D01*
X162835024Y-122173643D01*
X163133932Y-121973919D01*
X163388133Y-121719718D01*
X163587857Y-121420810D01*
X163725429Y-121088682D01*
X163757231Y-120928804D01*
X163917109Y-120897002D01*
X164249237Y-120759430D01*
X164548145Y-120559706D01*
X164802346Y-120305505D01*
X165002070Y-120006597D01*
X165139642Y-119674469D01*
X165209776Y-119321883D01*
X165209776Y-118962389D01*
X165139642Y-118609803D01*
X165080273Y-118466474D01*
X165227396Y-118686658D01*
X165537311Y-118996573D01*
X165901733Y-119240073D01*
X166306657Y-119407798D01*
X166736523Y-119493303D01*
X167174809Y-119493303D01*
X167604675Y-119407798D01*
X168009599Y-119240073D01*
X168374021Y-118996573D01*
X168683936Y-118686658D01*
X168927436Y-118322236D01*
X169095161Y-117917312D01*
X169180666Y-117487446D01*
X169180666Y-117049160D01*
X169095161Y-116619294D01*
X168927436Y-116214370D01*
X168683936Y-115849948D01*
X168374021Y-115540033D01*
X168009599Y-115296533D01*
X167658607Y-115151147D01*
X167513222Y-114800157D01*
X167269722Y-114435735D01*
X166959807Y-114125820D01*
X166595385Y-113882320D01*
X166190461Y-113714595D01*
X165760595Y-113629090D01*
X165322309Y-113629090D01*
X164892443Y-113714595D01*
X164487519Y-113882320D01*
X164123097Y-114125820D01*
X163813182Y-114435735D01*
X163569682Y-114800157D01*
X163401957Y-115205081D01*
X163316452Y-115634947D01*
X163316452Y-116073233D01*
X163401957Y-116503099D01*
X163530245Y-116812812D01*
X163210003Y-116680164D01*
X162857417Y-116610030D01*
X162497923Y-116610030D01*
X162145337Y-116680164D01*
X161813209Y-116817736D01*
X161514301Y-117017460D01*
X161260100Y-117271661D01*
X161060376Y-117570569D01*
X160922804Y-117902697D01*
X160891002Y-118062575D01*
X160731124Y-118094377D01*
X160398996Y-118231949D01*
X160100088Y-118431673D01*
X159845887Y-118685874D01*
X159646163Y-118984782D01*
X159508591Y-119316910D01*
X159476789Y-119476789D01*
X159316910Y-119508591D01*
X158984782Y-119646163D01*
X158685874Y-119845887D01*
X158431673Y-120100088D01*
X158231949Y-120398996D01*
X158094377Y-120731124D01*
X158062575Y-120891002D01*
X157902697Y-120922804D01*
X157570569Y-121060376D01*
X157271661Y-121260100D01*
X157017460Y-121514301D01*
X156817736Y-121813209D01*
X156680164Y-122145337D01*
X156610030Y-122497923D01*
X156610030Y-122857417D01*
X156680164Y-123210003D01*
X156731774Y-123334601D01*
X156554469Y-123216129D01*
X156149545Y-123048404D01*
X155719679Y-122962899D01*
X155281393Y-122962899D01*
X154851527Y-123048404D01*
X154446603Y-123216129D01*
X154082181Y-123459629D01*
X153772266Y-123769544D01*
X153528766Y-124133966D01*
X153361041Y-124538890D01*
X153275536Y-124968756D01*
X140323150Y-124968756D01*
X141646354Y-123651736D01*
X141851138Y-123402802D01*
X142001304Y-123121861D01*
X142093776Y-122817022D01*
X142125000Y-122500000D01*
X142093776Y-122182978D01*
X142001304Y-121878139D01*
X141851138Y-121597198D01*
X141649049Y-121350951D01*
X139649049Y-119350951D01*
X139402799Y-119148860D01*
X139121858Y-118998695D01*
X138817019Y-118906223D01*
X138499997Y-118875000D01*
X137999997Y-118875001D01*
X137702435Y-118902478D01*
X137700237Y-118903116D01*
X137700237Y-118528778D01*
X137587831Y-117963674D01*
X137367339Y-117431358D01*
X137047233Y-116952286D01*
X136639816Y-116544869D01*
X136160744Y-116224763D01*
X135628428Y-116004271D01*
X135063324Y-115891865D01*
X134921233Y-115891865D01*
X134750000Y-115875000D01*
X134125000Y-115875000D01*
X134125000Y-115250000D01*
X134108135Y-115045406D01*
X134108135Y-114936676D01*
X133995729Y-114371572D01*
X133775237Y-113839256D01*
X133455131Y-113360184D01*
X133047714Y-112952767D01*
X132568642Y-112632661D01*
X132036326Y-112412169D01*
X131471222Y-112299763D01*
X130915503Y-112299763D01*
X130938078Y-112257529D01*
X131030997Y-111951216D01*
X131062372Y-111632660D01*
X131030997Y-111314104D01*
X130938078Y-111007791D01*
X130787185Y-110725490D01*
X130584118Y-110478052D01*
X128745640Y-108639574D01*
X128498202Y-108436507D01*
X128215901Y-108285614D01*
X127909588Y-108192695D01*
X127591032Y-108161320D01*
X127272476Y-108192695D01*
X126966163Y-108285614D01*
X126683862Y-108436507D01*
X126436424Y-108639574D01*
X125285756Y-109790242D01*
X122727034Y-112199599D01*
X122541034Y-112407658D01*
X121791033Y-113407658D01*
X121567006Y-113818770D01*
X121197006Y-114818771D01*
X121113900Y-115142341D01*
X120953900Y-116212340D01*
X120938232Y-116537180D01*
X120988232Y-117497180D01*
X121025666Y-117769366D01*
X121205666Y-118569366D01*
X121307920Y-118876739D01*
X121607920Y-119546739D01*
X121722426Y-119758754D01*
X121919641Y-120008922D01*
X122057689Y-120152501D01*
X121321720Y-120882079D01*
X121314928Y-120886617D01*
X120886617Y-121314928D01*
X120550096Y-121818567D01*
X120318296Y-122378181D01*
X120200126Y-122972265D01*
X120200126Y-123577987D01*
X120318296Y-124172071D01*
X120550096Y-124731685D01*
X120886617Y-125235324D01*
X121038763Y-125387470D01*
X120586993Y-125756498D01*
X120562188Y-125777175D01*
X119440771Y-126730978D01*
X119272035Y-126843724D01*
X118843724Y-127272035D01*
X118507203Y-127775674D01*
X118275403Y-128335288D01*
X118157233Y-128929372D01*
X107057189Y-128929372D01*
X106921458Y-128793641D01*
X106524427Y-128528354D01*
X105378435Y-126543438D01*
X105378435Y-126259444D01*
X105272754Y-125728150D01*
X105065453Y-125227682D01*
X104764499Y-124777272D01*
X104381458Y-124394231D01*
X103931048Y-124093277D01*
X103430580Y-123885976D01*
X102899286Y-123780295D01*
X102357584Y-123780295D01*
X101826290Y-123885976D01*
X101325822Y-124093277D01*
X100875412Y-124394231D01*
X100492371Y-124777272D01*
X100191417Y-125227682D01*
X99984116Y-125728150D01*
X99878435Y-126259444D01*
X99878435Y-126801146D01*
X99893083Y-126874787D01*
X99531638Y-126633277D01*
X99031170Y-126425976D01*
X98499876Y-126320295D01*
X97958174Y-126320295D01*
X97426880Y-126425976D01*
X96926412Y-126633277D01*
X96476002Y-126934231D01*
X96092961Y-127317272D01*
X95792007Y-127767682D01*
X95584706Y-128268150D01*
X95479025Y-128799444D01*
X95479025Y-129341146D01*
X95584706Y-129872440D01*
X95792007Y-130372908D01*
X95934540Y-130586224D01*
X95740891Y-130456832D01*
X95290470Y-130270261D01*
X94812305Y-130175148D01*
X94324773Y-130175148D01*
X93846608Y-130270261D01*
X93396187Y-130456832D01*
X92990819Y-130727690D01*
X92646081Y-131072428D01*
X92397038Y-131445148D01*
X92125069Y-131445148D01*
X91646904Y-131540261D01*
X91196483Y-131726832D01*
X90791115Y-131997690D01*
X90446377Y-132342428D01*
X90175519Y-132747796D01*
X89988948Y-133198217D01*
X89893835Y-133676382D01*
X67050531Y-133676382D01*
X66350032Y-131750104D01*
X65298844Y-128433120D01*
X64387477Y-125075023D01*
X63617531Y-121681699D01*
X62990363Y-118259143D01*
X62507062Y-114813290D01*
X62420838Y-113931365D01*
X83176611Y-113931365D01*
X83176611Y-114418897D01*
X83271724Y-114897062D01*
X83458295Y-115347483D01*
X83729153Y-115752851D01*
X83776677Y-115800375D01*
X83712790Y-115954612D01*
X83617677Y-116432777D01*
X83617677Y-116920309D01*
X83712790Y-117398474D01*
X83899361Y-117848895D01*
X84170219Y-118254263D01*
X84514957Y-118599001D01*
X84920325Y-118869859D01*
X85370746Y-119056430D01*
X85848911Y-119151543D01*
X86336443Y-119151543D01*
X86814608Y-119056430D01*
X87265029Y-118869859D01*
X87670397Y-118599001D01*
X87717921Y-118551477D01*
X87872158Y-118615364D01*
X88350323Y-118710477D01*
X88837855Y-118710477D01*
X89316020Y-118615364D01*
X89766441Y-118428793D01*
X90171809Y-118157935D01*
X90516547Y-117813197D01*
X90787405Y-117407829D01*
X90965570Y-116977701D01*
X91054948Y-117427032D01*
X91262249Y-117927500D01*
X91563203Y-118377910D01*
X91946244Y-118760951D01*
X92396654Y-119061905D01*
X92897122Y-119269206D01*
X93428416Y-119374887D01*
X93970118Y-119374887D01*
X94501412Y-119269206D01*
X95001880Y-119061905D01*
X95452290Y-118760951D01*
X95835331Y-118377910D01*
X96136285Y-117927500D01*
X96343586Y-117427032D01*
X96384077Y-117223471D01*
X96566026Y-117495777D01*
X96949067Y-117878818D01*
X97399477Y-118179772D01*
X97899945Y-118387073D01*
X98431239Y-118492754D01*
X98972941Y-118492754D01*
X99504235Y-118387073D01*
X100004703Y-118179772D01*
X100455113Y-117878818D01*
X100838154Y-117495777D01*
X101139108Y-117045367D01*
X101346409Y-116544899D01*
X101452090Y-116013605D01*
X101452090Y-115471903D01*
X101346409Y-114940609D01*
X101139108Y-114440141D01*
X100838154Y-113989731D01*
X100797444Y-113949021D01*
X100400279Y-111696579D01*
X100464276Y-111542076D01*
X100569957Y-111010782D01*
X100569957Y-110469080D01*
X100464276Y-109937786D01*
X100256975Y-109437318D01*
X99956021Y-108986908D01*
X99572980Y-108603867D01*
X99122570Y-108302913D01*
X98622102Y-108095612D01*
X98090808Y-107989931D01*
X97549106Y-107989931D01*
X97017812Y-108095612D01*
X96517344Y-108302913D01*
X96066934Y-108603867D01*
X95683893Y-108986908D01*
X95382939Y-109437318D01*
X95175638Y-109937786D01*
X95135147Y-110141347D01*
X94953198Y-109869041D01*
X94570157Y-109486000D01*
X94119747Y-109185046D01*
X93619279Y-108977745D01*
X93087985Y-108872064D01*
X92546283Y-108872064D01*
X92014989Y-108977745D01*
X91514521Y-109185046D01*
X91064111Y-109486000D01*
X90681070Y-109869041D01*
X90380116Y-110319451D01*
X90172815Y-110819919D01*
X90067134Y-111351213D01*
X90067134Y-111892915D01*
X90138207Y-112250220D01*
X90075481Y-112156345D01*
X89730743Y-111811607D01*
X89325375Y-111540749D01*
X88874954Y-111354178D01*
X88396789Y-111259065D01*
X87909257Y-111259065D01*
X87431092Y-111354178D01*
X86980671Y-111540749D01*
X86575303Y-111811607D01*
X86527779Y-111859131D01*
X86373542Y-111795244D01*
X85895377Y-111700131D01*
X85407845Y-111700131D01*
X84929680Y-111795244D01*
X84479259Y-111981815D01*
X84073891Y-112252673D01*
X83729153Y-112597411D01*
X83458295Y-113002779D01*
X83271724Y-113453200D01*
X83176611Y-113931365D01*
X62420838Y-113931365D01*
X62168484Y-111350236D01*
X61974990Y-107871877D01*
X61925091Y-105107165D01*
X61925091Y-104897020D01*
X61932220Y-104578949D01*
X70725000Y-104578949D01*
X70725000Y-105421051D01*
X70889286Y-106246972D01*
X71211544Y-107024972D01*
X71679391Y-107725154D01*
X72274846Y-108320609D01*
X72975028Y-108788456D01*
X73753028Y-109110714D01*
X74578949Y-109275000D01*
X75421051Y-109275000D01*
X76246972Y-109110714D01*
X77024972Y-108788456D01*
X77725154Y-108320609D01*
X78320609Y-107725154D01*
X78788456Y-107024972D01*
X79110714Y-106246972D01*
X79275000Y-105421051D01*
X79275000Y-105004898D01*
X117435096Y-105004898D01*
X117455096Y-105514898D01*
X117458428Y-105539072D01*
X117568428Y-105999072D01*
X117572781Y-106013414D01*
X117656305Y-106238930D01*
X117705474Y-106401004D01*
X117715453Y-106424754D01*
X117745350Y-106479349D01*
X117772782Y-106553415D01*
X117784788Y-106577494D01*
X117882552Y-106729891D01*
X118040723Y-107018725D01*
X118056549Y-107041296D01*
X118473742Y-107515057D01*
X118482696Y-107524231D01*
X118857462Y-107870714D01*
X118867934Y-107879389D01*
X118888962Y-107891970D01*
X118912040Y-107900207D01*
X118936282Y-107903784D01*
X118942121Y-107903493D01*
X119062772Y-107998290D01*
X119081078Y-108010241D01*
X119661078Y-108320241D01*
X119684929Y-108329979D01*
X120334929Y-108519979D01*
X120362079Y-108524749D01*
X120992079Y-108564749D01*
X121004898Y-108564904D01*
X121514898Y-108544904D01*
X121539072Y-108541572D01*
X121999072Y-108431572D01*
X122013414Y-108427219D01*
X122553414Y-108227219D01*
X122577494Y-108215212D01*
X123107494Y-107875212D01*
X123124857Y-107861784D01*
X123457096Y-107554620D01*
X123461618Y-107553995D01*
X123484771Y-107545969D01*
X123505912Y-107533580D01*
X123524231Y-107517304D01*
X123870714Y-107142538D01*
X123885451Y-107123089D01*
X124132938Y-106720038D01*
X124140002Y-106706817D01*
X124240405Y-106488293D01*
X124320241Y-106338922D01*
X124329979Y-106315072D01*
X124347443Y-106255328D01*
X124380418Y-106183558D01*
X124388955Y-106158041D01*
X124427586Y-105981151D01*
X124519979Y-105665071D01*
X124524749Y-105637921D01*
X124564749Y-105007921D01*
X124564904Y-104995102D01*
X124544904Y-104485102D01*
X124541572Y-104460928D01*
X124431572Y-104000928D01*
X124427219Y-103986586D01*
X124343695Y-103761070D01*
X124294526Y-103598996D01*
X124284547Y-103575246D01*
X124254650Y-103520651D01*
X124227218Y-103446585D01*
X124215212Y-103422506D01*
X124117448Y-103270109D01*
X123959277Y-102981275D01*
X123943451Y-102958704D01*
X123526258Y-102484943D01*
X123517304Y-102475769D01*
X123142538Y-102129286D01*
X123123089Y-102114549D01*
X122720038Y-101867062D01*
X122706817Y-101859998D01*
X122488293Y-101759595D01*
X122338922Y-101679759D01*
X122315072Y-101670021D01*
X122255328Y-101652557D01*
X122183558Y-101619582D01*
X122158041Y-101611045D01*
X121981151Y-101572414D01*
X121665071Y-101480021D01*
X121637921Y-101475251D01*
X121007921Y-101435251D01*
X120995102Y-101435096D01*
X120485102Y-101455096D01*
X120471563Y-101456367D01*
X120447797Y-101462340D01*
X120425654Y-101472834D01*
X120405983Y-101487446D01*
X120402061Y-101491781D01*
X120249716Y-101510062D01*
X120228321Y-101514555D01*
X119598996Y-101705474D01*
X119575245Y-101715454D01*
X118981275Y-102040723D01*
X118958704Y-102056549D01*
X118484943Y-102473742D01*
X118475769Y-102482696D01*
X118129286Y-102857462D01*
X118114549Y-102876911D01*
X117867062Y-103279962D01*
X117859998Y-103293183D01*
X117619582Y-103816442D01*
X117611045Y-103841959D01*
X117476694Y-104457142D01*
X117473912Y-104478914D01*
X117456182Y-104931038D01*
X117453425Y-104934680D01*
X117442729Y-104956727D01*
X117436540Y-104980437D01*
X117435096Y-105004898D01*
X79275000Y-105004898D01*
X79275000Y-104578949D01*
X79110714Y-103753028D01*
X78788456Y-102975028D01*
X78320609Y-102274846D01*
X77725154Y-101679391D01*
X77024972Y-101211544D01*
X76246972Y-100889286D01*
X75421051Y-100725000D01*
X74578949Y-100725000D01*
X73753028Y-100889286D01*
X72975028Y-101211544D01*
X72274846Y-101679391D01*
X71679391Y-102274846D01*
X71211544Y-102975028D01*
X70889286Y-103753028D01*
X70725000Y-104578949D01*
X61932220Y-104578949D01*
X62003483Y-101399528D01*
X62227054Y-97927180D01*
X62477114Y-95581103D01*
X83176611Y-95581103D01*
X83176611Y-96068635D01*
X83271724Y-96546800D01*
X83458295Y-96997221D01*
X83729153Y-97402589D01*
X84073891Y-97747327D01*
X84479259Y-98018185D01*
X84929680Y-98204756D01*
X85407845Y-98299869D01*
X85895377Y-98299869D01*
X86373542Y-98204756D01*
X86527779Y-98140869D01*
X86575303Y-98188393D01*
X86980671Y-98459251D01*
X87431092Y-98645822D01*
X87909257Y-98740935D01*
X88396789Y-98740935D01*
X88874954Y-98645822D01*
X89325375Y-98459251D01*
X89730743Y-98188393D01*
X90075481Y-97843655D01*
X90138207Y-97749780D01*
X90067134Y-98107085D01*
X90067134Y-98648787D01*
X90172815Y-99180081D01*
X90380116Y-99680549D01*
X90681070Y-100130959D01*
X91064111Y-100514000D01*
X91514521Y-100814954D01*
X92014989Y-101022255D01*
X92546283Y-101127936D01*
X93087985Y-101127936D01*
X93619279Y-101022255D01*
X94119747Y-100814954D01*
X94570157Y-100514000D01*
X94953198Y-100130959D01*
X95135147Y-99858653D01*
X95175638Y-100062214D01*
X95382939Y-100562682D01*
X95683893Y-101013092D01*
X96066934Y-101396133D01*
X96517344Y-101697087D01*
X97017812Y-101904388D01*
X97549106Y-102010069D01*
X98090808Y-102010069D01*
X98622102Y-101904388D01*
X99122570Y-101697087D01*
X99572980Y-101396133D01*
X99956021Y-101013092D01*
X100256975Y-100562682D01*
X100464276Y-100062214D01*
X100569957Y-99530920D01*
X100569957Y-98989218D01*
X100464276Y-98457924D01*
X100400279Y-98303421D01*
X100797444Y-96050979D01*
X100838154Y-96010269D01*
X101139108Y-95559859D01*
X101346409Y-95059391D01*
X101452090Y-94528097D01*
X101452090Y-93986395D01*
X101346409Y-93455101D01*
X101139108Y-92954633D01*
X100838154Y-92504223D01*
X100455113Y-92121182D01*
X100004703Y-91820228D01*
X99504235Y-91612927D01*
X98972941Y-91507246D01*
X98431239Y-91507246D01*
X97899945Y-91612927D01*
X97399477Y-91820228D01*
X96949067Y-92121182D01*
X96566026Y-92504223D01*
X96384077Y-92776529D01*
X96343586Y-92572968D01*
X96136285Y-92072500D01*
X95835331Y-91622090D01*
X95452290Y-91239049D01*
X95001880Y-90938095D01*
X94501412Y-90730794D01*
X93970118Y-90625113D01*
X93428416Y-90625113D01*
X92897122Y-90730794D01*
X92396654Y-90938095D01*
X91946244Y-91239049D01*
X91563203Y-91622090D01*
X91262249Y-92072500D01*
X91054948Y-92572968D01*
X90965570Y-93022299D01*
X90787405Y-92592171D01*
X90516547Y-92186803D01*
X90171809Y-91842065D01*
X89766441Y-91571207D01*
X89316020Y-91384636D01*
X88837855Y-91289523D01*
X88350323Y-91289523D01*
X87872158Y-91384636D01*
X87717921Y-91448523D01*
X87670397Y-91400999D01*
X87265029Y-91130141D01*
X86814608Y-90943570D01*
X86336443Y-90848457D01*
X85848911Y-90848457D01*
X85370746Y-90943570D01*
X84920325Y-91130141D01*
X84514957Y-91400999D01*
X84170219Y-91745737D01*
X83899361Y-92151105D01*
X83712790Y-92601526D01*
X83617677Y-93079691D01*
X83617677Y-93567223D01*
X83712790Y-94045388D01*
X83776677Y-94199625D01*
X83729153Y-94247149D01*
X83458295Y-94652517D01*
X83271724Y-95102938D01*
X83176611Y-95581103D01*
X62477114Y-95581103D01*
X62595842Y-94467192D01*
X63109192Y-91025704D01*
X63697720Y-87964906D01*
X117657233Y-87964906D01*
X117657233Y-88570628D01*
X117665000Y-88609676D01*
X117665000Y-90390000D01*
X117665401Y-90426102D01*
X117675401Y-90876102D01*
X117675593Y-90883903D01*
X117685593Y-91253903D01*
X117689440Y-91330041D01*
X117729440Y-91870041D01*
X117759157Y-92081426D01*
X117809157Y-92321426D01*
X117858390Y-92503870D01*
X117958390Y-92803870D01*
X118069234Y-93060412D01*
X118209234Y-93320412D01*
X118314801Y-93490464D01*
X118534801Y-93800464D01*
X118710951Y-94009049D01*
X126350951Y-101649049D01*
X126597198Y-101851138D01*
X126878139Y-102001304D01*
X127182978Y-102093776D01*
X127500000Y-102125000D01*
X127817022Y-102093776D01*
X128121861Y-102001304D01*
X128402802Y-101851138D01*
X128649049Y-101649049D01*
X130649049Y-99649049D01*
X130851140Y-99402799D01*
X131001305Y-99121858D01*
X131093777Y-98817019D01*
X131125000Y-98499997D01*
X131124999Y-97999997D01*
X131097522Y-97702435D01*
X131096884Y-97700236D01*
X131471221Y-97700236D01*
X132036325Y-97587830D01*
X132568641Y-97367338D01*
X133047713Y-97047232D01*
X133455130Y-96639815D01*
X133775236Y-96160743D01*
X133995728Y-95628427D01*
X134108134Y-95063323D01*
X134108134Y-94921243D01*
X134125000Y-94750000D01*
X134125000Y-94036098D01*
X134487149Y-94108134D01*
X135063323Y-94108134D01*
X135628427Y-93995728D01*
X136160743Y-93775236D01*
X136639815Y-93455130D01*
X137047232Y-93047713D01*
X137367338Y-92568641D01*
X137587830Y-92036325D01*
X137700236Y-91471221D01*
X137700236Y-90915502D01*
X137742470Y-90938077D01*
X138048783Y-91030996D01*
X138367339Y-91062371D01*
X138685895Y-91030996D01*
X138992208Y-90938077D01*
X139274509Y-90787184D01*
X139521947Y-90584117D01*
X141360425Y-88745639D01*
X141563492Y-88498201D01*
X141714385Y-88215900D01*
X141807304Y-87909587D01*
X141838679Y-87591031D01*
X141807304Y-87272475D01*
X141714385Y-86966162D01*
X141563492Y-86683861D01*
X141360425Y-86436423D01*
X140209758Y-85285756D01*
X139224488Y-84239405D01*
X153629090Y-84239405D01*
X153629090Y-84677691D01*
X153714595Y-85107557D01*
X153882320Y-85512481D01*
X154125820Y-85876903D01*
X154435735Y-86186818D01*
X154800157Y-86430318D01*
X155205081Y-86598043D01*
X155634947Y-86683548D01*
X156073233Y-86683548D01*
X156503099Y-86598043D01*
X156812812Y-86469755D01*
X156680164Y-86789997D01*
X156610030Y-87142583D01*
X156610030Y-87502077D01*
X156680164Y-87854663D01*
X156817736Y-88186791D01*
X157017460Y-88485699D01*
X157271661Y-88739900D01*
X157570569Y-88939624D01*
X157902697Y-89077196D01*
X158062575Y-89108998D01*
X158094377Y-89268876D01*
X158231949Y-89601004D01*
X158431673Y-89899912D01*
X158685874Y-90154113D01*
X158984782Y-90353837D01*
X159316910Y-90491409D01*
X159476789Y-90523211D01*
X159508591Y-90683090D01*
X159646163Y-91015218D01*
X159845887Y-91314126D01*
X160100088Y-91568327D01*
X160398996Y-91768051D01*
X160731124Y-91905623D01*
X160891002Y-91937425D01*
X160922804Y-92097303D01*
X161060376Y-92429431D01*
X161260100Y-92728339D01*
X161514301Y-92982540D01*
X161813209Y-93182264D01*
X162145337Y-93319836D01*
X162497923Y-93389970D01*
X162857417Y-93389970D01*
X163210003Y-93319836D01*
X163334601Y-93268226D01*
X163216129Y-93445531D01*
X163048404Y-93850455D01*
X162962899Y-94280321D01*
X162962899Y-94718607D01*
X163048404Y-95148473D01*
X163216129Y-95553397D01*
X163459629Y-95917819D01*
X163769544Y-96227734D01*
X164133966Y-96471234D01*
X164538890Y-96638959D01*
X164968756Y-96724464D01*
X165407042Y-96724464D01*
X165836908Y-96638959D01*
X166241832Y-96471234D01*
X166606254Y-96227734D01*
X166916169Y-95917819D01*
X167159669Y-95553397D01*
X167305054Y-95202405D01*
X167656046Y-95057020D01*
X168020468Y-94813520D01*
X168330383Y-94503605D01*
X168573883Y-94139183D01*
X168741608Y-93734259D01*
X168827113Y-93304393D01*
X168827113Y-92866107D01*
X168741608Y-92436241D01*
X168573883Y-92031317D01*
X168330383Y-91666895D01*
X168020468Y-91356980D01*
X167656046Y-91113480D01*
X167251122Y-90945755D01*
X166821256Y-90860250D01*
X166382970Y-90860250D01*
X165953104Y-90945755D01*
X165548180Y-91113480D01*
X165183758Y-91356980D01*
X165131935Y-91408803D01*
X165139642Y-91390197D01*
X165209776Y-91037611D01*
X165209776Y-90678117D01*
X165139642Y-90325531D01*
X165002070Y-89993403D01*
X164802346Y-89694495D01*
X164548145Y-89440294D01*
X164249237Y-89240570D01*
X163917109Y-89102998D01*
X163757231Y-89071196D01*
X163725429Y-88911318D01*
X163587857Y-88579190D01*
X163388133Y-88280282D01*
X163133932Y-88026081D01*
X162835024Y-87826357D01*
X162502896Y-87688785D01*
X162343017Y-87656983D01*
X162311215Y-87497104D01*
X162173643Y-87164976D01*
X161973919Y-86866068D01*
X161719718Y-86611867D01*
X161420810Y-86412143D01*
X161088682Y-86274571D01*
X160928804Y-86242769D01*
X160897002Y-86082891D01*
X160759430Y-85750763D01*
X160559706Y-85451855D01*
X160305505Y-85197654D01*
X160006597Y-84997930D01*
X159674469Y-84860358D01*
X159321883Y-84790224D01*
X158962389Y-84790224D01*
X158609803Y-84860358D01*
X158466474Y-84919727D01*
X158686658Y-84772604D01*
X158996573Y-84462689D01*
X159240073Y-84098267D01*
X159407798Y-83693343D01*
X159493303Y-83263477D01*
X159493303Y-82825191D01*
X159407798Y-82395325D01*
X159240073Y-81990401D01*
X158996573Y-81625979D01*
X158686658Y-81316064D01*
X158322236Y-81072564D01*
X157917312Y-80904839D01*
X157487446Y-80819334D01*
X157049160Y-80819334D01*
X156619294Y-80904839D01*
X156214370Y-81072564D01*
X155849948Y-81316064D01*
X155540033Y-81625979D01*
X155296533Y-81990401D01*
X155151147Y-82341393D01*
X154800157Y-82486778D01*
X154435735Y-82730278D01*
X154125820Y-83040193D01*
X153882320Y-83404615D01*
X153714595Y-83809539D01*
X153629090Y-84239405D01*
X139224488Y-84239405D01*
X137800401Y-82727034D01*
X137592342Y-82541034D01*
X136592342Y-81791033D01*
X136181230Y-81567006D01*
X135181229Y-81197006D01*
X134857659Y-81113900D01*
X133787660Y-80953900D01*
X133462820Y-80938232D01*
X132502820Y-80988232D01*
X132230634Y-81025666D01*
X131430634Y-81205666D01*
X131123261Y-81307920D01*
X130453261Y-81607920D01*
X130241246Y-81722426D01*
X129991078Y-81919641D01*
X129773737Y-82128609D01*
X129651640Y-82259700D01*
X129401640Y-82559700D01*
X129196556Y-82873278D01*
X129096556Y-83073278D01*
X128973518Y-83405880D01*
X128923518Y-83605880D01*
X128875000Y-84000000D01*
X128875000Y-84150000D01*
X128902477Y-84447566D01*
X128991225Y-84753510D01*
X129091225Y-85003510D01*
X129202723Y-85215202D01*
X129199135Y-85214488D01*
X128839641Y-85214488D01*
X128487055Y-85284622D01*
X128154927Y-85422194D01*
X128075771Y-85475085D01*
X127972952Y-85296956D01*
X127107344Y-83552214D01*
X126992797Y-83275674D01*
X126656276Y-82772035D01*
X126227965Y-82343724D01*
X125724326Y-82007203D01*
X125164712Y-81775403D01*
X124570628Y-81657233D01*
X123964906Y-81657233D01*
X123370822Y-81775403D01*
X122811208Y-82007203D01*
X122307569Y-82343724D01*
X121879258Y-82772035D01*
X121542737Y-83275674D01*
X121310937Y-83835288D01*
X121192767Y-84429372D01*
X121192767Y-85035094D01*
X121231917Y-85231917D01*
X121035094Y-85192767D01*
X120429372Y-85192767D01*
X119835288Y-85310937D01*
X119275674Y-85542737D01*
X118772035Y-85879258D01*
X118343724Y-86307569D01*
X118007203Y-86811208D01*
X117775403Y-87370822D01*
X117657233Y-87964906D01*
X63697720Y-87964906D01*
X63766204Y-87608741D01*
X64565732Y-84222273D01*
X65506365Y-80872269D01*
X66586467Y-77564564D01*
X67232167Y-75836086D01*
X89893835Y-75836086D01*
X89893835Y-76323618D01*
X89988948Y-76801783D01*
X90175519Y-77252204D01*
X90446377Y-77657572D01*
X90791115Y-78002310D01*
X91196483Y-78273168D01*
X91646904Y-78459739D01*
X92125069Y-78554852D01*
X92397038Y-78554852D01*
X92646081Y-78927572D01*
X92990819Y-79272310D01*
X93396187Y-79543168D01*
X93846608Y-79729739D01*
X94324773Y-79824852D01*
X94812305Y-79824852D01*
X95290470Y-79729739D01*
X95740891Y-79543168D01*
X95934539Y-79413777D01*
X95792007Y-79627091D01*
X95584706Y-80127559D01*
X95479025Y-80658853D01*
X95479025Y-81200555D01*
X95584706Y-81731849D01*
X95792007Y-82232317D01*
X96092961Y-82682727D01*
X96476002Y-83065768D01*
X96926412Y-83366722D01*
X97426880Y-83574023D01*
X97958174Y-83679704D01*
X98499876Y-83679704D01*
X99031170Y-83574023D01*
X99531638Y-83366722D01*
X99893083Y-83125212D01*
X99878435Y-83198853D01*
X99878435Y-83740555D01*
X99984116Y-84271849D01*
X100191417Y-84772317D01*
X100492371Y-85222727D01*
X100875412Y-85605768D01*
X101325822Y-85906722D01*
X101826290Y-86114023D01*
X102357584Y-86219704D01*
X102899286Y-86219704D01*
X103430580Y-86114023D01*
X103931048Y-85906722D01*
X104381458Y-85605768D01*
X104764499Y-85222727D01*
X105065453Y-84772317D01*
X105272754Y-84271849D01*
X105378435Y-83740555D01*
X105378435Y-83456562D01*
X106524428Y-81471645D01*
X106921458Y-81206358D01*
X107304499Y-80823317D01*
X107605453Y-80372907D01*
X107812754Y-79872439D01*
X107918435Y-79341145D01*
X107918435Y-78799443D01*
X107812754Y-78268149D01*
X107605453Y-77767681D01*
X107304499Y-77317271D01*
X106921458Y-76934230D01*
X106471048Y-76633276D01*
X105970580Y-76425975D01*
X105439286Y-76320294D01*
X104897584Y-76320294D01*
X104366290Y-76425975D01*
X103865822Y-76633276D01*
X103504377Y-76874786D01*
X103519025Y-76801145D01*
X103519025Y-76259443D01*
X103413344Y-75728149D01*
X103206043Y-75227681D01*
X102905089Y-74777271D01*
X102522048Y-74394230D01*
X102071638Y-74093276D01*
X101571170Y-73885975D01*
X101039876Y-73780294D01*
X100498174Y-73780294D01*
X99966880Y-73885975D01*
X99466412Y-74093276D01*
X99016002Y-74394230D01*
X98632961Y-74777271D01*
X98332007Y-75227681D01*
X98313539Y-75272267D01*
X98313539Y-74906382D01*
X98218426Y-74428217D01*
X98031855Y-73977796D01*
X97760997Y-73572428D01*
X97416259Y-73227690D01*
X97010891Y-72956832D01*
X96560470Y-72770261D01*
X96082305Y-72675148D01*
X95810336Y-72675148D01*
X95561293Y-72302428D01*
X95216555Y-71957690D01*
X94811187Y-71686832D01*
X94360766Y-71500261D01*
X93882601Y-71405148D01*
X93395069Y-71405148D01*
X92916904Y-71500261D01*
X92466483Y-71686832D01*
X92061115Y-71957690D01*
X91716377Y-72302428D01*
X91445519Y-72707796D01*
X91258948Y-73158217D01*
X91163835Y-73636382D01*
X91163835Y-73908351D01*
X90791115Y-74157394D01*
X90446377Y-74502132D01*
X90175519Y-74907500D01*
X89988948Y-75357921D01*
X89893835Y-75836086D01*
X67232167Y-75836086D01*
X67804118Y-74305030D01*
X69157204Y-71099326D01*
X70643342Y-67953101D01*
X72259933Y-64871855D01*
X74004125Y-61861026D01*
X75221549Y-59948873D01*
X79550673Y-59948873D01*
X79550673Y-60589067D01*
X79675569Y-61216960D01*
X79920561Y-61808422D01*
X80276233Y-62340724D01*
X80728919Y-62793410D01*
X80760227Y-62814329D01*
X80715253Y-62922905D01*
X80597083Y-63516989D01*
X80597083Y-64122711D01*
X80715253Y-64716795D01*
X80947053Y-65276409D01*
X81283574Y-65780048D01*
X81711885Y-66208359D01*
X82215524Y-66544880D01*
X82775138Y-66776680D01*
X83369222Y-66894850D01*
X83974944Y-66894850D01*
X84569028Y-66776680D01*
X85128642Y-66544880D01*
X85632281Y-66208359D01*
X86060592Y-65780048D01*
X86397113Y-65276409D01*
X86628913Y-64716795D01*
X86747083Y-64122711D01*
X86747083Y-63516989D01*
X86628913Y-62922905D01*
X86397113Y-62363291D01*
X86261225Y-62159920D01*
X86836824Y-62159920D01*
X86836824Y-62647452D01*
X86931937Y-63125617D01*
X87118508Y-63576038D01*
X87389366Y-63981406D01*
X87734104Y-64326144D01*
X88016141Y-64514595D01*
X87966237Y-64765477D01*
X87966237Y-65253009D01*
X88061350Y-65731174D01*
X88247921Y-66181595D01*
X88518779Y-66586963D01*
X88863517Y-66931701D01*
X89268885Y-67202559D01*
X89719306Y-67389130D01*
X90197471Y-67484243D01*
X90685003Y-67484243D01*
X91163168Y-67389130D01*
X91613589Y-67202559D01*
X92018957Y-66931701D01*
X92363695Y-66586963D01*
X92634553Y-66181595D01*
X92821124Y-65731174D01*
X92885780Y-65406126D01*
X93246269Y-65256806D01*
X93651637Y-64985948D01*
X93996375Y-64641210D01*
X94267233Y-64235842D01*
X94453804Y-63785421D01*
X94518460Y-63460373D01*
X94878950Y-63311053D01*
X95284318Y-63040195D01*
X95629056Y-62695457D01*
X95899914Y-62290089D01*
X96086485Y-61839668D01*
X96151141Y-61514620D01*
X96511631Y-61365300D01*
X96916999Y-61094442D01*
X97261737Y-60749704D01*
X97532595Y-60344336D01*
X97719166Y-59893915D01*
X97743659Y-59770777D01*
X103119852Y-59770777D01*
X103119852Y-60258309D01*
X103214965Y-60736474D01*
X103401536Y-61186895D01*
X103672394Y-61592263D01*
X104017132Y-61937001D01*
X104422500Y-62207859D01*
X104782990Y-62357179D01*
X104847646Y-62682227D01*
X105034217Y-63132648D01*
X105305075Y-63538016D01*
X105649813Y-63882754D01*
X106055181Y-64153612D01*
X106505602Y-64340183D01*
X106983767Y-64435296D01*
X107471299Y-64435296D01*
X107792854Y-64371335D01*
X107689860Y-64440153D01*
X107306819Y-64823194D01*
X107005865Y-65273604D01*
X106798564Y-65774072D01*
X106692883Y-66305366D01*
X106692883Y-66847068D01*
X106798564Y-67378362D01*
X107005865Y-67878830D01*
X107306819Y-68329240D01*
X107689860Y-68712281D01*
X108140270Y-69013235D01*
X108640738Y-69220536D01*
X109172032Y-69326217D01*
X109713734Y-69326217D01*
X110245028Y-69220536D01*
X110248938Y-69218916D01*
X110063925Y-69665577D01*
X109958244Y-70196871D01*
X109958244Y-70738573D01*
X110063925Y-71269867D01*
X110271226Y-71770335D01*
X110572180Y-72220745D01*
X110955221Y-72603786D01*
X111405631Y-72904740D01*
X111906099Y-73112041D01*
X112437393Y-73217722D01*
X112979095Y-73217722D01*
X113510389Y-73112041D01*
X114010857Y-72904740D01*
X114461267Y-72603786D01*
X114844308Y-72220745D01*
X115145262Y-71770335D01*
X115352563Y-71269867D01*
X115411538Y-70973379D01*
X116628340Y-69952361D01*
X116870600Y-69952361D01*
X117401894Y-69846680D01*
X117902362Y-69639379D01*
X118352772Y-69338425D01*
X118735813Y-68955384D01*
X119036767Y-68504974D01*
X119244068Y-68004506D01*
X119349749Y-67473212D01*
X119349749Y-66931510D01*
X119244068Y-66400216D01*
X119036767Y-65899748D01*
X118735813Y-65449338D01*
X118352772Y-65066297D01*
X117902362Y-64765343D01*
X117401894Y-64558042D01*
X116870600Y-64452361D01*
X116328898Y-64452361D01*
X115797604Y-64558042D01*
X115793694Y-64559662D01*
X115978707Y-64113001D01*
X116084388Y-63581707D01*
X116084388Y-63040005D01*
X115978707Y-62508711D01*
X115771406Y-62008243D01*
X115470452Y-61557833D01*
X115087411Y-61174792D01*
X114637001Y-60873838D01*
X114136533Y-60666537D01*
X113605239Y-60560856D01*
X113063537Y-60560856D01*
X112532243Y-60666537D01*
X112031775Y-60873838D01*
X111581365Y-61174792D01*
X111444675Y-61311482D01*
X111553173Y-61049546D01*
X111648286Y-60571381D01*
X111648286Y-60083849D01*
X111553173Y-59605684D01*
X111366602Y-59155263D01*
X111095744Y-58749895D01*
X110751006Y-58405157D01*
X110345638Y-58134299D01*
X109985148Y-57984979D01*
X109920492Y-57659931D01*
X109733921Y-57209510D01*
X109463063Y-56804142D01*
X109118325Y-56459404D01*
X108712957Y-56188546D01*
X108262536Y-56001975D01*
X107784371Y-55906862D01*
X107296839Y-55906862D01*
X106818674Y-56001975D01*
X106368253Y-56188546D01*
X105962885Y-56459404D01*
X105618147Y-56804142D01*
X105347289Y-57209510D01*
X105197969Y-57570000D01*
X104872921Y-57634656D01*
X104422500Y-57821227D01*
X104017132Y-58092085D01*
X103672394Y-58436823D01*
X103401536Y-58842191D01*
X103214965Y-59292612D01*
X103119852Y-59770777D01*
X97743659Y-59770777D01*
X97814279Y-59415750D01*
X97814279Y-58928218D01*
X97719166Y-58450053D01*
X97532595Y-57999632D01*
X97261737Y-57594264D01*
X96916999Y-57249526D01*
X96634962Y-57061075D01*
X96684866Y-56810193D01*
X96684866Y-56322661D01*
X96589753Y-55844496D01*
X96403182Y-55394075D01*
X96132324Y-54988707D01*
X95787586Y-54643969D01*
X95397128Y-54383074D01*
X95756186Y-54143159D01*
X96184497Y-53714848D01*
X96521018Y-53211209D01*
X96752818Y-52651595D01*
X96870988Y-52057511D01*
X96870988Y-51451789D01*
X96752818Y-50857705D01*
X96521018Y-50298091D01*
X96184497Y-49794452D01*
X95756186Y-49366141D01*
X95252547Y-49029620D01*
X94692933Y-48797820D01*
X94560382Y-48771454D01*
X120796702Y-48771454D01*
X120796702Y-49258986D01*
X120891815Y-49737151D01*
X121078386Y-50187572D01*
X121349244Y-50592940D01*
X121693982Y-50937678D01*
X121707514Y-50946720D01*
X121665433Y-51158273D01*
X121665433Y-51645805D01*
X121760546Y-52123970D01*
X121947117Y-52574391D01*
X122217975Y-52979759D01*
X122562713Y-53324497D01*
X122968081Y-53595355D01*
X123418502Y-53781926D01*
X123819992Y-53861787D01*
X123340830Y-54060263D01*
X122890420Y-54361217D01*
X122507379Y-54744258D01*
X122206425Y-55194668D01*
X121999124Y-55695136D01*
X121893443Y-56226430D01*
X121893443Y-56768132D01*
X121999124Y-57299426D01*
X122206425Y-57799894D01*
X122507379Y-58250304D01*
X122890420Y-58633345D01*
X123340830Y-58934299D01*
X123841298Y-59141600D01*
X124372592Y-59247281D01*
X124515456Y-59247281D01*
X124244841Y-59517896D01*
X123943887Y-59968306D01*
X123736586Y-60468774D01*
X123630905Y-61000068D01*
X123630905Y-61541770D01*
X123736586Y-62073064D01*
X123943887Y-62573532D01*
X124244841Y-63023942D01*
X124627882Y-63406983D01*
X125078292Y-63707937D01*
X125578760Y-63915238D01*
X126110054Y-64020919D01*
X126651756Y-64020919D01*
X127183050Y-63915238D01*
X127683518Y-63707937D01*
X128133928Y-63406983D01*
X128516969Y-63023942D01*
X128519675Y-63019892D01*
X130663403Y-62239639D01*
X130883692Y-62283457D01*
X131425394Y-62283457D01*
X131956688Y-62177776D01*
X132457156Y-61970475D01*
X132907566Y-61669521D01*
X133290607Y-61286480D01*
X133591561Y-60836070D01*
X133798862Y-60335602D01*
X133904543Y-59804308D01*
X133904543Y-59262606D01*
X133798862Y-58731312D01*
X133591561Y-58230844D01*
X133290607Y-57780434D01*
X132907566Y-57397393D01*
X132457156Y-57096439D01*
X131956688Y-56889138D01*
X131425394Y-56783457D01*
X131282530Y-56783457D01*
X131553145Y-56512842D01*
X131854099Y-56062432D01*
X132061400Y-55561964D01*
X132167081Y-55030670D01*
X132167081Y-54488968D01*
X132061400Y-53957674D01*
X131854099Y-53457206D01*
X131553145Y-53006796D01*
X131170104Y-52623755D01*
X130719694Y-52322801D01*
X130219226Y-52115500D01*
X129687932Y-52009819D01*
X129146230Y-52009819D01*
X128614936Y-52115500D01*
X128325243Y-52235495D01*
X128449710Y-52111028D01*
X128720568Y-51705660D01*
X128907139Y-51255239D01*
X129002252Y-50777074D01*
X129002252Y-50289542D01*
X128907139Y-49811377D01*
X128720568Y-49360956D01*
X128449710Y-48955588D01*
X128104972Y-48610850D01*
X128091440Y-48601808D01*
X128133521Y-48390255D01*
X128133521Y-47902723D01*
X128038408Y-47424558D01*
X127851837Y-46974137D01*
X127580979Y-46568769D01*
X127236241Y-46224031D01*
X126830873Y-45953173D01*
X126380452Y-45766602D01*
X125902287Y-45671489D01*
X125414755Y-45671489D01*
X124936590Y-45766602D01*
X124486169Y-45953173D01*
X124080801Y-46224031D01*
X123736063Y-46568769D01*
X123727021Y-46582301D01*
X123515468Y-46540220D01*
X123027936Y-46540220D01*
X122549771Y-46635333D01*
X122099350Y-46821904D01*
X121693982Y-47092762D01*
X121349244Y-47437500D01*
X121078386Y-47842868D01*
X120891815Y-48293289D01*
X120796702Y-48771454D01*
X94560382Y-48771454D01*
X94098849Y-48679650D01*
X93493127Y-48679650D01*
X92899043Y-48797820D01*
X92339429Y-49029620D01*
X92292095Y-49061247D01*
X92219490Y-48988642D01*
X91687188Y-48632970D01*
X91095726Y-48387978D01*
X90467833Y-48263082D01*
X89827639Y-48263082D01*
X89199746Y-48387978D01*
X88608284Y-48632970D01*
X88075982Y-48988642D01*
X87623296Y-49441328D01*
X87267624Y-49973630D01*
X87022632Y-50565092D01*
X86897736Y-51192985D01*
X86897736Y-51833179D01*
X87022632Y-52461072D01*
X87267624Y-53052534D01*
X87623296Y-53584836D01*
X88075982Y-54037522D01*
X88608284Y-54393194D01*
X89199746Y-54638186D01*
X89827639Y-54763082D01*
X90467833Y-54763082D01*
X91095726Y-54638186D01*
X91687188Y-54393194D01*
X91948591Y-54218530D01*
X92339429Y-54479680D01*
X92671911Y-54617399D01*
X92632146Y-54643969D01*
X92287408Y-54988707D01*
X92016550Y-55394075D01*
X91829979Y-55844496D01*
X91765323Y-56169544D01*
X91404833Y-56318864D01*
X90999465Y-56589722D01*
X90654727Y-56934460D01*
X90383869Y-57339828D01*
X90197298Y-57790249D01*
X90132642Y-58115297D01*
X89772153Y-58264617D01*
X89366785Y-58535475D01*
X89022047Y-58880213D01*
X88751189Y-59285581D01*
X88564618Y-59736002D01*
X88499962Y-60061050D01*
X88139472Y-60210370D01*
X87734104Y-60481228D01*
X87389366Y-60825966D01*
X87118508Y-61231334D01*
X86931937Y-61681755D01*
X86836824Y-62159920D01*
X86261225Y-62159920D01*
X86060592Y-61859652D01*
X85777023Y-61576083D01*
X85925777Y-61216960D01*
X86050673Y-60589067D01*
X86050673Y-59948873D01*
X85936855Y-59376671D01*
X86088313Y-59275469D01*
X86370371Y-58993411D01*
X86591983Y-58661746D01*
X86612416Y-58612416D01*
X86661746Y-58591983D01*
X86993411Y-58370371D01*
X87275469Y-58088313D01*
X87497081Y-57756648D01*
X87649729Y-57388122D01*
X87727549Y-56996896D01*
X87727549Y-56598006D01*
X87649729Y-56206780D01*
X87497081Y-55838254D01*
X87275469Y-55506589D01*
X86993411Y-55224531D01*
X86661746Y-55002919D01*
X86293220Y-54850271D01*
X85901994Y-54772451D01*
X85503104Y-54772451D01*
X85111878Y-54850271D01*
X84743352Y-55002919D01*
X84411687Y-55224531D01*
X84129629Y-55506589D01*
X83908017Y-55838254D01*
X83887584Y-55887584D01*
X83838254Y-55908017D01*
X83506589Y-56129629D01*
X83224531Y-56411687D01*
X83002919Y-56743352D01*
X82888755Y-57018970D01*
X82480576Y-57018970D01*
X81852683Y-57143866D01*
X81261221Y-57388858D01*
X80728919Y-57744530D01*
X80276233Y-58197216D01*
X79920561Y-58729518D01*
X79675569Y-59320980D01*
X79550673Y-59948873D01*
X75221549Y-59948873D01*
X75872890Y-58925842D01*
X77862905Y-56071523D01*
X79970701Y-53303040D01*
X82192592Y-50625237D01*
X84524666Y-48042829D01*
X86962823Y-45560355D01*
X89502802Y-43182151D01*
X90203692Y-42578949D01*
X108725000Y-42578949D01*
X108725000Y-43421051D01*
X108889286Y-44246972D01*
X109211544Y-45024972D01*
X109679391Y-45725154D01*
X110274846Y-46320609D01*
X110975028Y-46788456D01*
X111753028Y-47110714D01*
X112578949Y-47275000D01*
X113421051Y-47275000D01*
X114246972Y-47110714D01*
X115024972Y-46788456D01*
X115725154Y-46320609D01*
X116320609Y-45725154D01*
X116788456Y-45024972D01*
X117110714Y-44246972D01*
X117275000Y-43421051D01*
X117275000Y-42578949D01*
X117110714Y-41753028D01*
X116788456Y-40975028D01*
X116320609Y-40274846D01*
X115725154Y-39679391D01*
X115024972Y-39211544D01*
X114246972Y-38889286D01*
X113421051Y-38725000D01*
X112578949Y-38725000D01*
X111753028Y-38889286D01*
X110975028Y-39211544D01*
X110274846Y-39679391D01*
X109679391Y-40274846D01*
X109211544Y-40975028D01*
X108889286Y-41753028D01*
X108725000Y-42578949D01*
X90203692Y-42578949D01*
X92140151Y-40912391D01*
X94870224Y-38755068D01*
X97688253Y-36713955D01*
X100589264Y-34792651D01*
X103568213Y-32994498D01*
X106619822Y-31322682D01*
X109738789Y-29780106D01*
X112923431Y-28367803D01*
X115405217Y-27376866D01*
X115681771Y-27301645D01*
X115889260Y-27287077D01*
X116095625Y-27313089D01*
G04 #@! TA.AperFunction,Conductor*
D21*
G36*
X116095625Y-27313089D02*
G01*
X116293017Y-27378691D01*
X116484098Y-27487170D01*
X116678280Y-27650640D01*
X155447611Y-66419972D01*
X155420681Y-66434366D01*
X155173243Y-66637433D01*
X153334765Y-68475911D01*
X153131698Y-68723349D01*
X152980805Y-69005650D01*
X152887886Y-69311963D01*
X152856511Y-69630519D01*
X152887886Y-69949075D01*
X152980805Y-70255388D01*
X153003380Y-70297622D01*
X152447661Y-70297622D01*
X151882557Y-70410028D01*
X151350241Y-70630520D01*
X150871169Y-70950626D01*
X150463752Y-71358043D01*
X150143646Y-71837115D01*
X149923154Y-72369431D01*
X149810748Y-72934535D01*
X149810748Y-73510709D01*
X149904858Y-73983834D01*
X149431733Y-73889724D01*
X148855559Y-73889724D01*
X148290455Y-74002130D01*
X147758139Y-74222622D01*
X147279067Y-74542728D01*
X146871650Y-74950145D01*
X146551544Y-75429217D01*
X146331052Y-75961533D01*
X146218646Y-76526637D01*
X146218646Y-77102811D01*
X146312757Y-77575938D01*
X145839630Y-77481827D01*
X145263456Y-77481827D01*
X144698352Y-77594233D01*
X144166036Y-77814725D01*
X143686964Y-78134831D01*
X143279547Y-78542248D01*
X142959441Y-79021320D01*
X142738949Y-79553636D01*
X142626543Y-80118740D01*
X142626543Y-80694914D01*
X142738949Y-81260018D01*
X142959441Y-81792334D01*
X143279547Y-82271406D01*
X143686964Y-82678823D01*
X144166036Y-82998929D01*
X144698352Y-83219421D01*
X145263456Y-83331827D01*
X145839630Y-83331827D01*
X146404734Y-83219421D01*
X146937050Y-82998929D01*
X147416122Y-82678823D01*
X147823539Y-82271406D01*
X148143645Y-81792334D01*
X148364137Y-81260018D01*
X148476543Y-80694914D01*
X148476543Y-80118740D01*
X148382432Y-79645613D01*
X148855559Y-79739724D01*
X149431733Y-79739724D01*
X149996837Y-79627318D01*
X150529153Y-79406826D01*
X151008225Y-79086720D01*
X151415642Y-78679303D01*
X151735748Y-78200231D01*
X151956240Y-77667915D01*
X152068646Y-77102811D01*
X152068646Y-76526637D01*
X151974536Y-76053512D01*
X152447661Y-76147622D01*
X153023835Y-76147622D01*
X153588939Y-76035216D01*
X154121255Y-75814724D01*
X154600327Y-75494618D01*
X155007744Y-75087201D01*
X155327850Y-74608129D01*
X155548342Y-74075813D01*
X155660748Y-73510709D01*
X155660748Y-72954990D01*
X155702982Y-72977565D01*
X156009295Y-73070484D01*
X156327851Y-73101859D01*
X156646407Y-73070484D01*
X156952720Y-72977565D01*
X157235021Y-72826672D01*
X157482459Y-72623605D01*
X159320937Y-70785127D01*
X159524004Y-70537689D01*
X159538398Y-70510759D01*
X169193565Y-80165926D01*
X169385638Y-80399759D01*
X169483928Y-80583070D01*
X169544744Y-80781987D01*
X169575000Y-81079858D01*
X169575001Y-93647507D01*
X169545470Y-93948683D01*
X169485352Y-94147803D01*
X169387701Y-94331458D01*
X169256239Y-94492647D01*
X169049055Y-94664044D01*
X168979910Y-94707251D01*
X168975783Y-94710429D01*
X168968533Y-94714415D01*
X168261398Y-95163177D01*
X168179885Y-95222399D01*
X168097154Y-95279899D01*
X167112984Y-96059942D01*
X166989583Y-96171053D01*
X166933335Y-96221699D01*
X166054696Y-97118936D01*
X166054687Y-97118944D01*
X165896728Y-97301942D01*
X165137472Y-98302226D01*
X165137468Y-98302231D01*
X165102135Y-98355412D01*
X165003688Y-98503586D01*
X165003683Y-98503596D01*
X164375788Y-99591139D01*
X164375782Y-99591149D01*
X164268295Y-99807681D01*
X163781649Y-100965367D01*
X163702148Y-101193663D01*
X163364437Y-102403208D01*
X163364436Y-102403212D01*
X163314175Y-102639673D01*
X163130723Y-103882003D01*
X163130721Y-103882014D01*
X163110493Y-104122909D01*
X163084194Y-105378444D01*
X163094317Y-105619975D01*
X163225585Y-106868904D01*
X163265900Y-107107262D01*
X163552665Y-108329893D01*
X163601441Y-108491447D01*
X163622537Y-108561319D01*
X164060275Y-109738363D01*
X164060277Y-109738368D01*
X164158603Y-109959211D01*
X164740415Y-111072115D01*
X164865644Y-111278893D01*
X164865652Y-111278903D01*
X165582348Y-112310095D01*
X165582353Y-112310103D01*
X165732512Y-112499555D01*
X166572814Y-113432804D01*
X166745532Y-113601943D01*
X167696167Y-114422508D01*
X167696174Y-114422515D01*
X167888730Y-114568672D01*
X168906740Y-115245036D01*
X169202008Y-115456427D01*
X169344395Y-115608054D01*
X169454622Y-115784454D01*
X169528483Y-115978895D01*
X169573326Y-116244026D01*
X169574999Y-116291923D01*
X169575002Y-128913198D01*
X169545471Y-129214373D01*
X169485353Y-129413493D01*
X169387702Y-129597148D01*
X169198470Y-129829170D01*
X159201983Y-139825657D01*
X159140446Y-139516289D01*
X158919954Y-138983973D01*
X158599848Y-138504901D01*
X158192431Y-138097484D01*
X157713359Y-137777378D01*
X157181043Y-137556886D01*
X156615939Y-137444480D01*
X156039765Y-137444480D01*
X155566638Y-137538591D01*
X155660749Y-137065464D01*
X155660749Y-136489290D01*
X155548343Y-135924186D01*
X155327851Y-135391870D01*
X155007745Y-134912798D01*
X154600328Y-134505381D01*
X154121256Y-134185275D01*
X153588940Y-133964783D01*
X153023836Y-133852377D01*
X152447662Y-133852377D01*
X151974537Y-133946487D01*
X152068647Y-133473362D01*
X152068647Y-132897188D01*
X151956241Y-132332084D01*
X151735749Y-131799768D01*
X151415643Y-131320696D01*
X151008226Y-130913279D01*
X150529154Y-130593173D01*
X149996838Y-130372681D01*
X149431734Y-130260275D01*
X148876015Y-130260275D01*
X148898590Y-130218041D01*
X148991509Y-129911728D01*
X149022884Y-129593172D01*
X148991509Y-129274616D01*
X148898590Y-128968303D01*
X148747697Y-128686002D01*
X148544630Y-128438564D01*
X146706152Y-126600086D01*
X146458714Y-126397019D01*
X146176413Y-126246126D01*
X145870100Y-126153207D01*
X145551544Y-126121832D01*
X145232988Y-126153207D01*
X144926675Y-126246126D01*
X144644374Y-126397019D01*
X144396936Y-126600086D01*
X142558458Y-128438564D01*
X142355391Y-128686002D01*
X142204498Y-128968303D01*
X142111579Y-129274616D01*
X142080204Y-129593172D01*
X142111579Y-129911728D01*
X142204498Y-130218041D01*
X142355391Y-130500342D01*
X142558458Y-130747780D01*
X144396936Y-132586258D01*
X144644374Y-132789325D01*
X144926675Y-132940218D01*
X145232988Y-133033137D01*
X145551544Y-133064512D01*
X145870100Y-133033137D01*
X146176413Y-132940218D01*
X146218647Y-132917643D01*
X146218647Y-133473362D01*
X146331053Y-134038466D01*
X146551545Y-134570782D01*
X146871651Y-135049854D01*
X147279068Y-135457271D01*
X147758140Y-135777377D01*
X148290456Y-135997869D01*
X148855560Y-136110275D01*
X149431734Y-136110275D01*
X149904859Y-136016165D01*
X149810749Y-136489290D01*
X149810749Y-137065464D01*
X149923155Y-137630568D01*
X150143647Y-138162884D01*
X150463753Y-138641956D01*
X150871170Y-139049373D01*
X151350242Y-139369479D01*
X151882558Y-139589971D01*
X152447662Y-139702377D01*
X153023836Y-139702377D01*
X153496963Y-139608266D01*
X153402852Y-140081393D01*
X153402852Y-140657567D01*
X153515258Y-141222671D01*
X153735750Y-141754987D01*
X154055856Y-142234059D01*
X154463273Y-142641476D01*
X154942345Y-142961582D01*
X155474661Y-143182074D01*
X155784029Y-143243611D01*
X116686519Y-182341120D01*
X116452678Y-182533199D01*
X116269367Y-182631489D01*
X116070452Y-182692303D01*
X115863521Y-182713323D01*
X115644761Y-182692644D01*
X115420091Y-182628611D01*
X112252103Y-181347630D01*
X109083703Y-179909312D01*
X105978334Y-178339587D01*
X102941433Y-176641206D01*
X99978283Y-174817121D01*
X97094164Y-172870585D01*
X94294054Y-170804958D01*
X91582898Y-168623884D01*
X89248306Y-166578949D01*
X108725000Y-166578949D01*
X108725000Y-167421051D01*
X108889286Y-168246972D01*
X109211544Y-169024972D01*
X109679391Y-169725154D01*
X110274846Y-170320609D01*
X110975028Y-170788456D01*
X111753028Y-171110714D01*
X112578949Y-171275000D01*
X113421051Y-171275000D01*
X114246972Y-171110714D01*
X115024972Y-170788456D01*
X115725154Y-170320609D01*
X116320609Y-169725154D01*
X116788456Y-169024972D01*
X117110714Y-168246972D01*
X117275000Y-167421051D01*
X117275000Y-166578949D01*
X117110714Y-165753028D01*
X116788456Y-164975028D01*
X116320609Y-164274846D01*
X115725154Y-163679391D01*
X115024972Y-163211544D01*
X114246972Y-162889286D01*
X113421051Y-162725000D01*
X112578949Y-162725000D01*
X111753028Y-162889286D01*
X110975028Y-163211544D01*
X110274846Y-163679391D01*
X109679391Y-164274846D01*
X109211544Y-164975028D01*
X108889286Y-165753028D01*
X108725000Y-166578949D01*
X89248306Y-166578949D01*
X88965468Y-166331204D01*
X86446329Y-163930918D01*
X84029935Y-161427267D01*
X81720470Y-158824590D01*
X79522032Y-156127499D01*
X77438489Y-153340745D01*
X75473452Y-150469162D01*
X74812609Y-149410933D01*
X79550673Y-149410933D01*
X79550673Y-150051127D01*
X79675569Y-150679020D01*
X79920561Y-151270482D01*
X80276233Y-151802784D01*
X80728919Y-152255470D01*
X81261221Y-152611142D01*
X81852683Y-152856134D01*
X82480576Y-152981030D01*
X83120770Y-152981030D01*
X83748663Y-152856134D01*
X84340125Y-152611142D01*
X84872427Y-152255470D01*
X85325113Y-151802784D01*
X85680785Y-151270482D01*
X85925777Y-150679020D01*
X86050673Y-150051127D01*
X86050673Y-149410933D01*
X85925777Y-148783040D01*
X85777023Y-148423917D01*
X86060592Y-148140348D01*
X86295184Y-147789257D01*
X86560170Y-148185837D01*
X86904908Y-148530575D01*
X87310276Y-148801433D01*
X87670766Y-148950753D01*
X87735422Y-149275800D01*
X87921993Y-149726221D01*
X88192851Y-150131589D01*
X88537589Y-150476327D01*
X88942957Y-150747185D01*
X89303446Y-150896505D01*
X89368102Y-151221553D01*
X89554673Y-151671974D01*
X89592765Y-151728983D01*
X89438313Y-151574531D01*
X89106648Y-151352919D01*
X88738122Y-151200271D01*
X88346896Y-151122451D01*
X87948006Y-151122451D01*
X87556780Y-151200271D01*
X87188254Y-151352919D01*
X86856589Y-151574531D01*
X86574531Y-151856589D01*
X86352919Y-152188254D01*
X86200271Y-152556780D01*
X86122451Y-152948006D01*
X86122451Y-153346896D01*
X86200271Y-153738122D01*
X86352919Y-154106648D01*
X86574531Y-154438313D01*
X86856589Y-154720371D01*
X87188254Y-154941983D01*
X87237584Y-154962416D01*
X87258017Y-155011746D01*
X87479629Y-155343411D01*
X87761687Y-155625469D01*
X88093352Y-155847081D01*
X88189242Y-155886800D01*
X88075982Y-155962478D01*
X87623296Y-156415164D01*
X87267624Y-156947466D01*
X87022632Y-157538928D01*
X86897736Y-158166821D01*
X86897736Y-158807015D01*
X87022632Y-159434908D01*
X87267624Y-160026370D01*
X87623296Y-160558672D01*
X88075982Y-161011358D01*
X88608284Y-161367030D01*
X89199746Y-161612022D01*
X89827639Y-161736918D01*
X90467833Y-161736918D01*
X91095726Y-161612022D01*
X91687188Y-161367030D01*
X92219490Y-161011358D01*
X92292095Y-160938753D01*
X92339429Y-160970380D01*
X92899043Y-161202180D01*
X93493127Y-161320350D01*
X94098849Y-161320350D01*
X94692933Y-161202180D01*
X95252547Y-160970380D01*
X95595817Y-160741014D01*
X120796702Y-160741014D01*
X120796702Y-161228546D01*
X120891815Y-161706711D01*
X121078386Y-162157132D01*
X121349244Y-162562500D01*
X121693982Y-162907238D01*
X122099350Y-163178096D01*
X122549771Y-163364667D01*
X123027936Y-163459780D01*
X123515468Y-163459780D01*
X123727021Y-163417699D01*
X123736063Y-163431231D01*
X124080801Y-163775969D01*
X124486169Y-164046827D01*
X124936590Y-164233398D01*
X125414755Y-164328511D01*
X125902287Y-164328511D01*
X126380452Y-164233398D01*
X126830873Y-164046827D01*
X127236241Y-163775969D01*
X127580979Y-163431231D01*
X127851837Y-163025863D01*
X128038408Y-162575442D01*
X128133521Y-162097277D01*
X128133521Y-161609745D01*
X128091440Y-161398192D01*
X128104972Y-161389150D01*
X128449710Y-161044412D01*
X128720568Y-160639044D01*
X128907139Y-160188623D01*
X129002252Y-159710458D01*
X129002252Y-159222926D01*
X128907139Y-158744761D01*
X128720568Y-158294340D01*
X128449710Y-157888972D01*
X128325241Y-157764503D01*
X128614936Y-157884499D01*
X129146230Y-157990180D01*
X129687932Y-157990180D01*
X130219226Y-157884499D01*
X130719694Y-157677198D01*
X131170104Y-157376244D01*
X131553145Y-156993203D01*
X131854099Y-156542793D01*
X132061400Y-156042325D01*
X132167081Y-155511031D01*
X132167081Y-154969329D01*
X132061400Y-154438035D01*
X131854099Y-153937567D01*
X131553145Y-153487157D01*
X131282530Y-153216542D01*
X131425394Y-153216542D01*
X131956688Y-153110861D01*
X132457156Y-152903560D01*
X132907566Y-152602606D01*
X133290607Y-152219565D01*
X133591561Y-151769155D01*
X133798862Y-151268687D01*
X133904543Y-150737393D01*
X133904543Y-150195691D01*
X133798862Y-149664397D01*
X133591561Y-149163929D01*
X133290607Y-148713519D01*
X132907566Y-148330478D01*
X132457156Y-148029524D01*
X131956688Y-147822223D01*
X131425394Y-147716542D01*
X130883692Y-147716542D01*
X130663401Y-147760361D01*
X128519676Y-146980108D01*
X128516969Y-146976057D01*
X128133928Y-146593016D01*
X127683518Y-146292062D01*
X127183050Y-146084761D01*
X126651756Y-145979080D01*
X126110054Y-145979080D01*
X125578760Y-146084761D01*
X125078292Y-146292062D01*
X124627882Y-146593016D01*
X124244841Y-146976057D01*
X123943887Y-147426467D01*
X123736586Y-147926935D01*
X123630905Y-148458229D01*
X123630905Y-148999931D01*
X123736586Y-149531225D01*
X123943887Y-150031693D01*
X124244841Y-150482103D01*
X124515456Y-150752718D01*
X124372592Y-150752718D01*
X123841298Y-150858399D01*
X123340830Y-151065700D01*
X122890420Y-151366654D01*
X122507379Y-151749695D01*
X122206425Y-152200105D01*
X121999124Y-152700573D01*
X121893443Y-153231867D01*
X121893443Y-153773569D01*
X121999124Y-154304863D01*
X122206425Y-154805331D01*
X122507379Y-155255741D01*
X122890420Y-155638782D01*
X123340830Y-155939736D01*
X123819993Y-156138212D01*
X123418502Y-156218074D01*
X122968081Y-156404645D01*
X122562713Y-156675503D01*
X122217975Y-157020241D01*
X121947117Y-157425609D01*
X121760546Y-157876030D01*
X121665433Y-158354195D01*
X121665433Y-158841727D01*
X121707514Y-159053280D01*
X121693982Y-159062322D01*
X121349244Y-159407060D01*
X121078386Y-159812428D01*
X120891815Y-160262849D01*
X120796702Y-160741014D01*
X95595817Y-160741014D01*
X95756186Y-160633859D01*
X96184497Y-160205548D01*
X96521018Y-159701909D01*
X96752818Y-159142295D01*
X96870988Y-158548211D01*
X96870988Y-157942489D01*
X96752818Y-157348405D01*
X96521018Y-156788791D01*
X96184497Y-156285152D01*
X95756186Y-155856841D01*
X95252547Y-155520320D01*
X94692933Y-155288520D01*
X94098849Y-155170350D01*
X93493127Y-155170350D01*
X92899043Y-155288520D01*
X92339429Y-155520320D01*
X91948591Y-155781470D01*
X91687188Y-155606806D01*
X91095726Y-155361814D01*
X90669784Y-155277089D01*
X90847081Y-155011746D01*
X90999729Y-154643220D01*
X91077549Y-154251994D01*
X91077549Y-153853104D01*
X90999729Y-153461878D01*
X90847081Y-153093352D01*
X90625469Y-152761687D01*
X90518628Y-152654846D01*
X90575637Y-152692938D01*
X90936127Y-152842258D01*
X91000783Y-153167306D01*
X91187354Y-153617727D01*
X91458212Y-154023095D01*
X91802950Y-154367833D01*
X92208318Y-154638691D01*
X92658739Y-154825262D01*
X93136904Y-154920375D01*
X93624436Y-154920375D01*
X94102601Y-154825262D01*
X94553022Y-154638691D01*
X94958390Y-154367833D01*
X95236937Y-154089286D01*
X95420832Y-154165458D01*
X95898997Y-154260571D01*
X96386529Y-154260571D01*
X96864694Y-154165458D01*
X97315115Y-153978887D01*
X97720483Y-153708029D01*
X98065221Y-153363291D01*
X98336079Y-152957923D01*
X98522650Y-152507502D01*
X98617763Y-152029337D01*
X98617763Y-151541805D01*
X98522650Y-151063640D01*
X98336079Y-150613219D01*
X98065221Y-150207851D01*
X97790572Y-149933202D01*
X102959155Y-149933202D01*
X102959155Y-150420734D01*
X103054268Y-150898899D01*
X103240839Y-151349320D01*
X103511697Y-151754688D01*
X103856435Y-152099426D01*
X104261803Y-152370284D01*
X104712224Y-152556855D01*
X105037272Y-152621511D01*
X105186592Y-152982001D01*
X105457450Y-153387369D01*
X105802188Y-153732107D01*
X106207556Y-154002965D01*
X106657977Y-154189536D01*
X107136142Y-154284649D01*
X107623674Y-154284649D01*
X108101839Y-154189536D01*
X108552260Y-154002965D01*
X108957628Y-153732107D01*
X109302366Y-153387369D01*
X109573224Y-152982001D01*
X109759795Y-152531580D01*
X109824451Y-152206532D01*
X110184941Y-152057212D01*
X110590309Y-151786354D01*
X110935047Y-151441616D01*
X111205905Y-151036248D01*
X111392476Y-150585827D01*
X111487589Y-150107662D01*
X111487589Y-149620130D01*
X111392476Y-149141965D01*
X111283978Y-148880028D01*
X111420669Y-149016719D01*
X111871079Y-149317673D01*
X112371547Y-149524974D01*
X112902841Y-149630655D01*
X113444543Y-149630655D01*
X113975837Y-149524974D01*
X114476305Y-149317673D01*
X114926715Y-149016719D01*
X115309756Y-148633678D01*
X115610710Y-148183268D01*
X115818011Y-147682800D01*
X115923692Y-147151506D01*
X115923692Y-146609804D01*
X115818011Y-146078510D01*
X115632998Y-145631849D01*
X115636908Y-145633469D01*
X116168202Y-145739150D01*
X116709904Y-145739150D01*
X117241198Y-145633469D01*
X117741666Y-145426168D01*
X118192076Y-145125214D01*
X118575117Y-144742173D01*
X118876071Y-144291763D01*
X119083372Y-143791295D01*
X119189053Y-143260001D01*
X119189053Y-142718299D01*
X119083372Y-142187005D01*
X118876071Y-141686537D01*
X118575117Y-141236127D01*
X118192076Y-140853086D01*
X117741666Y-140552132D01*
X117241198Y-140344831D01*
X116902147Y-140277389D01*
X115141491Y-138800025D01*
X114984566Y-138421176D01*
X114683612Y-137970766D01*
X114300571Y-137587725D01*
X113850161Y-137286771D01*
X113349693Y-137079470D01*
X112818399Y-136973789D01*
X112276697Y-136973789D01*
X111745403Y-137079470D01*
X111244935Y-137286771D01*
X110794525Y-137587725D01*
X110411484Y-137970766D01*
X110110530Y-138421176D01*
X109903229Y-138921644D01*
X109797548Y-139452938D01*
X109797548Y-139994640D01*
X109903229Y-140525934D01*
X110088242Y-140972595D01*
X110084332Y-140970975D01*
X109553038Y-140865294D01*
X109011336Y-140865294D01*
X108480042Y-140970975D01*
X107979574Y-141178276D01*
X107529164Y-141479230D01*
X107146123Y-141862271D01*
X106845169Y-142312681D01*
X106637868Y-142813149D01*
X106532187Y-143344443D01*
X106532187Y-143886145D01*
X106637868Y-144417439D01*
X106845169Y-144917907D01*
X107146123Y-145368317D01*
X107529164Y-145751358D01*
X107632158Y-145820177D01*
X107310602Y-145756215D01*
X106823070Y-145756215D01*
X106344905Y-145851328D01*
X105894484Y-146037899D01*
X105489116Y-146308757D01*
X105144378Y-146653495D01*
X104873520Y-147058863D01*
X104686949Y-147509284D01*
X104622293Y-147834332D01*
X104261803Y-147983652D01*
X103856435Y-148254510D01*
X103511697Y-148599248D01*
X103240839Y-149004616D01*
X103054268Y-149455037D01*
X102959155Y-149933202D01*
X97790572Y-149933202D01*
X97720483Y-149863113D01*
X97315115Y-149592255D01*
X96954626Y-149442935D01*
X96889970Y-149117887D01*
X96703399Y-148667466D01*
X96432541Y-148262098D01*
X96087803Y-147917360D01*
X95682435Y-147646502D01*
X95321945Y-147497182D01*
X95257289Y-147172134D01*
X95070718Y-146721713D01*
X94799860Y-146316345D01*
X94455122Y-145971607D01*
X94049754Y-145700749D01*
X93689264Y-145551429D01*
X93624608Y-145226381D01*
X93438037Y-144775960D01*
X93167179Y-144370592D01*
X92822441Y-144025854D01*
X92417073Y-143754996D01*
X91966652Y-143568425D01*
X91488487Y-143473312D01*
X91000955Y-143473312D01*
X90522790Y-143568425D01*
X90072369Y-143754996D01*
X89667001Y-144025854D01*
X89388453Y-144304402D01*
X89204559Y-144228230D01*
X88726394Y-144133117D01*
X88238862Y-144133117D01*
X87760697Y-144228230D01*
X87310276Y-144414801D01*
X86904908Y-144685659D01*
X86560170Y-145030397D01*
X86537963Y-145063632D01*
X86397113Y-144723591D01*
X86060592Y-144219952D01*
X85632281Y-143791641D01*
X85128642Y-143455120D01*
X84569028Y-143223320D01*
X83974944Y-143105150D01*
X83369222Y-143105150D01*
X82775138Y-143223320D01*
X82215524Y-143455120D01*
X81711885Y-143791641D01*
X81283574Y-144219952D01*
X80947053Y-144723591D01*
X80715253Y-145283205D01*
X80597083Y-145877289D01*
X80597083Y-146483011D01*
X80715253Y-147077095D01*
X80760227Y-147185671D01*
X80728919Y-147206590D01*
X80276233Y-147659276D01*
X79920561Y-148191578D01*
X79675569Y-148783040D01*
X79550673Y-149410933D01*
X74812609Y-149410933D01*
X73630371Y-147517778D01*
X71912524Y-144491851D01*
X70322886Y-141396624D01*
X68864262Y-138237552D01*
X67539196Y-135020147D01*
X67050531Y-133676382D01*
X89893835Y-133676382D01*
X89893835Y-134163914D01*
X89988948Y-134642079D01*
X90175519Y-135092500D01*
X90446377Y-135497868D01*
X90791115Y-135842606D01*
X91163835Y-136091649D01*
X91163835Y-136363618D01*
X91258948Y-136841783D01*
X91445519Y-137292204D01*
X91716377Y-137697572D01*
X92061115Y-138042310D01*
X92466483Y-138313168D01*
X92916904Y-138499739D01*
X93395069Y-138594852D01*
X93882601Y-138594852D01*
X94360766Y-138499739D01*
X94811187Y-138313168D01*
X95216555Y-138042310D01*
X95561293Y-137697572D01*
X95810336Y-137324852D01*
X96082305Y-137324852D01*
X96560470Y-137229739D01*
X97010891Y-137043168D01*
X97416259Y-136772310D01*
X97760997Y-136427572D01*
X98031855Y-136022204D01*
X98218426Y-135571783D01*
X98313539Y-135093618D01*
X98313539Y-134727732D01*
X98332007Y-134772318D01*
X98632961Y-135222728D01*
X99016002Y-135605769D01*
X99466412Y-135906723D01*
X99966880Y-136114024D01*
X100498174Y-136219705D01*
X101039876Y-136219705D01*
X101571170Y-136114024D01*
X102071638Y-135906723D01*
X102522048Y-135605769D01*
X102905089Y-135222728D01*
X103206043Y-134772318D01*
X103413344Y-134271850D01*
X103519025Y-133740556D01*
X103519025Y-133198854D01*
X103504377Y-133125213D01*
X103865822Y-133366723D01*
X104366290Y-133574024D01*
X104897584Y-133679705D01*
X105439286Y-133679705D01*
X105970580Y-133574024D01*
X106471048Y-133366723D01*
X106921458Y-133065769D01*
X107304499Y-132682728D01*
X107605453Y-132232318D01*
X107812754Y-131731850D01*
X107918435Y-131200556D01*
X107918435Y-130658854D01*
X107812754Y-130127560D01*
X107605453Y-129627092D01*
X107304499Y-129176682D01*
X107057189Y-128929372D01*
X118157233Y-128929372D01*
X118157233Y-129535094D01*
X118275403Y-130129178D01*
X118507203Y-130688792D01*
X118843724Y-131192431D01*
X119272035Y-131620742D01*
X119775674Y-131957263D01*
X120335288Y-132189063D01*
X120929372Y-132307233D01*
X121535094Y-132307233D01*
X121546320Y-132305000D01*
X121669874Y-132305000D01*
X121669874Y-132734874D01*
X121692767Y-132970181D01*
X121692767Y-133070628D01*
X121810937Y-133664712D01*
X122042737Y-134224326D01*
X122379258Y-134727965D01*
X122807569Y-135156276D01*
X123311208Y-135492797D01*
X123870822Y-135724597D01*
X124464906Y-135842767D01*
X125070628Y-135842767D01*
X125664712Y-135724597D01*
X126224326Y-135492797D01*
X126523235Y-135293072D01*
X128027229Y-135063893D01*
X128140774Y-135042435D01*
X129174556Y-134808717D01*
X129364977Y-134753258D01*
X129871868Y-134571399D01*
X129945454Y-134542964D01*
X130432344Y-134341104D01*
X130636349Y-134239204D01*
X130988224Y-134031392D01*
X131081522Y-133971917D01*
X131413397Y-133744104D01*
X131587250Y-133606408D01*
X132231000Y-133020783D01*
X132283854Y-132970486D01*
X140323150Y-124968756D01*
X153275536Y-124968756D01*
X153275536Y-125407042D01*
X153361041Y-125836908D01*
X153528766Y-126241832D01*
X153772266Y-126606254D01*
X154082181Y-126916169D01*
X154446603Y-127159669D01*
X154797595Y-127305054D01*
X154942980Y-127656046D01*
X155186480Y-128020468D01*
X155496395Y-128330383D01*
X155860817Y-128573883D01*
X156265741Y-128741608D01*
X156695607Y-128827113D01*
X157133893Y-128827113D01*
X157563759Y-128741608D01*
X157968683Y-128573883D01*
X158333105Y-128330383D01*
X158643020Y-128020468D01*
X158886520Y-127656046D01*
X159054245Y-127251122D01*
X159139750Y-126821256D01*
X159139750Y-126382970D01*
X159054245Y-125953104D01*
X158886520Y-125548180D01*
X158643020Y-125183758D01*
X158591197Y-125131935D01*
X158609803Y-125139642D01*
X158962389Y-125209776D01*
X159321883Y-125209776D01*
X159674469Y-125139642D01*
X160006597Y-125002070D01*
X160305505Y-124802346D01*
X160559706Y-124548145D01*
X160759430Y-124249237D01*
X160897002Y-123917109D01*
X160928804Y-123757231D01*
X161088682Y-123725429D01*
X161420810Y-123587857D01*
X161719718Y-123388133D01*
X161973919Y-123133932D01*
X162173643Y-122835024D01*
X162311215Y-122502896D01*
X162343017Y-122343017D01*
X162502896Y-122311215D01*
X162835024Y-122173643D01*
X163133932Y-121973919D01*
X163388133Y-121719718D01*
X163587857Y-121420810D01*
X163725429Y-121088682D01*
X163757231Y-120928804D01*
X163917109Y-120897002D01*
X164249237Y-120759430D01*
X164548145Y-120559706D01*
X164802346Y-120305505D01*
X165002070Y-120006597D01*
X165139642Y-119674469D01*
X165209776Y-119321883D01*
X165209776Y-118962389D01*
X165139642Y-118609803D01*
X165080273Y-118466474D01*
X165227396Y-118686658D01*
X165537311Y-118996573D01*
X165901733Y-119240073D01*
X166306657Y-119407798D01*
X166736523Y-119493303D01*
X167174809Y-119493303D01*
X167604675Y-119407798D01*
X168009599Y-119240073D01*
X168374021Y-118996573D01*
X168683936Y-118686658D01*
X168927436Y-118322236D01*
X169095161Y-117917312D01*
X169180666Y-117487446D01*
X169180666Y-117049160D01*
X169095161Y-116619294D01*
X168927436Y-116214370D01*
X168683936Y-115849948D01*
X168374021Y-115540033D01*
X168009599Y-115296533D01*
X167658607Y-115151147D01*
X167513222Y-114800157D01*
X167269722Y-114435735D01*
X166959807Y-114125820D01*
X166595385Y-113882320D01*
X166190461Y-113714595D01*
X165760595Y-113629090D01*
X165322309Y-113629090D01*
X164892443Y-113714595D01*
X164487519Y-113882320D01*
X164123097Y-114125820D01*
X163813182Y-114435735D01*
X163569682Y-114800157D01*
X163401957Y-115205081D01*
X163316452Y-115634947D01*
X163316452Y-116073233D01*
X163401957Y-116503099D01*
X163530245Y-116812812D01*
X163210003Y-116680164D01*
X162857417Y-116610030D01*
X162497923Y-116610030D01*
X162145337Y-116680164D01*
X161813209Y-116817736D01*
X161514301Y-117017460D01*
X161260100Y-117271661D01*
X161060376Y-117570569D01*
X160922804Y-117902697D01*
X160891002Y-118062575D01*
X160731124Y-118094377D01*
X160398996Y-118231949D01*
X160100088Y-118431673D01*
X159845887Y-118685874D01*
X159646163Y-118984782D01*
X159508591Y-119316910D01*
X159476789Y-119476789D01*
X159316910Y-119508591D01*
X158984782Y-119646163D01*
X158685874Y-119845887D01*
X158431673Y-120100088D01*
X158231949Y-120398996D01*
X158094377Y-120731124D01*
X158062575Y-120891002D01*
X157902697Y-120922804D01*
X157570569Y-121060376D01*
X157271661Y-121260100D01*
X157017460Y-121514301D01*
X156817736Y-121813209D01*
X156680164Y-122145337D01*
X156610030Y-122497923D01*
X156610030Y-122857417D01*
X156680164Y-123210003D01*
X156731774Y-123334601D01*
X156554469Y-123216129D01*
X156149545Y-123048404D01*
X155719679Y-122962899D01*
X155281393Y-122962899D01*
X154851527Y-123048404D01*
X154446603Y-123216129D01*
X154082181Y-123459629D01*
X153772266Y-123769544D01*
X153528766Y-124133966D01*
X153361041Y-124538890D01*
X153275536Y-124968756D01*
X140323150Y-124968756D01*
X141646354Y-123651736D01*
X141851138Y-123402802D01*
X142001304Y-123121861D01*
X142093776Y-122817022D01*
X142125000Y-122500000D01*
X142093776Y-122182978D01*
X142001304Y-121878139D01*
X141851138Y-121597198D01*
X141649049Y-121350951D01*
X139649049Y-119350951D01*
X139402799Y-119148860D01*
X139121858Y-118998695D01*
X138817019Y-118906223D01*
X138499997Y-118875000D01*
X137999997Y-118875001D01*
X137702435Y-118902478D01*
X137700237Y-118903116D01*
X137700237Y-118528778D01*
X137587831Y-117963674D01*
X137367339Y-117431358D01*
X137047233Y-116952286D01*
X136639816Y-116544869D01*
X136160744Y-116224763D01*
X135628428Y-116004271D01*
X135063324Y-115891865D01*
X134921233Y-115891865D01*
X134750000Y-115875000D01*
X134125000Y-115875000D01*
X134125000Y-115250000D01*
X134108135Y-115045406D01*
X134108135Y-114936676D01*
X133995729Y-114371572D01*
X133775237Y-113839256D01*
X133455131Y-113360184D01*
X133047714Y-112952767D01*
X132568642Y-112632661D01*
X132036326Y-112412169D01*
X131471222Y-112299763D01*
X130915503Y-112299763D01*
X130938078Y-112257529D01*
X131030997Y-111951216D01*
X131062372Y-111632660D01*
X131030997Y-111314104D01*
X130938078Y-111007791D01*
X130787185Y-110725490D01*
X130584118Y-110478052D01*
X128745640Y-108639574D01*
X128498202Y-108436507D01*
X128215901Y-108285614D01*
X127909588Y-108192695D01*
X127591032Y-108161320D01*
X127272476Y-108192695D01*
X126966163Y-108285614D01*
X126683862Y-108436507D01*
X126436424Y-108639574D01*
X125285756Y-109790242D01*
X122727034Y-112199599D01*
X122541034Y-112407658D01*
X121791033Y-113407658D01*
X121567006Y-113818770D01*
X121197006Y-114818771D01*
X121113900Y-115142341D01*
X120953900Y-116212340D01*
X120938232Y-116537180D01*
X120988232Y-117497180D01*
X121025666Y-117769366D01*
X121205666Y-118569366D01*
X121307920Y-118876739D01*
X121607920Y-119546739D01*
X121722426Y-119758754D01*
X121919641Y-120008922D01*
X122057689Y-120152501D01*
X121321720Y-120882079D01*
X121314928Y-120886617D01*
X120886617Y-121314928D01*
X120550096Y-121818567D01*
X120318296Y-122378181D01*
X120200126Y-122972265D01*
X120200126Y-123577987D01*
X120318296Y-124172071D01*
X120550096Y-124731685D01*
X120886617Y-125235324D01*
X121038763Y-125387470D01*
X120586993Y-125756498D01*
X120562188Y-125777175D01*
X119440771Y-126730978D01*
X119272035Y-126843724D01*
X118843724Y-127272035D01*
X118507203Y-127775674D01*
X118275403Y-128335288D01*
X118157233Y-128929372D01*
X107057189Y-128929372D01*
X106921458Y-128793641D01*
X106524427Y-128528354D01*
X105378435Y-126543438D01*
X105378435Y-126259444D01*
X105272754Y-125728150D01*
X105065453Y-125227682D01*
X104764499Y-124777272D01*
X104381458Y-124394231D01*
X103931048Y-124093277D01*
X103430580Y-123885976D01*
X102899286Y-123780295D01*
X102357584Y-123780295D01*
X101826290Y-123885976D01*
X101325822Y-124093277D01*
X100875412Y-124394231D01*
X100492371Y-124777272D01*
X100191417Y-125227682D01*
X99984116Y-125728150D01*
X99878435Y-126259444D01*
X99878435Y-126801146D01*
X99893083Y-126874787D01*
X99531638Y-126633277D01*
X99031170Y-126425976D01*
X98499876Y-126320295D01*
X97958174Y-126320295D01*
X97426880Y-126425976D01*
X96926412Y-126633277D01*
X96476002Y-126934231D01*
X96092961Y-127317272D01*
X95792007Y-127767682D01*
X95584706Y-128268150D01*
X95479025Y-128799444D01*
X95479025Y-129341146D01*
X95584706Y-129872440D01*
X95792007Y-130372908D01*
X95934540Y-130586224D01*
X95740891Y-130456832D01*
X95290470Y-130270261D01*
X94812305Y-130175148D01*
X94324773Y-130175148D01*
X93846608Y-130270261D01*
X93396187Y-130456832D01*
X92990819Y-130727690D01*
X92646081Y-131072428D01*
X92397038Y-131445148D01*
X92125069Y-131445148D01*
X91646904Y-131540261D01*
X91196483Y-131726832D01*
X90791115Y-131997690D01*
X90446377Y-132342428D01*
X90175519Y-132747796D01*
X89988948Y-133198217D01*
X89893835Y-133676382D01*
X67050531Y-133676382D01*
X66350032Y-131750104D01*
X65298844Y-128433120D01*
X64387477Y-125075023D01*
X63617531Y-121681699D01*
X62990363Y-118259143D01*
X62507062Y-114813290D01*
X62420838Y-113931365D01*
X83176611Y-113931365D01*
X83176611Y-114418897D01*
X83271724Y-114897062D01*
X83458295Y-115347483D01*
X83729153Y-115752851D01*
X83776677Y-115800375D01*
X83712790Y-115954612D01*
X83617677Y-116432777D01*
X83617677Y-116920309D01*
X83712790Y-117398474D01*
X83899361Y-117848895D01*
X84170219Y-118254263D01*
X84514957Y-118599001D01*
X84920325Y-118869859D01*
X85370746Y-119056430D01*
X85848911Y-119151543D01*
X86336443Y-119151543D01*
X86814608Y-119056430D01*
X87265029Y-118869859D01*
X87670397Y-118599001D01*
X87717921Y-118551477D01*
X87872158Y-118615364D01*
X88350323Y-118710477D01*
X88837855Y-118710477D01*
X89316020Y-118615364D01*
X89766441Y-118428793D01*
X90171809Y-118157935D01*
X90516547Y-117813197D01*
X90787405Y-117407829D01*
X90965570Y-116977701D01*
X91054948Y-117427032D01*
X91262249Y-117927500D01*
X91563203Y-118377910D01*
X91946244Y-118760951D01*
X92396654Y-119061905D01*
X92897122Y-119269206D01*
X93428416Y-119374887D01*
X93970118Y-119374887D01*
X94501412Y-119269206D01*
X95001880Y-119061905D01*
X95452290Y-118760951D01*
X95835331Y-118377910D01*
X96136285Y-117927500D01*
X96343586Y-117427032D01*
X96384077Y-117223471D01*
X96566026Y-117495777D01*
X96949067Y-117878818D01*
X97399477Y-118179772D01*
X97899945Y-118387073D01*
X98431239Y-118492754D01*
X98972941Y-118492754D01*
X99504235Y-118387073D01*
X100004703Y-118179772D01*
X100455113Y-117878818D01*
X100838154Y-117495777D01*
X101139108Y-117045367D01*
X101346409Y-116544899D01*
X101452090Y-116013605D01*
X101452090Y-115471903D01*
X101346409Y-114940609D01*
X101139108Y-114440141D01*
X100838154Y-113989731D01*
X100797444Y-113949021D01*
X100400279Y-111696579D01*
X100464276Y-111542076D01*
X100569957Y-111010782D01*
X100569957Y-110469080D01*
X100464276Y-109937786D01*
X100256975Y-109437318D01*
X99956021Y-108986908D01*
X99572980Y-108603867D01*
X99122570Y-108302913D01*
X98622102Y-108095612D01*
X98090808Y-107989931D01*
X97549106Y-107989931D01*
X97017812Y-108095612D01*
X96517344Y-108302913D01*
X96066934Y-108603867D01*
X95683893Y-108986908D01*
X95382939Y-109437318D01*
X95175638Y-109937786D01*
X95135147Y-110141347D01*
X94953198Y-109869041D01*
X94570157Y-109486000D01*
X94119747Y-109185046D01*
X93619279Y-108977745D01*
X93087985Y-108872064D01*
X92546283Y-108872064D01*
X92014989Y-108977745D01*
X91514521Y-109185046D01*
X91064111Y-109486000D01*
X90681070Y-109869041D01*
X90380116Y-110319451D01*
X90172815Y-110819919D01*
X90067134Y-111351213D01*
X90067134Y-111892915D01*
X90138207Y-112250220D01*
X90075481Y-112156345D01*
X89730743Y-111811607D01*
X89325375Y-111540749D01*
X88874954Y-111354178D01*
X88396789Y-111259065D01*
X87909257Y-111259065D01*
X87431092Y-111354178D01*
X86980671Y-111540749D01*
X86575303Y-111811607D01*
X86527779Y-111859131D01*
X86373542Y-111795244D01*
X85895377Y-111700131D01*
X85407845Y-111700131D01*
X84929680Y-111795244D01*
X84479259Y-111981815D01*
X84073891Y-112252673D01*
X83729153Y-112597411D01*
X83458295Y-113002779D01*
X83271724Y-113453200D01*
X83176611Y-113931365D01*
X62420838Y-113931365D01*
X62168484Y-111350236D01*
X61974990Y-107871877D01*
X61925091Y-105107165D01*
X61925091Y-104897020D01*
X61932220Y-104578949D01*
X70725000Y-104578949D01*
X70725000Y-105421051D01*
X70889286Y-106246972D01*
X71211544Y-107024972D01*
X71679391Y-107725154D01*
X72274846Y-108320609D01*
X72975028Y-108788456D01*
X73753028Y-109110714D01*
X74578949Y-109275000D01*
X75421051Y-109275000D01*
X76246972Y-109110714D01*
X77024972Y-108788456D01*
X77725154Y-108320609D01*
X78320609Y-107725154D01*
X78788456Y-107024972D01*
X79110714Y-106246972D01*
X79275000Y-105421051D01*
X79275000Y-105004898D01*
X117435096Y-105004898D01*
X117455096Y-105514898D01*
X117458428Y-105539072D01*
X117568428Y-105999072D01*
X117572781Y-106013414D01*
X117656305Y-106238930D01*
X117705474Y-106401004D01*
X117715453Y-106424754D01*
X117745350Y-106479349D01*
X117772782Y-106553415D01*
X117784788Y-106577494D01*
X117882552Y-106729891D01*
X118040723Y-107018725D01*
X118056549Y-107041296D01*
X118473742Y-107515057D01*
X118482696Y-107524231D01*
X118857462Y-107870714D01*
X118867934Y-107879389D01*
X118888962Y-107891970D01*
X118912040Y-107900207D01*
X118936282Y-107903784D01*
X118942121Y-107903493D01*
X119062772Y-107998290D01*
X119081078Y-108010241D01*
X119661078Y-108320241D01*
X119684929Y-108329979D01*
X120334929Y-108519979D01*
X120362079Y-108524749D01*
X120992079Y-108564749D01*
X121004898Y-108564904D01*
X121514898Y-108544904D01*
X121539072Y-108541572D01*
X121999072Y-108431572D01*
X122013414Y-108427219D01*
X122553414Y-108227219D01*
X122577494Y-108215212D01*
X123107494Y-107875212D01*
X123124857Y-107861784D01*
X123457096Y-107554620D01*
X123461618Y-107553995D01*
X123484771Y-107545969D01*
X123505912Y-107533580D01*
X123524231Y-107517304D01*
X123870714Y-107142538D01*
X123885451Y-107123089D01*
X124132938Y-106720038D01*
X124140002Y-106706817D01*
X124240405Y-106488293D01*
X124320241Y-106338922D01*
X124329979Y-106315072D01*
X124347443Y-106255328D01*
X124380418Y-106183558D01*
X124388955Y-106158041D01*
X124427586Y-105981151D01*
X124519979Y-105665071D01*
X124524749Y-105637921D01*
X124564749Y-105007921D01*
X124564904Y-104995102D01*
X124544904Y-104485102D01*
X124541572Y-104460928D01*
X124431572Y-104000928D01*
X124427219Y-103986586D01*
X124343695Y-103761070D01*
X124294526Y-103598996D01*
X124284547Y-103575246D01*
X124254650Y-103520651D01*
X124227218Y-103446585D01*
X124215212Y-103422506D01*
X124117448Y-103270109D01*
X123959277Y-102981275D01*
X123943451Y-102958704D01*
X123526258Y-102484943D01*
X123517304Y-102475769D01*
X123142538Y-102129286D01*
X123123089Y-102114549D01*
X122720038Y-101867062D01*
X122706817Y-101859998D01*
X122488293Y-101759595D01*
X122338922Y-101679759D01*
X122315072Y-101670021D01*
X122255328Y-101652557D01*
X122183558Y-101619582D01*
X122158041Y-101611045D01*
X121981151Y-101572414D01*
X121665071Y-101480021D01*
X121637921Y-101475251D01*
X121007921Y-101435251D01*
X120995102Y-101435096D01*
X120485102Y-101455096D01*
X120471563Y-101456367D01*
X120447797Y-101462340D01*
X120425654Y-101472834D01*
X120405983Y-101487446D01*
X120402061Y-101491781D01*
X120249716Y-101510062D01*
X120228321Y-101514555D01*
X119598996Y-101705474D01*
X119575245Y-101715454D01*
X118981275Y-102040723D01*
X118958704Y-102056549D01*
X118484943Y-102473742D01*
X118475769Y-102482696D01*
X118129286Y-102857462D01*
X118114549Y-102876911D01*
X117867062Y-103279962D01*
X117859998Y-103293183D01*
X117619582Y-103816442D01*
X117611045Y-103841959D01*
X117476694Y-104457142D01*
X117473912Y-104478914D01*
X117456182Y-104931038D01*
X117453425Y-104934680D01*
X117442729Y-104956727D01*
X117436540Y-104980437D01*
X117435096Y-105004898D01*
X79275000Y-105004898D01*
X79275000Y-104578949D01*
X79110714Y-103753028D01*
X78788456Y-102975028D01*
X78320609Y-102274846D01*
X77725154Y-101679391D01*
X77024972Y-101211544D01*
X76246972Y-100889286D01*
X75421051Y-100725000D01*
X74578949Y-100725000D01*
X73753028Y-100889286D01*
X72975028Y-101211544D01*
X72274846Y-101679391D01*
X71679391Y-102274846D01*
X71211544Y-102975028D01*
X70889286Y-103753028D01*
X70725000Y-104578949D01*
X61932220Y-104578949D01*
X62003483Y-101399528D01*
X62227054Y-97927180D01*
X62477114Y-95581103D01*
X83176611Y-95581103D01*
X83176611Y-96068635D01*
X83271724Y-96546800D01*
X83458295Y-96997221D01*
X83729153Y-97402589D01*
X84073891Y-97747327D01*
X84479259Y-98018185D01*
X84929680Y-98204756D01*
X85407845Y-98299869D01*
X85895377Y-98299869D01*
X86373542Y-98204756D01*
X86527779Y-98140869D01*
X86575303Y-98188393D01*
X86980671Y-98459251D01*
X87431092Y-98645822D01*
X87909257Y-98740935D01*
X88396789Y-98740935D01*
X88874954Y-98645822D01*
X89325375Y-98459251D01*
X89730743Y-98188393D01*
X90075481Y-97843655D01*
X90138207Y-97749780D01*
X90067134Y-98107085D01*
X90067134Y-98648787D01*
X90172815Y-99180081D01*
X90380116Y-99680549D01*
X90681070Y-100130959D01*
X91064111Y-100514000D01*
X91514521Y-100814954D01*
X92014989Y-101022255D01*
X92546283Y-101127936D01*
X93087985Y-101127936D01*
X93619279Y-101022255D01*
X94119747Y-100814954D01*
X94570157Y-100514000D01*
X94953198Y-100130959D01*
X95135147Y-99858653D01*
X95175638Y-100062214D01*
X95382939Y-100562682D01*
X95683893Y-101013092D01*
X96066934Y-101396133D01*
X96517344Y-101697087D01*
X97017812Y-101904388D01*
X97549106Y-102010069D01*
X98090808Y-102010069D01*
X98622102Y-101904388D01*
X99122570Y-101697087D01*
X99572980Y-101396133D01*
X99956021Y-101013092D01*
X100256975Y-100562682D01*
X100464276Y-100062214D01*
X100569957Y-99530920D01*
X100569957Y-98989218D01*
X100464276Y-98457924D01*
X100400279Y-98303421D01*
X100797444Y-96050979D01*
X100838154Y-96010269D01*
X101139108Y-95559859D01*
X101346409Y-95059391D01*
X101452090Y-94528097D01*
X101452090Y-93986395D01*
X101346409Y-93455101D01*
X101139108Y-92954633D01*
X100838154Y-92504223D01*
X100455113Y-92121182D01*
X100004703Y-91820228D01*
X99504235Y-91612927D01*
X98972941Y-91507246D01*
X98431239Y-91507246D01*
X97899945Y-91612927D01*
X97399477Y-91820228D01*
X96949067Y-92121182D01*
X96566026Y-92504223D01*
X96384077Y-92776529D01*
X96343586Y-92572968D01*
X96136285Y-92072500D01*
X95835331Y-91622090D01*
X95452290Y-91239049D01*
X95001880Y-90938095D01*
X94501412Y-90730794D01*
X93970118Y-90625113D01*
X93428416Y-90625113D01*
X92897122Y-90730794D01*
X92396654Y-90938095D01*
X91946244Y-91239049D01*
X91563203Y-91622090D01*
X91262249Y-92072500D01*
X91054948Y-92572968D01*
X90965570Y-93022299D01*
X90787405Y-92592171D01*
X90516547Y-92186803D01*
X90171809Y-91842065D01*
X89766441Y-91571207D01*
X89316020Y-91384636D01*
X88837855Y-91289523D01*
X88350323Y-91289523D01*
X87872158Y-91384636D01*
X87717921Y-91448523D01*
X87670397Y-91400999D01*
X87265029Y-91130141D01*
X86814608Y-90943570D01*
X86336443Y-90848457D01*
X85848911Y-90848457D01*
X85370746Y-90943570D01*
X84920325Y-91130141D01*
X84514957Y-91400999D01*
X84170219Y-91745737D01*
X83899361Y-92151105D01*
X83712790Y-92601526D01*
X83617677Y-93079691D01*
X83617677Y-93567223D01*
X83712790Y-94045388D01*
X83776677Y-94199625D01*
X83729153Y-94247149D01*
X83458295Y-94652517D01*
X83271724Y-95102938D01*
X83176611Y-95581103D01*
X62477114Y-95581103D01*
X62595842Y-94467192D01*
X63109192Y-91025704D01*
X63697720Y-87964906D01*
X117657233Y-87964906D01*
X117657233Y-88570628D01*
X117665000Y-88609676D01*
X117665000Y-90390000D01*
X117665401Y-90426102D01*
X117675401Y-90876102D01*
X117675593Y-90883903D01*
X117685593Y-91253903D01*
X117689440Y-91330041D01*
X117729440Y-91870041D01*
X117759157Y-92081426D01*
X117809157Y-92321426D01*
X117858390Y-92503870D01*
X117958390Y-92803870D01*
X118069234Y-93060412D01*
X118209234Y-93320412D01*
X118314801Y-93490464D01*
X118534801Y-93800464D01*
X118710951Y-94009049D01*
X126350951Y-101649049D01*
X126597198Y-101851138D01*
X126878139Y-102001304D01*
X127182978Y-102093776D01*
X127500000Y-102125000D01*
X127817022Y-102093776D01*
X128121861Y-102001304D01*
X128402802Y-101851138D01*
X128649049Y-101649049D01*
X130649049Y-99649049D01*
X130851140Y-99402799D01*
X131001305Y-99121858D01*
X131093777Y-98817019D01*
X131125000Y-98499997D01*
X131124999Y-97999997D01*
X131097522Y-97702435D01*
X131096884Y-97700236D01*
X131471221Y-97700236D01*
X132036325Y-97587830D01*
X132568641Y-97367338D01*
X133047713Y-97047232D01*
X133455130Y-96639815D01*
X133775236Y-96160743D01*
X133995728Y-95628427D01*
X134108134Y-95063323D01*
X134108134Y-94921243D01*
X134125000Y-94750000D01*
X134125000Y-94036098D01*
X134487149Y-94108134D01*
X135063323Y-94108134D01*
X135628427Y-93995728D01*
X136160743Y-93775236D01*
X136639815Y-93455130D01*
X137047232Y-93047713D01*
X137367338Y-92568641D01*
X137587830Y-92036325D01*
X137700236Y-91471221D01*
X137700236Y-90915502D01*
X137742470Y-90938077D01*
X138048783Y-91030996D01*
X138367339Y-91062371D01*
X138685895Y-91030996D01*
X138992208Y-90938077D01*
X139274509Y-90787184D01*
X139521947Y-90584117D01*
X141360425Y-88745639D01*
X141563492Y-88498201D01*
X141714385Y-88215900D01*
X141807304Y-87909587D01*
X141838679Y-87591031D01*
X141807304Y-87272475D01*
X141714385Y-86966162D01*
X141563492Y-86683861D01*
X141360425Y-86436423D01*
X140209758Y-85285756D01*
X139224488Y-84239405D01*
X153629090Y-84239405D01*
X153629090Y-84677691D01*
X153714595Y-85107557D01*
X153882320Y-85512481D01*
X154125820Y-85876903D01*
X154435735Y-86186818D01*
X154800157Y-86430318D01*
X155205081Y-86598043D01*
X155634947Y-86683548D01*
X156073233Y-86683548D01*
X156503099Y-86598043D01*
X156812812Y-86469755D01*
X156680164Y-86789997D01*
X156610030Y-87142583D01*
X156610030Y-87502077D01*
X156680164Y-87854663D01*
X156817736Y-88186791D01*
X157017460Y-88485699D01*
X157271661Y-88739900D01*
X157570569Y-88939624D01*
X157902697Y-89077196D01*
X158062575Y-89108998D01*
X158094377Y-89268876D01*
X158231949Y-89601004D01*
X158431673Y-89899912D01*
X158685874Y-90154113D01*
X158984782Y-90353837D01*
X159316910Y-90491409D01*
X159476789Y-90523211D01*
X159508591Y-90683090D01*
X159646163Y-91015218D01*
X159845887Y-91314126D01*
X160100088Y-91568327D01*
X160398996Y-91768051D01*
X160731124Y-91905623D01*
X160891002Y-91937425D01*
X160922804Y-92097303D01*
X161060376Y-92429431D01*
X161260100Y-92728339D01*
X161514301Y-92982540D01*
X161813209Y-93182264D01*
X162145337Y-93319836D01*
X162497923Y-93389970D01*
X162857417Y-93389970D01*
X163210003Y-93319836D01*
X163334601Y-93268226D01*
X163216129Y-93445531D01*
X163048404Y-93850455D01*
X162962899Y-94280321D01*
X162962899Y-94718607D01*
X163048404Y-95148473D01*
X163216129Y-95553397D01*
X163459629Y-95917819D01*
X163769544Y-96227734D01*
X164133966Y-96471234D01*
X164538890Y-96638959D01*
X164968756Y-96724464D01*
X165407042Y-96724464D01*
X165836908Y-96638959D01*
X166241832Y-96471234D01*
X166606254Y-96227734D01*
X166916169Y-95917819D01*
X167159669Y-95553397D01*
X167305054Y-95202405D01*
X167656046Y-95057020D01*
X168020468Y-94813520D01*
X168330383Y-94503605D01*
X168573883Y-94139183D01*
X168741608Y-93734259D01*
X168827113Y-93304393D01*
X168827113Y-92866107D01*
X168741608Y-92436241D01*
X168573883Y-92031317D01*
X168330383Y-91666895D01*
X168020468Y-91356980D01*
X167656046Y-91113480D01*
X167251122Y-90945755D01*
X166821256Y-90860250D01*
X166382970Y-90860250D01*
X165953104Y-90945755D01*
X165548180Y-91113480D01*
X165183758Y-91356980D01*
X165131935Y-91408803D01*
X165139642Y-91390197D01*
X165209776Y-91037611D01*
X165209776Y-90678117D01*
X165139642Y-90325531D01*
X165002070Y-89993403D01*
X164802346Y-89694495D01*
X164548145Y-89440294D01*
X164249237Y-89240570D01*
X163917109Y-89102998D01*
X163757231Y-89071196D01*
X163725429Y-88911318D01*
X163587857Y-88579190D01*
X163388133Y-88280282D01*
X163133932Y-88026081D01*
X162835024Y-87826357D01*
X162502896Y-87688785D01*
X162343017Y-87656983D01*
X162311215Y-87497104D01*
X162173643Y-87164976D01*
X161973919Y-86866068D01*
X161719718Y-86611867D01*
X161420810Y-86412143D01*
X161088682Y-86274571D01*
X160928804Y-86242769D01*
X160897002Y-86082891D01*
X160759430Y-85750763D01*
X160559706Y-85451855D01*
X160305505Y-85197654D01*
X160006597Y-84997930D01*
X159674469Y-84860358D01*
X159321883Y-84790224D01*
X158962389Y-84790224D01*
X158609803Y-84860358D01*
X158466474Y-84919727D01*
X158686658Y-84772604D01*
X158996573Y-84462689D01*
X159240073Y-84098267D01*
X159407798Y-83693343D01*
X159493303Y-83263477D01*
X159493303Y-82825191D01*
X159407798Y-82395325D01*
X159240073Y-81990401D01*
X158996573Y-81625979D01*
X158686658Y-81316064D01*
X158322236Y-81072564D01*
X157917312Y-80904839D01*
X157487446Y-80819334D01*
X157049160Y-80819334D01*
X156619294Y-80904839D01*
X156214370Y-81072564D01*
X155849948Y-81316064D01*
X155540033Y-81625979D01*
X155296533Y-81990401D01*
X155151147Y-82341393D01*
X154800157Y-82486778D01*
X154435735Y-82730278D01*
X154125820Y-83040193D01*
X153882320Y-83404615D01*
X153714595Y-83809539D01*
X153629090Y-84239405D01*
X139224488Y-84239405D01*
X137800401Y-82727034D01*
X137592342Y-82541034D01*
X136592342Y-81791033D01*
X136181230Y-81567006D01*
X135181229Y-81197006D01*
X134857659Y-81113900D01*
X133787660Y-80953900D01*
X133462820Y-80938232D01*
X132502820Y-80988232D01*
X132230634Y-81025666D01*
X131430634Y-81205666D01*
X131123261Y-81307920D01*
X130453261Y-81607920D01*
X130241246Y-81722426D01*
X129991078Y-81919641D01*
X129773737Y-82128609D01*
X129651640Y-82259700D01*
X129401640Y-82559700D01*
X129196556Y-82873278D01*
X129096556Y-83073278D01*
X128973518Y-83405880D01*
X128923518Y-83605880D01*
X128875000Y-84000000D01*
X128875000Y-84150000D01*
X128902477Y-84447566D01*
X128991225Y-84753510D01*
X129091225Y-85003510D01*
X129202723Y-85215202D01*
X129199135Y-85214488D01*
X128839641Y-85214488D01*
X128487055Y-85284622D01*
X128154927Y-85422194D01*
X128075771Y-85475085D01*
X127972952Y-85296956D01*
X127107344Y-83552214D01*
X126992797Y-83275674D01*
X126656276Y-82772035D01*
X126227965Y-82343724D01*
X125724326Y-82007203D01*
X125164712Y-81775403D01*
X124570628Y-81657233D01*
X123964906Y-81657233D01*
X123370822Y-81775403D01*
X122811208Y-82007203D01*
X122307569Y-82343724D01*
X121879258Y-82772035D01*
X121542737Y-83275674D01*
X121310937Y-83835288D01*
X121192767Y-84429372D01*
X121192767Y-85035094D01*
X121231917Y-85231917D01*
X121035094Y-85192767D01*
X120429372Y-85192767D01*
X119835288Y-85310937D01*
X119275674Y-85542737D01*
X118772035Y-85879258D01*
X118343724Y-86307569D01*
X118007203Y-86811208D01*
X117775403Y-87370822D01*
X117657233Y-87964906D01*
X63697720Y-87964906D01*
X63766204Y-87608741D01*
X64565732Y-84222273D01*
X65506365Y-80872269D01*
X66586467Y-77564564D01*
X67232167Y-75836086D01*
X89893835Y-75836086D01*
X89893835Y-76323618D01*
X89988948Y-76801783D01*
X90175519Y-77252204D01*
X90446377Y-77657572D01*
X90791115Y-78002310D01*
X91196483Y-78273168D01*
X91646904Y-78459739D01*
X92125069Y-78554852D01*
X92397038Y-78554852D01*
X92646081Y-78927572D01*
X92990819Y-79272310D01*
X93396187Y-79543168D01*
X93846608Y-79729739D01*
X94324773Y-79824852D01*
X94812305Y-79824852D01*
X95290470Y-79729739D01*
X95740891Y-79543168D01*
X95934539Y-79413777D01*
X95792007Y-79627091D01*
X95584706Y-80127559D01*
X95479025Y-80658853D01*
X95479025Y-81200555D01*
X95584706Y-81731849D01*
X95792007Y-82232317D01*
X96092961Y-82682727D01*
X96476002Y-83065768D01*
X96926412Y-83366722D01*
X97426880Y-83574023D01*
X97958174Y-83679704D01*
X98499876Y-83679704D01*
X99031170Y-83574023D01*
X99531638Y-83366722D01*
X99893083Y-83125212D01*
X99878435Y-83198853D01*
X99878435Y-83740555D01*
X99984116Y-84271849D01*
X100191417Y-84772317D01*
X100492371Y-85222727D01*
X100875412Y-85605768D01*
X101325822Y-85906722D01*
X101826290Y-86114023D01*
X102357584Y-86219704D01*
X102899286Y-86219704D01*
X103430580Y-86114023D01*
X103931048Y-85906722D01*
X104381458Y-85605768D01*
X104764499Y-85222727D01*
X105065453Y-84772317D01*
X105272754Y-84271849D01*
X105378435Y-83740555D01*
X105378435Y-83456562D01*
X106524428Y-81471645D01*
X106921458Y-81206358D01*
X107304499Y-80823317D01*
X107605453Y-80372907D01*
X107812754Y-79872439D01*
X107918435Y-79341145D01*
X107918435Y-78799443D01*
X107812754Y-78268149D01*
X107605453Y-77767681D01*
X107304499Y-77317271D01*
X106921458Y-76934230D01*
X106471048Y-76633276D01*
X105970580Y-76425975D01*
X105439286Y-76320294D01*
X104897584Y-76320294D01*
X104366290Y-76425975D01*
X103865822Y-76633276D01*
X103504377Y-76874786D01*
X103519025Y-76801145D01*
X103519025Y-76259443D01*
X103413344Y-75728149D01*
X103206043Y-75227681D01*
X102905089Y-74777271D01*
X102522048Y-74394230D01*
X102071638Y-74093276D01*
X101571170Y-73885975D01*
X101039876Y-73780294D01*
X100498174Y-73780294D01*
X99966880Y-73885975D01*
X99466412Y-74093276D01*
X99016002Y-74394230D01*
X98632961Y-74777271D01*
X98332007Y-75227681D01*
X98313539Y-75272267D01*
X98313539Y-74906382D01*
X98218426Y-74428217D01*
X98031855Y-73977796D01*
X97760997Y-73572428D01*
X97416259Y-73227690D01*
X97010891Y-72956832D01*
X96560470Y-72770261D01*
X96082305Y-72675148D01*
X95810336Y-72675148D01*
X95561293Y-72302428D01*
X95216555Y-71957690D01*
X94811187Y-71686832D01*
X94360766Y-71500261D01*
X93882601Y-71405148D01*
X93395069Y-71405148D01*
X92916904Y-71500261D01*
X92466483Y-71686832D01*
X92061115Y-71957690D01*
X91716377Y-72302428D01*
X91445519Y-72707796D01*
X91258948Y-73158217D01*
X91163835Y-73636382D01*
X91163835Y-73908351D01*
X90791115Y-74157394D01*
X90446377Y-74502132D01*
X90175519Y-74907500D01*
X89988948Y-75357921D01*
X89893835Y-75836086D01*
X67232167Y-75836086D01*
X67804118Y-74305030D01*
X69157204Y-71099326D01*
X70643342Y-67953101D01*
X72259933Y-64871855D01*
X74004125Y-61861026D01*
X75221549Y-59948873D01*
X79550673Y-59948873D01*
X79550673Y-60589067D01*
X79675569Y-61216960D01*
X79920561Y-61808422D01*
X80276233Y-62340724D01*
X80728919Y-62793410D01*
X80760227Y-62814329D01*
X80715253Y-62922905D01*
X80597083Y-63516989D01*
X80597083Y-64122711D01*
X80715253Y-64716795D01*
X80947053Y-65276409D01*
X81283574Y-65780048D01*
X81711885Y-66208359D01*
X82215524Y-66544880D01*
X82775138Y-66776680D01*
X83369222Y-66894850D01*
X83974944Y-66894850D01*
X84569028Y-66776680D01*
X85128642Y-66544880D01*
X85632281Y-66208359D01*
X86060592Y-65780048D01*
X86397113Y-65276409D01*
X86628913Y-64716795D01*
X86747083Y-64122711D01*
X86747083Y-63516989D01*
X86628913Y-62922905D01*
X86397113Y-62363291D01*
X86261225Y-62159920D01*
X86836824Y-62159920D01*
X86836824Y-62647452D01*
X86931937Y-63125617D01*
X87118508Y-63576038D01*
X87389366Y-63981406D01*
X87734104Y-64326144D01*
X88016141Y-64514595D01*
X87966237Y-64765477D01*
X87966237Y-65253009D01*
X88061350Y-65731174D01*
X88247921Y-66181595D01*
X88518779Y-66586963D01*
X88863517Y-66931701D01*
X89268885Y-67202559D01*
X89719306Y-67389130D01*
X90197471Y-67484243D01*
X90685003Y-67484243D01*
X91163168Y-67389130D01*
X91613589Y-67202559D01*
X92018957Y-66931701D01*
X92363695Y-66586963D01*
X92634553Y-66181595D01*
X92821124Y-65731174D01*
X92885780Y-65406126D01*
X93246269Y-65256806D01*
X93651637Y-64985948D01*
X93996375Y-64641210D01*
X94267233Y-64235842D01*
X94453804Y-63785421D01*
X94518460Y-63460373D01*
X94878950Y-63311053D01*
X95284318Y-63040195D01*
X95629056Y-62695457D01*
X95899914Y-62290089D01*
X96086485Y-61839668D01*
X96151141Y-61514620D01*
X96511631Y-61365300D01*
X96916999Y-61094442D01*
X97261737Y-60749704D01*
X97532595Y-60344336D01*
X97719166Y-59893915D01*
X97743659Y-59770777D01*
X103119852Y-59770777D01*
X103119852Y-60258309D01*
X103214965Y-60736474D01*
X103401536Y-61186895D01*
X103672394Y-61592263D01*
X104017132Y-61937001D01*
X104422500Y-62207859D01*
X104782990Y-62357179D01*
X104847646Y-62682227D01*
X105034217Y-63132648D01*
X105305075Y-63538016D01*
X105649813Y-63882754D01*
X106055181Y-64153612D01*
X106505602Y-64340183D01*
X106983767Y-64435296D01*
X107471299Y-64435296D01*
X107792854Y-64371335D01*
X107689860Y-64440153D01*
X107306819Y-64823194D01*
X107005865Y-65273604D01*
X106798564Y-65774072D01*
X106692883Y-66305366D01*
X106692883Y-66847068D01*
X106798564Y-67378362D01*
X107005865Y-67878830D01*
X107306819Y-68329240D01*
X107689860Y-68712281D01*
X108140270Y-69013235D01*
X108640738Y-69220536D01*
X109172032Y-69326217D01*
X109713734Y-69326217D01*
X110245028Y-69220536D01*
X110248938Y-69218916D01*
X110063925Y-69665577D01*
X109958244Y-70196871D01*
X109958244Y-70738573D01*
X110063925Y-71269867D01*
X110271226Y-71770335D01*
X110572180Y-72220745D01*
X110955221Y-72603786D01*
X111405631Y-72904740D01*
X111906099Y-73112041D01*
X112437393Y-73217722D01*
X112979095Y-73217722D01*
X113510389Y-73112041D01*
X114010857Y-72904740D01*
X114461267Y-72603786D01*
X114844308Y-72220745D01*
X115145262Y-71770335D01*
X115352563Y-71269867D01*
X115411538Y-70973379D01*
X116628340Y-69952361D01*
X116870600Y-69952361D01*
X117401894Y-69846680D01*
X117902362Y-69639379D01*
X118352772Y-69338425D01*
X118735813Y-68955384D01*
X119036767Y-68504974D01*
X119244068Y-68004506D01*
X119349749Y-67473212D01*
X119349749Y-66931510D01*
X119244068Y-66400216D01*
X119036767Y-65899748D01*
X118735813Y-65449338D01*
X118352772Y-65066297D01*
X117902362Y-64765343D01*
X117401894Y-64558042D01*
X116870600Y-64452361D01*
X116328898Y-64452361D01*
X115797604Y-64558042D01*
X115793694Y-64559662D01*
X115978707Y-64113001D01*
X116084388Y-63581707D01*
X116084388Y-63040005D01*
X115978707Y-62508711D01*
X115771406Y-62008243D01*
X115470452Y-61557833D01*
X115087411Y-61174792D01*
X114637001Y-60873838D01*
X114136533Y-60666537D01*
X113605239Y-60560856D01*
X113063537Y-60560856D01*
X112532243Y-60666537D01*
X112031775Y-60873838D01*
X111581365Y-61174792D01*
X111444675Y-61311482D01*
X111553173Y-61049546D01*
X111648286Y-60571381D01*
X111648286Y-60083849D01*
X111553173Y-59605684D01*
X111366602Y-59155263D01*
X111095744Y-58749895D01*
X110751006Y-58405157D01*
X110345638Y-58134299D01*
X109985148Y-57984979D01*
X109920492Y-57659931D01*
X109733921Y-57209510D01*
X109463063Y-56804142D01*
X109118325Y-56459404D01*
X108712957Y-56188546D01*
X108262536Y-56001975D01*
X107784371Y-55906862D01*
X107296839Y-55906862D01*
X106818674Y-56001975D01*
X106368253Y-56188546D01*
X105962885Y-56459404D01*
X105618147Y-56804142D01*
X105347289Y-57209510D01*
X105197969Y-57570000D01*
X104872921Y-57634656D01*
X104422500Y-57821227D01*
X104017132Y-58092085D01*
X103672394Y-58436823D01*
X103401536Y-58842191D01*
X103214965Y-59292612D01*
X103119852Y-59770777D01*
X97743659Y-59770777D01*
X97814279Y-59415750D01*
X97814279Y-58928218D01*
X97719166Y-58450053D01*
X97532595Y-57999632D01*
X97261737Y-57594264D01*
X96916999Y-57249526D01*
X96634962Y-57061075D01*
X96684866Y-56810193D01*
X96684866Y-56322661D01*
X96589753Y-55844496D01*
X96403182Y-55394075D01*
X96132324Y-54988707D01*
X95787586Y-54643969D01*
X95397128Y-54383074D01*
X95756186Y-54143159D01*
X96184497Y-53714848D01*
X96521018Y-53211209D01*
X96752818Y-52651595D01*
X96870988Y-52057511D01*
X96870988Y-51451789D01*
X96752818Y-50857705D01*
X96521018Y-50298091D01*
X96184497Y-49794452D01*
X95756186Y-49366141D01*
X95252547Y-49029620D01*
X94692933Y-48797820D01*
X94560382Y-48771454D01*
X120796702Y-48771454D01*
X120796702Y-49258986D01*
X120891815Y-49737151D01*
X121078386Y-50187572D01*
X121349244Y-50592940D01*
X121693982Y-50937678D01*
X121707514Y-50946720D01*
X121665433Y-51158273D01*
X121665433Y-51645805D01*
X121760546Y-52123970D01*
X121947117Y-52574391D01*
X122217975Y-52979759D01*
X122562713Y-53324497D01*
X122968081Y-53595355D01*
X123418502Y-53781926D01*
X123819992Y-53861787D01*
X123340830Y-54060263D01*
X122890420Y-54361217D01*
X122507379Y-54744258D01*
X122206425Y-55194668D01*
X121999124Y-55695136D01*
X121893443Y-56226430D01*
X121893443Y-56768132D01*
X121999124Y-57299426D01*
X122206425Y-57799894D01*
X122507379Y-58250304D01*
X122890420Y-58633345D01*
X123340830Y-58934299D01*
X123841298Y-59141600D01*
X124372592Y-59247281D01*
X124515456Y-59247281D01*
X124244841Y-59517896D01*
X123943887Y-59968306D01*
X123736586Y-60468774D01*
X123630905Y-61000068D01*
X123630905Y-61541770D01*
X123736586Y-62073064D01*
X123943887Y-62573532D01*
X124244841Y-63023942D01*
X124627882Y-63406983D01*
X125078292Y-63707937D01*
X125578760Y-63915238D01*
X126110054Y-64020919D01*
X126651756Y-64020919D01*
X127183050Y-63915238D01*
X127683518Y-63707937D01*
X128133928Y-63406983D01*
X128516969Y-63023942D01*
X128519675Y-63019892D01*
X130663403Y-62239639D01*
X130883692Y-62283457D01*
X131425394Y-62283457D01*
X131956688Y-62177776D01*
X132457156Y-61970475D01*
X132907566Y-61669521D01*
X133290607Y-61286480D01*
X133591561Y-60836070D01*
X133798862Y-60335602D01*
X133904543Y-59804308D01*
X133904543Y-59262606D01*
X133798862Y-58731312D01*
X133591561Y-58230844D01*
X133290607Y-57780434D01*
X132907566Y-57397393D01*
X132457156Y-57096439D01*
X131956688Y-56889138D01*
X131425394Y-56783457D01*
X131282530Y-56783457D01*
X131553145Y-56512842D01*
X131854099Y-56062432D01*
X132061400Y-55561964D01*
X132167081Y-55030670D01*
X132167081Y-54488968D01*
X132061400Y-53957674D01*
X131854099Y-53457206D01*
X131553145Y-53006796D01*
X131170104Y-52623755D01*
X130719694Y-52322801D01*
X130219226Y-52115500D01*
X129687932Y-52009819D01*
X129146230Y-52009819D01*
X128614936Y-52115500D01*
X128325243Y-52235495D01*
X128449710Y-52111028D01*
X128720568Y-51705660D01*
X128907139Y-51255239D01*
X129002252Y-50777074D01*
X129002252Y-50289542D01*
X128907139Y-49811377D01*
X128720568Y-49360956D01*
X128449710Y-48955588D01*
X128104972Y-48610850D01*
X128091440Y-48601808D01*
X128133521Y-48390255D01*
X128133521Y-47902723D01*
X128038408Y-47424558D01*
X127851837Y-46974137D01*
X127580979Y-46568769D01*
X127236241Y-46224031D01*
X126830873Y-45953173D01*
X126380452Y-45766602D01*
X125902287Y-45671489D01*
X125414755Y-45671489D01*
X124936590Y-45766602D01*
X124486169Y-45953173D01*
X124080801Y-46224031D01*
X123736063Y-46568769D01*
X123727021Y-46582301D01*
X123515468Y-46540220D01*
X123027936Y-46540220D01*
X122549771Y-46635333D01*
X122099350Y-46821904D01*
X121693982Y-47092762D01*
X121349244Y-47437500D01*
X121078386Y-47842868D01*
X120891815Y-48293289D01*
X120796702Y-48771454D01*
X94560382Y-48771454D01*
X94098849Y-48679650D01*
X93493127Y-48679650D01*
X92899043Y-48797820D01*
X92339429Y-49029620D01*
X92292095Y-49061247D01*
X92219490Y-48988642D01*
X91687188Y-48632970D01*
X91095726Y-48387978D01*
X90467833Y-48263082D01*
X89827639Y-48263082D01*
X89199746Y-48387978D01*
X88608284Y-48632970D01*
X88075982Y-48988642D01*
X87623296Y-49441328D01*
X87267624Y-49973630D01*
X87022632Y-50565092D01*
X86897736Y-51192985D01*
X86897736Y-51833179D01*
X87022632Y-52461072D01*
X87267624Y-53052534D01*
X87623296Y-53584836D01*
X88075982Y-54037522D01*
X88608284Y-54393194D01*
X89199746Y-54638186D01*
X89827639Y-54763082D01*
X90467833Y-54763082D01*
X91095726Y-54638186D01*
X91687188Y-54393194D01*
X91948591Y-54218530D01*
X92339429Y-54479680D01*
X92671911Y-54617399D01*
X92632146Y-54643969D01*
X92287408Y-54988707D01*
X92016550Y-55394075D01*
X91829979Y-55844496D01*
X91765323Y-56169544D01*
X91404833Y-56318864D01*
X90999465Y-56589722D01*
X90654727Y-56934460D01*
X90383869Y-57339828D01*
X90197298Y-57790249D01*
X90132642Y-58115297D01*
X89772153Y-58264617D01*
X89366785Y-58535475D01*
X89022047Y-58880213D01*
X88751189Y-59285581D01*
X88564618Y-59736002D01*
X88499962Y-60061050D01*
X88139472Y-60210370D01*
X87734104Y-60481228D01*
X87389366Y-60825966D01*
X87118508Y-61231334D01*
X86931937Y-61681755D01*
X86836824Y-62159920D01*
X86261225Y-62159920D01*
X86060592Y-61859652D01*
X85777023Y-61576083D01*
X85925777Y-61216960D01*
X86050673Y-60589067D01*
X86050673Y-59948873D01*
X85936855Y-59376671D01*
X86088313Y-59275469D01*
X86370371Y-58993411D01*
X86591983Y-58661746D01*
X86612416Y-58612416D01*
X86661746Y-58591983D01*
X86993411Y-58370371D01*
X87275469Y-58088313D01*
X87497081Y-57756648D01*
X87649729Y-57388122D01*
X87727549Y-56996896D01*
X87727549Y-56598006D01*
X87649729Y-56206780D01*
X87497081Y-55838254D01*
X87275469Y-55506589D01*
X86993411Y-55224531D01*
X86661746Y-55002919D01*
X86293220Y-54850271D01*
X85901994Y-54772451D01*
X85503104Y-54772451D01*
X85111878Y-54850271D01*
X84743352Y-55002919D01*
X84411687Y-55224531D01*
X84129629Y-55506589D01*
X83908017Y-55838254D01*
X83887584Y-55887584D01*
X83838254Y-55908017D01*
X83506589Y-56129629D01*
X83224531Y-56411687D01*
X83002919Y-56743352D01*
X82888755Y-57018970D01*
X82480576Y-57018970D01*
X81852683Y-57143866D01*
X81261221Y-57388858D01*
X80728919Y-57744530D01*
X80276233Y-58197216D01*
X79920561Y-58729518D01*
X79675569Y-59320980D01*
X79550673Y-59948873D01*
X75221549Y-59948873D01*
X75872890Y-58925842D01*
X77862905Y-56071523D01*
X79970701Y-53303040D01*
X82192592Y-50625237D01*
X84524666Y-48042829D01*
X86962823Y-45560355D01*
X89502802Y-43182151D01*
X90203692Y-42578949D01*
X108725000Y-42578949D01*
X108725000Y-43421051D01*
X108889286Y-44246972D01*
X109211544Y-45024972D01*
X109679391Y-45725154D01*
X110274846Y-46320609D01*
X110975028Y-46788456D01*
X111753028Y-47110714D01*
X112578949Y-47275000D01*
X113421051Y-47275000D01*
X114246972Y-47110714D01*
X115024972Y-46788456D01*
X115725154Y-46320609D01*
X116320609Y-45725154D01*
X116788456Y-45024972D01*
X117110714Y-44246972D01*
X117275000Y-43421051D01*
X117275000Y-42578949D01*
X117110714Y-41753028D01*
X116788456Y-40975028D01*
X116320609Y-40274846D01*
X115725154Y-39679391D01*
X115024972Y-39211544D01*
X114246972Y-38889286D01*
X113421051Y-38725000D01*
X112578949Y-38725000D01*
X111753028Y-38889286D01*
X110975028Y-39211544D01*
X110274846Y-39679391D01*
X109679391Y-40274846D01*
X109211544Y-40975028D01*
X108889286Y-41753028D01*
X108725000Y-42578949D01*
X90203692Y-42578949D01*
X92140151Y-40912391D01*
X94870224Y-38755068D01*
X97688253Y-36713955D01*
X100589264Y-34792651D01*
X103568213Y-32994498D01*
X106619822Y-31322682D01*
X109738789Y-29780106D01*
X112923431Y-28367803D01*
X115405217Y-27376866D01*
X115681771Y-27301645D01*
X115889260Y-27287077D01*
X116095625Y-27313089D01*
G37*
G04 #@! TD.AperFunction*
D20*
X128764633Y-111724541D02*
X128772845Y-112143369D01*
X128466390Y-114605839D01*
X128284902Y-115192337D01*
X127903155Y-115717239D01*
X124328630Y-119291764D01*
X124125541Y-119373000D01*
X124015634Y-119373000D01*
X123844326Y-119330173D01*
X123669980Y-119243000D01*
X123386694Y-119006929D01*
X123197906Y-118810576D01*
X122912141Y-118172368D01*
X122737300Y-117395295D01*
X122688525Y-116458812D01*
X122844696Y-115414417D01*
X123203724Y-114444070D01*
X123936065Y-113467616D01*
X126716543Y-110849448D01*
X128764633Y-111724541D01*
G04 #@! TA.AperFunction,Conductor*
D21*
G36*
X128764633Y-111724541D02*
G01*
X128772845Y-112143369D01*
X128466390Y-114605839D01*
X128284902Y-115192337D01*
X127903155Y-115717239D01*
X124328630Y-119291764D01*
X124125541Y-119373000D01*
X124015634Y-119373000D01*
X123844326Y-119330173D01*
X123669980Y-119243000D01*
X123386694Y-119006929D01*
X123197906Y-118810576D01*
X122912141Y-118172368D01*
X122737300Y-117395295D01*
X122688525Y-116458812D01*
X122844696Y-115414417D01*
X123203724Y-114444070D01*
X123936065Y-113467616D01*
X126716543Y-110849448D01*
X128764633Y-111724541D01*
G37*
G04 #@! TD.AperFunction*
M02*
