G04 #@! TF.GenerationSoftware,KiCad,Pcbnew,(5.1.8-0-10_14)*
G04 #@! TF.CreationDate,2021-01-01T16:59:03+01:00*
G04 #@! TF.ProjectId,DreamCrusher-breakout-external,44726561-6d43-4727-9573-6865722d6272,A*
G04 #@! TF.SameCoordinates,Original*
G04 #@! TF.FileFunction,Legend,Top*
G04 #@! TF.FilePolarity,Positive*
%FSLAX46Y46*%
G04 Gerber Fmt 4.6, Leading zero omitted, Abs format (unit mm)*
G04 Created by KiCad (PCBNEW (5.1.8-0-10_14)) date 2021-01-01 16:59:03*
%MOMM*%
%LPD*%
G01*
G04 APERTURE LIST*
%ADD10C,0.250000*%
%ADD11C,0.150000*%
%ADD12C,0.450000*%
%ADD13C,0.200000*%
%ADD14C,0.300000*%
%ADD15C,0.010000*%
%ADD16C,0.120000*%
%ADD17C,0.160000*%
%ADD18C,0.100000*%
G04 APERTURE END LIST*
D10*
X111857797Y-126727480D02*
X112918457Y-125666820D01*
X112514396Y-126777988D01*
X113625564Y-126373927D01*
X112564904Y-127434587D01*
X113524549Y-128394232D02*
X114080133Y-127838648D01*
X114130640Y-127687125D01*
X114080133Y-127535602D01*
X113878102Y-127333572D01*
X113726579Y-127283064D01*
X113575056Y-128343724D02*
X113423534Y-128293217D01*
X113170995Y-128040678D01*
X113120488Y-127889156D01*
X113170995Y-127737633D01*
X113272011Y-127636617D01*
X113423534Y-127586110D01*
X113575056Y-127636617D01*
X113827595Y-127889156D01*
X113979118Y-127939663D01*
X113928610Y-128798293D02*
X115191301Y-128646770D01*
X114635717Y-128091186D02*
X114484194Y-129353877D01*
X116251961Y-131121644D02*
X115645869Y-130515552D01*
X115948915Y-130818598D02*
X117009575Y-129757938D01*
X116757037Y-129808445D01*
X116555006Y-129808445D01*
X116403484Y-129757938D01*
X117969220Y-130717583D02*
X118070235Y-130818598D01*
X118120743Y-130970121D01*
X118120743Y-131071136D01*
X118070235Y-131222659D01*
X117918712Y-131475197D01*
X117666174Y-131727735D01*
X117413636Y-131879258D01*
X117262113Y-131929766D01*
X117161098Y-131929766D01*
X117009575Y-131879258D01*
X116908560Y-131778243D01*
X116858052Y-131626720D01*
X116858052Y-131525705D01*
X116908560Y-131374182D01*
X117060083Y-131121644D01*
X117312621Y-130869106D01*
X117565159Y-130717583D01*
X117716682Y-130667075D01*
X117817697Y-130667075D01*
X117969220Y-130717583D01*
X117969220Y-132232811D02*
X118474296Y-132737888D01*
X117565159Y-132434842D02*
X118979373Y-131727735D01*
X118272266Y-133141949D01*
X121302723Y-133950071D02*
X119029880Y-134404639D01*
X122060338Y-135515807D02*
X120999678Y-136576467D01*
X122009830Y-135566315D02*
X122161353Y-135616822D01*
X122363384Y-135818853D01*
X122413891Y-135970376D01*
X122413891Y-136071391D01*
X122363384Y-136222914D01*
X122060338Y-136525960D01*
X121908815Y-136576467D01*
X121807800Y-136576467D01*
X121656277Y-136525960D01*
X121454246Y-136323929D01*
X121403739Y-136172406D01*
X122312876Y-137182559D02*
X123019983Y-136475452D01*
X123373536Y-136121899D02*
X123272521Y-136121899D01*
X123272521Y-136222914D01*
X123373536Y-136222914D01*
X123373536Y-136121899D01*
X123272521Y-136222914D01*
X123525059Y-136980528D02*
X122817952Y-137687635D01*
X123424044Y-137081544D02*
X123525059Y-137081544D01*
X123676582Y-137132051D01*
X123828105Y-137283574D01*
X123878612Y-137435097D01*
X123828105Y-137586620D01*
X123272521Y-138142204D01*
X126522519Y-75107797D02*
X127583179Y-76168457D01*
X126472011Y-75764396D01*
X126876072Y-76875564D01*
X125815412Y-75814904D01*
X124855767Y-76774549D02*
X125411351Y-77330133D01*
X125562874Y-77380640D01*
X125714397Y-77330133D01*
X125916427Y-77128102D01*
X125966935Y-76976579D01*
X124906275Y-76825056D02*
X124956782Y-76673534D01*
X125209321Y-76420995D01*
X125360843Y-76370488D01*
X125512366Y-76420995D01*
X125613382Y-76522011D01*
X125663889Y-76673534D01*
X125613382Y-76825056D01*
X125360843Y-77077595D01*
X125310336Y-77229118D01*
X124451706Y-77178610D02*
X124603229Y-78441301D01*
X125158813Y-77885717D02*
X123896122Y-77734194D01*
X122128355Y-79501961D02*
X122734447Y-78895869D01*
X122431401Y-79198915D02*
X123492061Y-80259575D01*
X123441554Y-80007037D01*
X123441554Y-79805006D01*
X123492061Y-79653484D01*
X122532416Y-81219220D02*
X122431401Y-81320235D01*
X122279878Y-81370743D01*
X122178863Y-81370743D01*
X122027340Y-81320235D01*
X121774802Y-81168712D01*
X121522264Y-80916174D01*
X121370741Y-80663636D01*
X121320233Y-80512113D01*
X121320233Y-80411098D01*
X121370741Y-80259575D01*
X121471756Y-80158560D01*
X121623279Y-80108052D01*
X121724294Y-80108052D01*
X121875817Y-80158560D01*
X122128355Y-80310083D01*
X122380893Y-80562621D01*
X122532416Y-80815159D01*
X122582924Y-80966682D01*
X122582924Y-81067697D01*
X122532416Y-81219220D01*
X121017188Y-81219220D02*
X120512111Y-81724296D01*
X120815157Y-80815159D02*
X121522264Y-82229373D01*
X120108050Y-81522266D01*
X119299928Y-84552723D02*
X118845360Y-82279880D01*
X117734192Y-85310338D02*
X116673532Y-84249678D01*
X117683684Y-85259830D02*
X117633177Y-85411353D01*
X117431146Y-85613384D01*
X117279623Y-85663891D01*
X117178608Y-85663891D01*
X117027085Y-85613384D01*
X116724039Y-85310338D01*
X116673532Y-85158815D01*
X116673532Y-85057800D01*
X116724039Y-84906277D01*
X116926070Y-84704246D01*
X117077593Y-84653739D01*
X116067440Y-85562876D02*
X116774547Y-86269983D01*
X117128100Y-86623536D02*
X117128100Y-86522521D01*
X117027085Y-86522521D01*
X117027085Y-86623536D01*
X117128100Y-86623536D01*
X117027085Y-86522521D01*
X116269471Y-86775059D02*
X115562364Y-86067952D01*
X116168455Y-86674044D02*
X116168455Y-86775059D01*
X116117948Y-86926582D01*
X115966425Y-87078105D01*
X115814902Y-87128612D01*
X115663379Y-87078105D01*
X115107795Y-86522521D01*
X138211536Y-137304913D02*
X139272197Y-136244253D01*
X138868136Y-137355421D01*
X139979303Y-136951360D01*
X138918643Y-138012020D01*
X139878288Y-138971665D02*
X140433872Y-138416081D01*
X140484380Y-138264558D01*
X140433872Y-138113035D01*
X140231842Y-137911005D01*
X140080319Y-137860497D01*
X139928796Y-138921157D02*
X139777273Y-138870650D01*
X139524735Y-138618112D01*
X139474227Y-138466589D01*
X139524735Y-138315066D01*
X139625750Y-138214051D01*
X139777273Y-138163543D01*
X139928796Y-138214051D01*
X140181334Y-138466589D01*
X140332857Y-138517096D01*
X140282349Y-139375726D02*
X141545040Y-139224203D01*
X140989456Y-138668619D02*
X140837933Y-139931310D01*
X143009761Y-139981818D02*
X143666360Y-140638417D01*
X142908746Y-140688924D01*
X143060269Y-140840447D01*
X143110776Y-140991970D01*
X143110776Y-141092985D01*
X143060269Y-141244508D01*
X142807731Y-141497046D01*
X142656208Y-141547554D01*
X142555192Y-141547554D01*
X142403669Y-141497046D01*
X142100624Y-141194001D01*
X142050116Y-141042478D01*
X142050116Y-140941463D01*
X143312807Y-141800092D02*
X143817883Y-142305168D01*
X142908746Y-142002123D02*
X144322959Y-141295016D01*
X143615853Y-142709229D01*
X146646310Y-143517352D02*
X144373467Y-143971920D01*
X147403925Y-145083088D02*
X146343264Y-146143748D01*
X147353417Y-145133596D02*
X147504940Y-145184103D01*
X147706970Y-145386134D01*
X147757478Y-145537657D01*
X147757478Y-145638672D01*
X147706970Y-145790195D01*
X147403925Y-146093240D01*
X147252402Y-146143748D01*
X147151386Y-146143748D01*
X146999864Y-146093240D01*
X146797833Y-145891210D01*
X146747325Y-145739687D01*
X147656463Y-146749840D02*
X148363570Y-146042733D01*
X148717123Y-145689179D02*
X148616108Y-145689179D01*
X148616108Y-145790195D01*
X148717123Y-145790195D01*
X148717123Y-145689179D01*
X148616108Y-145790195D01*
X148868646Y-146547809D02*
X148161539Y-147254916D01*
X148767631Y-146648824D02*
X148868646Y-146648824D01*
X149020169Y-146699332D01*
X149171692Y-146850855D01*
X149222199Y-147002378D01*
X149171692Y-147153901D01*
X148616108Y-147709485D01*
X148616108Y-62290514D02*
X149676768Y-63351175D01*
X148565600Y-62947114D01*
X148969661Y-64058281D01*
X147909001Y-62997621D01*
X146949356Y-63957266D02*
X147504940Y-64512850D01*
X147656463Y-64563358D01*
X147807986Y-64512850D01*
X148010016Y-64310820D01*
X148060524Y-64159297D01*
X146999864Y-64007774D02*
X147050371Y-63856251D01*
X147302909Y-63603713D01*
X147454432Y-63553205D01*
X147605955Y-63603713D01*
X147706970Y-63704728D01*
X147757478Y-63856251D01*
X147706970Y-64007774D01*
X147454432Y-64260312D01*
X147403925Y-64411835D01*
X146545295Y-64361327D02*
X146696818Y-65624018D01*
X147252402Y-65068434D02*
X145989711Y-64916911D01*
X145939203Y-67088739D02*
X145282604Y-67745338D01*
X145232097Y-66987724D01*
X145080574Y-67139247D01*
X144929051Y-67189754D01*
X144828036Y-67189754D01*
X144676513Y-67139247D01*
X144423975Y-66886709D01*
X144373467Y-66735186D01*
X144373467Y-66634170D01*
X144423975Y-66482647D01*
X144727020Y-66179602D01*
X144878543Y-66129094D01*
X144979558Y-66129094D01*
X144120929Y-67391785D02*
X143615853Y-67896861D01*
X143918898Y-66987724D02*
X144626005Y-68401937D01*
X143211792Y-67694831D01*
X142403669Y-70725288D02*
X141949101Y-68452445D01*
X140837933Y-71482903D02*
X139777273Y-70422242D01*
X140787425Y-71432395D02*
X140736918Y-71583918D01*
X140534887Y-71785948D01*
X140383364Y-71836456D01*
X140282349Y-71836456D01*
X140130826Y-71785948D01*
X139827781Y-71482903D01*
X139777273Y-71331380D01*
X139777273Y-71230364D01*
X139827781Y-71078842D01*
X140029811Y-70876811D01*
X140181334Y-70826303D01*
X139171181Y-71735441D02*
X139878288Y-72442548D01*
X140231842Y-72796101D02*
X140231842Y-72695086D01*
X140130826Y-72695086D01*
X140130826Y-72796101D01*
X140231842Y-72796101D01*
X140130826Y-72695086D01*
X139373212Y-72947624D02*
X138666105Y-72240517D01*
X139272197Y-72846609D02*
X139272197Y-72947624D01*
X139221689Y-73099147D01*
X139070166Y-73250670D01*
X138918643Y-73301177D01*
X138767120Y-73250670D01*
X138211536Y-72695086D01*
D11*
X149470238Y-110902261D02*
X149508333Y-110826071D01*
X149546428Y-110787976D01*
X149622619Y-110749880D01*
X149660714Y-110749880D01*
X149736904Y-110787976D01*
X149775000Y-110826071D01*
X149813095Y-110902261D01*
X149813095Y-111054642D01*
X149775000Y-111130833D01*
X149736904Y-111168928D01*
X149660714Y-111207023D01*
X149622619Y-111207023D01*
X149546428Y-111168928D01*
X149508333Y-111130833D01*
X149470238Y-111054642D01*
X149470238Y-110902261D01*
X149432142Y-110826071D01*
X149394047Y-110787976D01*
X149317857Y-110749880D01*
X149165476Y-110749880D01*
X149089285Y-110787976D01*
X149051190Y-110826071D01*
X149013095Y-110902261D01*
X149013095Y-111054642D01*
X149051190Y-111130833D01*
X149089285Y-111168928D01*
X149165476Y-111207023D01*
X149317857Y-111207023D01*
X149394047Y-111168928D01*
X149432142Y-111130833D01*
X149470238Y-111054642D01*
X148563095Y-110711785D02*
X148563095Y-111245119D01*
X147763095Y-110902261D01*
X146513095Y-111207023D02*
X146513095Y-110749880D01*
X146513095Y-110978452D02*
X147313095Y-110978452D01*
X147198809Y-110902261D01*
X147122619Y-110826071D01*
X147084523Y-110749880D01*
X146063095Y-111130833D02*
X146063095Y-110978452D01*
X146025000Y-110902261D01*
X145986904Y-110864166D01*
X145872619Y-110787976D01*
X145720238Y-110749880D01*
X145415476Y-110749880D01*
X145339285Y-110787976D01*
X145301190Y-110826071D01*
X145263095Y-110902261D01*
X145263095Y-111054642D01*
X145301190Y-111130833D01*
X145339285Y-111168928D01*
X145415476Y-111207023D01*
X145605952Y-111207023D01*
X145682142Y-111168928D01*
X145720238Y-111130833D01*
X145758333Y-111054642D01*
X145758333Y-110902261D01*
X145720238Y-110826071D01*
X145682142Y-110787976D01*
X145605952Y-110749880D01*
X144813095Y-111168928D02*
X144813095Y-110787976D01*
X144432142Y-110749880D01*
X144470238Y-110787976D01*
X144508333Y-110864166D01*
X144508333Y-111054642D01*
X144470238Y-111130833D01*
X144432142Y-111168928D01*
X144355952Y-111207023D01*
X144165476Y-111207023D01*
X144089285Y-111168928D01*
X144051190Y-111130833D01*
X144013095Y-111054642D01*
X144013095Y-110864166D01*
X144051190Y-110787976D01*
X144089285Y-110749880D01*
X142763095Y-111207023D02*
X142763095Y-110749880D01*
X142763095Y-110978452D02*
X143563095Y-110978452D01*
X143448809Y-110902261D01*
X143372619Y-110826071D01*
X143334523Y-110749880D01*
X143563095Y-111892738D02*
X143563095Y-111740357D01*
X143525000Y-111664166D01*
X143486904Y-111626071D01*
X143372619Y-111549880D01*
X143220238Y-111511785D01*
X142915476Y-111511785D01*
X142839285Y-111549880D01*
X142801190Y-111587976D01*
X142763095Y-111664166D01*
X142763095Y-111816547D01*
X142801190Y-111892738D01*
X142839285Y-111930833D01*
X142915476Y-111968928D01*
X143105952Y-111968928D01*
X143182142Y-111930833D01*
X143220238Y-111892738D01*
X143258333Y-111816547D01*
X143258333Y-111664166D01*
X143220238Y-111587976D01*
X143182142Y-111549880D01*
X143105952Y-111511785D01*
X142046428Y-111130833D02*
X141513095Y-111130833D01*
X142351190Y-110940357D02*
X141779761Y-110749880D01*
X141779761Y-111245119D01*
X140263095Y-111207023D02*
X140263095Y-110749880D01*
X140263095Y-110978452D02*
X141063095Y-110978452D01*
X140948809Y-110902261D01*
X140872619Y-110826071D01*
X140834523Y-110749880D01*
X141063095Y-111930833D02*
X141063095Y-111549880D01*
X140682142Y-111511785D01*
X140720238Y-111549880D01*
X140758333Y-111626071D01*
X140758333Y-111816547D01*
X140720238Y-111892738D01*
X140682142Y-111930833D01*
X140605952Y-111968928D01*
X140415476Y-111968928D01*
X140339285Y-111930833D01*
X140301190Y-111892738D01*
X140263095Y-111816547D01*
X140263095Y-111626071D01*
X140301190Y-111549880D01*
X140339285Y-111511785D01*
X149013095Y-98869166D02*
X149013095Y-99021547D01*
X149051190Y-99097738D01*
X149089285Y-99135833D01*
X149203571Y-99212023D01*
X149355952Y-99250119D01*
X149660714Y-99250119D01*
X149736904Y-99212023D01*
X149775000Y-99173928D01*
X149813095Y-99097738D01*
X149813095Y-98945357D01*
X149775000Y-98869166D01*
X149736904Y-98831071D01*
X149660714Y-98792976D01*
X149470238Y-98792976D01*
X149394047Y-98831071D01*
X149355952Y-98869166D01*
X149317857Y-98945357D01*
X149317857Y-99097738D01*
X149355952Y-99173928D01*
X149394047Y-99212023D01*
X149470238Y-99250119D01*
X148486904Y-98792976D02*
X148525000Y-98831071D01*
X148563095Y-98907261D01*
X148563095Y-99097738D01*
X148525000Y-99173928D01*
X148486904Y-99212023D01*
X148410714Y-99250119D01*
X148334523Y-99250119D01*
X148220238Y-99212023D01*
X147763095Y-98754880D01*
X147763095Y-99250119D01*
X146513095Y-98488214D02*
X146513095Y-98031071D01*
X146513095Y-98259642D02*
X147313095Y-98259642D01*
X147198809Y-98183452D01*
X147122619Y-98107261D01*
X147084523Y-98031071D01*
X147313095Y-98983452D02*
X147313095Y-99059642D01*
X147275000Y-99135833D01*
X147236904Y-99173928D01*
X147160714Y-99212023D01*
X147008333Y-99250119D01*
X146817857Y-99250119D01*
X146665476Y-99212023D01*
X146589285Y-99173928D01*
X146551190Y-99135833D01*
X146513095Y-99059642D01*
X146513095Y-98983452D01*
X146551190Y-98907261D01*
X146589285Y-98869166D01*
X146665476Y-98831071D01*
X146817857Y-98792976D01*
X147008333Y-98792976D01*
X147160714Y-98831071D01*
X147236904Y-98869166D01*
X147275000Y-98907261D01*
X147313095Y-98983452D01*
X145263095Y-98488214D02*
X145263095Y-98031071D01*
X145263095Y-98259642D02*
X146063095Y-98259642D01*
X145948809Y-98183452D01*
X145872619Y-98107261D01*
X145834523Y-98031071D01*
X145263095Y-99250119D02*
X145263095Y-98792976D01*
X145263095Y-99021547D02*
X146063095Y-99021547D01*
X145948809Y-98945357D01*
X145872619Y-98869166D01*
X145834523Y-98792976D01*
X140263095Y-98488214D02*
X140263095Y-98031071D01*
X140263095Y-98259642D02*
X141063095Y-98259642D01*
X140948809Y-98183452D01*
X140872619Y-98107261D01*
X140834523Y-98031071D01*
X140796428Y-99173928D02*
X140263095Y-99173928D01*
X141101190Y-98983452D02*
X140529761Y-98792976D01*
X140529761Y-99288214D01*
X141513095Y-98488214D02*
X141513095Y-98031071D01*
X141513095Y-98259642D02*
X142313095Y-98259642D01*
X142198809Y-98183452D01*
X142122619Y-98107261D01*
X142084523Y-98031071D01*
X142313095Y-98754880D02*
X142313095Y-99250119D01*
X142008333Y-98983452D01*
X142008333Y-99097738D01*
X141970238Y-99173928D01*
X141932142Y-99212023D01*
X141855952Y-99250119D01*
X141665476Y-99250119D01*
X141589285Y-99212023D01*
X141551190Y-99173928D01*
X141513095Y-99097738D01*
X141513095Y-98869166D01*
X141551190Y-98792976D01*
X141589285Y-98754880D01*
X143563095Y-98754880D02*
X143563095Y-99250119D01*
X143258333Y-98983452D01*
X143258333Y-99097738D01*
X143220238Y-99173928D01*
X143182142Y-99212023D01*
X143105952Y-99250119D01*
X142915476Y-99250119D01*
X142839285Y-99212023D01*
X142801190Y-99173928D01*
X142763095Y-99097738D01*
X142763095Y-98869166D01*
X142801190Y-98792976D01*
X142839285Y-98754880D01*
X144013095Y-98488214D02*
X144013095Y-98031071D01*
X144013095Y-98259642D02*
X144813095Y-98259642D01*
X144698809Y-98183452D01*
X144622619Y-98107261D01*
X144584523Y-98031071D01*
X144736904Y-98792976D02*
X144775000Y-98831071D01*
X144813095Y-98907261D01*
X144813095Y-99097738D01*
X144775000Y-99173928D01*
X144736904Y-99212023D01*
X144660714Y-99250119D01*
X144584523Y-99250119D01*
X144470238Y-99212023D01*
X144013095Y-98754880D01*
X144013095Y-99250119D01*
D12*
X129804780Y-145913149D02*
X129585156Y-145681187D01*
X129499775Y-145498085D01*
X129463253Y-145180742D01*
X129512113Y-145046500D01*
X129744075Y-144826876D01*
X129927177Y-144741494D01*
X130244520Y-144704973D01*
X130781487Y-144900413D01*
X131001111Y-145132375D01*
X131086493Y-145315476D01*
X131123014Y-145632820D01*
X131074154Y-145767062D01*
X130842193Y-145986685D01*
X130659091Y-146072067D01*
X130341747Y-146108589D01*
X129804780Y-145913149D01*
X129487436Y-145949671D01*
X129304334Y-146035052D01*
X129072373Y-146254676D01*
X128876933Y-146791643D01*
X128913454Y-147108987D01*
X128998836Y-147292089D01*
X129218460Y-147524051D01*
X129755427Y-147719491D01*
X130072771Y-147682969D01*
X130255872Y-147597587D01*
X130487834Y-147377964D01*
X130683274Y-146840996D01*
X130646753Y-146523653D01*
X130561371Y-146340551D01*
X130341747Y-146108589D01*
X117007309Y-136804664D02*
X118539398Y-138090240D01*
X115626121Y-139561932D01*
X108603353Y-126673442D02*
X108317639Y-126178570D01*
X108051063Y-126002563D01*
X107855917Y-125950273D01*
X107341906Y-125917123D01*
X106775606Y-126079120D01*
X105785863Y-126650548D01*
X105609855Y-126917123D01*
X105557566Y-127112270D01*
X105576705Y-127431134D01*
X105862419Y-127926006D01*
X106128995Y-128102013D01*
X106324141Y-128154302D01*
X106643005Y-128135163D01*
X107261595Y-127778020D01*
X107437602Y-127511445D01*
X107489892Y-127316299D01*
X107470752Y-126997434D01*
X107185038Y-126502563D01*
X106918463Y-126326555D01*
X106723317Y-126274266D01*
X106404452Y-126293405D01*
X103410392Y-113058673D02*
X103162324Y-111651805D01*
X101730648Y-111759187D01*
X101896142Y-111875067D01*
X102086443Y-112131634D01*
X102210477Y-112835068D01*
X102119404Y-113141249D01*
X102003524Y-113306742D01*
X101746957Y-113497043D01*
X101043523Y-113621077D01*
X100737343Y-113530004D01*
X100571849Y-113414124D01*
X100381548Y-113157558D01*
X100257514Y-112454123D01*
X100348587Y-112147943D01*
X100464467Y-111982449D01*
X102202323Y-98033858D02*
X100232707Y-97686561D01*
X103451852Y-97528879D02*
X101465584Y-96453341D01*
X101143094Y-98282270D01*
X108817639Y-82955403D02*
X107889067Y-84563736D01*
X107399324Y-83126282D01*
X107185038Y-83497435D01*
X106918463Y-83673443D01*
X106723317Y-83725732D01*
X106404452Y-83706593D01*
X105785863Y-83349450D01*
X105609855Y-83082875D01*
X105557566Y-82887728D01*
X105576705Y-82568864D01*
X106005277Y-81826556D01*
X106271852Y-81650549D01*
X106466998Y-81598260D01*
X118246310Y-71782715D02*
X118228702Y-71983977D01*
X118101658Y-72277066D01*
X117554484Y-72736200D01*
X117243787Y-72810418D01*
X117042526Y-72792810D01*
X116749437Y-72665767D01*
X116565783Y-72446897D01*
X116399738Y-72026766D01*
X116611035Y-69611625D01*
X115188381Y-70805374D01*
X128681492Y-62671387D02*
X130292394Y-62085067D01*
X129486943Y-62378227D02*
X130513004Y-65197305D01*
X130634907Y-64696860D01*
X130805671Y-64330656D01*
X131025294Y-64098694D01*
D10*
X133857943Y-152633259D02*
X133515923Y-153572951D01*
X132326254Y-152455833D01*
X132447911Y-153792328D02*
X132057031Y-154866263D01*
X131715504Y-154133855D02*
X132789438Y-154524736D01*
D11*
X121803043Y-157177125D02*
X122742735Y-157519145D01*
X122661302Y-157742881D01*
X122567695Y-157860836D01*
X122445627Y-157917757D01*
X122339846Y-157929931D01*
X122144570Y-157909532D01*
X122010328Y-157860672D01*
X121847626Y-157750778D01*
X121774418Y-157673457D01*
X121717497Y-157551389D01*
X121721609Y-157400861D01*
X121803043Y-157177125D01*
X121745793Y-158169790D02*
X121582926Y-158617263D01*
X121509883Y-157982575D02*
X122335568Y-158637826D01*
X121281869Y-158609037D01*
X122034347Y-159186968D02*
X122062808Y-159248001D01*
X122074982Y-159353783D01*
X121993548Y-159577519D01*
X121916228Y-159650727D01*
X121855194Y-159679187D01*
X121749413Y-159691361D01*
X121659918Y-159658788D01*
X121541963Y-159565181D01*
X121200436Y-158832773D01*
X120988709Y-159414488D01*
X121200107Y-159947507D02*
X120939520Y-160663463D01*
X128380892Y-159571268D02*
X129320584Y-159913288D01*
X129239151Y-160137024D01*
X129145544Y-160254979D01*
X129023476Y-160311900D01*
X128917695Y-160324074D01*
X128722419Y-160303675D01*
X128588177Y-160254815D01*
X128425475Y-160144921D01*
X128352267Y-160067600D01*
X128295346Y-159945532D01*
X128299458Y-159795004D01*
X128380892Y-159571268D01*
X128323642Y-160563933D02*
X128160775Y-161011406D01*
X128087732Y-160376718D02*
X128913417Y-161031969D01*
X127859718Y-161003180D01*
X128612196Y-161581111D02*
X128640657Y-161642144D01*
X128652831Y-161747926D01*
X128571397Y-161971662D01*
X128494077Y-162044870D01*
X128433043Y-162073330D01*
X128327262Y-162085504D01*
X128237767Y-162052931D01*
X128119812Y-161959324D01*
X127778285Y-161226916D01*
X127566558Y-161808631D01*
X127777956Y-162341650D02*
X127517369Y-163057606D01*
X127289685Y-162569334D02*
X128005641Y-162829921D01*
D10*
X123593828Y-149277490D02*
X123709809Y-149167678D01*
X123801360Y-149124987D01*
X123960032Y-149106726D01*
X124027152Y-149131156D01*
X124136964Y-149247137D01*
X124179655Y-149338688D01*
X124197916Y-149497360D01*
X124100196Y-149765844D01*
X123984215Y-149875655D01*
X123892664Y-149918346D01*
X123733992Y-149936607D01*
X123666871Y-149912177D01*
X123557060Y-149796196D01*
X123514369Y-149704645D01*
X123496108Y-149545974D01*
X123593828Y-149277490D01*
X123575567Y-149118818D01*
X123532876Y-149027267D01*
X123423064Y-148911286D01*
X123154581Y-148813566D01*
X122995909Y-148831827D01*
X122904358Y-148874518D01*
X122788377Y-148984330D01*
X122690657Y-149252813D01*
X122708918Y-149411485D01*
X122751609Y-149503036D01*
X122861421Y-149619017D01*
X123129904Y-149716737D01*
X123288576Y-149698476D01*
X123380127Y-149655785D01*
X123496108Y-149545974D01*
X122910034Y-150320825D02*
X122519154Y-151394760D01*
X117733310Y-146551706D02*
X117916964Y-146332837D01*
X117954073Y-146177488D01*
X117945269Y-146076857D01*
X117872943Y-145829682D01*
X117699987Y-145591311D01*
X117262247Y-145224004D01*
X117106899Y-145186895D01*
X117006268Y-145195699D01*
X116859724Y-145259220D01*
X116676070Y-145478090D01*
X116638961Y-145633438D01*
X116647765Y-145734069D01*
X116711286Y-145880614D01*
X116984874Y-146110181D01*
X117140222Y-146147290D01*
X117240853Y-146138486D01*
X117387397Y-146074964D01*
X117571051Y-145856094D01*
X117608160Y-145700746D01*
X117599356Y-145600115D01*
X117535834Y-145453571D01*
X116516936Y-146556724D02*
X115782321Y-147432204D01*
X115711889Y-146627157D02*
X116587368Y-147361771D01*
D11*
X110764587Y-150541431D02*
X111530631Y-151184218D01*
X111377587Y-151366610D01*
X111249282Y-151445436D01*
X111115107Y-151457175D01*
X111011542Y-151432435D01*
X110835019Y-151346478D01*
X110725585Y-151254651D01*
X110610280Y-151095737D01*
X110567933Y-150998041D01*
X110556194Y-150863866D01*
X110611542Y-150723822D01*
X110764587Y-150541431D01*
X109827449Y-151806433D02*
X109821579Y-151739345D01*
X109876928Y-151599302D01*
X109938146Y-151526345D01*
X110066451Y-151447519D01*
X110200625Y-151435780D01*
X110304191Y-151460520D01*
X110480713Y-151546477D01*
X110590148Y-151638304D01*
X110705452Y-151797218D01*
X110747800Y-151894914D01*
X110759539Y-152029089D01*
X110704190Y-152169133D01*
X110642972Y-152242089D01*
X110514667Y-152320915D01*
X110447580Y-152326785D01*
X110202709Y-152618611D02*
X110208578Y-152685698D01*
X110183838Y-152789264D01*
X110030794Y-152971655D01*
X109933098Y-153014003D01*
X109866010Y-153019872D01*
X109762445Y-152995133D01*
X109689488Y-152933915D01*
X109610662Y-152805610D01*
X109540230Y-152000563D01*
X109142314Y-152474781D01*
X109158660Y-153047957D02*
X108668917Y-153631610D01*
X108621962Y-153094912D02*
X109205615Y-153584655D01*
X105402276Y-146041915D02*
X106168320Y-146684702D01*
X106015276Y-146867094D01*
X105886971Y-146945920D01*
X105752796Y-146957659D01*
X105649231Y-146932919D01*
X105472708Y-146846962D01*
X105363274Y-146755135D01*
X105247969Y-146596221D01*
X105205622Y-146498525D01*
X105193883Y-146364350D01*
X105249231Y-146224306D01*
X105402276Y-146041915D01*
X104465138Y-147306917D02*
X104459268Y-147239829D01*
X104514617Y-147099786D01*
X104575835Y-147026829D01*
X104704140Y-146948003D01*
X104838314Y-146936264D01*
X104941880Y-146961004D01*
X105118402Y-147046961D01*
X105227837Y-147138788D01*
X105343141Y-147297702D01*
X105385489Y-147395398D01*
X105397228Y-147529573D01*
X105341879Y-147669617D01*
X105280661Y-147742573D01*
X105152356Y-147821399D01*
X105085269Y-147827269D01*
X104840398Y-148119095D02*
X104846267Y-148186182D01*
X104821527Y-148289748D01*
X104668483Y-148472139D01*
X104570787Y-148514487D01*
X104503699Y-148520356D01*
X104400134Y-148495617D01*
X104327177Y-148434399D01*
X104248351Y-148306094D01*
X104177919Y-147501047D01*
X103780003Y-147975265D01*
X103796349Y-148548441D02*
X103306606Y-149132094D01*
D10*
X108717067Y-139172668D02*
X109268028Y-138516058D01*
X108992548Y-138844363D02*
X110141615Y-139808545D01*
X110069289Y-139561370D01*
X110051681Y-139360108D01*
X110088790Y-139204759D01*
X108741587Y-140032432D02*
X108006972Y-140907912D01*
D11*
X93753149Y-130023565D02*
X94253149Y-130889590D01*
X94046952Y-131008638D01*
X93899425Y-131038827D01*
X93769327Y-131003967D01*
X93680469Y-130945298D01*
X93543992Y-130804151D01*
X93472563Y-130680433D01*
X93418564Y-130491666D01*
X93412184Y-130385378D01*
X93447044Y-130255280D01*
X93546952Y-130142612D01*
X93753149Y-130023565D01*
X92860353Y-131143864D02*
X92712826Y-131174053D01*
X92647777Y-131156623D01*
X92558919Y-131097954D01*
X92487490Y-130974236D01*
X92481110Y-130867948D01*
X92498540Y-130802899D01*
X92557209Y-130714041D01*
X92887124Y-130523565D01*
X93387124Y-131389590D01*
X93098448Y-131556257D01*
X92992160Y-131562636D01*
X92927111Y-131545207D01*
X92838253Y-131486538D01*
X92790634Y-131404059D01*
X92784254Y-131297771D01*
X92801684Y-131232722D01*
X92860353Y-131143864D01*
X93149028Y-130977197D01*
X91567466Y-131285469D02*
X92062337Y-130999755D01*
X91814902Y-131142612D02*
X92314902Y-132008638D01*
X92325952Y-131837301D01*
X92360811Y-131707203D01*
X92419480Y-131618345D01*
X91386788Y-131829670D02*
X90726959Y-132210622D01*
X97253148Y-136085746D02*
X97753148Y-136951771D01*
X97546951Y-137070819D01*
X97399424Y-137101008D01*
X97269326Y-137066148D01*
X97180468Y-137007479D01*
X97043991Y-136866332D01*
X96972562Y-136742614D01*
X96918563Y-136553847D01*
X96912183Y-136447559D01*
X96947043Y-136317461D01*
X97046951Y-136204793D01*
X97253148Y-136085746D01*
X96360352Y-137206045D02*
X96212825Y-137236234D01*
X96147776Y-137218804D01*
X96058918Y-137160135D01*
X95987489Y-137036417D01*
X95981109Y-136930129D01*
X95998539Y-136865080D01*
X96057208Y-136776222D01*
X96387123Y-136585746D01*
X96887123Y-137451771D01*
X96598447Y-137618438D01*
X96492159Y-137624817D01*
X96427110Y-137607388D01*
X96338252Y-137548719D01*
X96290633Y-137466240D01*
X96284253Y-137359952D01*
X96301683Y-137294903D01*
X96360352Y-137206045D01*
X96649027Y-137039378D01*
X95067465Y-137347650D02*
X95562336Y-137061936D01*
X95314901Y-137204793D02*
X95814901Y-138070819D01*
X95825951Y-137899482D01*
X95860810Y-137769384D01*
X95919479Y-137680526D01*
X94886787Y-137891851D02*
X94226958Y-138272803D01*
X94366397Y-137752412D02*
X94747349Y-138412241D01*
D10*
X100029313Y-125965634D02*
X100647903Y-125608491D01*
X100352619Y-124954188D01*
X100326474Y-125051761D01*
X100238471Y-125185048D01*
X99929176Y-125363620D01*
X99769744Y-125373189D01*
X99672171Y-125347045D01*
X99538883Y-125259041D01*
X99360312Y-124949746D01*
X99350742Y-124790314D01*
X99376887Y-124692741D01*
X99464890Y-124559453D01*
X99774185Y-124380882D01*
X99933617Y-124371312D01*
X100031191Y-124397457D01*
X98946438Y-125518611D02*
X97956695Y-126090039D01*
X104911043Y-133135323D02*
X105653351Y-132706751D01*
X105282197Y-132921037D02*
X106032197Y-134220075D01*
X106048772Y-133963069D01*
X106101061Y-133767923D01*
X106189065Y-133634635D01*
X104547582Y-135077218D02*
X104795018Y-134934361D01*
X104883021Y-134801073D01*
X104909166Y-134703500D01*
X104925741Y-134446494D01*
X104844743Y-134163344D01*
X104559029Y-133668473D01*
X104425741Y-133580469D01*
X104328168Y-133554324D01*
X104168736Y-133563894D01*
X103921300Y-133706751D01*
X103833296Y-133840039D01*
X103807151Y-133937612D01*
X103816721Y-134097044D01*
X103995292Y-134406339D01*
X104128580Y-134494343D01*
X104226153Y-134520487D01*
X104385585Y-134510918D01*
X104633021Y-134368060D01*
X104721025Y-134234773D01*
X104747170Y-134137200D01*
X104737600Y-133977767D01*
X103402848Y-134665908D02*
X102413104Y-135237337D01*
X102622262Y-134456751D02*
X103193690Y-135446494D01*
D11*
X88285149Y-110987004D02*
X88458797Y-111971812D01*
X88224319Y-112013156D01*
X88075363Y-111991068D01*
X87965034Y-111913814D01*
X87901601Y-111828292D01*
X87821629Y-111648979D01*
X87796822Y-111508292D01*
X87810642Y-111312440D01*
X87841000Y-111210380D01*
X87918253Y-111100051D01*
X88050671Y-111028349D01*
X88285149Y-110987004D01*
X87300341Y-111160652D02*
X87473989Y-112145460D01*
X87239511Y-112186804D01*
X87090556Y-112164716D01*
X86980227Y-112087462D01*
X86916793Y-112001940D01*
X86836822Y-111822627D01*
X86812015Y-111681940D01*
X86825834Y-111486089D01*
X86856192Y-111384028D01*
X86933445Y-111273699D01*
X87065863Y-111201997D01*
X87300341Y-111160652D01*
X85799682Y-111425259D02*
X86362429Y-111326031D01*
X86081056Y-111375645D02*
X86254704Y-112360453D01*
X86323688Y-112203228D01*
X86400941Y-112092899D01*
X86486464Y-112029465D01*
X85443773Y-111874844D02*
X84693443Y-112007148D01*
X89500684Y-117880661D02*
X89674332Y-118865469D01*
X89439854Y-118906813D01*
X89290898Y-118884725D01*
X89180569Y-118807471D01*
X89117136Y-118721949D01*
X89037164Y-118542636D01*
X89012357Y-118401949D01*
X89026177Y-118206097D01*
X89056535Y-118104037D01*
X89133788Y-117993708D01*
X89266206Y-117922006D01*
X89500684Y-117880661D01*
X88515876Y-118054309D02*
X88689524Y-119039117D01*
X88455046Y-119080461D01*
X88306091Y-119058373D01*
X88195762Y-118981119D01*
X88132328Y-118895597D01*
X88052357Y-118716284D01*
X88027550Y-118575597D01*
X88041369Y-118379746D01*
X88071727Y-118277685D01*
X88148980Y-118167356D01*
X88281398Y-118095654D01*
X88515876Y-118054309D01*
X87015217Y-118318916D02*
X87577964Y-118219688D01*
X87296591Y-118269302D02*
X87470239Y-119254110D01*
X87539223Y-119096885D01*
X87616476Y-118986556D01*
X87701999Y-118923122D01*
X86659308Y-118768501D02*
X85908978Y-118900805D01*
X86217992Y-118459488D02*
X86350295Y-119209818D01*
D10*
X95554228Y-108815564D02*
X95380580Y-107830756D01*
X96005172Y-109316294D02*
X96170838Y-108199126D01*
X95256373Y-108360370D01*
X94706030Y-108529941D02*
X93580535Y-108728396D01*
X97705856Y-117727325D02*
X98549977Y-117578483D01*
X98127916Y-117652904D02*
X98388389Y-119130116D01*
X98491865Y-118894278D01*
X98607745Y-118728785D01*
X98736028Y-118633634D01*
X96629803Y-119440202D02*
X97333237Y-119316167D01*
X97279546Y-118600330D01*
X97221606Y-118683076D01*
X97093323Y-118778227D01*
X96741606Y-118840244D01*
X96588516Y-118794707D01*
X96505769Y-118736767D01*
X96410619Y-118608484D01*
X96348601Y-118256767D01*
X96394138Y-118103677D01*
X96452078Y-118020930D01*
X96580361Y-117925780D01*
X96932078Y-117863762D01*
X97085169Y-117909299D01*
X97167915Y-117967239D01*
X95765124Y-118649772D02*
X94639630Y-118848227D01*
X95103150Y-118186252D02*
X95301605Y-119311746D01*
D11*
X89587454Y-91215918D02*
X89413806Y-92200726D01*
X89179328Y-92159381D01*
X89046910Y-92087679D01*
X88969657Y-91977350D01*
X88939299Y-91875289D01*
X88925479Y-91679438D01*
X88950286Y-91538751D01*
X89030257Y-91359438D01*
X89093691Y-91273915D01*
X89204020Y-91196662D01*
X89352976Y-91174573D01*
X89587454Y-91215918D01*
X88599928Y-91331913D02*
X88130972Y-91249223D01*
X88743333Y-91067077D02*
X88241416Y-91994002D01*
X88086794Y-90951312D01*
X87242674Y-90802470D02*
X87805421Y-90901698D01*
X87524047Y-90852084D02*
X87350399Y-91836892D01*
X87468997Y-91712743D01*
X87579326Y-91635490D01*
X87681386Y-91605132D01*
X86754461Y-91103214D02*
X86004132Y-90970911D01*
X88371914Y-98109574D02*
X88198266Y-99094382D01*
X87963788Y-99053037D01*
X87831370Y-98981335D01*
X87754117Y-98871006D01*
X87723759Y-98768945D01*
X87709939Y-98573094D01*
X87734746Y-98432407D01*
X87814717Y-98253094D01*
X87878151Y-98167571D01*
X87988480Y-98090318D01*
X88137436Y-98068229D01*
X88371914Y-98109574D01*
X87384388Y-98225569D02*
X86915432Y-98142879D01*
X87527793Y-97960733D02*
X87025876Y-98887658D01*
X86871254Y-97844968D01*
X86027134Y-97696126D02*
X86589881Y-97795354D01*
X86308507Y-97745740D02*
X86134859Y-98730548D01*
X86253457Y-98606399D01*
X86363786Y-98529146D01*
X86465846Y-98498788D01*
X85538921Y-97996870D02*
X84788592Y-97864567D01*
X85229908Y-97555554D02*
X85097605Y-98305884D01*
D10*
X96205040Y-100784224D02*
X97049161Y-100933065D01*
X96627101Y-100858644D02*
X96366628Y-102335856D01*
X96544526Y-102149633D01*
X96710019Y-102033753D01*
X96863109Y-101988216D01*
X95452164Y-102174611D02*
X94537700Y-102013366D01*
X95129331Y-101537443D01*
X94918301Y-101500233D01*
X94790017Y-101405083D01*
X94732078Y-101322336D01*
X94686541Y-101169245D01*
X94748558Y-100817528D01*
X94843708Y-100689245D01*
X94926455Y-100631305D01*
X95079546Y-100585769D01*
X95501606Y-100660189D01*
X95629889Y-100755339D01*
X95687829Y-100838086D01*
X94065854Y-100987271D02*
X92940359Y-100788816D01*
X93602334Y-100325296D02*
X93403879Y-101450791D01*
X97967568Y-90788427D02*
X98811689Y-90937268D01*
X98389629Y-90862847D02*
X98129156Y-92340059D01*
X98307054Y-92153836D01*
X98472547Y-92037956D01*
X98625637Y-91992419D01*
X96527739Y-91549972D02*
X96701387Y-90565165D01*
X96780228Y-92174737D02*
X97317997Y-91181603D01*
X96403532Y-91020358D01*
X95828382Y-90991474D02*
X94702887Y-90793019D01*
D11*
X94205529Y-79192887D02*
X93705529Y-80058912D01*
X93499332Y-79939864D01*
X93399424Y-79827196D01*
X93364564Y-79697099D01*
X93370944Y-79590811D01*
X93424943Y-79402044D01*
X93496371Y-79278326D01*
X93632849Y-79137178D01*
X93721707Y-79078509D01*
X93851805Y-79043650D01*
X93999332Y-79073839D01*
X94205529Y-79192887D01*
X92797013Y-78489651D02*
X92862062Y-78472221D01*
X93009589Y-78502410D01*
X93092068Y-78550029D01*
X93191976Y-78662697D01*
X93226836Y-78792795D01*
X93220456Y-78899083D01*
X93166457Y-79087850D01*
X93095028Y-79211568D01*
X92958551Y-79352715D01*
X92869693Y-79411384D01*
X92739595Y-79446244D01*
X92592068Y-79416055D01*
X92509589Y-79368436D01*
X92409681Y-79255768D01*
X92392251Y-79190719D01*
X92019846Y-77930982D02*
X92514717Y-78216696D01*
X92267282Y-78073839D02*
X91767282Y-78939864D01*
X91921189Y-78863765D01*
X92051286Y-78828906D01*
X92157575Y-78835286D01*
X91458216Y-78046610D02*
X90798387Y-77665658D01*
X91318778Y-77526220D02*
X90937825Y-78186049D01*
X97705532Y-73130708D02*
X97205532Y-73996733D01*
X96999335Y-73877685D01*
X96899427Y-73765017D01*
X96864567Y-73634920D01*
X96870947Y-73528632D01*
X96924946Y-73339865D01*
X96996374Y-73216147D01*
X97132852Y-73074999D01*
X97221710Y-73016330D01*
X97351808Y-72981471D01*
X97499335Y-73011660D01*
X97705532Y-73130708D01*
X96297016Y-72427472D02*
X96362065Y-72410042D01*
X96509592Y-72440231D01*
X96592071Y-72487850D01*
X96691979Y-72600518D01*
X96726839Y-72730616D01*
X96720459Y-72836904D01*
X96666460Y-73025671D01*
X96595031Y-73149389D01*
X96458554Y-73290536D01*
X96369696Y-73349205D01*
X96239598Y-73384065D01*
X96092071Y-73353876D01*
X96009592Y-73306257D01*
X95909684Y-73193589D01*
X95892254Y-73128540D01*
X95519849Y-71868803D02*
X96014720Y-72154517D01*
X95767285Y-72011660D02*
X95267285Y-72877685D01*
X95421192Y-72801586D01*
X95551289Y-72766727D01*
X95657578Y-72773107D01*
X94958219Y-71984431D02*
X94298390Y-71603479D01*
D10*
X105100192Y-76965631D02*
X104296026Y-76501346D01*
X105014753Y-76256474D01*
X104829176Y-76149331D01*
X104741172Y-76016043D01*
X104715028Y-75918470D01*
X104724597Y-75759038D01*
X104903169Y-75449743D01*
X105036456Y-75361740D01*
X105134030Y-75335595D01*
X105293462Y-75345165D01*
X105664615Y-75559450D01*
X105752619Y-75692738D01*
X105778764Y-75790311D01*
X104203581Y-75375750D02*
X103213838Y-74804322D01*
X100589616Y-84349607D02*
X101331924Y-84778179D01*
X100960770Y-84563893D02*
X100210770Y-85862931D01*
X100441631Y-85748783D01*
X100636777Y-85696493D01*
X100796210Y-85706063D01*
X99416173Y-85239213D02*
X99318600Y-85265358D01*
X99159168Y-85255788D01*
X98849873Y-85077217D01*
X98761870Y-84943929D01*
X98735725Y-84846356D01*
X98745294Y-84686924D01*
X98816723Y-84563206D01*
X98985725Y-84413343D01*
X100156604Y-84099607D01*
X99352437Y-83635322D01*
X98509992Y-83808765D02*
X97520249Y-83237336D01*
X98300835Y-83028179D02*
X97729406Y-84017922D01*
D11*
X111457677Y-58877001D02*
X110691632Y-59519788D01*
X110538588Y-59337397D01*
X110483239Y-59197353D01*
X110494978Y-59063178D01*
X110537326Y-58965482D01*
X110652630Y-58806568D01*
X110762065Y-58714741D01*
X110938587Y-58628784D01*
X111042153Y-58604044D01*
X111176327Y-58615783D01*
X111304632Y-58694609D01*
X111457677Y-58877001D01*
X110199365Y-58192306D02*
X110144017Y-58052262D01*
X110149886Y-57985175D01*
X110192234Y-57887479D01*
X110301669Y-57795652D01*
X110405234Y-57770913D01*
X110472322Y-57776782D01*
X110570018Y-57819130D01*
X110814889Y-58110956D01*
X110048845Y-58753744D01*
X109834582Y-58498396D01*
X109809843Y-58394830D01*
X109815712Y-58327743D01*
X109858060Y-58230047D01*
X109931016Y-58168829D01*
X110034582Y-58144089D01*
X110101669Y-58149959D01*
X110199365Y-58192306D01*
X110413628Y-58447654D01*
X109509623Y-57962960D02*
X109442535Y-57957090D01*
X109344839Y-57914743D01*
X109191795Y-57732351D01*
X109167055Y-57628786D01*
X109172924Y-57561698D01*
X109215272Y-57464002D01*
X109288229Y-57402784D01*
X109428273Y-57347436D01*
X110233319Y-57417868D01*
X109835403Y-56943650D01*
X109268096Y-56860217D02*
X108778354Y-56276564D01*
X106095363Y-63376514D02*
X105329318Y-64019301D01*
X105176274Y-63836910D01*
X105120925Y-63696866D01*
X105132664Y-63562691D01*
X105175012Y-63464995D01*
X105290316Y-63306081D01*
X105399751Y-63214254D01*
X105576273Y-63128297D01*
X105679839Y-63103557D01*
X105814013Y-63115296D01*
X105942318Y-63194122D01*
X106095363Y-63376514D01*
X104837051Y-62691819D02*
X104781703Y-62551775D01*
X104787572Y-62484688D01*
X104829920Y-62386992D01*
X104939355Y-62295165D01*
X105042920Y-62270426D01*
X105110008Y-62276295D01*
X105207704Y-62318643D01*
X105452575Y-62610469D01*
X104686531Y-63253257D01*
X104472268Y-62997909D01*
X104447529Y-62894343D01*
X104453398Y-62827256D01*
X104495746Y-62729560D01*
X104568702Y-62668342D01*
X104672268Y-62643602D01*
X104739355Y-62649472D01*
X104837051Y-62691819D01*
X105051314Y-62947167D01*
X104147309Y-62462473D02*
X104080221Y-62456603D01*
X103982525Y-62414256D01*
X103829481Y-62231864D01*
X103804741Y-62128299D01*
X103810610Y-62061211D01*
X103852958Y-61963515D01*
X103925915Y-61902297D01*
X104065959Y-61846949D01*
X104871005Y-61917381D01*
X104473089Y-61443163D01*
X103905782Y-61359730D02*
X103416040Y-60776077D01*
X103952737Y-60823032D02*
X103369085Y-61312775D01*
D10*
X118106090Y-63881439D02*
X118657051Y-64538049D01*
X118381571Y-64209744D02*
X117232504Y-65173925D01*
X117488483Y-65145620D01*
X117689745Y-65163228D01*
X117836289Y-65226750D01*
X117187822Y-62787090D02*
X117738783Y-63443699D01*
X117463303Y-63115395D02*
X116314236Y-64079576D01*
X116570215Y-64051271D01*
X116771477Y-64068879D01*
X116918021Y-64132400D01*
X116336862Y-62661940D02*
X115602247Y-61786461D01*
X110330740Y-70405733D02*
X110881701Y-71062343D01*
X110606221Y-70734038D02*
X109457154Y-71698219D01*
X109713133Y-71669914D01*
X109914395Y-71687522D01*
X110060939Y-71751044D01*
X108584799Y-70658587D02*
X108492973Y-70549153D01*
X108455863Y-70393804D01*
X108464667Y-70293173D01*
X108528189Y-70146629D01*
X108701145Y-69908258D01*
X108974732Y-69678691D01*
X109239516Y-69549755D01*
X109394864Y-69512646D01*
X109495495Y-69521450D01*
X109642039Y-69584971D01*
X109733866Y-69694406D01*
X109770975Y-69849754D01*
X109762171Y-69950385D01*
X109698650Y-70096929D01*
X109525693Y-70335301D01*
X109252106Y-70564868D01*
X108987323Y-70693804D01*
X108831974Y-70730913D01*
X108731344Y-70722109D01*
X108584799Y-70658587D01*
X108561512Y-69186234D02*
X107826897Y-68310755D01*
X108631944Y-68381187D02*
X107756465Y-69115801D01*
D13*
X79068208Y-153050358D02*
X79389602Y-153433380D01*
X78925450Y-154102580D02*
X78466316Y-153555405D01*
X79615383Y-152591223D01*
X80074517Y-153138398D01*
X79966975Y-153788097D02*
X80334282Y-154225836D01*
X80487738Y-153630855D02*
X79502823Y-154457296D01*
X79439302Y-154603841D01*
X79476411Y-154759189D01*
X79568238Y-154868624D01*
X79889632Y-155251646D02*
X81038698Y-154287465D01*
X80302852Y-155744103D02*
X80904744Y-155239056D01*
X80968266Y-155092512D01*
X80931157Y-154937163D01*
X80793416Y-154773011D01*
X80646872Y-154709489D01*
X80546241Y-154700685D01*
X81184011Y-156683104D02*
X81037467Y-156619583D01*
X80853813Y-156400713D01*
X80816704Y-156245365D01*
X80880225Y-156098820D01*
X81317965Y-155731513D01*
X81473313Y-155694404D01*
X81619858Y-155757925D01*
X81803511Y-155976795D01*
X81840621Y-156132143D01*
X81777099Y-156278688D01*
X81667664Y-156370514D01*
X81099095Y-155915167D01*
X81588428Y-157276192D02*
X82354472Y-156633405D01*
X82135602Y-156817058D02*
X82290951Y-156779949D01*
X82391581Y-156788753D01*
X82538126Y-156852274D01*
X82629952Y-156961709D01*
X82951346Y-157344732D02*
X82185302Y-157987519D01*
X82841911Y-157436558D02*
X82942542Y-157445362D01*
X83089086Y-157508884D01*
X83226827Y-157673036D01*
X83263936Y-157828385D01*
X83200414Y-157974929D01*
X82598522Y-158479976D01*
X83479681Y-159418977D02*
X83333137Y-159355456D01*
X83149483Y-159136586D01*
X83112374Y-158981238D01*
X83175895Y-158834693D01*
X83613635Y-158467386D01*
X83768983Y-158430277D01*
X83915528Y-158493798D01*
X84099181Y-158712668D01*
X84136291Y-158868016D01*
X84072769Y-159014561D01*
X83963334Y-159106387D01*
X83394765Y-158651040D01*
X84512402Y-159205125D02*
X84879709Y-159642865D01*
X85033164Y-159047884D02*
X84048250Y-159874325D01*
X83984729Y-160020869D01*
X84021838Y-160176218D01*
X84113665Y-160285653D01*
X86163391Y-160617082D02*
X86264022Y-160625886D01*
X86410566Y-160689408D01*
X86640133Y-160962995D01*
X86677243Y-161118343D01*
X86668439Y-161218974D01*
X86604917Y-161365518D01*
X86495482Y-161457345D01*
X86285416Y-161540368D01*
X85077846Y-161434719D01*
X85674720Y-162146046D01*
X86230699Y-48413718D02*
X85909305Y-48796740D01*
X85169673Y-48455845D02*
X85628807Y-47908670D01*
X86777874Y-48872852D01*
X86318740Y-49420026D01*
X85660237Y-49426937D02*
X85292930Y-49864677D01*
X85905519Y-49912483D02*
X84920605Y-49086042D01*
X84765256Y-49048933D01*
X84618712Y-49112454D01*
X84526885Y-49221889D01*
X84205491Y-49604912D02*
X85354558Y-50569093D01*
X83792271Y-50097369D02*
X84394163Y-50602416D01*
X84549511Y-50639525D01*
X84696055Y-50576004D01*
X84833796Y-50411852D01*
X84870905Y-50256503D01*
X84862101Y-50155872D01*
X83020547Y-51128196D02*
X83057656Y-50972848D01*
X83241310Y-50753978D01*
X83387854Y-50690457D01*
X83543203Y-50727566D01*
X83980942Y-51094873D01*
X84044464Y-51241418D01*
X84007354Y-51396766D01*
X83823701Y-51615636D01*
X83677157Y-51679157D01*
X83521808Y-51642048D01*
X83412373Y-51550221D01*
X83762072Y-50911220D01*
X82506696Y-51629458D02*
X83272740Y-52272245D01*
X83053870Y-52088592D02*
X83117392Y-52235136D01*
X83126196Y-52335767D01*
X83089086Y-52491115D01*
X82997260Y-52600550D01*
X82675866Y-52983572D02*
X81909821Y-52340785D01*
X82566431Y-52891745D02*
X82575235Y-52992376D01*
X82538126Y-53147725D01*
X82400385Y-53311877D01*
X82253841Y-53375398D01*
X82098493Y-53338289D01*
X81496601Y-52833242D01*
X80724877Y-53864069D02*
X80761986Y-53708721D01*
X80945640Y-53489851D01*
X81092184Y-53426330D01*
X81247533Y-53463439D01*
X81685272Y-53830746D01*
X81748794Y-53977291D01*
X81711684Y-54132639D01*
X81528031Y-54351509D01*
X81381487Y-54415030D01*
X81226138Y-54377921D01*
X81116703Y-54286094D01*
X81466402Y-53647093D01*
X81114810Y-54843966D02*
X80747503Y-55281706D01*
X81360092Y-55329512D02*
X80375178Y-54503071D01*
X80219830Y-54465961D01*
X80073285Y-54529483D01*
X79981459Y-54638918D01*
X78420403Y-56499312D02*
X78971364Y-55842702D01*
X78695883Y-56171007D02*
X79844950Y-57135188D01*
X79772624Y-56888013D01*
X79755016Y-56686751D01*
X79792126Y-56531403D01*
D14*
X68804664Y-115260912D02*
X70736516Y-114743274D01*
X70859763Y-115203238D01*
X70841718Y-115503867D01*
X70707031Y-115737151D01*
X70547695Y-115878443D01*
X70204372Y-116069034D01*
X69928394Y-116142982D01*
X69535772Y-116149587D01*
X69327137Y-116106893D01*
X69093852Y-115972206D01*
X68927911Y-115720876D01*
X68804664Y-115260912D01*
X69322302Y-117192763D02*
X70610203Y-116847671D01*
X70242231Y-116946269D02*
X70450867Y-116988963D01*
X70567509Y-117056307D01*
X70708801Y-117215643D01*
X70758100Y-117399629D01*
X69931933Y-119099966D02*
X69790641Y-118940629D01*
X69692044Y-118572657D01*
X69734738Y-118364022D01*
X69894074Y-118222730D01*
X70630018Y-118025535D01*
X70838653Y-118068229D01*
X70979945Y-118227565D01*
X71078542Y-118595537D01*
X71035848Y-118804172D01*
X70876512Y-118945464D01*
X70692526Y-118994763D01*
X70262046Y-118124133D01*
X70308279Y-120872481D02*
X71320202Y-120601337D01*
X71479538Y-120460045D01*
X71522232Y-120251410D01*
X71423635Y-119883438D01*
X71282343Y-119724102D01*
X70400272Y-120847831D02*
X70258981Y-120688495D01*
X70135733Y-120228530D01*
X70178427Y-120019895D01*
X70337764Y-119878603D01*
X70521750Y-119829304D01*
X70730385Y-119871998D01*
X70871677Y-120031335D01*
X70994924Y-120491299D01*
X71136216Y-120650636D01*
X70554774Y-121792410D02*
X71842675Y-121447318D01*
X71658689Y-121496617D02*
X71775331Y-121563960D01*
X71916623Y-121723297D01*
X71990571Y-121999276D01*
X71947877Y-122207911D01*
X71788541Y-122349203D01*
X70776619Y-122620347D01*
X71788541Y-122349203D02*
X71997176Y-122391897D01*
X72138468Y-122551233D01*
X72212416Y-122827212D01*
X72169722Y-123035847D01*
X72010386Y-123177139D01*
X70998464Y-123448283D01*
X71558796Y-125171499D02*
X71417504Y-125012163D01*
X71318906Y-124644191D01*
X71361600Y-124435556D01*
X71428944Y-124318914D01*
X71588280Y-124177622D01*
X72140238Y-124029725D01*
X72348873Y-124072419D01*
X72465515Y-124139763D01*
X72606807Y-124299099D01*
X72705405Y-124667071D01*
X72662711Y-124875706D01*
X71688648Y-126024085D02*
X72976549Y-125678993D01*
X72608577Y-125777591D02*
X72817212Y-125820285D01*
X72933855Y-125887628D01*
X73075147Y-126046965D01*
X73124445Y-126230951D01*
X73518836Y-127702838D02*
X72230935Y-128047930D01*
X73296991Y-126874901D02*
X72285069Y-127146045D01*
X72125733Y-127287337D01*
X72083039Y-127495972D01*
X72156987Y-127771951D01*
X72298279Y-127931287D01*
X72414921Y-127998631D01*
X72544773Y-128851217D02*
X72502079Y-129059852D01*
X72600677Y-129427824D01*
X72741968Y-129587160D01*
X72950604Y-129629854D01*
X73042597Y-129605205D01*
X73201933Y-129463913D01*
X73244627Y-129255278D01*
X73170679Y-128979299D01*
X73213373Y-128770664D01*
X73372709Y-128629372D01*
X73464702Y-128604722D01*
X73673338Y-128647417D01*
X73814629Y-128806753D01*
X73888578Y-129082732D01*
X73845884Y-129291367D01*
X72896470Y-130531739D02*
X74828322Y-130014101D01*
X73118315Y-131359675D02*
X74130237Y-131088532D01*
X74289574Y-130947240D01*
X74332268Y-130738605D01*
X74258319Y-130462626D01*
X74117027Y-130303289D01*
X74000385Y-130235946D01*
X73653998Y-132990899D02*
X73512706Y-132831562D01*
X73414108Y-132463591D01*
X73456802Y-132254955D01*
X73616138Y-132113664D01*
X74352082Y-131916468D01*
X74560717Y-131959162D01*
X74702009Y-132118499D01*
X74800607Y-132486470D01*
X74757913Y-132695106D01*
X74598576Y-132836398D01*
X74414590Y-132885696D01*
X73984110Y-132015066D01*
X73808499Y-133935478D02*
X75096400Y-133590386D01*
X74728428Y-133688983D02*
X74937064Y-133731677D01*
X75053706Y-133799021D01*
X75194998Y-133958357D01*
X75244297Y-134142343D01*
X65129840Y-113928531D02*
X64988548Y-113769195D01*
X64889951Y-113401223D01*
X64932645Y-113192588D01*
X65091981Y-113051296D01*
X65827925Y-112854101D01*
X66036560Y-112896795D01*
X66177852Y-113056131D01*
X66276450Y-113424103D01*
X66233756Y-113632738D01*
X66074419Y-113774030D01*
X65890433Y-113823329D01*
X65459953Y-112952698D01*
X65235043Y-114689124D02*
X66794088Y-115355954D01*
X66522944Y-114344032D02*
X65506187Y-115701047D01*
X66917335Y-115815919D02*
X67114530Y-116551863D01*
X67635234Y-115919352D02*
X65979361Y-116363042D01*
X65820024Y-116504333D01*
X65777330Y-116712969D01*
X65826629Y-116896955D01*
X66288364Y-118252199D02*
X66147072Y-118092863D01*
X66048474Y-117724891D01*
X66091168Y-117516256D01*
X66250505Y-117374964D01*
X66986448Y-117177769D01*
X67195083Y-117220463D01*
X67336375Y-117379799D01*
X67434973Y-117747771D01*
X67392279Y-117956406D01*
X67232942Y-118097698D01*
X67048957Y-118146997D01*
X66618476Y-117276366D01*
X66442865Y-119196778D02*
X67730766Y-118851686D01*
X67362794Y-118950284D02*
X67571430Y-118992978D01*
X67688072Y-119060321D01*
X67829364Y-119219658D01*
X67878663Y-119403644D01*
X68051209Y-120047594D02*
X66763308Y-120392686D01*
X67867223Y-120096893D02*
X67983865Y-120164237D01*
X68125157Y-120323573D01*
X68199105Y-120599552D01*
X68156411Y-120808187D01*
X67997075Y-120949479D01*
X66985153Y-121220623D01*
X67453492Y-122968488D02*
X68465414Y-122697345D01*
X68624751Y-122556053D01*
X68667445Y-122347418D01*
X68568847Y-121979446D01*
X68427555Y-121820109D01*
X67545485Y-122943839D02*
X67404193Y-122784503D01*
X67280946Y-122324538D01*
X67323640Y-122115903D01*
X67482976Y-121974611D01*
X67666962Y-121925312D01*
X67875597Y-121968006D01*
X68016889Y-122127342D01*
X68140136Y-122587307D01*
X68281428Y-122746644D01*
X67773934Y-124164397D02*
X67816628Y-123955761D01*
X67975965Y-123814470D01*
X69631838Y-123370780D01*
X68365521Y-126372227D02*
X70297372Y-125854589D01*
X69561429Y-126051784D02*
X69702721Y-126211121D01*
X69801318Y-126579093D01*
X69758624Y-126787728D01*
X69691281Y-126904370D01*
X69531944Y-127045662D01*
X68979987Y-127193559D01*
X68771352Y-127150865D01*
X68654709Y-127083521D01*
X68513417Y-126924185D01*
X68414820Y-126556213D01*
X68457514Y-126347578D01*
X68833860Y-128120093D02*
X70121761Y-127775001D01*
X69753789Y-127873599D02*
X69962425Y-127916293D01*
X70079067Y-127983636D01*
X70220359Y-128142973D01*
X70269658Y-128326958D01*
X69443491Y-130027295D02*
X69302199Y-129867959D01*
X69203602Y-129499987D01*
X69246296Y-129291352D01*
X69405632Y-129150060D01*
X70141576Y-128952864D01*
X70350211Y-128995558D01*
X70491503Y-129154895D01*
X70590100Y-129522867D01*
X70547406Y-129731502D01*
X70388070Y-129872794D01*
X70204084Y-129922093D01*
X69773604Y-129051462D01*
X69819837Y-131799810D02*
X70831760Y-131528667D01*
X70991096Y-131387375D01*
X71033790Y-131178739D01*
X70935192Y-130810768D01*
X70793901Y-130651431D01*
X69911830Y-131775161D02*
X69770538Y-131615824D01*
X69647291Y-131155860D01*
X69689985Y-130947224D01*
X69849322Y-130805933D01*
X70033308Y-130756634D01*
X70241943Y-130799328D01*
X70383235Y-130958664D01*
X70506482Y-131418629D01*
X70647774Y-131577965D01*
X70066332Y-132719740D02*
X71998183Y-132202102D01*
X70851574Y-132706530D02*
X70263527Y-133455683D01*
X71551428Y-133110591D02*
X70618289Y-132571843D01*
X70559320Y-134559598D02*
X70602014Y-134350963D01*
X70669358Y-134234321D01*
X70828694Y-134093029D01*
X71380652Y-133945132D01*
X71589287Y-133987826D01*
X71705930Y-134055170D01*
X71847221Y-134214506D01*
X71921170Y-134490485D01*
X71878476Y-134699120D01*
X71811132Y-134815763D01*
X71651796Y-134957055D01*
X71099838Y-135104951D01*
X70891203Y-135062257D01*
X70774560Y-134994914D01*
X70633269Y-134835577D01*
X70559320Y-134559598D01*
X72463457Y-136514330D02*
X71175556Y-136859422D01*
X72241612Y-135686393D02*
X71229690Y-135957537D01*
X71070354Y-136098829D01*
X71027660Y-136307464D01*
X71101608Y-136583443D01*
X71242900Y-136742779D01*
X71359542Y-136810123D01*
X72636003Y-137158280D02*
X72833199Y-137894224D01*
X73353902Y-137261713D02*
X71698029Y-137705403D01*
X71538693Y-137846695D01*
X71495999Y-138055330D01*
X71545298Y-138239316D01*
D10*
X150800057Y-63698668D02*
X150598026Y-63900698D01*
X150547518Y-64052221D01*
X150547518Y-64153236D01*
X150598026Y-64405774D01*
X150749549Y-64658312D01*
X151153610Y-65062373D01*
X151305133Y-65112881D01*
X151406148Y-65112881D01*
X151557671Y-65062373D01*
X151759701Y-64860343D01*
X151810209Y-64708820D01*
X151810209Y-64607805D01*
X151759701Y-64456282D01*
X151507163Y-64203744D01*
X151355640Y-64153236D01*
X151254625Y-64153236D01*
X151103102Y-64203744D01*
X150901072Y-64405774D01*
X150850564Y-64557297D01*
X150850564Y-64658312D01*
X150901072Y-64809835D01*
X148268615Y-68149399D02*
X148268615Y-68250414D01*
X148218107Y-68401937D01*
X147965569Y-68654475D01*
X147814046Y-68704983D01*
X147713031Y-68704983D01*
X147561508Y-68654475D01*
X147460493Y-68553460D01*
X147359477Y-68351430D01*
X147359477Y-67139247D01*
X146702878Y-67795846D01*
X143615853Y-70882872D02*
X144221944Y-70276780D01*
X143918898Y-70579826D02*
X144979558Y-71640486D01*
X144929051Y-71387948D01*
X144929051Y-71185917D01*
X144979558Y-71034394D01*
X144019914Y-72600131D02*
X143918898Y-72701146D01*
X143767375Y-72751654D01*
X143666360Y-72751654D01*
X143514837Y-72701146D01*
X143262299Y-72549623D01*
X143009761Y-72297085D01*
X142858238Y-72044547D01*
X142807731Y-71893024D01*
X142807731Y-71792009D01*
X142858238Y-71640486D01*
X142959253Y-71539471D01*
X143110776Y-71488963D01*
X143211792Y-71488963D01*
X143363314Y-71539471D01*
X143615853Y-71690994D01*
X143868391Y-71943532D01*
X144019914Y-72196070D01*
X144070421Y-72347593D01*
X144070421Y-72448608D01*
X144019914Y-72600131D01*
X140023751Y-74474974D02*
X140629842Y-73868882D01*
X140326796Y-74171928D02*
X141387456Y-75232588D01*
X141336949Y-74980050D01*
X141336949Y-74778019D01*
X141387456Y-74626496D01*
X139013598Y-75485126D02*
X139619690Y-74879035D01*
X139316644Y-75182080D02*
X140377304Y-76242740D01*
X140326796Y-75990202D01*
X140326796Y-75788172D01*
X140377304Y-75636649D01*
X151103101Y-145392192D02*
X151052594Y-145240669D01*
X151052594Y-145139654D01*
X151103101Y-144988131D01*
X151153609Y-144937624D01*
X151305132Y-144887116D01*
X151406147Y-144887116D01*
X151557670Y-144937624D01*
X151759700Y-145139654D01*
X151810208Y-145291177D01*
X151810208Y-145392192D01*
X151759700Y-145543715D01*
X151709193Y-145594223D01*
X151557670Y-145644730D01*
X151456655Y-145644730D01*
X151305132Y-145594223D01*
X151103101Y-145392192D01*
X150951578Y-145341685D01*
X150850563Y-145341685D01*
X150699040Y-145392192D01*
X150497010Y-145594223D01*
X150446502Y-145745746D01*
X150446502Y-145846761D01*
X150497010Y-145998284D01*
X150699040Y-146200314D01*
X150850563Y-146250822D01*
X150951578Y-146250822D01*
X151103101Y-146200314D01*
X151305132Y-145998284D01*
X151355639Y-145846761D01*
X151355639Y-145745746D01*
X151305132Y-145594223D01*
X147713029Y-141092983D02*
X148420136Y-141800090D01*
X146904907Y-142406182D01*
X143716866Y-139218141D02*
X143110774Y-138612049D01*
X143413820Y-138915095D02*
X144474480Y-137854435D01*
X144221942Y-137904942D01*
X144019912Y-137904942D01*
X143868389Y-137854435D01*
X141084410Y-134464363D02*
X140882379Y-134262333D01*
X140730856Y-134211825D01*
X140629841Y-134211825D01*
X140377303Y-134262333D01*
X140124765Y-134413856D01*
X139720704Y-134817917D01*
X139670196Y-134969440D01*
X139670196Y-135070455D01*
X139720704Y-135221978D01*
X139922734Y-135424008D01*
X140074257Y-135474516D01*
X140175272Y-135474516D01*
X140326795Y-135424008D01*
X140579333Y-135171470D01*
X140629841Y-135019947D01*
X140629841Y-134918932D01*
X140579333Y-134767409D01*
X140377303Y-134565379D01*
X140225780Y-134514871D01*
X140124765Y-134514871D01*
X139973242Y-134565379D01*
X133950713Y-127330667D02*
X133445637Y-126825591D01*
X132890053Y-127280159D01*
X132991068Y-127280159D01*
X133142591Y-127330667D01*
X133395129Y-127583205D01*
X133445637Y-127734728D01*
X133445637Y-127835743D01*
X133395129Y-127987266D01*
X133142591Y-128239804D01*
X132991068Y-128290312D01*
X132890053Y-128290312D01*
X132738530Y-128239804D01*
X132485992Y-127987266D01*
X132435485Y-127835743D01*
X132435485Y-127734728D01*
X126362447Y-120449509D02*
X125655341Y-121156615D01*
X126513970Y-119792910D02*
X125503818Y-120297986D01*
X126160417Y-120954585D01*
X128843382Y-124344656D02*
X128237290Y-123738565D01*
X128540336Y-124041611D02*
X129600996Y-122980951D01*
X129348458Y-123031458D01*
X129146427Y-123031458D01*
X128994904Y-122980951D01*
X130813179Y-124193134D02*
X130611148Y-123991103D01*
X130459626Y-123940595D01*
X130358610Y-123940595D01*
X130106072Y-123991103D01*
X129853534Y-124142626D01*
X129449473Y-124546687D01*
X129398965Y-124698210D01*
X129398965Y-124799225D01*
X129449473Y-124950748D01*
X129651504Y-125152778D01*
X129803026Y-125203286D01*
X129904042Y-125203286D01*
X130055565Y-125152778D01*
X130308103Y-124900240D01*
X130358610Y-124748717D01*
X130358610Y-124647702D01*
X130308103Y-124496179D01*
X130106072Y-124294149D01*
X129954549Y-124243641D01*
X129853534Y-124243641D01*
X129702011Y-124294149D01*
X121659179Y-117160452D02*
X121053087Y-116554361D01*
X121356133Y-116857407D02*
X122416793Y-115796747D01*
X122164255Y-115847254D01*
X121962224Y-115847254D01*
X121810701Y-115796747D01*
X123679484Y-117059437D02*
X123174407Y-116554361D01*
X122618823Y-117008930D01*
X122719839Y-117008930D01*
X122871362Y-117059437D01*
X123123900Y-117311975D01*
X123174407Y-117463498D01*
X123174407Y-117564513D01*
X123123900Y-117716036D01*
X122871362Y-117968574D01*
X122719839Y-118019082D01*
X122618823Y-118019082D01*
X122467301Y-117968574D01*
X122214762Y-117716036D01*
X122164255Y-117564513D01*
X122164255Y-117463498D01*
X122063241Y-92435484D02*
X122669332Y-91829392D01*
X122366286Y-92132438D02*
X123426946Y-93193098D01*
X123376439Y-92940560D01*
X123376439Y-92738529D01*
X123426946Y-92587006D01*
X121861210Y-94051728D02*
X121154103Y-93344621D01*
X122517809Y-94203250D02*
X122012733Y-93193098D01*
X121356134Y-93849697D01*
X125655343Y-88843382D02*
X126261434Y-88237290D01*
X125958388Y-88540336D02*
X127019048Y-89600996D01*
X126968541Y-89348458D01*
X126968541Y-89146427D01*
X127019048Y-88994904D01*
X126362449Y-90257595D02*
X125705850Y-90914194D01*
X125655343Y-90156580D01*
X125503820Y-90308103D01*
X125352297Y-90358610D01*
X125251282Y-90358610D01*
X125099759Y-90308103D01*
X124847221Y-90055565D01*
X124796713Y-89904042D01*
X124796713Y-89803026D01*
X124847221Y-89651504D01*
X125150266Y-89348458D01*
X125301789Y-89297950D01*
X125402804Y-89297950D01*
X130459628Y-86160417D02*
X129803028Y-86817016D01*
X129752521Y-86059402D01*
X129600998Y-86210924D01*
X129449475Y-86261432D01*
X129348460Y-86261432D01*
X129196937Y-86210924D01*
X128944399Y-85958386D01*
X128893891Y-85806863D01*
X128893891Y-85705848D01*
X128944399Y-85554325D01*
X129247445Y-85251280D01*
X129398967Y-85200772D01*
X129499983Y-85200772D01*
X132839547Y-81659178D02*
X133445638Y-81053086D01*
X133142592Y-81356132D02*
X134203252Y-82416792D01*
X134152745Y-82164254D01*
X134152745Y-81962223D01*
X134203252Y-81810700D01*
X133395130Y-83022883D02*
X133395130Y-83123899D01*
X133344623Y-83275422D01*
X133092085Y-83527960D01*
X132940562Y-83578467D01*
X132839547Y-83578467D01*
X132688024Y-83527960D01*
X132587008Y-83426944D01*
X132485993Y-83224914D01*
X132485993Y-82012731D01*
X131829394Y-82669330D01*
X132564930Y-57761345D02*
X132473379Y-57718654D01*
X132357398Y-57608842D01*
X132235248Y-57273238D01*
X132253509Y-57114566D01*
X132296200Y-57023015D01*
X132406012Y-56907034D01*
X132540254Y-56858174D01*
X132766046Y-56852005D01*
X133864657Y-57364295D01*
X133547067Y-56491724D01*
X132790230Y-56083076D02*
X132399350Y-55009141D01*
X124253488Y-60634438D02*
X124155768Y-60365954D01*
X124039787Y-60256142D01*
X123948236Y-60213451D01*
X123698014Y-60152500D01*
X123405100Y-60183099D01*
X122868133Y-60378539D01*
X122758321Y-60494520D01*
X122715630Y-60586071D01*
X122697369Y-60744743D01*
X122795089Y-61013226D01*
X122911070Y-61123038D01*
X123002621Y-61165729D01*
X123161293Y-61183990D01*
X123496897Y-61061840D01*
X123606709Y-60945859D01*
X123649400Y-60854308D01*
X123667661Y-60695636D01*
X123569941Y-60427152D01*
X123453960Y-60317341D01*
X123362409Y-60274650D01*
X123203737Y-60256389D01*
X123252351Y-59554581D02*
X122861471Y-58480646D01*
X123593878Y-58822173D02*
X122519944Y-59213054D01*
D11*
X122677670Y-52580548D02*
X121737977Y-52922568D01*
X121656544Y-52698831D01*
X121652431Y-52548303D01*
X121709352Y-52426235D01*
X121782560Y-52348914D01*
X121945263Y-52239020D01*
X122079504Y-52190160D01*
X122274780Y-52169761D01*
X122380561Y-52181935D01*
X122502629Y-52238856D01*
X122596236Y-52356811D01*
X122677670Y-52580548D01*
X122335650Y-51640855D02*
X121395957Y-51982875D01*
X121314524Y-51759139D01*
X121310411Y-51608610D01*
X121367332Y-51486542D01*
X121440540Y-51409222D01*
X121603242Y-51299328D01*
X121737484Y-51250468D01*
X121932760Y-51230068D01*
X122038541Y-51242242D01*
X122160609Y-51299163D01*
X122254216Y-51417119D01*
X122335650Y-51640855D01*
X121159718Y-51055356D02*
X121098684Y-51026896D01*
X121021364Y-50953688D01*
X120939930Y-50729952D01*
X120952104Y-50624170D01*
X120980565Y-50563136D01*
X121053773Y-50485816D01*
X121143267Y-50453242D01*
X121293796Y-50449130D01*
X122026203Y-50790657D01*
X121814476Y-50208942D01*
X121309918Y-49936510D02*
X121049331Y-49220554D01*
X121537603Y-49448239D02*
X120821646Y-49708826D01*
X129255521Y-50186408D02*
X128315828Y-50528428D01*
X128234395Y-50304691D01*
X128230282Y-50154163D01*
X128287203Y-50032095D01*
X128360411Y-49954774D01*
X128523114Y-49844880D01*
X128657355Y-49796020D01*
X128852631Y-49775621D01*
X128958412Y-49787795D01*
X129080480Y-49844716D01*
X129174087Y-49962671D01*
X129255521Y-50186408D01*
X128913501Y-49246715D02*
X127973808Y-49588735D01*
X127892375Y-49364999D01*
X127888262Y-49214470D01*
X127945183Y-49092402D01*
X128018391Y-49015082D01*
X128181093Y-48905188D01*
X128315335Y-48856328D01*
X128510611Y-48835928D01*
X128616392Y-48848102D01*
X128738460Y-48905023D01*
X128832067Y-49022979D01*
X128913501Y-49246715D01*
X127737569Y-48661216D02*
X127676535Y-48632756D01*
X127599215Y-48559548D01*
X127517781Y-48335812D01*
X127529955Y-48230030D01*
X127558416Y-48168996D01*
X127631624Y-48091676D01*
X127721118Y-48059102D01*
X127871647Y-48054990D01*
X128604054Y-48396517D01*
X128392327Y-47814802D01*
X127887769Y-47542370D02*
X127627182Y-46826414D01*
D15*
G36*
X77263289Y-117746319D02*
G01*
X77239073Y-117739081D01*
X77205745Y-117728243D01*
X77190728Y-117723159D01*
X77086576Y-117689334D01*
X76968022Y-117653981D01*
X76839526Y-117618252D01*
X76705550Y-117583302D01*
X76570555Y-117550288D01*
X76439004Y-117520361D01*
X76315359Y-117494676D01*
X76285648Y-117488948D01*
X75927455Y-117430038D01*
X75572483Y-117389725D01*
X75219782Y-117368016D01*
X74868402Y-117364917D01*
X74517394Y-117380431D01*
X74165808Y-117414566D01*
X73812695Y-117467327D01*
X73617756Y-117504232D01*
X73568268Y-117515061D01*
X73506446Y-117529804D01*
X73435025Y-117547703D01*
X73356743Y-117568003D01*
X73274339Y-117589946D01*
X73190546Y-117612779D01*
X73108103Y-117635743D01*
X73029746Y-117658084D01*
X72958212Y-117679044D01*
X72896239Y-117697867D01*
X72846560Y-117713799D01*
X72811917Y-117726082D01*
X72805641Y-117728612D01*
X72765560Y-117745474D01*
X72739299Y-117694767D01*
X72627829Y-117473398D01*
X72527786Y-117261236D01*
X72437337Y-117053801D01*
X72354646Y-116846618D01*
X72277878Y-116635211D01*
X72205197Y-116415104D01*
X72175990Y-116320769D01*
X72155999Y-116254146D01*
X72141564Y-116203785D01*
X72132244Y-116167859D01*
X72127598Y-116144544D01*
X72127187Y-116132014D01*
X72129594Y-116128534D01*
X72149189Y-116126071D01*
X72185474Y-116124276D01*
X72236104Y-116123119D01*
X72298728Y-116122577D01*
X72370996Y-116122621D01*
X72450557Y-116123227D01*
X72535064Y-116124368D01*
X72622167Y-116126016D01*
X72709516Y-116128147D01*
X72794761Y-116130733D01*
X72875552Y-116133749D01*
X72949542Y-116137170D01*
X72962298Y-116137844D01*
X73354558Y-116166850D01*
X73735236Y-116210868D01*
X74104622Y-116270000D01*
X74463004Y-116344357D01*
X74810673Y-116434040D01*
X75147918Y-116539159D01*
X75475028Y-116659818D01*
X75792292Y-116796122D01*
X76100001Y-116948180D01*
X76398443Y-117116094D01*
X76687909Y-117299972D01*
X76968686Y-117499920D01*
X77213653Y-117693250D01*
X77241947Y-117717218D01*
X77262882Y-117736045D01*
X77273451Y-117746973D01*
X77273960Y-117748600D01*
X77263289Y-117746319D01*
G37*
X77263289Y-117746319D02*
X77239073Y-117739081D01*
X77205745Y-117728243D01*
X77190728Y-117723159D01*
X77086576Y-117689334D01*
X76968022Y-117653981D01*
X76839526Y-117618252D01*
X76705550Y-117583302D01*
X76570555Y-117550288D01*
X76439004Y-117520361D01*
X76315359Y-117494676D01*
X76285648Y-117488948D01*
X75927455Y-117430038D01*
X75572483Y-117389725D01*
X75219782Y-117368016D01*
X74868402Y-117364917D01*
X74517394Y-117380431D01*
X74165808Y-117414566D01*
X73812695Y-117467327D01*
X73617756Y-117504232D01*
X73568268Y-117515061D01*
X73506446Y-117529804D01*
X73435025Y-117547703D01*
X73356743Y-117568003D01*
X73274339Y-117589946D01*
X73190546Y-117612779D01*
X73108103Y-117635743D01*
X73029746Y-117658084D01*
X72958212Y-117679044D01*
X72896239Y-117697867D01*
X72846560Y-117713799D01*
X72811917Y-117726082D01*
X72805641Y-117728612D01*
X72765560Y-117745474D01*
X72739299Y-117694767D01*
X72627829Y-117473398D01*
X72527786Y-117261236D01*
X72437337Y-117053801D01*
X72354646Y-116846618D01*
X72277878Y-116635211D01*
X72205197Y-116415104D01*
X72175990Y-116320769D01*
X72155999Y-116254146D01*
X72141564Y-116203785D01*
X72132244Y-116167859D01*
X72127598Y-116144544D01*
X72127187Y-116132014D01*
X72129594Y-116128534D01*
X72149189Y-116126071D01*
X72185474Y-116124276D01*
X72236104Y-116123119D01*
X72298728Y-116122577D01*
X72370996Y-116122621D01*
X72450557Y-116123227D01*
X72535064Y-116124368D01*
X72622167Y-116126016D01*
X72709516Y-116128147D01*
X72794761Y-116130733D01*
X72875552Y-116133749D01*
X72949542Y-116137170D01*
X72962298Y-116137844D01*
X73354558Y-116166850D01*
X73735236Y-116210868D01*
X74104622Y-116270000D01*
X74463004Y-116344357D01*
X74810673Y-116434040D01*
X75147918Y-116539159D01*
X75475028Y-116659818D01*
X75792292Y-116796122D01*
X76100001Y-116948180D01*
X76398443Y-117116094D01*
X76687909Y-117299972D01*
X76968686Y-117499920D01*
X77213653Y-117693250D01*
X77241947Y-117717218D01*
X77262882Y-117736045D01*
X77273451Y-117746973D01*
X77273960Y-117748600D01*
X77263289Y-117746319D01*
G36*
X80033830Y-132445844D02*
G01*
X80013377Y-132443681D01*
X79978452Y-132437542D01*
X79931026Y-132427895D01*
X79873069Y-132415205D01*
X79806552Y-132399937D01*
X79733446Y-132382558D01*
X79655720Y-132363531D01*
X79575345Y-132343325D01*
X79494292Y-132322405D01*
X79414530Y-132301235D01*
X79338030Y-132280283D01*
X79291722Y-132267210D01*
X79048611Y-132193031D01*
X78802646Y-132109092D01*
X78558812Y-132017307D01*
X78322095Y-131919583D01*
X78097480Y-131817833D01*
X78015386Y-131778041D01*
X77952940Y-131745955D01*
X77878814Y-131705879D01*
X77796503Y-131659871D01*
X77709501Y-131609981D01*
X77621306Y-131558264D01*
X77535410Y-131506772D01*
X77455308Y-131457559D01*
X77384497Y-131412679D01*
X77326469Y-131374184D01*
X77317776Y-131368178D01*
X77088167Y-131199451D01*
X76876758Y-131025585D01*
X76683332Y-130846333D01*
X76507673Y-130661450D01*
X76349564Y-130470689D01*
X76208791Y-130273805D01*
X76085137Y-130070552D01*
X75978385Y-129860684D01*
X75963298Y-129827459D01*
X75943387Y-129778179D01*
X75920862Y-129714539D01*
X75896805Y-129640384D01*
X75872300Y-129559556D01*
X75848432Y-129475901D01*
X75826282Y-129393261D01*
X75806936Y-129315481D01*
X75791476Y-129246403D01*
X75780988Y-129189873D01*
X75778441Y-129171753D01*
X75762060Y-128962232D01*
X75764439Y-128755679D01*
X75785542Y-128552351D01*
X75825334Y-128352501D01*
X75883777Y-128156390D01*
X75943638Y-128003053D01*
X75962640Y-127962116D01*
X75988519Y-127910503D01*
X76018342Y-127853872D01*
X76049170Y-127797878D01*
X76060189Y-127778550D01*
X76092015Y-127724303D01*
X76117865Y-127683141D01*
X76140593Y-127651261D01*
X76163050Y-127624863D01*
X76188089Y-127600143D01*
X76206098Y-127584046D01*
X76263940Y-127537072D01*
X76321397Y-127498436D01*
X76383194Y-127465662D01*
X76454057Y-127436276D01*
X76538712Y-127407801D01*
X76547736Y-127405025D01*
X76706105Y-127365605D01*
X76871410Y-127342167D01*
X77044373Y-127334703D01*
X77225721Y-127343210D01*
X77416177Y-127367683D01*
X77575715Y-127398784D01*
X77618837Y-127409065D01*
X77669979Y-127422335D01*
X77725288Y-127437472D01*
X77780909Y-127453357D01*
X77832990Y-127468869D01*
X77877675Y-127482887D01*
X77911111Y-127494291D01*
X77928075Y-127501227D01*
X77926283Y-127510128D01*
X77918103Y-127531934D01*
X77905200Y-127562281D01*
X77902373Y-127568605D01*
X77847062Y-127711667D01*
X77803806Y-127867442D01*
X77772939Y-128033622D01*
X77754797Y-128207894D01*
X77749715Y-128387950D01*
X77757696Y-128567437D01*
X77776853Y-128732815D01*
X77808289Y-128909340D01*
X77851247Y-129094261D01*
X77904968Y-129284829D01*
X77968692Y-129478295D01*
X78041663Y-129671911D01*
X78102412Y-129816503D01*
X78223903Y-130075166D01*
X78362053Y-130337223D01*
X78515296Y-130600521D01*
X78682062Y-130862900D01*
X78860784Y-131122203D01*
X79049896Y-131376274D01*
X79247829Y-131622956D01*
X79453015Y-131860090D01*
X79663886Y-132085520D01*
X79878874Y-132297088D01*
X79959416Y-132371665D01*
X79989874Y-132399438D01*
X80015777Y-132423156D01*
X80033324Y-132439332D01*
X80037842Y-132443567D01*
X80033830Y-132445844D01*
G37*
X80033830Y-132445844D02*
X80013377Y-132443681D01*
X79978452Y-132437542D01*
X79931026Y-132427895D01*
X79873069Y-132415205D01*
X79806552Y-132399937D01*
X79733446Y-132382558D01*
X79655720Y-132363531D01*
X79575345Y-132343325D01*
X79494292Y-132322405D01*
X79414530Y-132301235D01*
X79338030Y-132280283D01*
X79291722Y-132267210D01*
X79048611Y-132193031D01*
X78802646Y-132109092D01*
X78558812Y-132017307D01*
X78322095Y-131919583D01*
X78097480Y-131817833D01*
X78015386Y-131778041D01*
X77952940Y-131745955D01*
X77878814Y-131705879D01*
X77796503Y-131659871D01*
X77709501Y-131609981D01*
X77621306Y-131558264D01*
X77535410Y-131506772D01*
X77455308Y-131457559D01*
X77384497Y-131412679D01*
X77326469Y-131374184D01*
X77317776Y-131368178D01*
X77088167Y-131199451D01*
X76876758Y-131025585D01*
X76683332Y-130846333D01*
X76507673Y-130661450D01*
X76349564Y-130470689D01*
X76208791Y-130273805D01*
X76085137Y-130070552D01*
X75978385Y-129860684D01*
X75963298Y-129827459D01*
X75943387Y-129778179D01*
X75920862Y-129714539D01*
X75896805Y-129640384D01*
X75872300Y-129559556D01*
X75848432Y-129475901D01*
X75826282Y-129393261D01*
X75806936Y-129315481D01*
X75791476Y-129246403D01*
X75780988Y-129189873D01*
X75778441Y-129171753D01*
X75762060Y-128962232D01*
X75764439Y-128755679D01*
X75785542Y-128552351D01*
X75825334Y-128352501D01*
X75883777Y-128156390D01*
X75943638Y-128003053D01*
X75962640Y-127962116D01*
X75988519Y-127910503D01*
X76018342Y-127853872D01*
X76049170Y-127797878D01*
X76060189Y-127778550D01*
X76092015Y-127724303D01*
X76117865Y-127683141D01*
X76140593Y-127651261D01*
X76163050Y-127624863D01*
X76188089Y-127600143D01*
X76206098Y-127584046D01*
X76263940Y-127537072D01*
X76321397Y-127498436D01*
X76383194Y-127465662D01*
X76454057Y-127436276D01*
X76538712Y-127407801D01*
X76547736Y-127405025D01*
X76706105Y-127365605D01*
X76871410Y-127342167D01*
X77044373Y-127334703D01*
X77225721Y-127343210D01*
X77416177Y-127367683D01*
X77575715Y-127398784D01*
X77618837Y-127409065D01*
X77669979Y-127422335D01*
X77725288Y-127437472D01*
X77780909Y-127453357D01*
X77832990Y-127468869D01*
X77877675Y-127482887D01*
X77911111Y-127494291D01*
X77928075Y-127501227D01*
X77926283Y-127510128D01*
X77918103Y-127531934D01*
X77905200Y-127562281D01*
X77902373Y-127568605D01*
X77847062Y-127711667D01*
X77803806Y-127867442D01*
X77772939Y-128033622D01*
X77754797Y-128207894D01*
X77749715Y-128387950D01*
X77757696Y-128567437D01*
X77776853Y-128732815D01*
X77808289Y-128909340D01*
X77851247Y-129094261D01*
X77904968Y-129284829D01*
X77968692Y-129478295D01*
X78041663Y-129671911D01*
X78102412Y-129816503D01*
X78223903Y-130075166D01*
X78362053Y-130337223D01*
X78515296Y-130600521D01*
X78682062Y-130862900D01*
X78860784Y-131122203D01*
X79049896Y-131376274D01*
X79247829Y-131622956D01*
X79453015Y-131860090D01*
X79663886Y-132085520D01*
X79878874Y-132297088D01*
X79959416Y-132371665D01*
X79989874Y-132399438D01*
X80015777Y-132423156D01*
X80033324Y-132439332D01*
X80037842Y-132443567D01*
X80033830Y-132445844D01*
G36*
X77002939Y-118078975D02*
G01*
X76711516Y-118169821D01*
X76417559Y-118272606D01*
X76119609Y-118387942D01*
X75816205Y-118516443D01*
X75505887Y-118658723D01*
X75187196Y-118815397D01*
X74913297Y-118957862D01*
X74834515Y-119000333D01*
X74746592Y-119048633D01*
X74652925Y-119100825D01*
X74556915Y-119154975D01*
X74461960Y-119209149D01*
X74371459Y-119261410D01*
X74288812Y-119309822D01*
X74217417Y-119352452D01*
X74179300Y-119375744D01*
X74094692Y-119428087D01*
X74073459Y-119412047D01*
X74059760Y-119400260D01*
X74035167Y-119377697D01*
X74002402Y-119346909D01*
X73964183Y-119310447D01*
X73932717Y-119280078D01*
X73738768Y-119084378D01*
X73558493Y-118886292D01*
X73388638Y-118681861D01*
X73225946Y-118467131D01*
X73067164Y-118238144D01*
X73033559Y-118187185D01*
X72997999Y-118132500D01*
X72965975Y-118082676D01*
X72938963Y-118040059D01*
X72918441Y-118006993D01*
X72905886Y-117985823D01*
X72902617Y-117979300D01*
X72907580Y-117966109D01*
X72923016Y-117954200D01*
X72938209Y-117948390D01*
X72969094Y-117938109D01*
X73013059Y-117924171D01*
X73067488Y-117907391D01*
X73129770Y-117888585D01*
X73197291Y-117868568D01*
X73202929Y-117866912D01*
X73536088Y-117779076D01*
X73873283Y-117709840D01*
X74214331Y-117659219D01*
X74559047Y-117627231D01*
X74907250Y-117613893D01*
X75258757Y-117619222D01*
X75613384Y-117643234D01*
X75613805Y-117643273D01*
X75870309Y-117673241D01*
X76136018Y-117715581D01*
X76406492Y-117769369D01*
X76677287Y-117833680D01*
X76943965Y-117907586D01*
X77071089Y-117946801D01*
X77254455Y-118005345D01*
X77002939Y-118078975D01*
G37*
X77002939Y-118078975D02*
X76711516Y-118169821D01*
X76417559Y-118272606D01*
X76119609Y-118387942D01*
X75816205Y-118516443D01*
X75505887Y-118658723D01*
X75187196Y-118815397D01*
X74913297Y-118957862D01*
X74834515Y-119000333D01*
X74746592Y-119048633D01*
X74652925Y-119100825D01*
X74556915Y-119154975D01*
X74461960Y-119209149D01*
X74371459Y-119261410D01*
X74288812Y-119309822D01*
X74217417Y-119352452D01*
X74179300Y-119375744D01*
X74094692Y-119428087D01*
X74073459Y-119412047D01*
X74059760Y-119400260D01*
X74035167Y-119377697D01*
X74002402Y-119346909D01*
X73964183Y-119310447D01*
X73932717Y-119280078D01*
X73738768Y-119084378D01*
X73558493Y-118886292D01*
X73388638Y-118681861D01*
X73225946Y-118467131D01*
X73067164Y-118238144D01*
X73033559Y-118187185D01*
X72997999Y-118132500D01*
X72965975Y-118082676D01*
X72938963Y-118040059D01*
X72918441Y-118006993D01*
X72905886Y-117985823D01*
X72902617Y-117979300D01*
X72907580Y-117966109D01*
X72923016Y-117954200D01*
X72938209Y-117948390D01*
X72969094Y-117938109D01*
X73013059Y-117924171D01*
X73067488Y-117907391D01*
X73129770Y-117888585D01*
X73197291Y-117868568D01*
X73202929Y-117866912D01*
X73536088Y-117779076D01*
X73873283Y-117709840D01*
X74214331Y-117659219D01*
X74559047Y-117627231D01*
X74907250Y-117613893D01*
X75258757Y-117619222D01*
X75613384Y-117643234D01*
X75613805Y-117643273D01*
X75870309Y-117673241D01*
X76136018Y-117715581D01*
X76406492Y-117769369D01*
X76677287Y-117833680D01*
X76943965Y-117907586D01*
X77071089Y-117946801D01*
X77254455Y-118005345D01*
X77002939Y-118078975D01*
G36*
X75953935Y-120884661D02*
G01*
X75964029Y-120926930D01*
X75970208Y-120959840D01*
X75973118Y-120987873D01*
X75973403Y-121015514D01*
X75971710Y-121047247D01*
X75971391Y-121051733D01*
X75954063Y-121166196D01*
X75919765Y-121276143D01*
X75869874Y-121379394D01*
X75805769Y-121473767D01*
X75728829Y-121557082D01*
X75640431Y-121627157D01*
X75587444Y-121659257D01*
X75529429Y-121685562D01*
X75459295Y-121709223D01*
X75383957Y-121728486D01*
X75310332Y-121741599D01*
X75245331Y-121746806D01*
X75242171Y-121746827D01*
X75130641Y-121737777D01*
X75021347Y-121710895D01*
X74916697Y-121667403D01*
X74819107Y-121608522D01*
X74730985Y-121535476D01*
X74654745Y-121449487D01*
X74654317Y-121448920D01*
X74607777Y-121375795D01*
X74567392Y-121290333D01*
X74535440Y-121198855D01*
X74514200Y-121107680D01*
X74506417Y-121038540D01*
X74508540Y-120934326D01*
X74525782Y-120834372D01*
X74559060Y-120735071D01*
X74609290Y-120632807D01*
X74609658Y-120632153D01*
X74659434Y-120552997D01*
X74713247Y-120487461D01*
X74776099Y-120430134D01*
X74837828Y-120385502D01*
X74864129Y-120368682D01*
X74888249Y-120355306D01*
X74914261Y-120343793D01*
X74946240Y-120332556D01*
X74988260Y-120320011D01*
X75026627Y-120309459D01*
X75080611Y-120510927D01*
X74992412Y-120545590D01*
X74952101Y-120568098D01*
X74879079Y-120624587D01*
X74816653Y-120694735D01*
X74766608Y-120775306D01*
X74730732Y-120863064D01*
X74710809Y-120954772D01*
X74707252Y-121011822D01*
X74712166Y-121068474D01*
X74725651Y-121133384D01*
X74745683Y-121198969D01*
X74770236Y-121257650D01*
X74775745Y-121268326D01*
X74825848Y-121342073D01*
X74890265Y-121406088D01*
X74966058Y-121458727D01*
X75050283Y-121498343D01*
X75140003Y-121523289D01*
X75232278Y-121531922D01*
X75246247Y-121531705D01*
X75335238Y-121520835D01*
X75424428Y-121494911D01*
X75508804Y-121456029D01*
X75583356Y-121406282D01*
X75616549Y-121376846D01*
X75675343Y-121306107D01*
X75721473Y-121223997D01*
X75753184Y-121134768D01*
X75768720Y-121042672D01*
X75770007Y-121005054D01*
X75761515Y-120921488D01*
X75738588Y-120836494D01*
X75703350Y-120755164D01*
X75657924Y-120682588D01*
X75615107Y-120633703D01*
X75575192Y-120600900D01*
X75524604Y-120567475D01*
X75469334Y-120536727D01*
X75415374Y-120511959D01*
X75368712Y-120496469D01*
X75364129Y-120495441D01*
X75271513Y-120484963D01*
X75175326Y-120490421D01*
X75080611Y-120510927D01*
X75026627Y-120309459D01*
X75044396Y-120304572D01*
X75049229Y-120303268D01*
X75105854Y-120288237D01*
X75148457Y-120277769D01*
X75181343Y-120271229D01*
X75208819Y-120267982D01*
X75235196Y-120267392D01*
X75264781Y-120268824D01*
X75276862Y-120269699D01*
X75385492Y-120286744D01*
X75492809Y-120320370D01*
X75595138Y-120368768D01*
X75688804Y-120430136D01*
X75770130Y-120502665D01*
X75785839Y-120519755D01*
X75826365Y-120568745D01*
X75858814Y-120616355D01*
X75885492Y-120667228D01*
X75908706Y-120726007D01*
X75930764Y-120797334D01*
X75939282Y-120828545D01*
X75953935Y-120884661D01*
G37*
X75953935Y-120884661D02*
X75964029Y-120926930D01*
X75970208Y-120959840D01*
X75973118Y-120987873D01*
X75973403Y-121015514D01*
X75971710Y-121047247D01*
X75971391Y-121051733D01*
X75954063Y-121166196D01*
X75919765Y-121276143D01*
X75869874Y-121379394D01*
X75805769Y-121473767D01*
X75728829Y-121557082D01*
X75640431Y-121627157D01*
X75587444Y-121659257D01*
X75529429Y-121685562D01*
X75459295Y-121709223D01*
X75383957Y-121728486D01*
X75310332Y-121741599D01*
X75245331Y-121746806D01*
X75242171Y-121746827D01*
X75130641Y-121737777D01*
X75021347Y-121710895D01*
X74916697Y-121667403D01*
X74819107Y-121608522D01*
X74730985Y-121535476D01*
X74654745Y-121449487D01*
X74654317Y-121448920D01*
X74607777Y-121375795D01*
X74567392Y-121290333D01*
X74535440Y-121198855D01*
X74514200Y-121107680D01*
X74506417Y-121038540D01*
X74508540Y-120934326D01*
X74525782Y-120834372D01*
X74559060Y-120735071D01*
X74609290Y-120632807D01*
X74609658Y-120632153D01*
X74659434Y-120552997D01*
X74713247Y-120487461D01*
X74776099Y-120430134D01*
X74837828Y-120385502D01*
X74864129Y-120368682D01*
X74888249Y-120355306D01*
X74914261Y-120343793D01*
X74946240Y-120332556D01*
X74988260Y-120320011D01*
X75026627Y-120309459D01*
X75080611Y-120510927D01*
X74992412Y-120545590D01*
X74952101Y-120568098D01*
X74879079Y-120624587D01*
X74816653Y-120694735D01*
X74766608Y-120775306D01*
X74730732Y-120863064D01*
X74710809Y-120954772D01*
X74707252Y-121011822D01*
X74712166Y-121068474D01*
X74725651Y-121133384D01*
X74745683Y-121198969D01*
X74770236Y-121257650D01*
X74775745Y-121268326D01*
X74825848Y-121342073D01*
X74890265Y-121406088D01*
X74966058Y-121458727D01*
X75050283Y-121498343D01*
X75140003Y-121523289D01*
X75232278Y-121531922D01*
X75246247Y-121531705D01*
X75335238Y-121520835D01*
X75424428Y-121494911D01*
X75508804Y-121456029D01*
X75583356Y-121406282D01*
X75616549Y-121376846D01*
X75675343Y-121306107D01*
X75721473Y-121223997D01*
X75753184Y-121134768D01*
X75768720Y-121042672D01*
X75770007Y-121005054D01*
X75761515Y-120921488D01*
X75738588Y-120836494D01*
X75703350Y-120755164D01*
X75657924Y-120682588D01*
X75615107Y-120633703D01*
X75575192Y-120600900D01*
X75524604Y-120567475D01*
X75469334Y-120536727D01*
X75415374Y-120511959D01*
X75368712Y-120496469D01*
X75364129Y-120495441D01*
X75271513Y-120484963D01*
X75175326Y-120490421D01*
X75080611Y-120510927D01*
X75026627Y-120309459D01*
X75044396Y-120304572D01*
X75049229Y-120303268D01*
X75105854Y-120288237D01*
X75148457Y-120277769D01*
X75181343Y-120271229D01*
X75208819Y-120267982D01*
X75235196Y-120267392D01*
X75264781Y-120268824D01*
X75276862Y-120269699D01*
X75385492Y-120286744D01*
X75492809Y-120320370D01*
X75595138Y-120368768D01*
X75688804Y-120430136D01*
X75770130Y-120502665D01*
X75785839Y-120519755D01*
X75826365Y-120568745D01*
X75858814Y-120616355D01*
X75885492Y-120667228D01*
X75908706Y-120726007D01*
X75930764Y-120797334D01*
X75939282Y-120828545D01*
X75953935Y-120884661D01*
G36*
X76610166Y-123327529D02*
G01*
X76613852Y-123390476D01*
X76605926Y-123451647D01*
X76590850Y-123504729D01*
X76576977Y-123537686D01*
X76557133Y-123575008D01*
X76534101Y-123612484D01*
X76510660Y-123645906D01*
X76489590Y-123671064D01*
X76473673Y-123683750D01*
X76472282Y-123684223D01*
X76462614Y-123678844D01*
X76442791Y-123662665D01*
X76416045Y-123638442D01*
X76395547Y-123618776D01*
X76326648Y-123551230D01*
X76344228Y-123531427D01*
X76384196Y-123478164D01*
X76406723Y-123426499D01*
X76412760Y-123373029D01*
X76403927Y-123316870D01*
X76380852Y-123256871D01*
X76347632Y-123209075D01*
X76306391Y-123175046D01*
X76259250Y-123156347D01*
X76208329Y-123154542D01*
X76188989Y-123158459D01*
X76151965Y-123173856D01*
X76122032Y-123199401D01*
X76098157Y-123237011D01*
X76079299Y-123288606D01*
X76064424Y-123356106D01*
X76057394Y-123401952D01*
X76041786Y-123504460D01*
X76024689Y-123590220D01*
X76005229Y-123661529D01*
X75982535Y-123720684D01*
X75955733Y-123769980D01*
X75923950Y-123811715D01*
X75888542Y-123846285D01*
X75840240Y-123878856D01*
X75779100Y-123906738D01*
X75711145Y-123927923D01*
X75642404Y-123940400D01*
X75599028Y-123942885D01*
X75515056Y-123933510D01*
X75433247Y-123907058D01*
X75357784Y-123865401D01*
X75292847Y-123810411D01*
X75285613Y-123802620D01*
X75236787Y-123736045D01*
X75198142Y-123658020D01*
X75171929Y-123574423D01*
X75160398Y-123491131D01*
X75160051Y-123474649D01*
X75169268Y-123387247D01*
X75196272Y-123305572D01*
X75240333Y-123230847D01*
X75300724Y-123164297D01*
X75376718Y-123107144D01*
X75380093Y-123105057D01*
X75413532Y-123084922D01*
X75437291Y-123073954D01*
X75454999Y-123073630D01*
X75470290Y-123085431D01*
X75486793Y-123110835D01*
X75508140Y-123151323D01*
X75511987Y-123158793D01*
X75533860Y-123201783D01*
X75546847Y-123231323D01*
X75550679Y-123250959D01*
X75545089Y-123264234D01*
X75529807Y-123274694D01*
X75504567Y-123285884D01*
X75502292Y-123286840D01*
X75450883Y-123317108D01*
X75408654Y-123358956D01*
X75378545Y-123408355D01*
X75363502Y-123461270D01*
X75362348Y-123478592D01*
X75369756Y-123546500D01*
X75391853Y-123606423D01*
X75426396Y-123656665D01*
X75471139Y-123695531D01*
X75523838Y-123721329D01*
X75582252Y-123732362D01*
X75644136Y-123726938D01*
X75677738Y-123716748D01*
X75716751Y-123698870D01*
X75749015Y-123676433D01*
X75775568Y-123647299D01*
X75797442Y-123609329D01*
X75815676Y-123560385D01*
X75831305Y-123498329D01*
X75845362Y-123421022D01*
X75855876Y-123348967D01*
X75876469Y-123242387D01*
X75907254Y-123151847D01*
X75948321Y-123077236D01*
X75999752Y-123018443D01*
X76061634Y-122975356D01*
X76134052Y-122947864D01*
X76168469Y-122940806D01*
X76246454Y-122936858D01*
X76320772Y-122950817D01*
X76392825Y-122983090D01*
X76450322Y-123022799D01*
X76508224Y-123079207D01*
X76553068Y-123146366D01*
X76586399Y-123226764D01*
X76594981Y-123256056D01*
X76610166Y-123327529D01*
G37*
X76610166Y-123327529D02*
X76613852Y-123390476D01*
X76605926Y-123451647D01*
X76590850Y-123504729D01*
X76576977Y-123537686D01*
X76557133Y-123575008D01*
X76534101Y-123612484D01*
X76510660Y-123645906D01*
X76489590Y-123671064D01*
X76473673Y-123683750D01*
X76472282Y-123684223D01*
X76462614Y-123678844D01*
X76442791Y-123662665D01*
X76416045Y-123638442D01*
X76395547Y-123618776D01*
X76326648Y-123551230D01*
X76344228Y-123531427D01*
X76384196Y-123478164D01*
X76406723Y-123426499D01*
X76412760Y-123373029D01*
X76403927Y-123316870D01*
X76380852Y-123256871D01*
X76347632Y-123209075D01*
X76306391Y-123175046D01*
X76259250Y-123156347D01*
X76208329Y-123154542D01*
X76188989Y-123158459D01*
X76151965Y-123173856D01*
X76122032Y-123199401D01*
X76098157Y-123237011D01*
X76079299Y-123288606D01*
X76064424Y-123356106D01*
X76057394Y-123401952D01*
X76041786Y-123504460D01*
X76024689Y-123590220D01*
X76005229Y-123661529D01*
X75982535Y-123720684D01*
X75955733Y-123769980D01*
X75923950Y-123811715D01*
X75888542Y-123846285D01*
X75840240Y-123878856D01*
X75779100Y-123906738D01*
X75711145Y-123927923D01*
X75642404Y-123940400D01*
X75599028Y-123942885D01*
X75515056Y-123933510D01*
X75433247Y-123907058D01*
X75357784Y-123865401D01*
X75292847Y-123810411D01*
X75285613Y-123802620D01*
X75236787Y-123736045D01*
X75198142Y-123658020D01*
X75171929Y-123574423D01*
X75160398Y-123491131D01*
X75160051Y-123474649D01*
X75169268Y-123387247D01*
X75196272Y-123305572D01*
X75240333Y-123230847D01*
X75300724Y-123164297D01*
X75376718Y-123107144D01*
X75380093Y-123105057D01*
X75413532Y-123084922D01*
X75437291Y-123073954D01*
X75454999Y-123073630D01*
X75470290Y-123085431D01*
X75486793Y-123110835D01*
X75508140Y-123151323D01*
X75511987Y-123158793D01*
X75533860Y-123201783D01*
X75546847Y-123231323D01*
X75550679Y-123250959D01*
X75545089Y-123264234D01*
X75529807Y-123274694D01*
X75504567Y-123285884D01*
X75502292Y-123286840D01*
X75450883Y-123317108D01*
X75408654Y-123358956D01*
X75378545Y-123408355D01*
X75363502Y-123461270D01*
X75362348Y-123478592D01*
X75369756Y-123546500D01*
X75391853Y-123606423D01*
X75426396Y-123656665D01*
X75471139Y-123695531D01*
X75523838Y-123721329D01*
X75582252Y-123732362D01*
X75644136Y-123726938D01*
X75677738Y-123716748D01*
X75716751Y-123698870D01*
X75749015Y-123676433D01*
X75775568Y-123647299D01*
X75797442Y-123609329D01*
X75815676Y-123560385D01*
X75831305Y-123498329D01*
X75845362Y-123421022D01*
X75855876Y-123348967D01*
X75876469Y-123242387D01*
X75907254Y-123151847D01*
X75948321Y-123077236D01*
X75999752Y-123018443D01*
X76061634Y-122975356D01*
X76134052Y-122947864D01*
X76168469Y-122940806D01*
X76246454Y-122936858D01*
X76320772Y-122950817D01*
X76392825Y-122983090D01*
X76450322Y-123022799D01*
X76508224Y-123079207D01*
X76553068Y-123146366D01*
X76586399Y-123226764D01*
X76594981Y-123256056D01*
X76610166Y-123327529D01*
G36*
X75019446Y-119795155D02*
G01*
X74433095Y-119954807D01*
X74484248Y-120155631D01*
X74535400Y-120356455D01*
X74342502Y-120408142D01*
X74262283Y-120108764D01*
X74239261Y-120022210D01*
X74221124Y-119952462D01*
X74207527Y-119898007D01*
X74198123Y-119857327D01*
X74192569Y-119828907D01*
X74190520Y-119811231D01*
X74191628Y-119802783D01*
X74192392Y-119801912D01*
X74203081Y-119798314D01*
X74230725Y-119790276D01*
X74273853Y-119778198D01*
X74330987Y-119762480D01*
X74400657Y-119743521D01*
X74481387Y-119721720D01*
X74571703Y-119697477D01*
X74670132Y-119671193D01*
X74775199Y-119643266D01*
X74875156Y-119616809D01*
X75547594Y-119439181D01*
X75576695Y-119537343D01*
X75605797Y-119635504D01*
X75019446Y-119795155D01*
G37*
X75019446Y-119795155D02*
X74433095Y-119954807D01*
X74484248Y-120155631D01*
X74535400Y-120356455D01*
X74342502Y-120408142D01*
X74262283Y-120108764D01*
X74239261Y-120022210D01*
X74221124Y-119952462D01*
X74207527Y-119898007D01*
X74198123Y-119857327D01*
X74192569Y-119828907D01*
X74190520Y-119811231D01*
X74191628Y-119802783D01*
X74192392Y-119801912D01*
X74203081Y-119798314D01*
X74230725Y-119790276D01*
X74273853Y-119778198D01*
X74330987Y-119762480D01*
X74400657Y-119743521D01*
X74481387Y-119721720D01*
X74571703Y-119697477D01*
X74670132Y-119671193D01*
X74775199Y-119643266D01*
X74875156Y-119616809D01*
X75547594Y-119439181D01*
X75576695Y-119537343D01*
X75605797Y-119635504D01*
X75019446Y-119795155D01*
G36*
X76226752Y-121967190D02*
G01*
X76244299Y-122045360D01*
X76257066Y-122108426D01*
X76265383Y-122159642D01*
X76269583Y-122202260D01*
X76269998Y-122239533D01*
X76266959Y-122274712D01*
X76261476Y-122307625D01*
X76238356Y-122377646D01*
X76198478Y-122442505D01*
X76143943Y-122499768D01*
X76076851Y-122547003D01*
X76037835Y-122566731D01*
X75961410Y-122592226D01*
X75886727Y-122599196D01*
X75811252Y-122587684D01*
X75763244Y-122571405D01*
X75705424Y-122547990D01*
X75694903Y-122597800D01*
X75670373Y-122670004D01*
X75630419Y-122734079D01*
X75577483Y-122788525D01*
X75514007Y-122831841D01*
X75442431Y-122862524D01*
X75365198Y-122879072D01*
X75284747Y-122879986D01*
X75245200Y-122874332D01*
X75190768Y-122857438D01*
X75132447Y-122829112D01*
X75077358Y-122793478D01*
X75032620Y-122754660D01*
X75025970Y-122747371D01*
X75005753Y-122722245D01*
X74987498Y-122694679D01*
X74970193Y-122662232D01*
X74952824Y-122622469D01*
X74934377Y-122572949D01*
X74913841Y-122511234D01*
X74890202Y-122434887D01*
X74874887Y-122383670D01*
X74810570Y-122166647D01*
X75420863Y-122003119D01*
X75475112Y-122205579D01*
X75274185Y-122259418D01*
X75215148Y-122275562D01*
X75162478Y-122290584D01*
X75118917Y-122303653D01*
X75087202Y-122313936D01*
X75070074Y-122320600D01*
X75067910Y-122322087D01*
X75068223Y-122335346D01*
X75074455Y-122362122D01*
X75085200Y-122398343D01*
X75099053Y-122439937D01*
X75114605Y-122482831D01*
X75130452Y-122522953D01*
X75145185Y-122556229D01*
X75155414Y-122575493D01*
X75191312Y-122616908D01*
X75239127Y-122647846D01*
X75293680Y-122666242D01*
X75349795Y-122670035D01*
X75380068Y-122664984D01*
X75427360Y-122643587D01*
X75470188Y-122607724D01*
X75499057Y-122568944D01*
X75517666Y-122526770D01*
X75526440Y-122479582D01*
X75525407Y-122424299D01*
X75514594Y-122357841D01*
X75501458Y-122303905D01*
X75475112Y-122205579D01*
X75420863Y-122003119D01*
X75593162Y-121956952D01*
X75647411Y-122159412D01*
X75674154Y-122240449D01*
X75689816Y-122284467D01*
X75704246Y-122315543D01*
X75720457Y-122339313D01*
X75735961Y-122356096D01*
X75777529Y-122386564D01*
X75825444Y-122401057D01*
X75881784Y-122399968D01*
X75922865Y-122391372D01*
X75975990Y-122373319D01*
X76014565Y-122350171D01*
X76042999Y-122318706D01*
X76057858Y-122292827D01*
X76073106Y-122251049D01*
X76077559Y-122206205D01*
X76071340Y-122153381D01*
X76062275Y-122114828D01*
X76045682Y-122052696D01*
X75647411Y-122159412D01*
X75593162Y-121956952D01*
X76187601Y-121797673D01*
X76226752Y-121967190D01*
G37*
X76226752Y-121967190D02*
X76244299Y-122045360D01*
X76257066Y-122108426D01*
X76265383Y-122159642D01*
X76269583Y-122202260D01*
X76269998Y-122239533D01*
X76266959Y-122274712D01*
X76261476Y-122307625D01*
X76238356Y-122377646D01*
X76198478Y-122442505D01*
X76143943Y-122499768D01*
X76076851Y-122547003D01*
X76037835Y-122566731D01*
X75961410Y-122592226D01*
X75886727Y-122599196D01*
X75811252Y-122587684D01*
X75763244Y-122571405D01*
X75705424Y-122547990D01*
X75694903Y-122597800D01*
X75670373Y-122670004D01*
X75630419Y-122734079D01*
X75577483Y-122788525D01*
X75514007Y-122831841D01*
X75442431Y-122862524D01*
X75365198Y-122879072D01*
X75284747Y-122879986D01*
X75245200Y-122874332D01*
X75190768Y-122857438D01*
X75132447Y-122829112D01*
X75077358Y-122793478D01*
X75032620Y-122754660D01*
X75025970Y-122747371D01*
X75005753Y-122722245D01*
X74987498Y-122694679D01*
X74970193Y-122662232D01*
X74952824Y-122622469D01*
X74934377Y-122572949D01*
X74913841Y-122511234D01*
X74890202Y-122434887D01*
X74874887Y-122383670D01*
X74810570Y-122166647D01*
X75420863Y-122003119D01*
X75475112Y-122205579D01*
X75274185Y-122259418D01*
X75215148Y-122275562D01*
X75162478Y-122290584D01*
X75118917Y-122303653D01*
X75087202Y-122313936D01*
X75070074Y-122320600D01*
X75067910Y-122322087D01*
X75068223Y-122335346D01*
X75074455Y-122362122D01*
X75085200Y-122398343D01*
X75099053Y-122439937D01*
X75114605Y-122482831D01*
X75130452Y-122522953D01*
X75145185Y-122556229D01*
X75155414Y-122575493D01*
X75191312Y-122616908D01*
X75239127Y-122647846D01*
X75293680Y-122666242D01*
X75349795Y-122670035D01*
X75380068Y-122664984D01*
X75427360Y-122643587D01*
X75470188Y-122607724D01*
X75499057Y-122568944D01*
X75517666Y-122526770D01*
X75526440Y-122479582D01*
X75525407Y-122424299D01*
X75514594Y-122357841D01*
X75501458Y-122303905D01*
X75475112Y-122205579D01*
X75420863Y-122003119D01*
X75593162Y-121956952D01*
X75647411Y-122159412D01*
X75674154Y-122240449D01*
X75689816Y-122284467D01*
X75704246Y-122315543D01*
X75720457Y-122339313D01*
X75735961Y-122356096D01*
X75777529Y-122386564D01*
X75825444Y-122401057D01*
X75881784Y-122399968D01*
X75922865Y-122391372D01*
X75975990Y-122373319D01*
X76014565Y-122350171D01*
X76042999Y-122318706D01*
X76057858Y-122292827D01*
X76073106Y-122251049D01*
X76077559Y-122206205D01*
X76071340Y-122153381D01*
X76062275Y-122114828D01*
X76045682Y-122052696D01*
X75647411Y-122159412D01*
X75593162Y-121956952D01*
X76187601Y-121797673D01*
X76226752Y-121967190D01*
G36*
X76751092Y-124685325D02*
G01*
X76667117Y-124371923D01*
X76079808Y-124526754D01*
X75492498Y-124681584D01*
X75463886Y-124585176D01*
X75452512Y-124544704D01*
X75444219Y-124510955D01*
X75439958Y-124488097D01*
X75439979Y-124480617D01*
X75449768Y-124476792D01*
X75476408Y-124468517D01*
X75518332Y-124456231D01*
X75573974Y-124440374D01*
X75641769Y-124421382D01*
X75720149Y-124399695D01*
X75807547Y-124375750D01*
X75902399Y-124349984D01*
X76003137Y-124322836D01*
X76027526Y-124316296D01*
X76610366Y-124160125D01*
X76526353Y-123846587D01*
X76716416Y-123801282D01*
X76938344Y-124629529D01*
X76751092Y-124685325D01*
G37*
X76751092Y-124685325D02*
X76667117Y-124371923D01*
X76079808Y-124526754D01*
X75492498Y-124681584D01*
X75463886Y-124585176D01*
X75452512Y-124544704D01*
X75444219Y-124510955D01*
X75439958Y-124488097D01*
X75439979Y-124480617D01*
X75449768Y-124476792D01*
X75476408Y-124468517D01*
X75518332Y-124456231D01*
X75573974Y-124440374D01*
X75641769Y-124421382D01*
X75720149Y-124399695D01*
X75807547Y-124375750D01*
X75902399Y-124349984D01*
X76003137Y-124322836D01*
X76027526Y-124316296D01*
X76610366Y-124160125D01*
X76526353Y-123846587D01*
X76716416Y-123801282D01*
X76938344Y-124629529D01*
X76751092Y-124685325D01*
G36*
X77096373Y-125596068D02*
G01*
X77002886Y-125623928D01*
X76927002Y-125350478D01*
X76851119Y-125077030D01*
X76687096Y-125118286D01*
X76523075Y-125159543D01*
X76666209Y-125693726D01*
X76472951Y-125745509D01*
X76329844Y-125211428D01*
X76102736Y-125274921D01*
X75875627Y-125338412D01*
X75946635Y-125613167D01*
X76017642Y-125887923D01*
X75922749Y-125910540D01*
X75827856Y-125933158D01*
X75726133Y-125563143D01*
X75699804Y-125466923D01*
X75678398Y-125387594D01*
X75661569Y-125323729D01*
X75648974Y-125273905D01*
X75640267Y-125236700D01*
X75635105Y-125210688D01*
X75633144Y-125194447D01*
X75634038Y-125186552D01*
X75634831Y-125185585D01*
X75645534Y-125181976D01*
X75673195Y-125173928D01*
X75716337Y-125161840D01*
X75773487Y-125146111D01*
X75843169Y-125127144D01*
X75923911Y-125105335D01*
X76014238Y-125081087D01*
X76112674Y-125054798D01*
X76217747Y-125026867D01*
X76317689Y-125000414D01*
X76990127Y-124822787D01*
X77189863Y-125568209D01*
X77096373Y-125596068D01*
G37*
X77096373Y-125596068D02*
X77002886Y-125623928D01*
X76927002Y-125350478D01*
X76851119Y-125077030D01*
X76687096Y-125118286D01*
X76523075Y-125159543D01*
X76666209Y-125693726D01*
X76472951Y-125745509D01*
X76329844Y-125211428D01*
X76102736Y-125274921D01*
X75875627Y-125338412D01*
X75946635Y-125613167D01*
X76017642Y-125887923D01*
X75922749Y-125910540D01*
X75827856Y-125933158D01*
X75726133Y-125563143D01*
X75699804Y-125466923D01*
X75678398Y-125387594D01*
X75661569Y-125323729D01*
X75648974Y-125273905D01*
X75640267Y-125236700D01*
X75635105Y-125210688D01*
X75633144Y-125194447D01*
X75634038Y-125186552D01*
X75634831Y-125185585D01*
X75645534Y-125181976D01*
X75673195Y-125173928D01*
X75716337Y-125161840D01*
X75773487Y-125146111D01*
X75843169Y-125127144D01*
X75923911Y-125105335D01*
X76014238Y-125081087D01*
X76112674Y-125054798D01*
X76217747Y-125026867D01*
X76317689Y-125000414D01*
X76990127Y-124822787D01*
X77189863Y-125568209D01*
X77096373Y-125596068D01*
G36*
X77309882Y-126022531D02*
G01*
X77334945Y-126126809D01*
X77352007Y-126216129D01*
X77361082Y-126292820D01*
X77362186Y-126359210D01*
X77355337Y-126417626D01*
X77340549Y-126470397D01*
X77317838Y-126519851D01*
X77313344Y-126527832D01*
X77264028Y-126594617D01*
X77201102Y-126648976D01*
X77126352Y-126689709D01*
X77041568Y-126715609D01*
X77031250Y-126717584D01*
X76944265Y-126724390D01*
X76860845Y-126713705D01*
X76783221Y-126686418D01*
X76713629Y-126643418D01*
X76654297Y-126585598D01*
X76634414Y-126559212D01*
X76617102Y-126537419D01*
X76602938Y-126525437D01*
X76597352Y-126524762D01*
X76589519Y-126533419D01*
X76571126Y-126555226D01*
X76543567Y-126588487D01*
X76508230Y-126631510D01*
X76466507Y-126682600D01*
X76419791Y-126740065D01*
X76369470Y-126802211D01*
X76368691Y-126803175D01*
X76318359Y-126865219D01*
X76271580Y-126922427D01*
X76229745Y-126973130D01*
X76194243Y-127015666D01*
X76166464Y-127048369D01*
X76147799Y-127069574D01*
X76139636Y-127077615D01*
X76139587Y-127077632D01*
X76133121Y-127069803D01*
X76123246Y-127044931D01*
X76110526Y-127004604D01*
X76098340Y-126961020D01*
X76066424Y-126841908D01*
X76294641Y-126570891D01*
X76355464Y-126498421D01*
X76404821Y-126438996D01*
X76443738Y-126391276D01*
X76473239Y-126353914D01*
X76494347Y-126325569D01*
X76508087Y-126304896D01*
X76515485Y-126290551D01*
X76517562Y-126281191D01*
X76517236Y-126278895D01*
X76511615Y-126257914D01*
X75950247Y-126408332D01*
X75924278Y-126311413D01*
X75912090Y-126262756D01*
X75906062Y-126230208D01*
X75905922Y-126211945D01*
X75908635Y-126207021D01*
X75919325Y-126203424D01*
X75946969Y-126195386D01*
X75990097Y-126183308D01*
X76047232Y-126167590D01*
X76116901Y-126148630D01*
X76197631Y-126126830D01*
X76287947Y-126102588D01*
X76386376Y-126076303D01*
X76491443Y-126048376D01*
X76591400Y-126021919D01*
X76642064Y-126008536D01*
X76695579Y-126208257D01*
X76717369Y-126289580D01*
X76732000Y-126336787D01*
X76749154Y-126380953D01*
X76765815Y-126414332D01*
X76766171Y-126414914D01*
X76807058Y-126465266D01*
X76857037Y-126499223D01*
X76914495Y-126516159D01*
X76977824Y-126515446D01*
X77007994Y-126509151D01*
X77067483Y-126486377D01*
X77112271Y-126453469D01*
X77142642Y-126409741D01*
X77158885Y-126354510D01*
X77161283Y-126287089D01*
X77150125Y-126206794D01*
X77144630Y-126182001D01*
X77124830Y-126098534D01*
X76910204Y-126153396D01*
X76695579Y-126208257D01*
X76642064Y-126008536D01*
X77263838Y-125844291D01*
X77309882Y-126022531D01*
G37*
X77309882Y-126022531D02*
X77334945Y-126126809D01*
X77352007Y-126216129D01*
X77361082Y-126292820D01*
X77362186Y-126359210D01*
X77355337Y-126417626D01*
X77340549Y-126470397D01*
X77317838Y-126519851D01*
X77313344Y-126527832D01*
X77264028Y-126594617D01*
X77201102Y-126648976D01*
X77126352Y-126689709D01*
X77041568Y-126715609D01*
X77031250Y-126717584D01*
X76944265Y-126724390D01*
X76860845Y-126713705D01*
X76783221Y-126686418D01*
X76713629Y-126643418D01*
X76654297Y-126585598D01*
X76634414Y-126559212D01*
X76617102Y-126537419D01*
X76602938Y-126525437D01*
X76597352Y-126524762D01*
X76589519Y-126533419D01*
X76571126Y-126555226D01*
X76543567Y-126588487D01*
X76508230Y-126631510D01*
X76466507Y-126682600D01*
X76419791Y-126740065D01*
X76369470Y-126802211D01*
X76368691Y-126803175D01*
X76318359Y-126865219D01*
X76271580Y-126922427D01*
X76229745Y-126973130D01*
X76194243Y-127015666D01*
X76166464Y-127048369D01*
X76147799Y-127069574D01*
X76139636Y-127077615D01*
X76139587Y-127077632D01*
X76133121Y-127069803D01*
X76123246Y-127044931D01*
X76110526Y-127004604D01*
X76098340Y-126961020D01*
X76066424Y-126841908D01*
X76294641Y-126570891D01*
X76355464Y-126498421D01*
X76404821Y-126438996D01*
X76443738Y-126391276D01*
X76473239Y-126353914D01*
X76494347Y-126325569D01*
X76508087Y-126304896D01*
X76515485Y-126290551D01*
X76517562Y-126281191D01*
X76517236Y-126278895D01*
X76511615Y-126257914D01*
X75950247Y-126408332D01*
X75924278Y-126311413D01*
X75912090Y-126262756D01*
X75906062Y-126230208D01*
X75905922Y-126211945D01*
X75908635Y-126207021D01*
X75919325Y-126203424D01*
X75946969Y-126195386D01*
X75990097Y-126183308D01*
X76047232Y-126167590D01*
X76116901Y-126148630D01*
X76197631Y-126126830D01*
X76287947Y-126102588D01*
X76386376Y-126076303D01*
X76491443Y-126048376D01*
X76591400Y-126021919D01*
X76642064Y-126008536D01*
X76695579Y-126208257D01*
X76717369Y-126289580D01*
X76732000Y-126336787D01*
X76749154Y-126380953D01*
X76765815Y-126414332D01*
X76766171Y-126414914D01*
X76807058Y-126465266D01*
X76857037Y-126499223D01*
X76914495Y-126516159D01*
X76977824Y-126515446D01*
X77007994Y-126509151D01*
X77067483Y-126486377D01*
X77112271Y-126453469D01*
X77142642Y-126409741D01*
X77158885Y-126354510D01*
X77161283Y-126287089D01*
X77150125Y-126206794D01*
X77144630Y-126182001D01*
X77124830Y-126098534D01*
X76910204Y-126153396D01*
X76695579Y-126208257D01*
X76642064Y-126008536D01*
X77263838Y-125844291D01*
X77309882Y-126022531D01*
G36*
X80215168Y-130434440D02*
G01*
X80272612Y-130737341D01*
X80275192Y-130753283D01*
X80286686Y-130823591D01*
X80294800Y-130875694D01*
X80298311Y-130910322D01*
X80295996Y-130928199D01*
X80286635Y-130930055D01*
X80269007Y-130916617D01*
X80241886Y-130888613D01*
X80204055Y-130846769D01*
X80174059Y-130813508D01*
X80014226Y-130644834D01*
X79856383Y-130493861D01*
X79699104Y-130359543D01*
X79540964Y-130240835D01*
X79380537Y-130136692D01*
X79216398Y-130046067D01*
X79047121Y-129967918D01*
X78988882Y-129944291D01*
X78866431Y-129901240D01*
X78732556Y-129862932D01*
X78594660Y-129831179D01*
X78460147Y-129807791D01*
X78399123Y-129800085D01*
X78351900Y-129792783D01*
X78322379Y-129782921D01*
X78311494Y-129774169D01*
X78301410Y-129755862D01*
X78286096Y-129722523D01*
X78266708Y-129677069D01*
X78244399Y-129622420D01*
X78220323Y-129561496D01*
X78195636Y-129497216D01*
X78171492Y-129432500D01*
X78149045Y-129370268D01*
X78130264Y-129315867D01*
X78087152Y-129180557D01*
X78051830Y-129053662D01*
X78022197Y-128927306D01*
X78007635Y-128855551D01*
X77976050Y-128654827D01*
X77959721Y-128460037D01*
X77958681Y-128272665D01*
X77972964Y-128094194D01*
X77988478Y-127994282D01*
X78003304Y-127924578D01*
X78022418Y-127850165D01*
X78044243Y-127776190D01*
X78067206Y-127707801D01*
X78089731Y-127650143D01*
X78101839Y-127623918D01*
X78123597Y-127580516D01*
X78225946Y-127631186D01*
X78443513Y-127749492D01*
X78651625Y-127884175D01*
X78849809Y-128034810D01*
X79037598Y-128200971D01*
X79214519Y-128382234D01*
X79380104Y-128578174D01*
X79533883Y-128788364D01*
X79577962Y-128854626D01*
X79717862Y-129086573D01*
X79844582Y-129331881D01*
X79957898Y-129589936D01*
X80057585Y-129860123D01*
X80143417Y-130141829D01*
X80215168Y-130434440D01*
G37*
X80215168Y-130434440D02*
X80272612Y-130737341D01*
X80275192Y-130753283D01*
X80286686Y-130823591D01*
X80294800Y-130875694D01*
X80298311Y-130910322D01*
X80295996Y-130928199D01*
X80286635Y-130930055D01*
X80269007Y-130916617D01*
X80241886Y-130888613D01*
X80204055Y-130846769D01*
X80174059Y-130813508D01*
X80014226Y-130644834D01*
X79856383Y-130493861D01*
X79699104Y-130359543D01*
X79540964Y-130240835D01*
X79380537Y-130136692D01*
X79216398Y-130046067D01*
X79047121Y-129967918D01*
X78988882Y-129944291D01*
X78866431Y-129901240D01*
X78732556Y-129862932D01*
X78594660Y-129831179D01*
X78460147Y-129807791D01*
X78399123Y-129800085D01*
X78351900Y-129792783D01*
X78322379Y-129782921D01*
X78311494Y-129774169D01*
X78301410Y-129755862D01*
X78286096Y-129722523D01*
X78266708Y-129677069D01*
X78244399Y-129622420D01*
X78220323Y-129561496D01*
X78195636Y-129497216D01*
X78171492Y-129432500D01*
X78149045Y-129370268D01*
X78130264Y-129315867D01*
X78087152Y-129180557D01*
X78051830Y-129053662D01*
X78022197Y-128927306D01*
X78007635Y-128855551D01*
X77976050Y-128654827D01*
X77959721Y-128460037D01*
X77958681Y-128272665D01*
X77972964Y-128094194D01*
X77988478Y-127994282D01*
X78003304Y-127924578D01*
X78022418Y-127850165D01*
X78044243Y-127776190D01*
X78067206Y-127707801D01*
X78089731Y-127650143D01*
X78101839Y-127623918D01*
X78123597Y-127580516D01*
X78225946Y-127631186D01*
X78443513Y-127749492D01*
X78651625Y-127884175D01*
X78849809Y-128034810D01*
X79037598Y-128200971D01*
X79214519Y-128382234D01*
X79380104Y-128578174D01*
X79533883Y-128788364D01*
X79577962Y-128854626D01*
X79717862Y-129086573D01*
X79844582Y-129331881D01*
X79957898Y-129589936D01*
X80057585Y-129860123D01*
X80143417Y-130141829D01*
X80215168Y-130434440D01*
G36*
X80010029Y-122318351D02*
G01*
X80001295Y-122315606D01*
X79978608Y-122305842D01*
X79945101Y-122290475D01*
X79903909Y-122270920D01*
X79889508Y-122263956D01*
X79714320Y-122184310D01*
X79526325Y-122108787D01*
X79331176Y-122039309D01*
X79134517Y-121977801D01*
X78941999Y-121926190D01*
X78812006Y-121896830D01*
X78554011Y-121851241D01*
X78284358Y-121818294D01*
X78005707Y-121798056D01*
X77720717Y-121790598D01*
X77432050Y-121795987D01*
X77142364Y-121814292D01*
X76854320Y-121845584D01*
X76849945Y-121846163D01*
X76760891Y-121857985D01*
X76751406Y-121800416D01*
X76746882Y-121776845D01*
X76738592Y-121737529D01*
X76727157Y-121685264D01*
X76713199Y-121622847D01*
X76697341Y-121553073D01*
X76680203Y-121478739D01*
X76672534Y-121445807D01*
X76597870Y-121148461D01*
X76515912Y-120864101D01*
X76427048Y-120593847D01*
X76331661Y-120338822D01*
X76230137Y-120100144D01*
X76156103Y-119944358D01*
X76036304Y-119719135D01*
X75901914Y-119494411D01*
X75756611Y-119275963D01*
X75604078Y-119069566D01*
X75577130Y-119035385D01*
X75550251Y-119001139D01*
X75528156Y-118972057D01*
X75513368Y-118951524D01*
X75508430Y-118943314D01*
X75515114Y-118935078D01*
X75534869Y-118922187D01*
X75560806Y-118908715D01*
X75830902Y-118784214D01*
X76089179Y-118671717D01*
X76337834Y-118570315D01*
X76579060Y-118479101D01*
X76721822Y-118428651D01*
X76807548Y-118400472D01*
X76903861Y-118371068D01*
X77007657Y-118341221D01*
X77115831Y-118311709D01*
X77225283Y-118283314D01*
X77332904Y-118256814D01*
X77435593Y-118232991D01*
X77530247Y-118212625D01*
X77613759Y-118196493D01*
X77683028Y-118185379D01*
X77697153Y-118183548D01*
X77716596Y-118182112D01*
X77732113Y-118185078D01*
X77748072Y-118194999D01*
X77768840Y-118214426D01*
X77792540Y-118239256D01*
X78021411Y-118493914D01*
X78238770Y-118758903D01*
X78446099Y-119036199D01*
X78644875Y-119327779D01*
X78833803Y-119630967D01*
X78965829Y-119858818D01*
X79092200Y-120090608D01*
X79213808Y-120328303D01*
X79331546Y-120573867D01*
X79446304Y-120829261D01*
X79558975Y-121096453D01*
X79670450Y-121377407D01*
X79781621Y-121674085D01*
X79857082Y-121884625D01*
X79881964Y-121955065D01*
X79906790Y-122025035D01*
X79930250Y-122090871D01*
X79951038Y-122148912D01*
X79967847Y-122195494D01*
X79977364Y-122221540D01*
X79991427Y-122260390D01*
X80002357Y-122292011D01*
X80008852Y-122312546D01*
X80010029Y-122318351D01*
G37*
X80010029Y-122318351D02*
X80001295Y-122315606D01*
X79978608Y-122305842D01*
X79945101Y-122290475D01*
X79903909Y-122270920D01*
X79889508Y-122263956D01*
X79714320Y-122184310D01*
X79526325Y-122108787D01*
X79331176Y-122039309D01*
X79134517Y-121977801D01*
X78941999Y-121926190D01*
X78812006Y-121896830D01*
X78554011Y-121851241D01*
X78284358Y-121818294D01*
X78005707Y-121798056D01*
X77720717Y-121790598D01*
X77432050Y-121795987D01*
X77142364Y-121814292D01*
X76854320Y-121845584D01*
X76849945Y-121846163D01*
X76760891Y-121857985D01*
X76751406Y-121800416D01*
X76746882Y-121776845D01*
X76738592Y-121737529D01*
X76727157Y-121685264D01*
X76713199Y-121622847D01*
X76697341Y-121553073D01*
X76680203Y-121478739D01*
X76672534Y-121445807D01*
X76597870Y-121148461D01*
X76515912Y-120864101D01*
X76427048Y-120593847D01*
X76331661Y-120338822D01*
X76230137Y-120100144D01*
X76156103Y-119944358D01*
X76036304Y-119719135D01*
X75901914Y-119494411D01*
X75756611Y-119275963D01*
X75604078Y-119069566D01*
X75577130Y-119035385D01*
X75550251Y-119001139D01*
X75528156Y-118972057D01*
X75513368Y-118951524D01*
X75508430Y-118943314D01*
X75515114Y-118935078D01*
X75534869Y-118922187D01*
X75560806Y-118908715D01*
X75830902Y-118784214D01*
X76089179Y-118671717D01*
X76337834Y-118570315D01*
X76579060Y-118479101D01*
X76721822Y-118428651D01*
X76807548Y-118400472D01*
X76903861Y-118371068D01*
X77007657Y-118341221D01*
X77115831Y-118311709D01*
X77225283Y-118283314D01*
X77332904Y-118256814D01*
X77435593Y-118232991D01*
X77530247Y-118212625D01*
X77613759Y-118196493D01*
X77683028Y-118185379D01*
X77697153Y-118183548D01*
X77716596Y-118182112D01*
X77732113Y-118185078D01*
X77748072Y-118194999D01*
X77768840Y-118214426D01*
X77792540Y-118239256D01*
X78021411Y-118493914D01*
X78238770Y-118758903D01*
X78446099Y-119036199D01*
X78644875Y-119327779D01*
X78833803Y-119630967D01*
X78965829Y-119858818D01*
X79092200Y-120090608D01*
X79213808Y-120328303D01*
X79331546Y-120573867D01*
X79446304Y-120829261D01*
X79558975Y-121096453D01*
X79670450Y-121377407D01*
X79781621Y-121674085D01*
X79857082Y-121884625D01*
X79881964Y-121955065D01*
X79906790Y-122025035D01*
X79930250Y-122090871D01*
X79951038Y-122148912D01*
X79967847Y-122195494D01*
X79977364Y-122221540D01*
X79991427Y-122260390D01*
X80002357Y-122292011D01*
X80008852Y-122312546D01*
X80010029Y-122318351D01*
G36*
X81397521Y-126242525D02*
G01*
X81398094Y-126246586D01*
X81397989Y-126246998D01*
X81388147Y-126246508D01*
X81363062Y-126241322D01*
X81325759Y-126232176D01*
X81279259Y-126219803D01*
X81235912Y-126207628D01*
X80924886Y-126126830D01*
X80600238Y-126059136D01*
X80262209Y-126004572D01*
X79911038Y-125963168D01*
X79546967Y-125934950D01*
X79170236Y-125919947D01*
X78781084Y-125918189D01*
X78773050Y-125918291D01*
X78689727Y-125919764D01*
X78599901Y-125922026D01*
X78509131Y-125924892D01*
X78422974Y-125928175D01*
X78346989Y-125931689D01*
X78308698Y-125933825D01*
X78248830Y-125937224D01*
X78195326Y-125939810D01*
X78151137Y-125941479D01*
X78119207Y-125942124D01*
X78102490Y-125941639D01*
X78100910Y-125941274D01*
X78092533Y-125932663D01*
X78078164Y-125912083D01*
X78057273Y-125878644D01*
X78029328Y-125831459D01*
X77993798Y-125769640D01*
X77950152Y-125692301D01*
X77925558Y-125648321D01*
X77825910Y-125463900D01*
X77732270Y-125278227D01*
X77643186Y-125088029D01*
X77557205Y-124890034D01*
X77472873Y-124680971D01*
X77388738Y-124457566D01*
X77353730Y-124360411D01*
X77342994Y-124328044D01*
X77328028Y-124279731D01*
X77309525Y-124217938D01*
X77288175Y-124145125D01*
X77264670Y-124063755D01*
X77239700Y-123976294D01*
X77213956Y-123885203D01*
X77188129Y-123792947D01*
X77162911Y-123701989D01*
X77138992Y-123614790D01*
X77117063Y-123533816D01*
X77097816Y-123461529D01*
X77081941Y-123400393D01*
X77070129Y-123352870D01*
X77065504Y-123332932D01*
X77046914Y-123248276D01*
X77027142Y-123156604D01*
X77006536Y-123059648D01*
X76985443Y-122959146D01*
X76964209Y-122856831D01*
X76943184Y-122754438D01*
X76922713Y-122653704D01*
X76903144Y-122556361D01*
X76884825Y-122464145D01*
X76868101Y-122378792D01*
X76853321Y-122302035D01*
X76840832Y-122235611D01*
X76830980Y-122181255D01*
X76824113Y-122140699D01*
X76820580Y-122115682D01*
X76820370Y-122108047D01*
X76831612Y-122103270D01*
X76859652Y-122097498D01*
X76902274Y-122090973D01*
X76957264Y-122083940D01*
X77022404Y-122076641D01*
X77095480Y-122069318D01*
X77174274Y-122062215D01*
X77256572Y-122055574D01*
X77340157Y-122049640D01*
X77370973Y-122047672D01*
X77686261Y-122036221D01*
X77992599Y-122041482D01*
X78290316Y-122063526D01*
X78579742Y-122102419D01*
X78861205Y-122158233D01*
X79135037Y-122231037D01*
X79401565Y-122320899D01*
X79661119Y-122427890D01*
X79914030Y-122552080D01*
X80007978Y-122603523D01*
X80138677Y-122677157D01*
X80218531Y-122902347D01*
X80238331Y-122958196D01*
X80263433Y-123029031D01*
X80292785Y-123111871D01*
X80325330Y-123203739D01*
X80360015Y-123301657D01*
X80395783Y-123402646D01*
X80431579Y-123503729D01*
X80461059Y-123586986D01*
X80500389Y-123698035D01*
X80544201Y-123821678D01*
X80590789Y-123953101D01*
X80638443Y-124087494D01*
X80685460Y-124220041D01*
X80730131Y-124345932D01*
X80770750Y-124460354D01*
X80783676Y-124496751D01*
X80858655Y-124707875D01*
X80927489Y-124901752D01*
X80990427Y-125079090D01*
X81047716Y-125240593D01*
X81099605Y-125386966D01*
X81146339Y-125518915D01*
X81188166Y-125637144D01*
X81225336Y-125742360D01*
X81258094Y-125835266D01*
X81286688Y-125916570D01*
X81311367Y-125986975D01*
X81332376Y-126047188D01*
X81349965Y-126097914D01*
X81364381Y-126139857D01*
X81375871Y-126173723D01*
X81384682Y-126200218D01*
X81391062Y-126220047D01*
X81395259Y-126233914D01*
X81397521Y-126242525D01*
G37*
X81397521Y-126242525D02*
X81398094Y-126246586D01*
X81397989Y-126246998D01*
X81388147Y-126246508D01*
X81363062Y-126241322D01*
X81325759Y-126232176D01*
X81279259Y-126219803D01*
X81235912Y-126207628D01*
X80924886Y-126126830D01*
X80600238Y-126059136D01*
X80262209Y-126004572D01*
X79911038Y-125963168D01*
X79546967Y-125934950D01*
X79170236Y-125919947D01*
X78781084Y-125918189D01*
X78773050Y-125918291D01*
X78689727Y-125919764D01*
X78599901Y-125922026D01*
X78509131Y-125924892D01*
X78422974Y-125928175D01*
X78346989Y-125931689D01*
X78308698Y-125933825D01*
X78248830Y-125937224D01*
X78195326Y-125939810D01*
X78151137Y-125941479D01*
X78119207Y-125942124D01*
X78102490Y-125941639D01*
X78100910Y-125941274D01*
X78092533Y-125932663D01*
X78078164Y-125912083D01*
X78057273Y-125878644D01*
X78029328Y-125831459D01*
X77993798Y-125769640D01*
X77950152Y-125692301D01*
X77925558Y-125648321D01*
X77825910Y-125463900D01*
X77732270Y-125278227D01*
X77643186Y-125088029D01*
X77557205Y-124890034D01*
X77472873Y-124680971D01*
X77388738Y-124457566D01*
X77353730Y-124360411D01*
X77342994Y-124328044D01*
X77328028Y-124279731D01*
X77309525Y-124217938D01*
X77288175Y-124145125D01*
X77264670Y-124063755D01*
X77239700Y-123976294D01*
X77213956Y-123885203D01*
X77188129Y-123792947D01*
X77162911Y-123701989D01*
X77138992Y-123614790D01*
X77117063Y-123533816D01*
X77097816Y-123461529D01*
X77081941Y-123400393D01*
X77070129Y-123352870D01*
X77065504Y-123332932D01*
X77046914Y-123248276D01*
X77027142Y-123156604D01*
X77006536Y-123059648D01*
X76985443Y-122959146D01*
X76964209Y-122856831D01*
X76943184Y-122754438D01*
X76922713Y-122653704D01*
X76903144Y-122556361D01*
X76884825Y-122464145D01*
X76868101Y-122378792D01*
X76853321Y-122302035D01*
X76840832Y-122235611D01*
X76830980Y-122181255D01*
X76824113Y-122140699D01*
X76820580Y-122115682D01*
X76820370Y-122108047D01*
X76831612Y-122103270D01*
X76859652Y-122097498D01*
X76902274Y-122090973D01*
X76957264Y-122083940D01*
X77022404Y-122076641D01*
X77095480Y-122069318D01*
X77174274Y-122062215D01*
X77256572Y-122055574D01*
X77340157Y-122049640D01*
X77370973Y-122047672D01*
X77686261Y-122036221D01*
X77992599Y-122041482D01*
X78290316Y-122063526D01*
X78579742Y-122102419D01*
X78861205Y-122158233D01*
X79135037Y-122231037D01*
X79401565Y-122320899D01*
X79661119Y-122427890D01*
X79914030Y-122552080D01*
X80007978Y-122603523D01*
X80138677Y-122677157D01*
X80218531Y-122902347D01*
X80238331Y-122958196D01*
X80263433Y-123029031D01*
X80292785Y-123111871D01*
X80325330Y-123203739D01*
X80360015Y-123301657D01*
X80395783Y-123402646D01*
X80431579Y-123503729D01*
X80461059Y-123586986D01*
X80500389Y-123698035D01*
X80544201Y-123821678D01*
X80590789Y-123953101D01*
X80638443Y-124087494D01*
X80685460Y-124220041D01*
X80730131Y-124345932D01*
X80770750Y-124460354D01*
X80783676Y-124496751D01*
X80858655Y-124707875D01*
X80927489Y-124901752D01*
X80990427Y-125079090D01*
X81047716Y-125240593D01*
X81099605Y-125386966D01*
X81146339Y-125518915D01*
X81188166Y-125637144D01*
X81225336Y-125742360D01*
X81258094Y-125835266D01*
X81286688Y-125916570D01*
X81311367Y-125986975D01*
X81332376Y-126047188D01*
X81349965Y-126097914D01*
X81364381Y-126139857D01*
X81375871Y-126173723D01*
X81384682Y-126200218D01*
X81391062Y-126220047D01*
X81395259Y-126233914D01*
X81397521Y-126242525D01*
G36*
X81595037Y-122539977D02*
G01*
X81639988Y-122708269D01*
X81667156Y-122810093D01*
X81695900Y-122917997D01*
X81728181Y-123039432D01*
X81763820Y-123173712D01*
X81802637Y-123320155D01*
X81844451Y-123478074D01*
X81889084Y-123646787D01*
X81936354Y-123825610D01*
X81986084Y-124013857D01*
X82038093Y-124210846D01*
X82092201Y-124415890D01*
X82148228Y-124628306D01*
X82205995Y-124847411D01*
X82265321Y-125072518D01*
X82326028Y-125302945D01*
X82387936Y-125538007D01*
X82450864Y-125777020D01*
X82514632Y-126019299D01*
X82579063Y-126264160D01*
X82643974Y-126510920D01*
X82709188Y-126758893D01*
X82774523Y-127007395D01*
X82839800Y-127255743D01*
X82904840Y-127503251D01*
X82969463Y-127749236D01*
X83033489Y-127993014D01*
X83096738Y-128233899D01*
X83159031Y-128471209D01*
X83220186Y-128704258D01*
X83280027Y-128932361D01*
X83338371Y-129154838D01*
X83395039Y-129370999D01*
X83449853Y-129580163D01*
X83502632Y-129781647D01*
X83553196Y-129974763D01*
X83601365Y-130158830D01*
X83646960Y-130333162D01*
X83689801Y-130497075D01*
X83729709Y-130649885D01*
X83766503Y-130790907D01*
X83800003Y-130919459D01*
X83830031Y-131034855D01*
X83856406Y-131136410D01*
X83878949Y-131223439D01*
X83897479Y-131295262D01*
X83911818Y-131351191D01*
X83921784Y-131390543D01*
X83927199Y-131412633D01*
X83928186Y-131417460D01*
X83918508Y-131417489D01*
X83891980Y-131415788D01*
X83850716Y-131412537D01*
X83796823Y-131407919D01*
X83732413Y-131402115D01*
X83659598Y-131395304D01*
X83580484Y-131387670D01*
X83576815Y-131387310D01*
X83497391Y-131379555D01*
X83424112Y-131372464D01*
X83359097Y-131366236D01*
X83304470Y-131361073D01*
X83262352Y-131357174D01*
X83234865Y-131354742D01*
X83224131Y-131353975D01*
X83224079Y-131353981D01*
X83224265Y-131359410D01*
X83228518Y-131375501D01*
X83237166Y-131403213D01*
X83250536Y-131443508D01*
X83268954Y-131497347D01*
X83292748Y-131565689D01*
X83322245Y-131649498D01*
X83357770Y-131749733D01*
X83379345Y-131810382D01*
X83450542Y-132010417D01*
X83517641Y-132199163D01*
X83580229Y-132375457D01*
X83637893Y-132538131D01*
X83690222Y-132686024D01*
X83736800Y-132817969D01*
X83765796Y-132900314D01*
X83788708Y-132965190D01*
X83810224Y-133025603D01*
X83829335Y-133078757D01*
X83845030Y-133121862D01*
X83856303Y-133152125D01*
X83861629Y-133165607D01*
X83868536Y-133184567D01*
X83865765Y-133187403D01*
X83862886Y-133184997D01*
X83855400Y-133176231D01*
X83836667Y-133153611D01*
X83807453Y-133118074D01*
X83768523Y-133070559D01*
X83720642Y-133012004D01*
X83664576Y-132943346D01*
X83601089Y-132865524D01*
X83530948Y-132779474D01*
X83454916Y-132686135D01*
X83373760Y-132586446D01*
X83288246Y-132481343D01*
X83199136Y-132371765D01*
X83156211Y-132318959D01*
X83065784Y-132207743D01*
X82978654Y-132100663D01*
X82895582Y-131998645D01*
X82817325Y-131902620D01*
X82744642Y-131813514D01*
X82678291Y-131732258D01*
X82619034Y-131659779D01*
X82567628Y-131597006D01*
X82524831Y-131544867D01*
X82491402Y-131504291D01*
X82468101Y-131476206D01*
X82455686Y-131461540D01*
X82453817Y-131459540D01*
X82453803Y-131467619D01*
X82456799Y-131492677D01*
X82462526Y-131532928D01*
X82470705Y-131586585D01*
X82481058Y-131651856D01*
X82493305Y-131726955D01*
X82507167Y-131810095D01*
X82522366Y-131899486D01*
X82523231Y-131904524D01*
X82538984Y-131996405D01*
X82553931Y-132083925D01*
X82567723Y-132165009D01*
X82580009Y-132237581D01*
X82590438Y-132299570D01*
X82598661Y-132348901D01*
X82604328Y-132383499D01*
X82607025Y-132400836D01*
X82608092Y-132410250D01*
X82607761Y-132416426D01*
X82605228Y-132418291D01*
X82599688Y-132414770D01*
X82590335Y-132404792D01*
X82576364Y-132387280D01*
X82556969Y-132361162D01*
X82531347Y-132325365D01*
X82498691Y-132278814D01*
X82458197Y-132220435D01*
X82409060Y-132149156D01*
X82350473Y-132063902D01*
X82308324Y-132002495D01*
X82175383Y-131809020D01*
X82031927Y-131600710D01*
X81878452Y-131378278D01*
X81715456Y-131142441D01*
X81543435Y-130893912D01*
X81362887Y-130633405D01*
X81174308Y-130361637D01*
X80978195Y-130079321D01*
X80775044Y-129787173D01*
X80565353Y-129485906D01*
X80349619Y-129176237D01*
X80128338Y-128858880D01*
X79902007Y-128534548D01*
X79671123Y-128203958D01*
X79436183Y-127867823D01*
X79197683Y-127526859D01*
X79124324Y-127422036D01*
X79029229Y-127286136D01*
X78937047Y-127154335D01*
X78848377Y-127027493D01*
X78763819Y-126906468D01*
X78683972Y-126792122D01*
X78609434Y-126685313D01*
X78540806Y-126586901D01*
X78478686Y-126497746D01*
X78423673Y-126418708D01*
X78376367Y-126350646D01*
X78337367Y-126294419D01*
X78307271Y-126250889D01*
X78286680Y-126220914D01*
X78276193Y-126205354D01*
X78274974Y-126203389D01*
X78271997Y-126196317D01*
X78273097Y-126191179D01*
X78280912Y-126187489D01*
X78298073Y-126184763D01*
X78327215Y-126182515D01*
X78370972Y-126180261D01*
X78410328Y-126178481D01*
X78784442Y-126167747D01*
X79149363Y-126169222D01*
X79504334Y-126182820D01*
X79848605Y-126208459D01*
X80181422Y-126246054D01*
X80502031Y-126295520D01*
X80809680Y-126356776D01*
X81103617Y-126429736D01*
X81177697Y-126451990D01*
X81647607Y-128205718D01*
X81629602Y-128213398D01*
X81600440Y-128228917D01*
X81563771Y-128250015D01*
X81523241Y-128274426D01*
X81482498Y-128299889D01*
X81445191Y-128324139D01*
X81414963Y-128344913D01*
X81395467Y-128359948D01*
X81390413Y-128365312D01*
X81387099Y-128380976D01*
X81384997Y-128411343D01*
X81384028Y-128452104D01*
X81384106Y-128498949D01*
X81385148Y-128547571D01*
X81387069Y-128593660D01*
X81389787Y-128632909D01*
X81393217Y-128661008D01*
X81396383Y-128672504D01*
X81407891Y-128683012D01*
X81432993Y-128700313D01*
X81468424Y-128722325D01*
X81510916Y-128746968D01*
X81529413Y-128757234D01*
X81580663Y-128784722D01*
X81618503Y-128803400D01*
X81645771Y-128814409D01*
X81665307Y-128818893D01*
X81679946Y-128817995D01*
X81680207Y-128817930D01*
X81701472Y-128809556D01*
X81733270Y-128793404D01*
X81771774Y-128771828D01*
X81813152Y-128747175D01*
X81853574Y-128721798D01*
X81889212Y-128698047D01*
X81916233Y-128678272D01*
X81930809Y-128664826D01*
X81931619Y-128663615D01*
X81935341Y-128647437D01*
X81937910Y-128616636D01*
X81939353Y-128575605D01*
X81939694Y-128528741D01*
X81938958Y-128480437D01*
X81937171Y-128435087D01*
X81934357Y-128397088D01*
X81930543Y-128370833D01*
X81929923Y-128368315D01*
X81924049Y-128356138D01*
X81911332Y-128342748D01*
X81889359Y-128326394D01*
X81855711Y-128305319D01*
X81807974Y-128277769D01*
X81796062Y-128271069D01*
X81738408Y-128239762D01*
X81695310Y-128218747D01*
X81665620Y-128207521D01*
X81648189Y-128205577D01*
X81647607Y-128205718D01*
X81177697Y-126451990D01*
X81361876Y-126507320D01*
X81512245Y-126556567D01*
X81530304Y-126602895D01*
X81535394Y-126616757D01*
X81546509Y-126647623D01*
X81563307Y-126694541D01*
X81585452Y-126756553D01*
X81612600Y-126832705D01*
X81644415Y-126922042D01*
X81680556Y-127023609D01*
X81720683Y-127136449D01*
X81764457Y-127259609D01*
X81811537Y-127392132D01*
X81861586Y-127533065D01*
X81914262Y-127681451D01*
X81969225Y-127836334D01*
X82026137Y-127996762D01*
X82084659Y-128161777D01*
X82094502Y-128189540D01*
X82154361Y-128358361D01*
X82213311Y-128524616D01*
X82270963Y-128687203D01*
X82326925Y-128845020D01*
X82380805Y-128996966D01*
X82432216Y-129141940D01*
X82480765Y-129278838D01*
X82526061Y-129406561D01*
X82567714Y-129524005D01*
X82605333Y-129630071D01*
X82638528Y-129723656D01*
X82666908Y-129803658D01*
X82690082Y-129868976D01*
X82707659Y-129918508D01*
X82719022Y-129950509D01*
X82738605Y-130005643D01*
X82763505Y-130075753D01*
X82792664Y-130157856D01*
X82825024Y-130248972D01*
X82859523Y-130346119D01*
X82895105Y-130446317D01*
X82930711Y-130546584D01*
X82958636Y-130625224D01*
X82990134Y-130713742D01*
X83019768Y-130796659D01*
X83046919Y-130872269D01*
X83070968Y-130938869D01*
X83091300Y-130994755D01*
X83107293Y-131038224D01*
X83118331Y-131067570D01*
X83123797Y-131081090D01*
X83124225Y-131081800D01*
X83134553Y-131082607D01*
X83161330Y-131083560D01*
X83201950Y-131084599D01*
X83253810Y-131085663D01*
X83314302Y-131086692D01*
X83368227Y-131087464D01*
X83450154Y-131088103D01*
X83515730Y-131087674D01*
X83564313Y-131086198D01*
X83595260Y-131083694D01*
X83607928Y-131080185D01*
X83608218Y-131079499D01*
X83606080Y-131067839D01*
X83599860Y-131039993D01*
X83590104Y-130998257D01*
X83577360Y-130944929D01*
X83562173Y-130882307D01*
X83545090Y-130812689D01*
X83535131Y-130772429D01*
X83520421Y-130713119D01*
X83501709Y-130637634D01*
X83479572Y-130548302D01*
X83454584Y-130447444D01*
X83427320Y-130337385D01*
X83398358Y-130220448D01*
X83368273Y-130098958D01*
X83337639Y-129975238D01*
X83307033Y-129851613D01*
X83286546Y-129768851D01*
X83261787Y-129668842D01*
X83237837Y-129572134D01*
X83214520Y-129478026D01*
X83191659Y-129385814D01*
X83169078Y-129294798D01*
X83146604Y-129204275D01*
X83124058Y-129113544D01*
X83101267Y-129021903D01*
X83078054Y-128928649D01*
X83054243Y-128833084D01*
X83029659Y-128734501D01*
X83004126Y-128632203D01*
X82977468Y-128525485D01*
X82949509Y-128413647D01*
X82920074Y-128295987D01*
X82888987Y-128171802D01*
X82856073Y-128040392D01*
X82821155Y-127901053D01*
X82784058Y-127753086D01*
X82744606Y-127595787D01*
X82702623Y-127428455D01*
X82657935Y-127250389D01*
X82610364Y-127060885D01*
X82559735Y-126859244D01*
X82505873Y-126644762D01*
X82448602Y-126416739D01*
X82387746Y-126174473D01*
X82323129Y-125917261D01*
X82254575Y-125644401D01*
X82181910Y-125355193D01*
X82104956Y-125048934D01*
X82023540Y-124724923D01*
X82020486Y-124712771D01*
X81982610Y-124562015D01*
X81940984Y-124396281D01*
X81896488Y-124219080D01*
X81850001Y-124033919D01*
X81802406Y-123844305D01*
X81754582Y-123653748D01*
X81707409Y-123465752D01*
X81661768Y-123283828D01*
X81618540Y-123111483D01*
X81578604Y-122952225D01*
X81569325Y-122915214D01*
X81515372Y-122700930D01*
X81465194Y-122503653D01*
X81418354Y-122321807D01*
X81374417Y-122153817D01*
X81332946Y-121998107D01*
X81293506Y-121853100D01*
X81255661Y-121717220D01*
X81218974Y-121588890D01*
X81183009Y-121466537D01*
X81147331Y-121348583D01*
X81111505Y-121233451D01*
X81075093Y-121119566D01*
X81058907Y-121069850D01*
X80904478Y-120617995D01*
X80742697Y-120183663D01*
X80573567Y-119766858D01*
X80397092Y-119367586D01*
X80213274Y-118985852D01*
X80022118Y-118621663D01*
X79823626Y-118275023D01*
X79617803Y-117945936D01*
X79404652Y-117634409D01*
X79184176Y-117340447D01*
X78956377Y-117064055D01*
X78721261Y-116805239D01*
X78478829Y-116564004D01*
X78229087Y-116340355D01*
X77972036Y-116134297D01*
X77815967Y-116020283D01*
X77700459Y-115942272D01*
X77571707Y-115861282D01*
X77434632Y-115780098D01*
X77294155Y-115701508D01*
X77155192Y-115628295D01*
X77022664Y-115563247D01*
X76951384Y-115530668D01*
X76696550Y-115426908D01*
X76431395Y-115336309D01*
X76159649Y-115259848D01*
X75885035Y-115198503D01*
X75611284Y-115153249D01*
X75434161Y-115132793D01*
X75377150Y-115126939D01*
X75336613Y-115121575D01*
X75309993Y-115116167D01*
X75294738Y-115110179D01*
X75288293Y-115103073D01*
X75287988Y-115102115D01*
X75288389Y-115089061D01*
X75302500Y-115085588D01*
X75305771Y-115085654D01*
X75322421Y-115086942D01*
X75354360Y-115090024D01*
X75397943Y-115094525D01*
X75449527Y-115100071D01*
X75490868Y-115104646D01*
X75800712Y-115148579D01*
X76103808Y-115210248D01*
X76400334Y-115289723D01*
X76690461Y-115387075D01*
X76974364Y-115502371D01*
X77252217Y-115635681D01*
X77524194Y-115787075D01*
X77790468Y-115956621D01*
X77993532Y-116100930D01*
X78250162Y-116303169D01*
X78500305Y-116523272D01*
X78743908Y-116761169D01*
X78980919Y-117016789D01*
X79211285Y-117290060D01*
X79434952Y-117580912D01*
X79651867Y-117889273D01*
X79861979Y-118215072D01*
X80065233Y-118558239D01*
X80261576Y-118918701D01*
X80450956Y-119296388D01*
X80576579Y-119564885D01*
X80658161Y-119747327D01*
X80736532Y-119929194D01*
X80812632Y-120112938D01*
X80887402Y-120301013D01*
X80961780Y-120495870D01*
X81036704Y-120699963D01*
X81113115Y-120915743D01*
X81191953Y-121145662D01*
X81258994Y-121346236D01*
X81273164Y-121389429D01*
X81287087Y-121432717D01*
X81301091Y-121477275D01*
X81315504Y-121524283D01*
X81330656Y-121574919D01*
X81346874Y-121630361D01*
X81364488Y-121691787D01*
X81383825Y-121760374D01*
X81405214Y-121837301D01*
X81428984Y-121923747D01*
X81455463Y-122020887D01*
X81484979Y-122129904D01*
X81517861Y-122251972D01*
X81554438Y-122388269D01*
X81595037Y-122539977D01*
G37*
X81595037Y-122539977D02*
X81639988Y-122708269D01*
X81667156Y-122810093D01*
X81695900Y-122917997D01*
X81728181Y-123039432D01*
X81763820Y-123173712D01*
X81802637Y-123320155D01*
X81844451Y-123478074D01*
X81889084Y-123646787D01*
X81936354Y-123825610D01*
X81986084Y-124013857D01*
X82038093Y-124210846D01*
X82092201Y-124415890D01*
X82148228Y-124628306D01*
X82205995Y-124847411D01*
X82265321Y-125072518D01*
X82326028Y-125302945D01*
X82387936Y-125538007D01*
X82450864Y-125777020D01*
X82514632Y-126019299D01*
X82579063Y-126264160D01*
X82643974Y-126510920D01*
X82709188Y-126758893D01*
X82774523Y-127007395D01*
X82839800Y-127255743D01*
X82904840Y-127503251D01*
X82969463Y-127749236D01*
X83033489Y-127993014D01*
X83096738Y-128233899D01*
X83159031Y-128471209D01*
X83220186Y-128704258D01*
X83280027Y-128932361D01*
X83338371Y-129154838D01*
X83395039Y-129370999D01*
X83449853Y-129580163D01*
X83502632Y-129781647D01*
X83553196Y-129974763D01*
X83601365Y-130158830D01*
X83646960Y-130333162D01*
X83689801Y-130497075D01*
X83729709Y-130649885D01*
X83766503Y-130790907D01*
X83800003Y-130919459D01*
X83830031Y-131034855D01*
X83856406Y-131136410D01*
X83878949Y-131223439D01*
X83897479Y-131295262D01*
X83911818Y-131351191D01*
X83921784Y-131390543D01*
X83927199Y-131412633D01*
X83928186Y-131417460D01*
X83918508Y-131417489D01*
X83891980Y-131415788D01*
X83850716Y-131412537D01*
X83796823Y-131407919D01*
X83732413Y-131402115D01*
X83659598Y-131395304D01*
X83580484Y-131387670D01*
X83576815Y-131387310D01*
X83497391Y-131379555D01*
X83424112Y-131372464D01*
X83359097Y-131366236D01*
X83304470Y-131361073D01*
X83262352Y-131357174D01*
X83234865Y-131354742D01*
X83224131Y-131353975D01*
X83224079Y-131353981D01*
X83224265Y-131359410D01*
X83228518Y-131375501D01*
X83237166Y-131403213D01*
X83250536Y-131443508D01*
X83268954Y-131497347D01*
X83292748Y-131565689D01*
X83322245Y-131649498D01*
X83357770Y-131749733D01*
X83379345Y-131810382D01*
X83450542Y-132010417D01*
X83517641Y-132199163D01*
X83580229Y-132375457D01*
X83637893Y-132538131D01*
X83690222Y-132686024D01*
X83736800Y-132817969D01*
X83765796Y-132900314D01*
X83788708Y-132965190D01*
X83810224Y-133025603D01*
X83829335Y-133078757D01*
X83845030Y-133121862D01*
X83856303Y-133152125D01*
X83861629Y-133165607D01*
X83868536Y-133184567D01*
X83865765Y-133187403D01*
X83862886Y-133184997D01*
X83855400Y-133176231D01*
X83836667Y-133153611D01*
X83807453Y-133118074D01*
X83768523Y-133070559D01*
X83720642Y-133012004D01*
X83664576Y-132943346D01*
X83601089Y-132865524D01*
X83530948Y-132779474D01*
X83454916Y-132686135D01*
X83373760Y-132586446D01*
X83288246Y-132481343D01*
X83199136Y-132371765D01*
X83156211Y-132318959D01*
X83065784Y-132207743D01*
X82978654Y-132100663D01*
X82895582Y-131998645D01*
X82817325Y-131902620D01*
X82744642Y-131813514D01*
X82678291Y-131732258D01*
X82619034Y-131659779D01*
X82567628Y-131597006D01*
X82524831Y-131544867D01*
X82491402Y-131504291D01*
X82468101Y-131476206D01*
X82455686Y-131461540D01*
X82453817Y-131459540D01*
X82453803Y-131467619D01*
X82456799Y-131492677D01*
X82462526Y-131532928D01*
X82470705Y-131586585D01*
X82481058Y-131651856D01*
X82493305Y-131726955D01*
X82507167Y-131810095D01*
X82522366Y-131899486D01*
X82523231Y-131904524D01*
X82538984Y-131996405D01*
X82553931Y-132083925D01*
X82567723Y-132165009D01*
X82580009Y-132237581D01*
X82590438Y-132299570D01*
X82598661Y-132348901D01*
X82604328Y-132383499D01*
X82607025Y-132400836D01*
X82608092Y-132410250D01*
X82607761Y-132416426D01*
X82605228Y-132418291D01*
X82599688Y-132414770D01*
X82590335Y-132404792D01*
X82576364Y-132387280D01*
X82556969Y-132361162D01*
X82531347Y-132325365D01*
X82498691Y-132278814D01*
X82458197Y-132220435D01*
X82409060Y-132149156D01*
X82350473Y-132063902D01*
X82308324Y-132002495D01*
X82175383Y-131809020D01*
X82031927Y-131600710D01*
X81878452Y-131378278D01*
X81715456Y-131142441D01*
X81543435Y-130893912D01*
X81362887Y-130633405D01*
X81174308Y-130361637D01*
X80978195Y-130079321D01*
X80775044Y-129787173D01*
X80565353Y-129485906D01*
X80349619Y-129176237D01*
X80128338Y-128858880D01*
X79902007Y-128534548D01*
X79671123Y-128203958D01*
X79436183Y-127867823D01*
X79197683Y-127526859D01*
X79124324Y-127422036D01*
X79029229Y-127286136D01*
X78937047Y-127154335D01*
X78848377Y-127027493D01*
X78763819Y-126906468D01*
X78683972Y-126792122D01*
X78609434Y-126685313D01*
X78540806Y-126586901D01*
X78478686Y-126497746D01*
X78423673Y-126418708D01*
X78376367Y-126350646D01*
X78337367Y-126294419D01*
X78307271Y-126250889D01*
X78286680Y-126220914D01*
X78276193Y-126205354D01*
X78274974Y-126203389D01*
X78271997Y-126196317D01*
X78273097Y-126191179D01*
X78280912Y-126187489D01*
X78298073Y-126184763D01*
X78327215Y-126182515D01*
X78370972Y-126180261D01*
X78410328Y-126178481D01*
X78784442Y-126167747D01*
X79149363Y-126169222D01*
X79504334Y-126182820D01*
X79848605Y-126208459D01*
X80181422Y-126246054D01*
X80502031Y-126295520D01*
X80809680Y-126356776D01*
X81103617Y-126429736D01*
X81177697Y-126451990D01*
X81647607Y-128205718D01*
X81629602Y-128213398D01*
X81600440Y-128228917D01*
X81563771Y-128250015D01*
X81523241Y-128274426D01*
X81482498Y-128299889D01*
X81445191Y-128324139D01*
X81414963Y-128344913D01*
X81395467Y-128359948D01*
X81390413Y-128365312D01*
X81387099Y-128380976D01*
X81384997Y-128411343D01*
X81384028Y-128452104D01*
X81384106Y-128498949D01*
X81385148Y-128547571D01*
X81387069Y-128593660D01*
X81389787Y-128632909D01*
X81393217Y-128661008D01*
X81396383Y-128672504D01*
X81407891Y-128683012D01*
X81432993Y-128700313D01*
X81468424Y-128722325D01*
X81510916Y-128746968D01*
X81529413Y-128757234D01*
X81580663Y-128784722D01*
X81618503Y-128803400D01*
X81645771Y-128814409D01*
X81665307Y-128818893D01*
X81679946Y-128817995D01*
X81680207Y-128817930D01*
X81701472Y-128809556D01*
X81733270Y-128793404D01*
X81771774Y-128771828D01*
X81813152Y-128747175D01*
X81853574Y-128721798D01*
X81889212Y-128698047D01*
X81916233Y-128678272D01*
X81930809Y-128664826D01*
X81931619Y-128663615D01*
X81935341Y-128647437D01*
X81937910Y-128616636D01*
X81939353Y-128575605D01*
X81939694Y-128528741D01*
X81938958Y-128480437D01*
X81937171Y-128435087D01*
X81934357Y-128397088D01*
X81930543Y-128370833D01*
X81929923Y-128368315D01*
X81924049Y-128356138D01*
X81911332Y-128342748D01*
X81889359Y-128326394D01*
X81855711Y-128305319D01*
X81807974Y-128277769D01*
X81796062Y-128271069D01*
X81738408Y-128239762D01*
X81695310Y-128218747D01*
X81665620Y-128207521D01*
X81648189Y-128205577D01*
X81647607Y-128205718D01*
X81177697Y-126451990D01*
X81361876Y-126507320D01*
X81512245Y-126556567D01*
X81530304Y-126602895D01*
X81535394Y-126616757D01*
X81546509Y-126647623D01*
X81563307Y-126694541D01*
X81585452Y-126756553D01*
X81612600Y-126832705D01*
X81644415Y-126922042D01*
X81680556Y-127023609D01*
X81720683Y-127136449D01*
X81764457Y-127259609D01*
X81811537Y-127392132D01*
X81861586Y-127533065D01*
X81914262Y-127681451D01*
X81969225Y-127836334D01*
X82026137Y-127996762D01*
X82084659Y-128161777D01*
X82094502Y-128189540D01*
X82154361Y-128358361D01*
X82213311Y-128524616D01*
X82270963Y-128687203D01*
X82326925Y-128845020D01*
X82380805Y-128996966D01*
X82432216Y-129141940D01*
X82480765Y-129278838D01*
X82526061Y-129406561D01*
X82567714Y-129524005D01*
X82605333Y-129630071D01*
X82638528Y-129723656D01*
X82666908Y-129803658D01*
X82690082Y-129868976D01*
X82707659Y-129918508D01*
X82719022Y-129950509D01*
X82738605Y-130005643D01*
X82763505Y-130075753D01*
X82792664Y-130157856D01*
X82825024Y-130248972D01*
X82859523Y-130346119D01*
X82895105Y-130446317D01*
X82930711Y-130546584D01*
X82958636Y-130625224D01*
X82990134Y-130713742D01*
X83019768Y-130796659D01*
X83046919Y-130872269D01*
X83070968Y-130938869D01*
X83091300Y-130994755D01*
X83107293Y-131038224D01*
X83118331Y-131067570D01*
X83123797Y-131081090D01*
X83124225Y-131081800D01*
X83134553Y-131082607D01*
X83161330Y-131083560D01*
X83201950Y-131084599D01*
X83253810Y-131085663D01*
X83314302Y-131086692D01*
X83368227Y-131087464D01*
X83450154Y-131088103D01*
X83515730Y-131087674D01*
X83564313Y-131086198D01*
X83595260Y-131083694D01*
X83607928Y-131080185D01*
X83608218Y-131079499D01*
X83606080Y-131067839D01*
X83599860Y-131039993D01*
X83590104Y-130998257D01*
X83577360Y-130944929D01*
X83562173Y-130882307D01*
X83545090Y-130812689D01*
X83535131Y-130772429D01*
X83520421Y-130713119D01*
X83501709Y-130637634D01*
X83479572Y-130548302D01*
X83454584Y-130447444D01*
X83427320Y-130337385D01*
X83398358Y-130220448D01*
X83368273Y-130098958D01*
X83337639Y-129975238D01*
X83307033Y-129851613D01*
X83286546Y-129768851D01*
X83261787Y-129668842D01*
X83237837Y-129572134D01*
X83214520Y-129478026D01*
X83191659Y-129385814D01*
X83169078Y-129294798D01*
X83146604Y-129204275D01*
X83124058Y-129113544D01*
X83101267Y-129021903D01*
X83078054Y-128928649D01*
X83054243Y-128833084D01*
X83029659Y-128734501D01*
X83004126Y-128632203D01*
X82977468Y-128525485D01*
X82949509Y-128413647D01*
X82920074Y-128295987D01*
X82888987Y-128171802D01*
X82856073Y-128040392D01*
X82821155Y-127901053D01*
X82784058Y-127753086D01*
X82744606Y-127595787D01*
X82702623Y-127428455D01*
X82657935Y-127250389D01*
X82610364Y-127060885D01*
X82559735Y-126859244D01*
X82505873Y-126644762D01*
X82448602Y-126416739D01*
X82387746Y-126174473D01*
X82323129Y-125917261D01*
X82254575Y-125644401D01*
X82181910Y-125355193D01*
X82104956Y-125048934D01*
X82023540Y-124724923D01*
X82020486Y-124712771D01*
X81982610Y-124562015D01*
X81940984Y-124396281D01*
X81896488Y-124219080D01*
X81850001Y-124033919D01*
X81802406Y-123844305D01*
X81754582Y-123653748D01*
X81707409Y-123465752D01*
X81661768Y-123283828D01*
X81618540Y-123111483D01*
X81578604Y-122952225D01*
X81569325Y-122915214D01*
X81515372Y-122700930D01*
X81465194Y-122503653D01*
X81418354Y-122321807D01*
X81374417Y-122153817D01*
X81332946Y-121998107D01*
X81293506Y-121853100D01*
X81255661Y-121717220D01*
X81218974Y-121588890D01*
X81183009Y-121466537D01*
X81147331Y-121348583D01*
X81111505Y-121233451D01*
X81075093Y-121119566D01*
X81058907Y-121069850D01*
X80904478Y-120617995D01*
X80742697Y-120183663D01*
X80573567Y-119766858D01*
X80397092Y-119367586D01*
X80213274Y-118985852D01*
X80022118Y-118621663D01*
X79823626Y-118275023D01*
X79617803Y-117945936D01*
X79404652Y-117634409D01*
X79184176Y-117340447D01*
X78956377Y-117064055D01*
X78721261Y-116805239D01*
X78478829Y-116564004D01*
X78229087Y-116340355D01*
X77972036Y-116134297D01*
X77815967Y-116020283D01*
X77700459Y-115942272D01*
X77571707Y-115861282D01*
X77434632Y-115780098D01*
X77294155Y-115701508D01*
X77155192Y-115628295D01*
X77022664Y-115563247D01*
X76951384Y-115530668D01*
X76696550Y-115426908D01*
X76431395Y-115336309D01*
X76159649Y-115259848D01*
X75885035Y-115198503D01*
X75611284Y-115153249D01*
X75434161Y-115132793D01*
X75377150Y-115126939D01*
X75336613Y-115121575D01*
X75309993Y-115116167D01*
X75294738Y-115110179D01*
X75288293Y-115103073D01*
X75287988Y-115102115D01*
X75288389Y-115089061D01*
X75302500Y-115085588D01*
X75305771Y-115085654D01*
X75322421Y-115086942D01*
X75354360Y-115090024D01*
X75397943Y-115094525D01*
X75449527Y-115100071D01*
X75490868Y-115104646D01*
X75800712Y-115148579D01*
X76103808Y-115210248D01*
X76400334Y-115289723D01*
X76690461Y-115387075D01*
X76974364Y-115502371D01*
X77252217Y-115635681D01*
X77524194Y-115787075D01*
X77790468Y-115956621D01*
X77993532Y-116100930D01*
X78250162Y-116303169D01*
X78500305Y-116523272D01*
X78743908Y-116761169D01*
X78980919Y-117016789D01*
X79211285Y-117290060D01*
X79434952Y-117580912D01*
X79651867Y-117889273D01*
X79861979Y-118215072D01*
X80065233Y-118558239D01*
X80261576Y-118918701D01*
X80450956Y-119296388D01*
X80576579Y-119564885D01*
X80658161Y-119747327D01*
X80736532Y-119929194D01*
X80812632Y-120112938D01*
X80887402Y-120301013D01*
X80961780Y-120495870D01*
X81036704Y-120699963D01*
X81113115Y-120915743D01*
X81191953Y-121145662D01*
X81258994Y-121346236D01*
X81273164Y-121389429D01*
X81287087Y-121432717D01*
X81301091Y-121477275D01*
X81315504Y-121524283D01*
X81330656Y-121574919D01*
X81346874Y-121630361D01*
X81364488Y-121691787D01*
X81383825Y-121760374D01*
X81405214Y-121837301D01*
X81428984Y-121923747D01*
X81455463Y-122020887D01*
X81484979Y-122129904D01*
X81517861Y-122251972D01*
X81554438Y-122388269D01*
X81595037Y-122539977D01*
D16*
X134700000Y-105000000D02*
G75*
G03*
X134700000Y-105000000I-700000J0D01*
G01*
X92640702Y-146989687D02*
X92094295Y-146338505D01*
X88391838Y-141926089D02*
X84714825Y-145011469D01*
X89076233Y-162499412D02*
X78663074Y-150089492D01*
X82340087Y-147004111D02*
X78663074Y-150089492D01*
X92753246Y-159414031D02*
X89076233Y-162499412D01*
X98804997Y-154336009D02*
X95127984Y-157421389D01*
X91007984Y-145043890D02*
X88391838Y-141926089D01*
X94273382Y-148935440D02*
X93726975Y-148284258D01*
X95906063Y-150881193D02*
X95359656Y-150230011D01*
X98804997Y-154336009D02*
X96992336Y-152175764D01*
D17*
X117767410Y-129444365D02*
X123707107Y-135384062D01*
X121444365Y-125767410D02*
X127384163Y-131707208D01*
X127384464Y-133828025D02*
X125828427Y-135384062D01*
X121020101Y-125767410D02*
X117767410Y-129020101D01*
X121479720Y-126722004D02*
X122611091Y-127853375D01*
X118722004Y-129479720D02*
X119853375Y-130611091D01*
X121055456Y-126722004D02*
X118722004Y-129055456D01*
X123000000Y-130505025D02*
X123494975Y-131000000D01*
X122505025Y-131000000D02*
X123000000Y-131494975D01*
D18*
G36*
X122257538Y-128206928D02*
G01*
X122328249Y-128277639D01*
X122363604Y-128312994D01*
X122505025Y-128525126D01*
X122575736Y-128666548D01*
X122646447Y-128878680D01*
X122681802Y-129126167D01*
X122681802Y-129267588D01*
X122681802Y-129338299D01*
X122646447Y-129585786D01*
X122575736Y-129797918D01*
X122505025Y-129939340D01*
X122363604Y-130151472D01*
X122257538Y-130257538D01*
X122611091Y-130611091D01*
X123106066Y-129833274D01*
X123141421Y-128737258D01*
X122717157Y-127959441D01*
X122611091Y-127853375D01*
X122257538Y-128206928D01*
G37*
D17*
X126747666Y-132114400D02*
X126747666Y-133350423D01*
X126659985Y-133562555D02*
X125562555Y-134659985D01*
X123388909Y-134146625D02*
X123902268Y-134659985D01*
X124114400Y-134747666D02*
X125350423Y-134747666D01*
D18*
G36*
X120206928Y-128206928D02*
G01*
X120277639Y-128136218D01*
X120312994Y-128100862D01*
X120525126Y-127959441D01*
X120666548Y-127888730D01*
X120878680Y-127818019D01*
X121126167Y-127782664D01*
X121267588Y-127782664D01*
X121338299Y-127782664D01*
X121585786Y-127818019D01*
X121797918Y-127888730D01*
X121939340Y-127959441D01*
X122151472Y-128100862D01*
X122257538Y-128206928D01*
X122611091Y-127853375D01*
X121409010Y-126651293D01*
X121161522Y-126615938D01*
X120030152Y-127747309D01*
X119888730Y-127888730D01*
X120206928Y-128206928D01*
G37*
G36*
X120206928Y-130257538D02*
G01*
X120136218Y-130186827D01*
X120100862Y-130151472D01*
X119959441Y-129939340D01*
X119888730Y-129797918D01*
X119818019Y-129585786D01*
X119782664Y-129338299D01*
X119782664Y-129196878D01*
X119782664Y-129126167D01*
X119818019Y-128878680D01*
X119888730Y-128666548D01*
X119959441Y-128525126D01*
X120100862Y-128312994D01*
X120206928Y-128206928D01*
X119888730Y-127888730D01*
X118651293Y-129126167D01*
X118651293Y-129409010D01*
X119747309Y-130505025D01*
X119853375Y-130611091D01*
X120206928Y-130257538D01*
G37*
G36*
X122257538Y-130257538D02*
G01*
X122186827Y-130328249D01*
X122151472Y-130363604D01*
X121939340Y-130505025D01*
X121797918Y-130575736D01*
X121585786Y-130646447D01*
X121338299Y-130681802D01*
X121196878Y-130681802D01*
X121126167Y-130681802D01*
X120878680Y-130646447D01*
X120666548Y-130575736D01*
X120525126Y-130505025D01*
X120312994Y-130363604D01*
X120206928Y-130257538D01*
X119853375Y-130611091D01*
X120631192Y-131106066D01*
X121727208Y-131141421D01*
X122505025Y-130717157D01*
X122611091Y-130611091D01*
X122257538Y-130257538D01*
G37*
G36*
X123742462Y-131742462D02*
G01*
X123813173Y-131671751D01*
X123848528Y-131636396D01*
X124060660Y-131494975D01*
X124202082Y-131424264D01*
X124414214Y-131353553D01*
X124661701Y-131318198D01*
X124803122Y-131318198D01*
X124873833Y-131318198D01*
X125121320Y-131353553D01*
X125333452Y-131424264D01*
X125474874Y-131494975D01*
X125687006Y-131636396D01*
X125793072Y-131742462D01*
X126146625Y-131388909D01*
X125368808Y-130893934D01*
X124272792Y-130858579D01*
X123494975Y-131282843D01*
X123388909Y-131388909D01*
X123742462Y-131742462D01*
G37*
G36*
X123742462Y-133793072D02*
G01*
X123671751Y-133722361D01*
X123636396Y-133687006D01*
X123494975Y-133474874D01*
X123424264Y-133333452D01*
X123353553Y-133121320D01*
X123318198Y-132873833D01*
X123318198Y-132732412D01*
X123318198Y-132661701D01*
X123353553Y-132414214D01*
X123424264Y-132202082D01*
X123494975Y-132060660D01*
X123636396Y-131848528D01*
X123742462Y-131742462D01*
X123388909Y-131388909D01*
X122893934Y-132166726D01*
X122858579Y-133262742D01*
X123282843Y-134040559D01*
X123388909Y-134146625D01*
X123742462Y-133793072D01*
G37*
G36*
X125793072Y-133793072D02*
G01*
X125722361Y-133863782D01*
X125687006Y-133899138D01*
X125474874Y-134040559D01*
X125333452Y-134111270D01*
X125121320Y-134181981D01*
X124873833Y-134217336D01*
X124732412Y-134217336D01*
X124661701Y-134217336D01*
X124414214Y-134181981D01*
X124202082Y-134111270D01*
X124060660Y-134040559D01*
X123848528Y-133899138D01*
X123742462Y-133793072D01*
X123388909Y-134146625D01*
X123954594Y-134712311D01*
X125404163Y-134747666D01*
X125863782Y-134358757D01*
X126111270Y-134111270D01*
X125793072Y-133793072D01*
G37*
G36*
X125793072Y-131742462D02*
G01*
X125863782Y-131813173D01*
X125899138Y-131848528D01*
X126040559Y-132060660D01*
X126111270Y-132202082D01*
X126181981Y-132414214D01*
X126217336Y-132661701D01*
X126217336Y-132803122D01*
X126217336Y-132873833D01*
X126181981Y-133121320D01*
X126111270Y-133333452D01*
X126040559Y-133474874D01*
X125899138Y-133687006D01*
X125793072Y-133793072D01*
X126111270Y-134111270D01*
X126712311Y-133510229D01*
X126712311Y-131954594D01*
X126252691Y-131494975D01*
X126146625Y-131388909D01*
X125793072Y-131742462D01*
G37*
G36*
X122752513Y-131247487D02*
G01*
X123000000Y-131494975D01*
X123070711Y-131777817D01*
X123035355Y-131954594D01*
X123141421Y-132060660D01*
X123989949Y-131141421D01*
X123883883Y-131035355D01*
X123636396Y-131070711D01*
X123530330Y-131035355D01*
X122964645Y-130469670D01*
X122893934Y-130328249D01*
X122929289Y-130151472D01*
X122787868Y-130010051D01*
X121974695Y-130893934D01*
X122045406Y-130964645D01*
X122328249Y-130893934D01*
X122505025Y-131000000D01*
X123000000Y-131494975D01*
X122752513Y-131247487D01*
G37*
D17*
X126146625Y-131388909D02*
X126659985Y-131902268D01*
X126747853Y-132114400D02*
G75*
G03*
X126659985Y-131902268I-300000J0D01*
G01*
X124114400Y-134747853D02*
G75*
G02*
X123902268Y-134659985I0J300000D01*
G01*
X125562423Y-134659853D02*
G75*
G02*
X125350423Y-134747666I-212000J212000D01*
G01*
X126659853Y-133562423D02*
G75*
G03*
X126747666Y-133350423I-212000J212000D01*
G01*
X123060611Y-131825366D02*
G75*
G03*
X123388909Y-134146625I1707156J-942401D01*
G01*
X123825366Y-131060611D02*
G75*
G02*
X126146625Y-131388909I942401J-1707156D01*
G01*
X122994253Y-131489412D02*
G75*
G02*
X123049497Y-131845700I-209213J-214866D01*
G01*
X123489412Y-130994253D02*
G75*
G03*
X123845700Y-131049497I214866J209213D01*
G01*
X122510588Y-131005747D02*
G75*
G03*
X122154300Y-130950503I-214866J-209213D01*
G01*
X123005747Y-130510588D02*
G75*
G02*
X122950503Y-130154300I209213J214866D01*
G01*
X122174634Y-130939389D02*
G75*
G02*
X119853375Y-130611091I-942401J1707156D01*
G01*
X122939389Y-130174634D02*
G75*
G03*
X122611091Y-127853375I-1707156J942401D01*
G01*
X118722004Y-129479720D02*
G75*
G02*
X118722004Y-129055456I212132J212132D01*
G01*
X121055456Y-126722004D02*
G75*
G02*
X121479720Y-126722004I212132J-212132D01*
G01*
X117767410Y-129444365D02*
G75*
G02*
X117767410Y-129020101I212132J212132D01*
G01*
X121020101Y-125767410D02*
G75*
G02*
X121444365Y-125767410I212132J-212132D01*
G01*
X125828427Y-135384062D02*
G75*
G02*
X123707107Y-135384062I-1060660J1060660D01*
G01*
X127384062Y-131707107D02*
G75*
G02*
X127384062Y-133828427I-1060660J-1060660D01*
G01*
D18*
G36*
X129250179Y-127199569D02*
G01*
X129320889Y-127270280D01*
X129356245Y-127305635D01*
X129497666Y-127517767D01*
X129568377Y-127659188D01*
X129639087Y-127871320D01*
X129674443Y-128118808D01*
X129674443Y-128260229D01*
X129674443Y-128330940D01*
X129639087Y-128578427D01*
X129568377Y-128790559D01*
X129497666Y-128931981D01*
X129356245Y-129144113D01*
X129250179Y-129250179D01*
X129462311Y-129462311D01*
X129921930Y-128719848D01*
X129921930Y-127800610D01*
X129568377Y-127093503D01*
X129462311Y-126987437D01*
X129250179Y-127199569D01*
G37*
G36*
X129250179Y-129250179D02*
G01*
X129179468Y-129320889D01*
X129144113Y-129356245D01*
X128931981Y-129497666D01*
X128790559Y-129568377D01*
X128578427Y-129639087D01*
X128330940Y-129674443D01*
X128189518Y-129674443D01*
X128118808Y-129674443D01*
X127871320Y-129639087D01*
X127659188Y-129568377D01*
X127517767Y-129497666D01*
X127305635Y-129356245D01*
X127199569Y-129250179D01*
X126987437Y-129462311D01*
X127729899Y-129921930D01*
X128649138Y-129921930D01*
X129356245Y-129568377D01*
X129462311Y-129462311D01*
X129250179Y-129250179D01*
G37*
G36*
X124724695Y-124724695D02*
G01*
X124795406Y-124653984D01*
X124830761Y-124618629D01*
X125042893Y-124477208D01*
X125184315Y-124406497D01*
X125396447Y-124335786D01*
X125643934Y-124300431D01*
X125785355Y-124300431D01*
X125856066Y-124300431D01*
X126103553Y-124335786D01*
X126315685Y-124406497D01*
X126457107Y-124477208D01*
X126669239Y-124618629D01*
X126775305Y-124724695D01*
X126987437Y-124512563D01*
X126244975Y-124052944D01*
X125325736Y-124052944D01*
X124618629Y-124406497D01*
X124512563Y-124512563D01*
X124724695Y-124724695D01*
G37*
G36*
X124724695Y-126775305D02*
G01*
X124653984Y-126704594D01*
X124618629Y-126669239D01*
X124477208Y-126457107D01*
X124406497Y-126315685D01*
X124335786Y-126103553D01*
X124300431Y-125856066D01*
X124300431Y-125714645D01*
X124300431Y-125643934D01*
X124335786Y-125396447D01*
X124406497Y-125184315D01*
X124477208Y-125042893D01*
X124618629Y-124830761D01*
X124724695Y-124724695D01*
X124512563Y-124512563D01*
X124052944Y-125255025D01*
X124052944Y-126174264D01*
X124406497Y-126881371D01*
X124512563Y-126987437D01*
X124724695Y-126775305D01*
G37*
G36*
X127199569Y-127199569D02*
G01*
X127270280Y-127128858D01*
X127305635Y-127093503D01*
X127517767Y-126952082D01*
X127659188Y-126881371D01*
X127871320Y-126810660D01*
X128118808Y-126775305D01*
X128260229Y-126775305D01*
X128330940Y-126775305D01*
X128578427Y-126810660D01*
X128790559Y-126881371D01*
X128931981Y-126952082D01*
X129144113Y-127093503D01*
X129250179Y-127199569D01*
X129462311Y-126987437D01*
X128719848Y-126527817D01*
X127800610Y-126527817D01*
X127093503Y-126881371D01*
X126987437Y-126987437D01*
X127199569Y-127199569D01*
G37*
G36*
X127199569Y-129250179D02*
G01*
X127128858Y-129179468D01*
X127093503Y-129144113D01*
X126952082Y-128931981D01*
X126881371Y-128790559D01*
X126810660Y-128578427D01*
X126775305Y-128330940D01*
X126775305Y-128189518D01*
X126775305Y-128118808D01*
X126810660Y-127871320D01*
X126881371Y-127659188D01*
X126952082Y-127517767D01*
X127093503Y-127305635D01*
X127199569Y-127199569D01*
X126987437Y-126987437D01*
X126527817Y-127729899D01*
X126527817Y-128649138D01*
X126881371Y-129356245D01*
X126987437Y-129462311D01*
X127199569Y-129250179D01*
G37*
G36*
X126775305Y-126775305D02*
G01*
X126704594Y-126846016D01*
X126669239Y-126881371D01*
X126457107Y-127022792D01*
X126315685Y-127093503D01*
X126103553Y-127164214D01*
X125856066Y-127199569D01*
X125714645Y-127199569D01*
X125643934Y-127199569D01*
X125396447Y-127164214D01*
X125184315Y-127093503D01*
X125042893Y-127022792D01*
X124830761Y-126881371D01*
X124724695Y-126775305D01*
X124512563Y-126987437D01*
X125255025Y-127447056D01*
X126174264Y-127447056D01*
X126881371Y-127093503D01*
X126987437Y-126987437D01*
X126775305Y-126775305D01*
G37*
G36*
X126775305Y-124724695D02*
G01*
X126846016Y-124795406D01*
X126881371Y-124830761D01*
X127022792Y-125042893D01*
X127093503Y-125184315D01*
X127164214Y-125396447D01*
X127199569Y-125643934D01*
X127199569Y-125785355D01*
X127199569Y-125856066D01*
X127164214Y-126103553D01*
X127093503Y-126315685D01*
X127022792Y-126457107D01*
X126881371Y-126669239D01*
X126775305Y-126775305D01*
X126987437Y-126987437D01*
X127447056Y-126244975D01*
X127447056Y-125325736D01*
X127093503Y-124618629D01*
X126987437Y-124512563D01*
X126775305Y-124724695D01*
G37*
G36*
X124300431Y-122249821D02*
G01*
X124371142Y-122320532D01*
X124406497Y-122355887D01*
X124547918Y-122568019D01*
X124618629Y-122709441D01*
X124689340Y-122921573D01*
X124724695Y-123169060D01*
X124724695Y-123310482D01*
X124724695Y-123381192D01*
X124689340Y-123628680D01*
X124618629Y-123840812D01*
X124547918Y-123982233D01*
X124406497Y-124194365D01*
X124300431Y-124300431D01*
X124512563Y-124512563D01*
X124972183Y-123770101D01*
X124972183Y-122850862D01*
X124618629Y-122143755D01*
X124512563Y-122037689D01*
X124300431Y-122249821D01*
G37*
G36*
X122249821Y-122249821D02*
G01*
X122320532Y-122179111D01*
X122355887Y-122143755D01*
X122568019Y-122002334D01*
X122709441Y-121931623D01*
X122921573Y-121860913D01*
X123169060Y-121825557D01*
X123310482Y-121825557D01*
X123381192Y-121825557D01*
X123628680Y-121860913D01*
X123840812Y-121931623D01*
X123982233Y-122002334D01*
X124194365Y-122143755D01*
X124300431Y-122249821D01*
X124512563Y-122037689D01*
X123770101Y-121578070D01*
X122850862Y-121578070D01*
X122143755Y-121931623D01*
X122037689Y-122037689D01*
X122249821Y-122249821D01*
G37*
G36*
X122249821Y-124300431D02*
G01*
X122179111Y-124229720D01*
X122143755Y-124194365D01*
X122002334Y-123982233D01*
X121931623Y-123840812D01*
X121860913Y-123628680D01*
X121825557Y-123381192D01*
X121825557Y-123239771D01*
X121825557Y-123169060D01*
X121860913Y-122921573D01*
X121931623Y-122709441D01*
X122002334Y-122568019D01*
X122143755Y-122355887D01*
X122249821Y-122249821D01*
X122037689Y-122037689D01*
X121578070Y-122780152D01*
X121578070Y-123699390D01*
X121931623Y-124406497D01*
X122037689Y-124512563D01*
X122249821Y-124300431D01*
G37*
G36*
X124300431Y-124300431D02*
G01*
X124229720Y-124371142D01*
X124194365Y-124406497D01*
X123982233Y-124547918D01*
X123840812Y-124618629D01*
X123628680Y-124689340D01*
X123381192Y-124724695D01*
X123239771Y-124724695D01*
X123169060Y-124724695D01*
X122921573Y-124689340D01*
X122709441Y-124618629D01*
X122568019Y-124547918D01*
X122355887Y-124406497D01*
X122249821Y-124300431D01*
X122037689Y-124512563D01*
X122780152Y-124972183D01*
X123699390Y-124972183D01*
X124406497Y-124618629D01*
X124512563Y-124512563D01*
X124300431Y-124300431D01*
G37*
G36*
X123876167Y-124724695D02*
G01*
X123911522Y-124901472D01*
X124123654Y-124901472D01*
X124159010Y-125078249D01*
X124300431Y-125078249D01*
X125255025Y-124052944D01*
X124972183Y-124123654D01*
X124901472Y-124052944D01*
X124901472Y-123770101D01*
X124866117Y-123734746D01*
X123876167Y-124724695D01*
G37*
G36*
X126987437Y-124512563D02*
G01*
X129462311Y-126987437D01*
X129320889Y-127128858D01*
X128684493Y-126704594D01*
X127800610Y-126669239D01*
X127128858Y-127058148D01*
X126810660Y-127447056D01*
X126633883Y-128048097D01*
X126669239Y-128649138D01*
X126987437Y-129179468D01*
X126987437Y-129462311D01*
X124512563Y-126987437D01*
X124653984Y-126846016D01*
X125573223Y-127340990D01*
X126351041Y-127270280D01*
X126916726Y-126846016D01*
X127305635Y-126174264D01*
X127305635Y-125325736D01*
X126881371Y-124618629D01*
X126987437Y-124512563D01*
G37*
D17*
X126987437Y-124512563D02*
X129462311Y-126987437D01*
X124512563Y-126987437D02*
X126987437Y-129462311D01*
X129462311Y-126987437D02*
G75*
G02*
X126987437Y-129462311I-1237437J-1237437D01*
G01*
X123944822Y-124891915D02*
G75*
G02*
X124891915Y-123944822I-669696J1616789D01*
G01*
X124512563Y-126987437D02*
G75*
G02*
X124133211Y-125080304I1237437J1237437D01*
G01*
X126987437Y-124512563D02*
G75*
G03*
X125080304Y-124133211I-1237437J-1237437D01*
G01*
X125080520Y-124133123D02*
G75*
G02*
X124891915Y-123944822I-55304J133212D01*
G01*
X124133123Y-125080520D02*
G75*
G03*
X123944822Y-124891915I-133212J55304D01*
G01*
D11*
G36*
X119318019Y-89681981D02*
G01*
X118646268Y-89010229D01*
X118646268Y-87596016D01*
X124303122Y-81939161D01*
X125681981Y-83318019D01*
X126106245Y-82893755D01*
X124409188Y-81196699D01*
X124126346Y-81196699D01*
X124055635Y-81267410D01*
X118186649Y-87136396D01*
X117762385Y-87702082D01*
X117656319Y-88373833D01*
X117868451Y-89010229D01*
X118186649Y-89399138D01*
X118893755Y-90106245D01*
X119318019Y-89681981D01*
G37*
X119318019Y-89681981D02*
X118646268Y-89010229D01*
X118646268Y-87596016D01*
X124303122Y-81939161D01*
X125681981Y-83318019D01*
X126106245Y-82893755D01*
X124409188Y-81196699D01*
X124126346Y-81196699D01*
X124055635Y-81267410D01*
X118186649Y-87136396D01*
X117762385Y-87702082D01*
X117656319Y-88373833D01*
X117868451Y-89010229D01*
X118186649Y-89399138D01*
X118893755Y-90106245D01*
X119318019Y-89681981D01*
D18*
G36*
X127060839Y-84696878D02*
G01*
X121403984Y-90353732D01*
X119989771Y-90353732D01*
X119318019Y-89681981D01*
X118893755Y-90106245D01*
X119883705Y-91096194D01*
X120590812Y-91308326D01*
X121333274Y-91202260D01*
X121863604Y-90813351D01*
X127732590Y-84944365D01*
X127838656Y-84696878D01*
X127732590Y-84520101D01*
X126106245Y-82893755D01*
X125681981Y-83318019D01*
X127060839Y-84696878D01*
G37*
D17*
X124303122Y-81939161D02*
X127060839Y-84696878D01*
X124303122Y-81939161D02*
X118646268Y-87596016D01*
X118646268Y-89010229D02*
X118646268Y-87596016D01*
X119989771Y-90353732D02*
X118646268Y-89010229D01*
X119989771Y-90353732D02*
X121403984Y-90353732D01*
X127060839Y-84696878D02*
X121403984Y-90353732D01*
X127732590Y-84520101D02*
X124479899Y-81267410D01*
X119671975Y-90884464D02*
X118115938Y-89328427D01*
X127732590Y-84944365D02*
X121792792Y-90884163D01*
X124055635Y-81267410D02*
X118115938Y-87207107D01*
X121792893Y-90884062D02*
G75*
G02*
X119671573Y-90884062I-1060660J1060660D01*
G01*
X118115938Y-89328427D02*
G75*
G02*
X118115938Y-87207107I1060660J1060660D01*
G01*
X127732590Y-84520101D02*
G75*
G02*
X127732590Y-84944365I-212132J-212132D01*
G01*
X124055635Y-81267410D02*
G75*
G02*
X124479899Y-81267410I212132J-212132D01*
G01*
D16*
X90134835Y-92685681D02*
X85013835Y-91782711D01*
X89683350Y-95246181D02*
X90134835Y-92685681D01*
X84110865Y-96903711D02*
X85013835Y-91782711D01*
X89683350Y-95246181D02*
X89231865Y-97806681D01*
X86671365Y-97355196D02*
X89231865Y-97806681D01*
X86671365Y-97355196D02*
X84110865Y-96903711D01*
D14*
X87148519Y-96088814D02*
X86656115Y-96001990D01*
X87589585Y-93587402D02*
X87097181Y-93500578D01*
X87589585Y-93587402D02*
X87097181Y-93500578D01*
D16*
X128231930Y-51328212D02*
X126453425Y-46441811D01*
X125788729Y-52217465D02*
X128231930Y-51328212D01*
X121567024Y-48220316D02*
X126453425Y-46441811D01*
X125788729Y-52217465D02*
X123345529Y-53106717D01*
X122456276Y-50663516D02*
X123345529Y-53106717D01*
X122456276Y-50663516D02*
X121567024Y-48220316D01*
D14*
X123791572Y-50443553D02*
X123620562Y-49973706D01*
X126178392Y-49574822D02*
X126007382Y-49104975D01*
X126178392Y-49574822D02*
X126007382Y-49104975D01*
D16*
X111047032Y-60491547D02*
X107704537Y-56508116D01*
X109055317Y-62162795D02*
X111047032Y-60491547D01*
X103721106Y-59850611D02*
X107704537Y-56508116D01*
X109055317Y-62162795D02*
X107063601Y-63834042D01*
X105392353Y-61842327D02*
X107063601Y-63834042D01*
X105392353Y-61842327D02*
X103721106Y-59850611D01*
D14*
X106571889Y-61178930D02*
X106250496Y-60795908D01*
X108517642Y-59546250D02*
X108196249Y-59163228D01*
X108517642Y-59546250D02*
X108196249Y-59163228D01*
D16*
X106902904Y-146357469D02*
X103560409Y-150340900D01*
X108894620Y-148028716D02*
X106902904Y-146357469D01*
X107543840Y-153683395D02*
X103560409Y-150340900D01*
X108894620Y-148028716D02*
X110886335Y-149699964D01*
X109215088Y-151691680D02*
X110886335Y-149699964D01*
X109215088Y-151691680D02*
X107543840Y-153683395D01*
D14*
X108356945Y-150645261D02*
X108035552Y-151028283D01*
X106411192Y-149012581D02*
X106089799Y-149395603D01*
X106411192Y-149012581D02*
X106089799Y-149395603D01*
D16*
X123345529Y-156893283D02*
X121567024Y-161779684D01*
X125788729Y-157782535D02*
X123345529Y-156893283D01*
X126453425Y-163558189D02*
X121567024Y-161779684D01*
X125788729Y-157782535D02*
X128231930Y-158671788D01*
X127342678Y-161114988D02*
X128231930Y-158671788D01*
X127342678Y-161114988D02*
X126453425Y-163558189D01*
D14*
X126178392Y-160425178D02*
X126007382Y-160895025D01*
X123791572Y-159556447D02*
X123620562Y-160026294D01*
X123791572Y-159556447D02*
X123620562Y-160026294D01*
D16*
X89231865Y-112193319D02*
X84110865Y-113096289D01*
X89683350Y-114753819D02*
X89231865Y-112193319D01*
X85013835Y-118217289D02*
X84110865Y-113096289D01*
X89683350Y-114753819D02*
X90134835Y-117314319D01*
X87574335Y-117765804D02*
X90134835Y-117314319D01*
X87574335Y-117765804D02*
X85013835Y-118217289D01*
D14*
X87589585Y-116412598D02*
X87097181Y-116499422D01*
X87148519Y-113911186D02*
X86656115Y-113998010D01*
X87148519Y-113911186D02*
X86656115Y-113998010D01*
D16*
X95055353Y-130833334D02*
X90552021Y-133433334D01*
X96355353Y-133085000D02*
X95055353Y-130833334D01*
X93152021Y-137936666D02*
X90552021Y-133433334D01*
X96355353Y-133085000D02*
X97655353Y-135336666D01*
X95403687Y-136636666D02*
X97655353Y-135336666D01*
X95403687Y-136636666D02*
X93152021Y-137936666D01*
D14*
X94955193Y-135359852D02*
X94522181Y-135609852D01*
X93685193Y-133160148D02*
X93252181Y-133410148D01*
X93685193Y-133160148D02*
X93252181Y-133410148D01*
D16*
X97655353Y-74663334D02*
X93152021Y-72063334D01*
X96355353Y-76915000D02*
X97655353Y-74663334D01*
X90552021Y-76566666D02*
X93152021Y-72063334D01*
X96355353Y-76915000D02*
X95055353Y-79166666D01*
X92803687Y-77866666D02*
X95055353Y-79166666D01*
X92803687Y-77866666D02*
X90552021Y-76566666D01*
D14*
X93685193Y-76839852D02*
X93252181Y-76589852D01*
X94955193Y-74640148D02*
X94522181Y-74390148D01*
X94955193Y-74640148D02*
X94522181Y-74390148D01*
D16*
X152300000Y-108340000D02*
X152300000Y-100340000D01*
X137700000Y-108340000D02*
X137700000Y-100340000D01*
X137900000Y-100140000D02*
X152100000Y-100140000D01*
X150000000Y-108540000D02*
X152100000Y-108540000D01*
X152300000Y-108340000D02*
X152100000Y-108540000D01*
X152100000Y-100140000D02*
X152300000Y-100340000D01*
X137700000Y-100340000D02*
X137900000Y-100140000D01*
X137900000Y-108540000D02*
X137700000Y-108340000D01*
X140000000Y-108540000D02*
X137900000Y-108540000D01*
X148700000Y-108540000D02*
X148800000Y-108540000D01*
X147450000Y-108540000D02*
X147550000Y-108540000D01*
X146200000Y-108540000D02*
X146300000Y-108540000D01*
X144950000Y-108540000D02*
X145050000Y-108540000D01*
X143700000Y-108540000D02*
X143800000Y-108540000D01*
X142450000Y-108540000D02*
X142550000Y-108540000D01*
X141200000Y-108540000D02*
X141300000Y-108540000D01*
X154234815Y-62814010D02*
X153881261Y-63167563D01*
X154758074Y-63337269D02*
X154234815Y-62814010D01*
X162804949Y-71723555D02*
X147644579Y-86883925D01*
X154234815Y-63153421D02*
X139074445Y-78313791D01*
X154234815Y-63153421D02*
X162804949Y-71723555D01*
X139074445Y-78313791D02*
X147644579Y-86883925D01*
X157396996Y-66315603D02*
X142236627Y-81475972D01*
X160693174Y-69611781D02*
X145532805Y-84772150D01*
X156274818Y-66713704D02*
X153684686Y-64123572D01*
X150785548Y-67022710D02*
X153684686Y-64123572D01*
X153375680Y-69612842D02*
X150785548Y-67022710D01*
X153375680Y-69612842D02*
X156274818Y-66713704D01*
X161227394Y-72408742D02*
X158222190Y-72939072D01*
X161050617Y-72939072D02*
X158045413Y-73469402D01*
X158222190Y-72939072D02*
X158045413Y-73469402D01*
X158045413Y-73469402D02*
X158045413Y-73822955D01*
X158045413Y-73822955D02*
X158282294Y-74293181D01*
X158282294Y-74293181D02*
X158752520Y-74530062D01*
X159106073Y-74530062D02*
X159636403Y-74353286D01*
X159636403Y-74353286D02*
X160413089Y-73715757D01*
X160413089Y-73715757D02*
X161050617Y-72939072D01*
X161050617Y-72939072D02*
X161227394Y-72408742D01*
X161227394Y-72408742D02*
X161227394Y-72055188D01*
X161227394Y-72055188D02*
X160990513Y-71584962D01*
X160990513Y-71584962D02*
X160520287Y-71348082D01*
X160520287Y-71348082D02*
X160166733Y-71348082D01*
X160166733Y-71348082D02*
X159636403Y-71524858D01*
X159636403Y-71524858D02*
X158859718Y-72162387D01*
X158859718Y-72162387D02*
X158222190Y-72939072D01*
X149783577Y-73204944D02*
X152682715Y-70305806D01*
X157635291Y-76000844D02*
X154630087Y-76531174D01*
X157458514Y-76531174D02*
X154453311Y-77061504D01*
X154630087Y-76531174D02*
X154453311Y-77061504D01*
X156820986Y-77307860D02*
X157458514Y-76531174D01*
X152682715Y-70305806D02*
X150092583Y-67715674D01*
X147193445Y-70614812D02*
X150092583Y-67715674D01*
X149783577Y-73204944D02*
X147193445Y-70614812D01*
X155513971Y-78122165D02*
X156044301Y-77945388D01*
X154453311Y-77061504D02*
X154453311Y-77415058D01*
X154453311Y-77415058D02*
X154690191Y-77885284D01*
X154690191Y-77885284D02*
X155160417Y-78122165D01*
X157635291Y-75647291D02*
X157398410Y-75177065D01*
X157458514Y-76531174D02*
X157635291Y-76000844D01*
X157635291Y-76000844D02*
X157635291Y-75647291D01*
X155267615Y-75754489D02*
X154630087Y-76531174D01*
X157398410Y-75177065D02*
X156928184Y-74940184D01*
X156574631Y-74940184D02*
X156044301Y-75116961D01*
X156044301Y-77945388D02*
X156820986Y-77307860D01*
X156044301Y-75116961D02*
X155267615Y-75754489D01*
X156928184Y-74940184D02*
X156574631Y-74940184D01*
X151921868Y-81714267D02*
X152452198Y-81537490D01*
X150861208Y-80653607D02*
X150861208Y-81007160D01*
X150861208Y-81007160D02*
X151098089Y-81477386D01*
X153866412Y-80123277D02*
X150861208Y-80653607D01*
X143601343Y-74206914D02*
X146500481Y-71307777D01*
X146191475Y-76797047D02*
X143601343Y-74206914D01*
X151098089Y-81477386D02*
X151568315Y-81714267D01*
X154043189Y-79239393D02*
X153806308Y-78769167D01*
X153866412Y-80123277D02*
X154043189Y-79592947D01*
X154043189Y-79592947D02*
X154043189Y-79239393D01*
X151675513Y-79346591D02*
X151037985Y-80123277D01*
X153806308Y-78769167D02*
X153336082Y-78532287D01*
X149090613Y-73897909D02*
X146500481Y-71307777D01*
X153228884Y-80899962D02*
X153866412Y-80123277D01*
X146191475Y-76797047D02*
X149090613Y-73897909D01*
X154043189Y-79592947D02*
X151037985Y-80123277D01*
X152982528Y-78532287D02*
X152452198Y-78709063D01*
X152452198Y-81537490D02*
X153228884Y-80899962D01*
X152452198Y-78709063D02*
X151675513Y-79346591D01*
X153336082Y-78532287D02*
X152982528Y-78532287D01*
X151037985Y-80123277D02*
X150861208Y-80653607D01*
X148329766Y-85306370D02*
X148860096Y-85129593D01*
X147269106Y-84599263D02*
X147505986Y-85069489D01*
X150274310Y-83715379D02*
X147269106Y-84245709D01*
X150451086Y-83185049D02*
X150451086Y-82831496D01*
X148083411Y-82938694D02*
X147445882Y-83715379D01*
X142599373Y-80389149D02*
X140009240Y-77799017D01*
X147505986Y-85069489D02*
X147976212Y-85306370D01*
X150214205Y-82361270D02*
X149743979Y-82124389D01*
X145498510Y-77490011D02*
X142908378Y-74899879D01*
X149636781Y-84492065D02*
X150274310Y-83715379D01*
X142599373Y-80389149D02*
X145498510Y-77490011D01*
X150451086Y-83185049D02*
X147445882Y-83715379D01*
X149390426Y-82124389D02*
X148860096Y-82301166D01*
X148860096Y-85129593D02*
X149636781Y-84492065D01*
X148860096Y-82301166D02*
X148083411Y-82938694D01*
X149743979Y-82124389D02*
X149390426Y-82124389D01*
X147445882Y-83715379D02*
X147269106Y-84245709D01*
X140009240Y-77799017D02*
X142908378Y-74899879D01*
X147269106Y-84245709D02*
X147269106Y-84599263D01*
X150451086Y-82831496D02*
X150214205Y-82361270D01*
X150274310Y-83715379D02*
X150451086Y-83185049D01*
X158752520Y-74530062D02*
X159106073Y-74530062D01*
X155160417Y-78122165D02*
X155513971Y-78122165D01*
X151568315Y-81714267D02*
X151921868Y-81714267D01*
X147976212Y-85306370D02*
X148329766Y-85306370D01*
X143266883Y-119984299D02*
X143266883Y-119630745D01*
X139674780Y-116392196D02*
X139674780Y-116038643D01*
X136082678Y-112800094D02*
X136082678Y-112446540D01*
X132490575Y-109207991D02*
X132490575Y-108854438D01*
X141675892Y-117686201D02*
X141145562Y-117509425D01*
X140792009Y-117509425D02*
X140321783Y-117746306D01*
X142206222Y-120691405D02*
X142559776Y-120691405D01*
X135759530Y-127951271D02*
X132860392Y-125052133D01*
X141675892Y-120514629D02*
X142206222Y-120691405D01*
X140084902Y-118216532D02*
X140084902Y-118570085D01*
X140261679Y-119100415D02*
X140899207Y-119877100D01*
X143090106Y-119100415D02*
X142452578Y-118323730D01*
X140084902Y-118570085D02*
X140261679Y-119100415D01*
X141145562Y-117509425D02*
X141675892Y-120514629D01*
X138349662Y-125361138D02*
X135450524Y-122462001D01*
X142452578Y-118323730D02*
X141675892Y-117686201D01*
X135450524Y-122462001D02*
X132860392Y-125052133D01*
X140321783Y-117746306D02*
X140084902Y-118216532D01*
X143030002Y-120454525D02*
X143266883Y-119984299D01*
X138349662Y-125361138D02*
X135759530Y-127951271D01*
X140899207Y-119877100D02*
X141675892Y-120514629D01*
X141145562Y-117509425D02*
X140792009Y-117509425D01*
X141675892Y-117686201D02*
X142206222Y-120691405D01*
X142559776Y-120691405D02*
X143030002Y-120454525D01*
X143266883Y-119630745D02*
X143090106Y-119100415D01*
X138083790Y-116922526D02*
X138614120Y-117099303D01*
X136492800Y-114624429D02*
X136492800Y-114977983D01*
X136669576Y-115508313D02*
X137307104Y-116284998D01*
X139498003Y-115508313D02*
X138860475Y-114731627D01*
X136492800Y-114977983D02*
X136669576Y-115508313D01*
X137553460Y-113917322D02*
X138083790Y-116922526D01*
X134757560Y-121769036D02*
X131858422Y-118869898D01*
X138860475Y-114731627D02*
X138083790Y-114094099D01*
X131858422Y-118869898D02*
X129268290Y-121460030D01*
X136729680Y-114154203D02*
X136492800Y-114624429D01*
X137307104Y-116284998D02*
X138083790Y-116922526D01*
X137553460Y-113917322D02*
X137199906Y-113917322D01*
X138083790Y-114094099D02*
X137553460Y-113917322D01*
X137199906Y-113917322D02*
X136729680Y-114154203D01*
X139437899Y-116862422D02*
X139674780Y-116392196D01*
X134757560Y-121769036D02*
X132167427Y-124359168D01*
X132167427Y-124359168D02*
X129268290Y-121460030D01*
X138083790Y-114094099D02*
X138614120Y-117099303D01*
X138967673Y-117099303D02*
X139437899Y-116862422D01*
X138614120Y-117099303D02*
X138967673Y-117099303D01*
X139674780Y-116038643D02*
X139498003Y-115508313D01*
X132900697Y-111032327D02*
X132900697Y-111385880D01*
X133077474Y-111916210D02*
X133715002Y-112692896D01*
X135905901Y-111916210D02*
X135268373Y-111139525D01*
X132900697Y-111385880D02*
X133077474Y-111916210D01*
X133137578Y-110562101D02*
X132900697Y-111032327D01*
X133715002Y-112692896D02*
X134491687Y-113330424D01*
X133961357Y-110325220D02*
X133607804Y-110325220D01*
X134491687Y-110501997D02*
X133961357Y-110325220D01*
X133607804Y-110325220D02*
X133137578Y-110562101D01*
X135845797Y-113270320D02*
X136082678Y-112800094D01*
X135375571Y-113507200D02*
X135845797Y-113270320D01*
X135022017Y-113507200D02*
X135375571Y-113507200D01*
X136082678Y-112446540D02*
X135905901Y-111916210D01*
X131165457Y-118176934D02*
X128575325Y-120767066D01*
X128575325Y-120767066D02*
X125676187Y-117867928D01*
X128266319Y-115277796D02*
X125676187Y-117867928D01*
X135268373Y-111139525D02*
X134491687Y-110501997D01*
X134491687Y-113330424D02*
X135022017Y-113507200D01*
X134491687Y-110501997D02*
X135022017Y-113507200D01*
X133961357Y-110325220D02*
X134491687Y-113330424D01*
X131165457Y-118176934D02*
X128266319Y-115277796D01*
X130122900Y-109100793D02*
X130899585Y-109738321D01*
X129485371Y-108324108D02*
X130122900Y-109100793D01*
X129308595Y-107793778D02*
X129485371Y-108324108D01*
X129308595Y-107440224D02*
X129308595Y-107793778D01*
X129545475Y-106969998D02*
X129308595Y-107440224D01*
X130015701Y-106733117D02*
X129545475Y-106969998D01*
X130369255Y-106733117D02*
X130015701Y-106733117D01*
X130899585Y-106909894D02*
X130369255Y-106733117D01*
X131676270Y-107547422D02*
X130899585Y-106909894D01*
X132313799Y-108324108D02*
X131676270Y-107547422D01*
X132490575Y-108854438D02*
X132313799Y-108324108D01*
X132253694Y-109678217D02*
X132490575Y-109207991D01*
X131783468Y-109915098D02*
X132253694Y-109678217D01*
X131429915Y-109915098D02*
X131783468Y-109915098D01*
X130899585Y-109738321D02*
X131429915Y-109915098D01*
X130899585Y-106909894D02*
X131429915Y-109915098D01*
X130369255Y-106733117D02*
X130899585Y-109738321D01*
X127573355Y-114584831D02*
X124674217Y-111685693D01*
X127573355Y-114584831D02*
X124983223Y-117174963D01*
X124983223Y-117174963D02*
X122084085Y-114275825D01*
X124674217Y-111685693D02*
X122084085Y-114275825D01*
X127572294Y-107267337D02*
X142732663Y-122427706D01*
X124276116Y-110563515D02*
X139436485Y-125723884D01*
X136274304Y-128886066D02*
X144844438Y-120315932D01*
X121113934Y-113725696D02*
X129684068Y-105155562D01*
X121113934Y-113725696D02*
X136274304Y-128886066D01*
X129684068Y-105155562D02*
X144844438Y-120315932D01*
X121297782Y-113202437D02*
X120774523Y-113725696D01*
X120774523Y-113725696D02*
X121128076Y-114079250D01*
X136274303Y-80774522D02*
X135920749Y-81128075D01*
X136797562Y-81297781D02*
X136274303Y-80774522D01*
X144844437Y-89684067D02*
X129684067Y-104844437D01*
X136274303Y-81113933D02*
X121113933Y-96274303D01*
X136274303Y-81113933D02*
X144844437Y-89684067D01*
X121113933Y-96274303D02*
X129684067Y-104844437D01*
X139436484Y-84276115D02*
X124276115Y-99436484D01*
X142732662Y-87572293D02*
X127572293Y-102732662D01*
X138314306Y-84674216D02*
X135724174Y-82084084D01*
X132825036Y-84983222D02*
X135724174Y-82084084D01*
X135415168Y-87573354D02*
X132825036Y-84983222D01*
X135415168Y-87573354D02*
X138314306Y-84674216D01*
X143266882Y-90369254D02*
X140261678Y-90899584D01*
X143090105Y-90899584D02*
X140084901Y-91429914D01*
X140261678Y-90899584D02*
X140084901Y-91429914D01*
X140084901Y-91429914D02*
X140084901Y-91783467D01*
X140084901Y-91783467D02*
X140321782Y-92253693D01*
X140321782Y-92253693D02*
X140792008Y-92490574D01*
X141145561Y-92490574D02*
X141675891Y-92313798D01*
X141675891Y-92313798D02*
X142452577Y-91676269D01*
X142452577Y-91676269D02*
X143090105Y-90899584D01*
X143090105Y-90899584D02*
X143266882Y-90369254D01*
X143266882Y-90369254D02*
X143266882Y-90015700D01*
X143266882Y-90015700D02*
X143030001Y-89545474D01*
X143030001Y-89545474D02*
X142559775Y-89308594D01*
X142559775Y-89308594D02*
X142206221Y-89308594D01*
X142206221Y-89308594D02*
X141675891Y-89485370D01*
X141675891Y-89485370D02*
X140899206Y-90122899D01*
X140899206Y-90122899D02*
X140261678Y-90899584D01*
X131823065Y-91165456D02*
X134722203Y-88266318D01*
X139674779Y-93961356D02*
X136669575Y-94491686D01*
X139498002Y-94491686D02*
X136492799Y-95022016D01*
X136669575Y-94491686D02*
X136492799Y-95022016D01*
X138860474Y-95268372D02*
X139498002Y-94491686D01*
X134722203Y-88266318D02*
X132132071Y-85676186D01*
X129232933Y-88575324D02*
X132132071Y-85676186D01*
X131823065Y-91165456D02*
X129232933Y-88575324D01*
X137553459Y-96082677D02*
X138083789Y-95905900D01*
X136492799Y-95022016D02*
X136492799Y-95375570D01*
X136492799Y-95375570D02*
X136729679Y-95845796D01*
X136729679Y-95845796D02*
X137199905Y-96082677D01*
X139674779Y-93607803D02*
X139437898Y-93137577D01*
X139498002Y-94491686D02*
X139674779Y-93961356D01*
X139674779Y-93961356D02*
X139674779Y-93607803D01*
X137307103Y-93715001D02*
X136669575Y-94491686D01*
X139437898Y-93137577D02*
X138967672Y-92900696D01*
X138614119Y-92900696D02*
X138083789Y-93077473D01*
X138083789Y-95905900D02*
X138860474Y-95268372D01*
X138083789Y-93077473D02*
X137307103Y-93715001D01*
X138967672Y-92900696D02*
X138614119Y-92900696D01*
X133961356Y-99674779D02*
X134491686Y-99498002D01*
X132900696Y-98614119D02*
X132900696Y-98967672D01*
X132900696Y-98967672D02*
X133137577Y-99437898D01*
X135905900Y-98083789D02*
X132900696Y-98614119D01*
X125640831Y-92167426D02*
X128539969Y-89268289D01*
X128230963Y-94757559D02*
X125640831Y-92167426D01*
X133137577Y-99437898D02*
X133607803Y-99674779D01*
X136082677Y-97199905D02*
X135845796Y-96729679D01*
X135905900Y-98083789D02*
X136082677Y-97553459D01*
X136082677Y-97553459D02*
X136082677Y-97199905D01*
X133715001Y-97307103D02*
X133077473Y-98083789D01*
X135845796Y-96729679D02*
X135375570Y-96492799D01*
X131130101Y-91858421D02*
X128539969Y-89268289D01*
X135268372Y-98860474D02*
X135905900Y-98083789D01*
X128230963Y-94757559D02*
X131130101Y-91858421D01*
X136082677Y-97553459D02*
X133077473Y-98083789D01*
X135022016Y-96492799D02*
X134491686Y-96669575D01*
X134491686Y-99498002D02*
X135268372Y-98860474D01*
X134491686Y-96669575D02*
X133715001Y-97307103D01*
X135375570Y-96492799D02*
X135022016Y-96492799D01*
X133077473Y-98083789D02*
X132900696Y-98614119D01*
X130369254Y-103266882D02*
X130899584Y-103090105D01*
X129308594Y-102559775D02*
X129545474Y-103030001D01*
X132313798Y-101675891D02*
X129308594Y-102206221D01*
X132490574Y-101145561D02*
X132490574Y-100792008D01*
X130122899Y-100899206D02*
X129485370Y-101675891D01*
X124638861Y-98349661D02*
X122048728Y-95759529D01*
X129545474Y-103030001D02*
X130015700Y-103266882D01*
X132253693Y-100321782D02*
X131783467Y-100084901D01*
X127537998Y-95450523D02*
X124947866Y-92860391D01*
X131676269Y-102452577D02*
X132313798Y-101675891D01*
X124638861Y-98349661D02*
X127537998Y-95450523D01*
X132490574Y-101145561D02*
X129485370Y-101675891D01*
X131429914Y-100084901D02*
X130899584Y-100261678D01*
X130899584Y-103090105D02*
X131676269Y-102452577D01*
X130899584Y-100261678D02*
X130122899Y-100899206D01*
X131783467Y-100084901D02*
X131429914Y-100084901D01*
X129485370Y-101675891D02*
X129308594Y-102206221D01*
X122048728Y-95759529D02*
X124947866Y-92860391D01*
X129308594Y-102206221D02*
X129308594Y-102559775D01*
X132490574Y-100792008D02*
X132253693Y-100321782D01*
X132313798Y-101675891D02*
X132490574Y-101145561D01*
X140792008Y-92490574D02*
X141145561Y-92490574D01*
X137199905Y-96082677D02*
X137553459Y-96082677D01*
X133607803Y-99674779D02*
X133961356Y-99674779D01*
X130015700Y-103266882D02*
X130369254Y-103266882D01*
X127466180Y-62089074D02*
X130849074Y-60857802D01*
X124948912Y-55172936D02*
X128331806Y-53941664D01*
X131972698Y-58448182D02*
X130741426Y-55065288D01*
X125056560Y-60965450D02*
X123825288Y-57582556D01*
X114007894Y-70865350D02*
X116765654Y-68551315D01*
X109276978Y-65227263D02*
X112034738Y-62913228D01*
X116997377Y-65902711D02*
X114683342Y-63144951D01*
X111359290Y-70633627D02*
X109045255Y-67875867D01*
X116604958Y-141640196D02*
X113847198Y-139326161D01*
X111874042Y-147278283D02*
X109116282Y-144964248D01*
X111198594Y-139557884D02*
X108884559Y-142315644D01*
X116836681Y-144288800D02*
X114522646Y-147046560D01*
X130849074Y-149142197D02*
X127466180Y-147910925D01*
X128331806Y-156058335D02*
X124948912Y-154827063D01*
X125056560Y-149034549D02*
X123825288Y-152417443D01*
X131972698Y-151551817D02*
X130741426Y-154934711D01*
X99696271Y-114816038D02*
X99071138Y-111270730D01*
X92448086Y-116094088D02*
X91822953Y-112548780D01*
X96893241Y-109745750D02*
X93347933Y-110370883D01*
X98171291Y-116993935D02*
X94625983Y-117619068D01*
X105785703Y-129718846D02*
X103985703Y-126601154D01*
X99411757Y-133398846D02*
X97611757Y-130281154D01*
X101417576Y-125913027D02*
X98299884Y-127713027D01*
X105097576Y-132286973D02*
X101979884Y-134086973D01*
X101417576Y-84086972D02*
X98299884Y-82286972D01*
X105097576Y-77713026D02*
X101979884Y-75913026D01*
X97611757Y-79718845D02*
X99411757Y-76601153D01*
X103985703Y-83398845D02*
X105785703Y-80281153D01*
X96893241Y-100254250D02*
X93347933Y-99629117D01*
X98171291Y-93006065D02*
X94625983Y-92380932D01*
X91822953Y-97451220D02*
X92448086Y-93905912D01*
X99071138Y-98729270D02*
X99696271Y-95183962D01*
X94556134Y-60727589D02*
X95102541Y-60076407D01*
X98804997Y-55663991D02*
X95127984Y-52578611D01*
X78663074Y-59910508D02*
X89076233Y-47500588D01*
X92753246Y-50585969D02*
X89076233Y-47500588D01*
X82340087Y-62995889D02*
X78663074Y-59910508D01*
X88391838Y-68073911D02*
X84714825Y-64988531D01*
X96188852Y-58781792D02*
X98804997Y-55663991D01*
X92923454Y-62673342D02*
X93469860Y-62022160D01*
X91290773Y-64619095D02*
X91837180Y-63967913D01*
X88391838Y-68073911D02*
X90204499Y-65913666D01*
X138735035Y-131686208D02*
X139088588Y-132039762D01*
X139258294Y-131162949D02*
X138735035Y-131686208D01*
X147644580Y-123116074D02*
X162804950Y-138276444D01*
X139074446Y-131686208D02*
X154234816Y-146846578D01*
X139074446Y-131686208D02*
X147644580Y-123116074D01*
X154234816Y-146846578D02*
X162804950Y-138276444D01*
X142236628Y-128524027D02*
X157396997Y-143684396D01*
X145532806Y-125227849D02*
X160693175Y-140388218D01*
X142634729Y-129646205D02*
X140044597Y-132236337D01*
X142943735Y-135135475D02*
X140044597Y-132236337D01*
X145533867Y-132545343D02*
X142943735Y-135135475D01*
X145533867Y-132545343D02*
X142634729Y-129646205D01*
X148329767Y-124693629D02*
X148860097Y-127698833D01*
X148860097Y-124870406D02*
X149390427Y-127875610D01*
X148860097Y-127698833D02*
X149390427Y-127875610D01*
X149390427Y-127875610D02*
X149743980Y-127875610D01*
X149743980Y-127875610D02*
X150214206Y-127638729D01*
X150214206Y-127638729D02*
X150451087Y-127168503D01*
X150451087Y-126814950D02*
X150274311Y-126284620D01*
X150274311Y-126284620D02*
X149636782Y-125507934D01*
X149636782Y-125507934D02*
X148860097Y-124870406D01*
X148860097Y-124870406D02*
X148329767Y-124693629D01*
X148329767Y-124693629D02*
X147976213Y-124693629D01*
X147976213Y-124693629D02*
X147505987Y-124930510D01*
X147505987Y-124930510D02*
X147269107Y-125400736D01*
X147269107Y-125400736D02*
X147269107Y-125754290D01*
X147269107Y-125754290D02*
X147445883Y-126284620D01*
X147445883Y-126284620D02*
X148083412Y-127061305D01*
X148083412Y-127061305D02*
X148860097Y-127698833D01*
X149125969Y-136137446D02*
X146226831Y-133238308D01*
X151921869Y-128285732D02*
X152452199Y-131290936D01*
X152452199Y-128462509D02*
X152982529Y-131467712D01*
X152452199Y-131290936D02*
X152982529Y-131467712D01*
X153228885Y-129100037D02*
X152452199Y-128462509D01*
X146226831Y-133238308D02*
X143636699Y-135828440D01*
X146535837Y-138727578D02*
X143636699Y-135828440D01*
X149125969Y-136137446D02*
X146535837Y-138727578D01*
X154043190Y-130407052D02*
X153866413Y-129876722D01*
X152982529Y-131467712D02*
X153336083Y-131467712D01*
X153336083Y-131467712D02*
X153806309Y-131230832D01*
X153806309Y-131230832D02*
X154043190Y-130760606D01*
X151568316Y-128285732D02*
X151098090Y-128522613D01*
X152452199Y-128462509D02*
X151921869Y-128285732D01*
X151921869Y-128285732D02*
X151568316Y-128285732D01*
X151675514Y-130653408D02*
X152452199Y-131290936D01*
X151098090Y-128522613D02*
X150861209Y-128992839D01*
X150861209Y-129346392D02*
X151037986Y-129876722D01*
X153866413Y-129876722D02*
X153228885Y-129100037D01*
X151037986Y-129876722D02*
X151675514Y-130653408D01*
X150861209Y-128992839D02*
X150861209Y-129346392D01*
X157635292Y-133999155D02*
X157458515Y-133468825D01*
X156574632Y-135059815D02*
X156928185Y-135059815D01*
X156928185Y-135059815D02*
X157398411Y-134822934D01*
X156044302Y-132054611D02*
X156574632Y-135059815D01*
X150127939Y-142319680D02*
X147228802Y-139420542D01*
X152718072Y-139729548D02*
X150127939Y-142319680D01*
X157398411Y-134822934D02*
X157635292Y-134352708D01*
X155160418Y-131877834D02*
X154690192Y-132114715D01*
X156044302Y-132054611D02*
X155513972Y-131877834D01*
X155513972Y-131877834D02*
X155160418Y-131877834D01*
X155267616Y-134245510D02*
X156044302Y-134883038D01*
X154690192Y-132114715D02*
X154453312Y-132584941D01*
X149818934Y-136830410D02*
X147228802Y-139420542D01*
X156820987Y-132692139D02*
X156044302Y-132054611D01*
X152718072Y-139729548D02*
X149818934Y-136830410D01*
X155513972Y-131877834D02*
X156044302Y-134883038D01*
X154453312Y-132938495D02*
X154630088Y-133468825D01*
X157458515Y-133468825D02*
X156820987Y-132692139D01*
X154630088Y-133468825D02*
X155267616Y-134245510D01*
X154453312Y-132584941D02*
X154453312Y-132938495D01*
X156044302Y-134883038D02*
X156574632Y-135059815D01*
X161227395Y-137591257D02*
X161050618Y-137060927D01*
X160520288Y-138651917D02*
X160990514Y-138415037D01*
X159636404Y-135646713D02*
X160166734Y-138651917D01*
X159106074Y-135469937D02*
X158752521Y-135469937D01*
X158859719Y-137837612D02*
X159636404Y-138475141D01*
X156310174Y-143321650D02*
X153720042Y-145911783D01*
X160990514Y-138415037D02*
X161227395Y-137944811D01*
X158282295Y-135706818D02*
X158045414Y-136177044D01*
X153411036Y-140422513D02*
X150820904Y-143012645D01*
X160413090Y-136284242D02*
X159636404Y-135646713D01*
X156310174Y-143321650D02*
X153411036Y-140422513D01*
X159106074Y-135469937D02*
X159636404Y-138475141D01*
X158045414Y-136530597D02*
X158222191Y-137060927D01*
X161050618Y-137060927D02*
X160413090Y-136284242D01*
X158222191Y-137060927D02*
X158859719Y-137837612D01*
X158045414Y-136177044D02*
X158045414Y-136530597D01*
X159636404Y-138475141D02*
X160166734Y-138651917D01*
X153720042Y-145911783D02*
X150820904Y-143012645D01*
X160166734Y-138651917D02*
X160520288Y-138651917D01*
X158752521Y-135469937D02*
X158282295Y-135706818D01*
X159636404Y-135646713D02*
X159106074Y-135469937D01*
X150451087Y-127168503D02*
X150451087Y-126814950D01*
X154043190Y-130760606D02*
X154043190Y-130407052D01*
X157635292Y-134352708D02*
X157635292Y-133999155D01*
X161227395Y-137944811D02*
X161227395Y-137591257D01*
D11*
X132738095Y-103004380D02*
X133309523Y-103004380D01*
X133023809Y-104004380D02*
X133023809Y-103004380D01*
X133642857Y-104004380D02*
X133642857Y-103004380D01*
X134023809Y-103004380D01*
X134119047Y-103052000D01*
X134166666Y-103099619D01*
X134214285Y-103194857D01*
X134214285Y-103337714D01*
X134166666Y-103432952D01*
X134119047Y-103480571D01*
X134023809Y-103528190D01*
X133642857Y-103528190D01*
X135166666Y-104004380D02*
X134595238Y-104004380D01*
X134880952Y-104004380D02*
X134880952Y-103004380D01*
X134785714Y-103147238D01*
X134690476Y-103242476D01*
X134595238Y-103290095D01*
X126745982Y-134846997D02*
X127284730Y-135385745D01*
X118614254Y-126715269D02*
X119153002Y-127254017D01*
X118614254Y-127254017D02*
X119153002Y-126715269D01*
X126346997Y-82754017D02*
X126885745Y-82215269D01*
X126885745Y-82754017D02*
X126346997Y-82215269D01*
X118215269Y-90885745D02*
X118754017Y-90346997D01*
M02*
